<?xml version="1.0" encoding="UTF-8"?>
<svg width="424px" height="399px" viewBox="0 0 424 399" version="1.1" xmlns="http://www.w3.org/2000/svg" xmlns:xlink="http://www.w3.org/1999/xlink">
    <!-- Generator: Sketch 63.1 (92452) - https://sketch.com -->
    <title>Group 17</title>
    <desc>Created with Sketch.</desc>
    <g id="Page-1" stroke="none" stroke-width="1" fill="none" fill-rule="evenodd">
        <g id="Group-17">
            <g id="Group-10" transform="translate(322.000000, 38.000000)" fill-rule="nonzero">
                <g id="Group" fill="#000000">
                    <path d="M40.6867534,17.6736173 C41.815925,19.4262038 40.8227043,20.3554077 39.7086184,21.209693 C38.932992,21.8044239 38.1742522,22.4836623 37.2938359,22.8709234 C32.8922072,24.8069991 30.1564158,27.344294 33.0115863,32.4928795 C33.5882628,33.5327276 33.5260293,34.9380107 32.3214744,35.7916468 C31.1984731,36.5874999 30.2641539,35.7364602 29.2650342,35.3134196 C26.9091531,34.3159425 24.5565368,33.2919032 22.1373857,32.4656869 C20.0044339,31.7371961 18.1059853,32.5450132 16.2361094,33.6592715 C13.5200645,35.2777519 11.2689267,37.7134775 8.05780225,38.4473839 C7.07016584,38.6731081 5.88186769,39.46949 4.96495386,38.3689113 C4.07242433,37.2975856 4.86131358,36.2409824 5.40554456,35.3536506 C6.93200832,32.8646834 8.40551497,30.3111292 10.2333768,28.0468352 C11.5918943,26.3639541 11.4736633,25.1065852 10.2620617,23.5509783 C8.79296857,21.6647738 6.99579631,19.9309466 6.71130791,17.1920553 C9.34474208,15.6041193 12.3507248,15.5426546 15.1993886,15.2696403 C18.306512,14.9718538 20.502418,13.8261624 21.9087148,11.0248212 C22.6125608,9.6227509 23.6597296,8.38828595 24.5635165,7.08611322 C26.8546873,3.78504462 28.3936701,3.88501669 30.2108367,7.50007111 C30.6431862,8.36020224 31.2385511,9.35754493 31.1418226,10.224307 C30.6355757,14.7611639 33.477305,15.8217709 37.1151501,16.1647584 C38.3763091,16.2836694 39.4867022,16.7468432 40.6867534,17.6736173 M25.5912767,30.688778 C26.7708607,30.7616568 27.7639907,31.8625816 29.1538507,31.3239299 C29.7927392,29.8446315 28.7390188,28.7586125 28.17011,27.640411 C26.9481953,25.2386148 26.8806704,23.565817 30.15574,22.9807794 C31.941632,22.6617549 33.4722614,21.6789303 34.1514751,20.0974629 C32.3845644,17.6312164 28.701214,19.9882533 27.6637953,17.0727968 C26.8498466,14.7853672 28.2476771,12.0889529 26.765547,9.34986084 C24.8853581,11.4726129 23.6112074,13.5165996 22.7465755,15.7842035 C21.9715341,17.8169508 20.7354124,18.4714015 18.4916822,18.2047027 C15.9147855,17.8984024 13.1743106,17.3563704 10.6791911,18.943739 C11.1070599,20.8628529 12.4003043,22.0273613 13.5964829,23.2005491 C15.5561749,25.1226078 15.5917501,26.7041445 13.5174977,28.7210107 C11.5753904,30.6094138 9.5709369,32.5861243 8.13395136,35.6977893 C13.9317216,33.1454606 18.002728,26.7510261 25.5912767,30.688778 Z" id="Shape"></path>
                    <path d="M41.4739989,29.6321639 C42.2870917,30.1670662 42.8904278,30.5620778 43.5056064,30.9380943 C44.4466346,31.5132334 46.2324144,31.6561045 45.2804876,33.3565908 C44.557008,34.6490594 43.100861,34.2097201 41.990558,33.8305382 C40.3332092,33.264549 38.7653386,32.2330818 38.7956902,30.3514829 C38.8212683,28.7666698 40.1804616,29.0842789 41.4739989,29.6321639 Z" id="Path"></path>
                    <path d="M43.936875,8.48345301 C42.8412977,9.36905462 41.7302745,10.1564129 41.0049483,8.76138838 C40.0649104,6.95346202 41.5432126,5.83495668 42.8068484,4.89572856 C43.7877302,4.16667251 45.0587963,3.52005482 46.0873216,4.68622549 C47.0653665,5.79518288 46.1567611,6.66703478 45.2696353,7.39517424 C44.8943406,7.70320765 44.5141823,8.00540404 43.936875,8.48345301 Z" id="Path"></path>
                    <path d="M16.0646963,4.78770794 C13.4806836,5.10942241 11.9484562,3.06399401 9.77817319,2.63053045 C8.96730856,2.4685722 8.51512258,1.86201099 8.76279697,1.00541259 C9.00961625,0.151881699 9.79726673,-0.108766843 10.5227059,0.0391188759 C13.2047744,0.585904709 15.6841551,1.46105126 16.0646963,4.78770794 Z" id="Path"></path>
                    <path d="M24.9431567,42.7926359 C25.308927,43.9014844 26.1620316,44.6691311 25.4468596,45.6813133 C22.1841062,45.0165235 20.9981726,42.6149443 22.0767732,38.8103066 C24.7843747,38.7493188 24.5388164,40.8583744 24.9431567,42.7926359 Z" id="Path"></path>
                    <path d="M21.9629328,2.99100207 C21.603129,4.88013907 21.4549744,6.61205931 19.3028618,7.37064299 C17.0515447,5.36112043 18.0629125,3.09939663 19.4012564,1.46242214 C20.5070108,0.109970862 21.7734842,0.936945954 21.9629328,2.99100207 Z" id="Path"></path>
                    <path d="M18.8744072,40.7493876 C16.6016769,41.3077431 16.5648187,44.5457906 13.8354667,44.3747299 C12.6675909,41.2861288 15.129026,39.9958835 16.9326608,38.7798879 C18.003628,38.0578609 19.3193435,38.776182 18.8744072,40.7493876 Z" id="Path"></path>
                    <path d="M5.19294963,25.3074678 C3.35351544,25.4014648 1.76853232,26.8271118 -2.29354397e-15,25.1533156 C1.46148347,22.8391426 3.76026472,22.5315664 5.88463739,23.1960604 C7.49902553,23.7010201 7.48524636,24.9338111 5.19294963,25.3074678 Z" id="Path"></path>
                    <path d="M8.93544887,11.6881064 C9.59282227,12.0780282 9.94882122,12.4620889 9.68266051,12.962443 C9.54400792,13.223093 9.10893375,13.4829966 8.80963032,13.4808683 C7.03040284,13.4682251 5.15654141,13.9241939 3.57243702,12.7623791 C3.35369546,12.6019195 3.34203232,11.6702309 3.55782414,11.5020536 C5.25894365,10.1761326 6.98575411,11.1731386 8.93544887,11.6881064 Z" id="Path"></path>
                </g>
                <path d="M25.5912764,30.688778 C26.7708609,30.7616568 27.7639909,31.8625816 29.153851,31.3239299 C29.7927396,29.8446315 28.7390188,28.7586125 28.1701104,27.640411 C26.9481949,25.2386148 26.8806697,23.565817 30.1557396,22.9807794 C31.9416317,22.6617549 33.4722612,21.6789303 34.1514754,20.0974629 C32.3845644,17.6312164 28.7012144,19.9882533 27.6637955,17.0727968 C26.849847,14.7853672 28.2476771,12.0889529 26.7655471,9.34986084 C24.8853581,11.4726129 23.6112067,13.5165996 22.7465751,15.7842035 C21.9715341,17.8169508 20.7354126,18.4714015 18.491682,18.2047027 C15.914786,17.8984024 13.1743109,17.3563704 10.6791907,18.943739 C11.1070596,20.8628529 12.4003043,22.0273613 13.5964825,23.2005491 C15.5561747,25.1226078 15.5917495,26.7041445 13.5174979,28.7210107 C11.5753905,30.6094138 9.57093676,32.5861243 8.13395192,35.6977893 C13.931721,33.1454606 18.002728,26.7510261 25.5912764,30.688778 Z" id="Path" fill="#FCE35C"></path>
            </g>
            <g id="Group" transform="translate(15.000000, 0.000000)" stroke="#1E1E1E" stroke-width="4">
                <g transform="translate(10.615800, 0.311348)" id="Shape">
                    <path d="M4.31146457,367.475042 C3.92354359,306.305439 1.65143502,61.040702 1.03076145,0.105628442 M2.62677919,366.536924 C2.2166913,305.495246 0.720424671,62.2986339 0.232752586,1.15035154"></path>
                </g>
                <g transform="translate(10.178295, 2.315774)" id="Shape">
                    <path d="M12.8398927,29.911955 C7.81908688,22.7054977 8.36217625,14.8913954 0.105001167,0.435839103 M12.8066423,30.1678055 C9.29318659,18.8890603 5.42506028,11.3201481 1.05817842,0.116025911"></path>
                </g>
                <g transform="translate(0.203184, 2.315774)" id="Shape">
                    <path d="M0.0717507972,30.0612011 C-0.0390837676,22.833423 5.40289337,14.9979998 10.080112,0.435839103 M0.0385004278,30.3170517 C3.56303959,19.1875526 6.73290814,11.5759986 11.0332893,0.116025911"></path>
                </g>
            </g>
            <g id="Group" transform="translate(27.000000, 353.000000)" stroke="#1E1E1E" stroke-width="4">
                <g transform="translate(0.034051, 10.592941)" id="Shape">
                    <path d="M1.76651823,5.21398407 C67.7678041,4.68460425 330.910394,2.3870958 396.507026,1.81536559 M0.371524932,4.40932674 C66.3728108,3.51996863 330.314061,0.968357867 396.006532,0.22722611"></path>
                </g>
                <g transform="translate(365.702141, 9.941397)" id="Shape">
                    <path d="M1.38434449,13.6368243 C9.15797125,9.22179657 15.7708784,6.42667109 29.1244783,0.741131757 M0.340761721,12.0275097 C9.73300666,9.25355936 17.4427406,5.46319981 30.2426027,0.381153475"></path>
                </g>
                <g transform="translate(365.702141, 0.005345)" id="Shape">
                    <path d="M1.16071961,1.84712838 C9.04083441,2.27063224 15.7069856,4.32462597 29.1244783,10.6771839 M0.106488038,0.237813707 C9.5732746,4.00699807 17.3575502,6.74918557 30.2426027,10.3172056"></path>
                </g>
            </g>
            <g id="Group" transform="translate(211.000000, 27.000000)" stroke="#1E1E1E" stroke-dasharray="8" stroke-width="2.5">
                <path d="M1.93333333,339.519636 C1.56,282.911409 0.893333333,56.7773946 0.466666667,0.0944444444" id="Path"></path>
            </g>
            <g id="Group" transform="translate(28.000000, 178.000000)" stroke="#1E1E1E" stroke-dasharray="8" stroke-width="2.5">
                <path d="M369.840236,0.05 C308.214114,0.55625 61.7841822,4.26875 0.23261646,4.775" id="Path"></path>
            </g>
            <path d="M326.147781,397.968326 C326.69295,397.968326 326.974935,397.751131 326.974935,397.316742 C326.974935,397.099548 326.918538,396.828054 326.843342,396.447964 C325.753003,391.977376 324.305483,388.013575 322.519582,384.574661 C322.106005,383.81448 321.748825,383.434389 321.429243,383.434389 C321.184856,383.434389 320.978068,383.579186 320.808877,383.832579 C320.75248,383.923077 320.639687,384.158371 320.489295,384.538462 C319.173368,387.579186 318.177023,390.330317 317.51906,392.791855 C316.334726,392.972851 315.733159,393.045249 315.695561,393.045249 C315.225587,393.117647 315,393.352941 315,393.769231 C315,394.312217 315.206789,394.58371 315.657963,394.58371 C315.864752,394.58371 316.353525,394.529412 317.124282,394.402715 C316.936292,395.271493 316.861097,395.868778 316.861097,396.19457 C316.861097,396.61086 316.898695,396.882353 316.97389,397.063348 C317.105483,397.334842 317.368668,397.479638 317.744648,397.479638 C317.87624,397.479638 318.026632,397.40724 318.177023,397.280543 C318.327415,397.135747 318.440209,397.00905 318.477807,396.864253 C318.440209,396.647059 318.42141,396.429864 318.42141,396.230769 C318.42141,395.705882 318.496606,395.0181 318.684595,394.18552 C319.850131,394.076923 320.733681,394.022624 321.316449,394.022624 C322.331593,394.022624 323.478329,394.20362 324.737859,394.547511 C324.925849,395.162896 325.057441,395.651584 325.151436,396.013575 C325.113838,396.104072 325.095039,396.19457 325.095039,396.285068 C325.095039,396.538462 325.207833,396.864253 325.43342,397.280543 C325.677807,397.733032 325.922193,397.968326 326.147781,397.968326 Z M324.211488,392.755656 C323.045953,392.538462 322.106005,392.429864 321.429243,392.429864 C320.808877,392.429864 320.03812,392.484163 319.116971,392.59276 C319.793734,390.131222 320.564491,387.959276 321.429243,386.058824 C322.406789,387.79638 323.327937,390.040724 324.211488,392.755656 Z M332.689817,397.262443 C334.08094,397.262443 335.302872,396.466063 336.336815,394.855204 C337.239164,393.461538 337.690339,392.049774 337.690339,390.638009 L337.690339,389.244344 L337.690339,389.244344 C337.67154,388.556561 337.67154,388.176471 337.67154,388.140271 C337.709138,387.832579 337.746736,387.561086 337.746736,387.325792 C337.746736,386.095023 337.50235,384.918552 337.032376,383.79638 C336.900783,383.488688 336.693995,383.325792 336.393211,383.325792 C335.904439,383.325792 335.641253,383.579186 335.584856,384.049774 C335.716449,384.773756 335.829243,385.371041 335.904439,385.823529 C336.167624,387.343891 336.299217,388.61086 336.299217,389.606335 C336.299217,391.108597 335.979634,392.466063 335.378068,393.696833 C334.663708,395.126697 333.742559,395.832579 332.614621,395.832579 C331.937859,395.832579 331.336292,395.488688 330.84752,394.782805 C330.264752,393.986425 329.982768,392.954751 329.982768,391.651584 C329.982768,391.361991 330.039164,390.529412 330.151958,389.153846 C330.227154,387.778281 330.283551,386.891403 330.283551,386.493213 C330.283551,385.552036 329.982768,385.063348 329.381201,385.063348 C329.193211,385.063348 329.04282,385.135747 328.911227,385.244344 C328.742037,385.38914 328.666841,385.533937 328.666841,385.696833 C328.666841,385.823529 328.666841,386.004525 328.704439,386.257919 C328.704439,386.529412 328.723238,386.728507 328.723238,386.837104 C328.723238,387.343891 328.68564,388.085973 328.629243,389.081448 C328.554047,390.058824 328.516449,390.800905 328.516449,391.289593 C328.516449,392.918552 328.817232,394.276018 329.418799,395.325792 C330.151958,396.628959 331.242298,397.262443 332.689817,397.262443 Z M344.984334,397.823529 C345.510705,397.823529 345.77389,397.461538 345.77389,396.755656 L345.77389,395.542986 C345.77389,395.253394 345.679896,395.036199 345.529504,394.891403 C345.473107,394.131222 345.454308,393.316742 345.454308,392.466063 C345.454308,390.547511 345.567102,388.21267 345.830287,385.479638 C346.883029,385.153846 347.597389,384.972851 347.973368,384.900452 C348.12376,385.027149 348.349347,385.099548 348.612533,385.117647 L350.248042,384.502262 C350.586423,384.375566 350.774413,384.122172 350.774413,383.742081 C350.774413,383.597285 350.718016,383.434389 350.605222,383.253394 C350.492428,383.108597 350.342037,383.0181 350.191645,383 C349.834465,383 349.326893,383.090498 348.687728,383.235294 C346.883029,383.669683 343.893995,384.339367 339.720627,385.280543 C339.30705,385.38914 339.100261,385.642534 339.100261,386.076923 C339.100261,386.547511 339.30705,386.782805 339.739426,386.782805 C340.585379,386.692308 342.089295,386.366516 344.269974,385.78733 C344.044386,388.59276 343.950392,390.529412 343.950392,391.615385 C343.950392,393.78733 344.025587,395.633484 344.213577,397.153846 C344.251175,397.588235 344.51436,397.823529 344.984334,397.823529 Z M357.184856,396.61086 C358.839164,396.61086 360.267885,396.067873 361.43342,394.9819 C362.598956,393.895928 363.181723,392.520362 363.181723,390.819005 C363.181723,389.117647 362.69295,387.687783 361.734204,386.529412 C360.700261,385.334842 359.365535,384.719457 357.711227,384.719457 C357.222454,384.719457 356.884073,384.755656 356.696084,384.791855 C356.320104,384.900452 356.094517,385.117647 355.981723,385.443439 C354.553003,386.131222 353.425065,386.945701 352.597911,387.923077 C351.639164,389.045249 351.169191,390.276018 351.169191,391.579186 C351.169191,392.99095 351.808355,394.20362 353.105483,395.217195 C354.289817,396.158371 355.643342,396.61086 357.184856,396.61086 Z M357.372846,395.036199 C356.132115,395.036199 355.079373,394.728507 354.195822,394.076923 C353.199478,393.38914 352.710705,392.466063 352.710705,391.325792 C352.710705,390.239819 353.33107,389.190045 354.590601,388.140271 C355.756136,387.162896 356.94047,386.58371 358.143603,386.438914 C358.293995,386.438914 358.406789,386.402715 358.519582,386.348416 C360.587467,386.927602 361.640209,388.447964 361.640209,390.945701 C361.640209,392.104072 361.226632,393.081448 360.418277,393.859729 C359.591123,394.656109 358.575979,395.036199 357.372846,395.036199 Z M365.719582,398.782805 C366.057963,398.782805 366.264752,398.60181 366.358747,398.239819 C366.621932,397.153846 366.753525,396.393665 366.753525,395.941176 C366.753525,395.778281 366.697128,395.633484 366.621932,395.488688 L366.452742,395.488688 C366.490339,393.877828 366.734726,391.705882 367.223499,388.99095 C367.749869,389.932127 368.370235,390.855204 369.084595,391.723982 C369.422977,392.158371 370.156136,392.99095 371.284073,394.239819 C372.24282,395.325792 372.750392,395.886878 372.825587,395.959276 C373.088773,396.21267 373.276762,396.357466 373.427154,396.375566 C373.615144,396.520362 373.765535,396.574661 373.897128,396.574661 C374.4047,396.574661 374.667885,396.339367 374.667885,395.832579 C374.667885,395.81448 374.649086,395.687783 374.611488,395.434389 C374.348303,393.877828 374.235509,392.900452 374.235509,392.502262 C374.235509,389.78733 374.592689,387.289593 375.344648,385.00905 C375.438642,384.701357 375.495039,384.484163 375.495039,384.375566 C375.495039,384.19457 375.419843,384.031674 375.269452,383.868778 C375.11906,383.723982 374.949869,383.633484 374.76188,383.633484 C374.423499,383.633484 374.179112,383.832579 374.028721,384.19457 C373.67154,385.027149 373.370757,386.257919 373.126371,387.904977 C372.881984,389.425339 372.769191,390.692308 372.769191,391.723982 C372.769191,392.176471 372.78799,392.846154 372.863185,393.751131 C370.118538,390.782805 368.389034,388.375566 367.712272,386.529412 C367.749869,386.384615 367.787467,386.294118 367.787467,386.221719 C367.787467,386.004525 367.712272,385.823529 367.56188,385.678733 C367.411488,385.533937 367.223499,385.461538 366.997911,385.461538 C366.828721,385.461538 366.640731,385.570136 366.415144,385.769231 C366.189556,385.986425 366.095561,386.167421 366.095561,386.330317 C366.095561,386.420814 366.11436,386.511312 366.170757,386.58371 C365.343603,390.656109 364.930026,393.968326 364.930026,396.502262 L364.930026,398.022624 C364.930026,398.20362 365.005222,398.366516 365.193211,398.529412 C365.362402,398.692308 365.531593,398.782805 365.719582,398.782805 Z M382.807833,396.61086 C384.462141,396.61086 385.890862,396.067873 387.056397,394.9819 C388.221932,393.895928 388.8047,392.520362 388.8047,390.819005 C388.8047,389.117647 388.315927,387.687783 387.35718,386.529412 C386.323238,385.334842 384.988512,384.719457 383.334204,384.719457 C382.845431,384.719457 382.50705,384.755656 382.31906,384.791855 C381.943081,384.900452 381.717493,385.117647 381.6047,385.443439 C380.175979,386.131222 379.048042,386.945701 378.220888,387.923077 C377.262141,389.045249 376.792167,390.276018 376.792167,391.579186 C376.792167,392.99095 377.431332,394.20362 378.72846,395.217195 C379.912794,396.158371 381.266319,396.61086 382.807833,396.61086 Z M382.995822,395.036199 C381.755091,395.036199 380.70235,394.728507 379.818799,394.076923 C378.822454,393.38914 378.333681,392.466063 378.333681,391.325792 C378.333681,390.239819 378.954047,389.190045 380.213577,388.140271 C381.379112,387.162896 382.563446,386.58371 383.76658,386.438914 C383.916971,386.438914 384.029765,386.402715 384.142559,386.348416 C386.210444,386.927602 387.263185,388.447964 387.263185,390.945701 C387.263185,392.104072 386.849608,393.081448 386.041253,393.859729 C385.214099,394.656109 384.198956,395.036199 382.995822,395.036199 Z M403.975457,399 C404.182245,399 404.370235,398.909502 404.539426,398.764706 C404.689817,398.58371 404.783812,398.402715 404.783812,398.221719 C404.783812,398.18552 404.689817,397.968326 404.539426,397.588235 C404.370235,397.208145 404.144648,396.954751 403.881462,396.846154 C403.467885,396.19457 403.129504,395.090498 402.84752,393.570136 L402.820173,393.413031 C402.705582,392.740984 402.529383,391.545771 402.321149,389.841629 C402.095561,388.067873 401.813577,386.656109 401.437598,385.570136 C401.306005,385.190045 401.061619,384.99095 400.723238,384.99095 C400.422454,384.99095 400.215666,385.117647 400.084073,385.352941 C399.06893,387.090498 398.185379,389.244344 397.43342,391.832579 C396.286684,390.330317 395.309138,387.923077 394.481984,384.61086 C394.369191,384.19457 394.124804,383.977376 393.748825,383.977376 C393.391645,383.977376 393.147258,384.122172 393.015666,384.393665 C392.733681,384.972851 392.451697,385.624434 392.188512,386.366516 C392.000522,386.257919 391.831332,386.20362 391.68094,386.20362 C391.173368,386.20362 390.928982,386.457014 390.928982,386.927602 C390.928982,387.072398 390.928982,387.253394 390.947781,387.470588 C390.947781,387.723982 390.96658,387.904977 390.96658,388.031674 C390.96658,388.683258 390.891384,389.497738 390.77859,390.511312 C390.628198,391.868778 390.553003,392.719457 390.553003,393.081448 C390.553003,393.769231 390.609399,394.402715 390.759791,394.945701 C390.96658,395.669683 391.267363,396.031674 391.643342,396.031674 C392.094517,396.031674 392.320104,395.669683 392.357702,394.945701 C392.3953,393.606335 392.489295,392.339367 392.639687,391.162896 C392.808877,389.80543 393.109661,388.357466 393.542037,386.819005 C393.767624,387.904977 394.2,389.099548 394.839164,390.402715 C395.497128,391.81448 396.17389,392.846154 396.869452,393.533937 C397.207833,393.895928 397.527415,394.058824 397.809399,394.058824 C398.185379,394.058824 398.448564,393.823529 398.561358,393.316742 C398.956136,391.651584 399.5953,389.751131 400.460052,387.651584 C400.817232,390.61991 401.04282,392.393665 401.155614,392.99095 C401.531593,395.162896 402.057963,396.809955 402.697128,397.895928 C403.110705,398.61991 403.543081,399 403.975457,399 Z M407.321671,397.570136 C407.509661,397.570136 407.678851,397.479638 407.829243,397.316742 C407.979634,397.153846 408.073629,396.99095 408.073629,396.809955 C408.073629,396.737557 407.998433,396.574661 407.88564,396.321267 C407.810444,396.176471 407.772846,395.995475 407.772846,395.79638 C407.772846,395.325792 407.866841,394.312217 408.092428,392.791855 L408.863185,387.072398 C409.013577,385.841629 409.107572,385.00905 409.107572,384.574661 C409.107572,384.031674 408.844386,383.742081 408.355614,383.742081 C407.979634,383.742081 407.603655,384.21267 407.246475,385.117647 C406.945692,385.932127 406.7953,386.61991 406.7953,387.180995 C406.7953,387.506787 406.945692,387.742081 407.246475,387.904977 L406.62611,392.266968 C406.419321,393.733032 406.325326,394.909502 406.325326,395.778281 C406.325326,396.972851 406.644909,397.570136 407.321671,397.570136 Z M422.172846,397.968326 C422.718016,397.968326 423,397.751131 423,397.316742 C423,397.099548 422.943603,396.828054 422.868407,396.447964 C421.778068,391.977376 420.330548,388.013575 418.544648,384.574661 C418.13107,383.81448 417.77389,383.434389 417.454308,383.434389 C417.209922,383.434389 417.003133,383.579186 416.833943,383.832579 C416.777546,383.923077 416.664752,384.158371 416.51436,384.538462 C415.198433,387.579186 414.202089,390.330317 413.544125,392.791855 C412.359791,392.972851 411.758225,393.045249 411.720627,393.045249 C411.250653,393.117647 411.025065,393.352941 411.025065,393.769231 C411.025065,394.312217 411.231854,394.58371 411.683029,394.58371 C411.889817,394.58371 412.37859,394.529412 413.149347,394.402715 C412.961358,395.271493 412.886162,395.868778 412.886162,396.19457 C412.886162,396.61086 412.92376,396.882353 412.998956,397.063348 C413.130548,397.334842 413.393734,397.479638 413.769713,397.479638 C413.901305,397.479638 414.051697,397.40724 414.202089,397.280543 C414.35248,397.135747 414.465274,397.00905 414.502872,396.864253 C414.465274,396.647059 414.446475,396.429864 414.446475,396.230769 C414.446475,395.705882 414.521671,395.0181 414.709661,394.18552 C415.875196,394.076923 416.758747,394.022624 417.341514,394.022624 C418.356658,394.022624 419.503394,394.20362 420.762924,394.547511 C420.950914,395.162896 421.082507,395.651584 421.176501,396.013575 C421.138903,396.104072 421.120104,396.19457 421.120104,396.285068 C421.120104,396.538462 421.232898,396.864253 421.458486,397.280543 C421.702872,397.733032 421.947258,397.968326 422.172846,397.968326 Z M420.236554,392.755656 C419.071018,392.538462 418.13107,392.429864 417.454308,392.429864 C416.833943,392.429864 416.063185,392.484163 415.142037,392.59276 C415.818799,390.131222 416.589556,387.959276 417.454308,386.058824 C418.431854,387.79638 419.353003,390.040724 420.236554,392.755656 Z" id="AUTONOMIA" fill="#0E0E0E" fill-rule="nonzero"></path>
            <path d="M101.841614,278.841633 C102.567426,278.841633 102.942846,278.542829 102.942846,277.945219 C102.942846,277.646414 102.867762,277.272908 102.76765,276.75 C101.316025,270.599602 99.3888681,265.146414 97.0112066,260.415339 C96.4605902,259.369522 95.9850579,258.846614 95.5595816,258.846614 C95.2342174,258.846614 94.9589092,259.045817 94.7336571,259.394422 C94.658573,259.518924 94.5084049,259.842629 94.3081808,260.365538 C92.5562196,264.548805 91.2297348,268.333665 90.3537542,271.72012 C88.7769892,271.969124 87.9760926,272.068725 87.9260366,272.068725 C87.3003362,272.168327 87,272.492032 87,273.064741 C87,273.811753 87.2753082,274.185259 87.8759806,274.185259 C88.1512888,274.185259 88.8020172,274.110558 89.8281659,273.936255 C89.5778857,275.131474 89.4777736,275.953187 89.4777736,276.401394 C89.4777736,276.974104 89.5278297,277.34761 89.6279417,277.596614 C89.8031378,277.97012 90.1535301,278.169323 90.6540904,278.169323 C90.8292865,278.169323 91.0295106,278.069721 91.2297348,277.895418 C91.4299589,277.696215 91.580127,277.521912 91.630183,277.322709 C91.580127,277.023904 91.555099,276.7251 91.555099,276.451195 C91.555099,275.729084 91.6552111,274.782869 91.9054912,273.63745 C93.4572282,273.488048 94.633545,273.413347 95.4094135,273.413347 C96.7609264,273.413347 98.2876354,273.662351 99.9645125,274.135458 C100.214793,274.982072 100.389989,275.654382 100.515129,276.15239 C100.465073,276.276892 100.440045,276.401394 100.440045,276.525896 C100.440045,276.874502 100.590213,277.322709 100.890549,277.895418 C101.215913,278.517928 101.541278,278.841633 101.841614,278.841633 Z M99.2637281,271.670319 C97.711991,271.371514 96.4605902,271.222112 95.5595816,271.222112 C94.7336571,271.222112 93.7075084,271.296813 92.4811356,271.446215 C93.3821442,268.059761 94.4082929,265.071713 95.5595816,262.457171 C96.8610385,264.84761 98.0874113,267.935259 99.2637281,271.670319 Z M106.697049,283 C107.222637,283 107.598058,282.477092 107.82331,281.456175 C108.07359,280.310757 108.19873,279.140438 108.19873,277.99502 C108.19873,276.949203 108.148674,275.928287 108.07359,274.932271 C112.053044,273.488048 114.055286,271.396414 114.055286,268.657371 C114.055286,267.462151 113.779978,266.466135 113.229361,265.669323 C112.628689,264.797809 111.752708,264.349602 110.651476,264.349602 C109.07471,264.349602 107.848338,265.445219 106.972357,267.636454 C106.371685,269.155378 106.071349,270.898406 106.071349,272.840637 C106.071349,273.089641 106.071349,273.288845 106.096377,273.413347 C105.395592,273.662351 105.070228,274.035857 105.070228,274.558765 C105.070228,275.206175 105.395592,275.554781 106.096377,275.604582 C106.146433,276.002988 106.171461,276.600598 106.171461,277.39741 C106.171461,278.991036 106.071349,280.111554 105.92118,280.808765 C105.745984,281.481076 105.6709,281.854582 105.6709,281.929283 C105.6709,282.203187 105.771012,282.452191 105.971236,282.676295 C106.171461,282.875498 106.421741,283 106.697049,283 Z M108.098618,272.716135 C108.098618,271.371514 108.32387,270.001992 108.799402,268.657371 C109.324991,267.188247 109.950691,266.441235 110.651476,266.441235 C111.076952,266.441235 111.427344,266.640438 111.702652,266.989044 C111.927904,267.337649 112.053044,267.760956 112.053044,268.234064 C112.053044,270.275896 110.72656,271.76992 108.098618,272.716135 Z M124.266716,278.318725 C124.516997,278.318725 124.767277,278.219124 124.992529,278.069721 C125.192753,277.870518 125.317893,277.621514 125.317893,277.37251 C125.317893,277.297809 125.242809,276.999004 125.142697,276.401394 C125.017557,275.828685 124.967501,275.380478 124.967501,275.081673 C124.967501,274.085657 125.117669,273.089641 125.468061,272.043825 C125.568173,271.76992 125.618229,271.595618 125.618229,271.496016 C125.618229,271.271912 125.493089,271.022908 125.292865,270.773904 C125.292865,270.201195 125.192753,269.703187 125.042585,269.25498 C125.067613,269.155378 125.092641,269.030876 125.092641,268.906375 C125.092641,268.60757 124.917445,268.308765 124.617109,268.059761 C124.291744,267.810757 123.96638,267.661355 123.641016,267.661355 C122.264475,267.661355 120.762794,268.458167 119.110945,270.001992 C117.384012,271.595618 116.533059,273.139442 116.533059,274.583665 C116.533059,275.355578 116.78334,276.027888 117.333956,276.625498 C117.859544,277.248008 118.485245,277.546813 119.211057,277.546813 C120.337318,277.546813 121.588719,276.849602 122.990288,275.455179 C123.115428,277.34761 123.540904,278.318725 124.266716,278.318725 Z M119.311169,275.455179 C118.785581,275.455179 118.535301,275.156375 118.535301,274.533865 C118.535301,273.737052 119.161001,272.741036 120.43743,271.520916 C121.588719,270.425299 122.414643,269.85259 122.890176,269.85259 C123.190512,269.85259 123.34068,270.176295 123.34068,270.773904 C123.34068,271.620518 122.84012,272.616534 121.889055,273.761952 C120.93799,274.907371 120.06201,275.455179 119.311169,275.455179 Z M130.173328,278.567729 C130.423609,278.567729 130.648861,278.468127 130.899141,278.268924 C131.124393,278.044821 131.249533,277.820717 131.249533,277.571713 C131.249533,277.173307 131.124393,276.899402 130.874113,276.700199 C130.924169,275.604582 131.074337,274.334661 131.374673,272.940239 C131.474785,272.467131 131.750093,271.271912 132.200598,269.329681 C132.450878,269.329681 132.901382,269.354582 133.602167,269.354582 C134.302951,269.379482 134.728427,269.379482 134.903623,269.379482 C135.153904,269.628486 135.479268,269.728088 135.82966,269.728088 C136.054912,269.728088 136.280164,269.603586 136.480388,269.354582 C136.655585,269.105578 136.755697,268.831673 136.755697,268.532869 C136.755697,267.736056 136.029884,267.312749 134.578259,267.238048 C133.527083,267.213147 132.901382,267.188247 132.726186,267.188247 C133.076578,265.544821 133.401942,264.2251 133.702279,263.204183 C133.927531,262.506972 134.127755,261.909363 134.277923,261.386454 C134.202839,260.639442 133.852447,260.265936 133.201718,260.265936 C132.751214,260.265936 132.450878,260.539841 132.30071,261.062749 C131.850205,262.556773 131.299589,264.598606 130.648861,267.238048 C130.048188,267.238048 129.672768,267.312749 129.472544,267.412351 C129.172208,267.561753 129.02204,267.860558 129.02204,268.308765 C129.02204,269.030876 129.39746,269.379482 130.173328,269.379482 L129.422488,272.965139 C129.097124,274.583665 128.946956,275.778884 128.946956,276.525896 C128.946956,277.870518 129.347404,278.567729 130.173328,278.567729 Z M142.036608,261.187251 C142.587225,261.187251 142.862533,260.689243 142.862533,259.693227 C142.862533,258.64741 142.437056,258.099602 141.586104,258 C140.885319,258.249004 140.534927,258.62251 140.534927,259.145418 C140.534927,260.191235 140.885319,260.838645 141.611132,261.087649 C141.811356,261.162351 141.961524,261.187251 142.036608,261.187251 Z M140.259619,277.895418 C140.409787,277.895418 140.559955,277.820717 140.710123,277.671315 C140.860291,277.521912 140.960403,277.39741 140.960403,277.248008 C140.960403,276.799801 140.785207,276.426295 140.459843,276.12749 C140.509899,274.633466 140.785207,272.940239 141.285768,270.998008 L141.711244,269.329681 C141.711244,268.283865 141.160628,267.760956 140.059395,267.760956 C139.658947,267.960159 139.48375,268.234064 139.48375,268.557769 C139.48375,268.657371 139.508778,268.856574 139.558835,269.155378 C138.883078,271.969124 138.557714,273.861554 138.557714,274.832669 C138.557714,276.874502 139.10833,277.895418 140.259619,277.895418 Z M152.648487,278.318725 C152.898767,278.318725 153.149047,278.219124 153.3743,278.069721 C153.574524,277.870518 153.699664,277.621514 153.699664,277.37251 C153.699664,277.297809 153.62458,276.999004 153.524468,276.401394 C153.399328,275.828685 153.349272,275.380478 153.349272,275.081673 C153.349272,274.085657 153.49944,273.089641 153.849832,272.043825 C153.949944,271.76992 154,271.595618 154,271.496016 C154,271.271912 153.87486,271.022908 153.674636,270.773904 C153.674636,270.201195 153.574524,269.703187 153.424356,269.25498 C153.449384,269.155378 153.474412,269.030876 153.474412,268.906375 C153.474412,268.60757 153.299216,268.308765 152.998879,268.059761 C152.673515,267.810757 152.348151,267.661355 152.022787,267.661355 C150.646246,267.661355 149.144565,268.458167 147.492716,270.001992 C145.765783,271.595618 144.91483,273.139442 144.91483,274.583665 C144.91483,275.355578 145.16511,276.027888 145.715727,276.625498 C146.241315,277.248008 146.867015,277.546813 147.592828,277.546813 C148.719089,277.546813 149.970489,276.849602 151.372058,275.455179 C151.497198,277.34761 151.922675,278.318725 152.648487,278.318725 Z M147.69294,275.455179 C147.167352,275.455179 146.917071,275.156375 146.917071,274.533865 C146.917071,273.737052 147.542772,272.741036 148.819201,271.520916 C149.970489,270.425299 150.796414,269.85259 151.271946,269.85259 C151.572282,269.85259 151.722451,270.176295 151.722451,270.773904 C151.722451,271.620518 151.22189,272.616534 150.270826,273.761952 C149.319761,274.907371 148.44378,275.455179 147.69294,275.455179 Z" id="Apatia" fill="#0E0E0E" fill-rule="nonzero"></path>
            <path d="M80.8556654,108 C81.582165,108 81.9579407,107.698925 81.9579407,107.096774 C81.9579407,106.795699 81.8827856,106.419355 81.7825787,105.892473 C80.3295794,99.6953405 78.4005976,94.2007168 76.0206849,89.4336918 C75.4695472,88.3799283 74.9935647,87.8530466 74.5676856,87.8530466 C74.2420133,87.8530466 73.9664445,88.0537634 73.7409791,88.4050179 C73.6658239,88.5304659 73.5155137,88.8566308 73.3151,89.3835125 C71.5614801,93.5985663 70.2337394,97.4121864 69.3569294,100.824373 C67.7786716,101.075269 66.9770168,101.175627 66.9269134,101.175627 C66.3006205,101.275986 66,101.602151 66,102.179211 C66,102.9319 66.2755688,103.308244 66.8768099,103.308244 C67.1523788,103.308244 67.8037233,103.232975 68.8308435,103.057348 C68.5803264,104.261649 68.4801195,105.089606 68.4801195,105.541219 C68.4801195,106.11828 68.5302229,106.494624 68.6304298,106.74552 C68.8057918,107.121864 69.1565157,107.322581 69.65755,107.322581 C69.832912,107.322581 70.0333257,107.222222 70.2337394,107.046595 C70.4341531,106.845878 70.5844633,106.670251 70.6345668,106.469534 C70.5844633,106.168459 70.5594116,105.867384 70.5594116,105.591398 C70.5594116,104.863799 70.6596185,103.910394 70.9101356,102.756272 C72.4633418,102.605735 73.6407722,102.530466 74.4173753,102.530466 C75.7701678,102.530466 77.2983222,102.781362 78.9767869,103.258065 C79.2273041,104.111111 79.4026661,104.78853 79.5279246,105.290323 C79.4778212,105.415771 79.4527695,105.541219 79.4527695,105.666667 C79.4527695,106.017921 79.6030798,106.469534 79.9037003,107.046595 C80.2293726,107.673835 80.5550448,108 80.8556654,108 Z M78.275339,100.774194 C76.7221328,100.473118 75.4695472,100.322581 74.5676856,100.322581 C73.7409791,100.322581 72.7138589,100.397849 71.486325,100.548387 C72.3881866,97.1362007 73.4153068,94.125448 74.5676856,91.4910394 C75.8703746,93.8996416 77.0979085,97.0107527 78.275339,100.774194 Z M92.4295564,107.071685 C92.7802804,107.071685 93.0558492,106.921147 93.2562629,106.620072 C93.4566766,106.344086 93.5568835,106.017921 93.5568835,105.641577 C93.5568835,105.566308 93.5318318,105.365591 93.4817283,105.039427 C93.4316249,104.738351 93.4065732,104.487455 93.4065732,104.286738 C93.4065732,103.935484 93.5067801,103.107527 93.7322455,101.802867 C93.9827626,100.37276 94.1831763,99.3942652 94.38359,98.8673835 C94.4837968,98.516129 94.558952,98.265233 94.558952,98.0896057 C94.558952,97.3870968 94.2583314,97.0358423 93.6570903,97.0358423 C93.3564698,97.0358423 93.1059527,97.2114695 92.8554355,97.562724 C89.6989198,102.204301 87.5444725,104.512545 86.3670421,104.512545 C86.1666284,104.512545 86.0664215,104.412186 86.0664215,104.21147 C86.0664215,103.810036 86.2167318,102.88172 86.542404,101.376344 C86.8430246,99.921147 86.9933349,98.9426523 86.9933349,98.4910394 C86.9933349,97.437276 86.6426109,96.8853047 85.9662147,96.8853047 C85.7156975,96.8853047 85.5152838,97.0107527 85.3399219,97.2616487 C85.1395082,97.5125448 85.0393013,97.7634409 85.0393013,98.0143369 C85.0393013,98.0896057 85.0393013,98.1899642 85.064353,98.2903226 L85.064353,98.5663082 L85.064353,98.5663082 C85.064353,98.9677419 84.8639393,100.046595 84.5132154,101.827957 C84.1624914,103.358423 84.0121811,104.362007 84.0121811,104.863799 C84.0121811,105.46595 84.2125948,105.917563 84.6134222,106.243728 C84.9891979,106.544803 85.4651804,106.695341 86.0664215,106.695341 C87.3941623,106.695341 89.2730407,105.290323 91.7281085,102.455197 C91.5276948,104.111111 91.4274879,105.139785 91.4274879,105.566308 C91.3022294,105.767025 91.2521259,105.942652 91.2521259,106.143369 C91.2521259,106.444444 91.3773845,106.670251 91.6279016,106.820789 C91.853367,106.971326 92.1289359,107.071685 92.4295564,107.071685 Z M98.6173293,107.724014 C98.8678465,107.724014 99.0933119,107.623656 99.343829,107.422939 C99.5692944,107.197133 99.694553,106.971326 99.694553,106.72043 C99.694553,106.318996 99.5692944,106.043011 99.3187773,105.842294 C99.3688807,104.738351 99.519191,103.458781 99.8198115,102.053763 C99.9200184,101.577061 100.195587,100.37276 100.646518,98.4157706 C100.897035,98.4157706 101.347966,98.4408602 102.049414,98.4408602 C102.750862,98.4659498 103.176741,98.4659498 103.352103,98.4659498 C103.60262,98.7168459 103.928292,98.8172043 104.279016,98.8172043 C104.504482,98.8172043 104.729947,98.6917563 104.930361,98.4408602 C105.105723,98.1899642 105.20593,97.9139785 105.20593,97.6129032 C105.20593,96.8100358 104.47943,96.3835125 103.026431,96.3082437 C101.974259,96.2831541 101.347966,96.2580645 101.172604,96.2580645 C101.523328,94.6021505 101.849,93.2724014 102.149621,92.2437276 C102.375086,91.5412186 102.5755,90.9390681 102.72581,90.4121864 C102.650655,89.6594982 102.299931,89.2831541 101.648587,89.2831541 C101.197656,89.2831541 100.897035,89.5591398 100.746725,90.0860215 C100.295794,91.5913978 99.7446564,93.6487455 99.0933119,96.3082437 C98.4920708,96.3082437 98.1162951,96.3835125 97.9158814,96.483871 C97.6152609,96.6344086 97.4649506,96.9354839 97.4649506,97.3870968 C97.4649506,98.1146953 97.8407263,98.4659498 98.6173293,98.4659498 L97.865778,102.078853 C97.5401057,103.709677 97.3897954,104.913978 97.3897954,105.666667 C97.3897954,107.021505 97.7906228,107.724014 98.6173293,107.724014 Z M110.141117,106.870968 C111.343599,106.870968 112.370719,106.318996 113.197426,105.164875 C113.999081,104.010753 114.42496,102.605735 114.42496,100.899642 C114.42496,99.921147 114.149391,99.0179211 113.598253,98.2150538 C113.022064,97.437276 112.295564,96.8853047 111.418754,96.5842294 C111.06803,96.483871 110.867617,96.4336918 110.817513,96.4336918 C110.6171,96.4336918 110.391634,96.5591398 110.091014,96.7598566 C109.74029,96.9605735 109.464721,97.1111111 109.264307,97.1863799 C108.412549,97.6129032 107.711101,98.3655914 107.210067,99.4193548 C106.709032,100.37276 106.483567,101.401434 106.483567,102.480287 C106.483567,103.759857 106.809239,104.81362 107.510687,105.641577 C108.212135,106.444444 109.088945,106.870968 110.141117,106.870968 Z M110.116065,104.763441 C109.615031,104.763441 109.214204,104.537634 108.913583,104.060932 C108.587911,103.609319 108.437601,103.082437 108.437601,102.480287 C108.437601,101.677419 108.612963,100.924731 109.01379,100.222222 C109.464721,99.4193548 110.04091,98.9928315 110.742358,98.9928315 C110.992875,99.1433692 111.318547,99.218638 111.719375,99.218638 C112.195357,99.5197133 112.445875,100.222222 112.445875,101.275986 C112.445875,102.129032 112.195357,102.90681 111.744427,103.634409 C111.243392,104.387097 110.717306,104.763441 110.116065,104.763441 Z M120.687888,106.870968 C121.639853,106.870968 122.61687,106.494624 123.568835,105.741935 C124.345438,105.139785 124.746265,104.612903 124.746265,104.111111 C124.746265,103.860215 124.646058,103.609319 124.445645,103.358423 C124.245231,103.157706 124.019766,103.032258 123.769248,103.032258 C123.568835,103.032258 123.268214,103.207885 122.91749,103.53405 C122.61687,103.784946 122.316249,104.035842 122.065732,104.286738 C121.639853,104.612903 121.113767,104.763441 120.487474,104.763441 C119.485406,104.763441 119.009423,104.16129 119.009423,102.90681 C119.009423,102.129032 119.234889,101.351254 119.685819,100.598566 C120.13675,99.8458781 120.687888,99.218638 121.364284,98.7670251 C121.664905,98.9426523 122.115835,99.0179211 122.742128,99.0179211 C123.067801,99.0179211 123.393473,98.8924731 123.719145,98.5913978 C123.994714,98.2903226 124.145024,98.0143369 124.145024,97.7132616 C124.145024,97.311828 123.994714,97.0107527 123.694093,96.7598566 C123.368421,96.5340502 123.017697,96.4086022 122.641921,96.4086022 C121.063664,96.4086022 119.660768,97.2365591 118.458285,98.8673835 C117.481269,100.172043 117.005286,101.602151 117.005286,103.157706 C117.005286,104.261649 117.35601,105.139785 118.057458,105.842294 C118.758906,106.519713 119.635716,106.870968 120.687888,106.870968 Z M129.030108,107.297491 C129.330729,107.297491 129.581246,107.071685 129.731556,106.620072 C129.806711,106.369176 129.906918,105.842294 130.032177,105.039427 C130.483107,101.978495 131.735693,99.9462366 133.764882,98.9426523 L133.927417,98.9968459 C134.120616,99.0610753 134.220823,99.09319 134.240864,99.09319 C134.641692,99.09319 135.092622,98.9677419 135.593657,98.6666667 C136.094691,98.4157706 136.345208,98.1146953 136.345208,97.8136201 C136.345208,97.4623656 136.194898,97.1362007 135.919329,96.8351254 C135.618708,96.5340502 135.318088,96.3835125 134.992416,96.3835125 C133.038382,96.3835125 131.284762,97.5376344 129.756608,99.8458781 C129.606297,98.7921147 129.430935,98.0394265 129.230522,97.5878136 C128.954953,97.0860215 128.579177,96.8100358 128.103195,96.8100358 C127.902781,96.8100358 127.727419,96.9354839 127.60216,97.1362007 C127.45185,97.3870968 127.376695,97.6379928 127.376695,97.8888889 C127.376695,98.9928315 127.60216,99.8709677 128.053091,100.498208 C128.153298,101.476703 128.228453,102.27957 128.228453,102.88172 C128.228453,103.55914 128.153298,104.16129 128.02804,104.713262 C127.877729,105.315412 127.827626,105.641577 127.827626,105.716846 C127.827626,106.143369 127.927833,106.494624 128.17835,106.820789 C128.428867,107.121864 128.729487,107.297491 129.030108,107.297491 Z M145.063204,107.473118 C145.313721,107.473118 145.564238,107.37276 145.789704,107.222222 C145.990117,107.021505 146.115376,106.770609 146.115376,106.519713 C146.115376,106.444444 146.040221,106.143369 145.940014,105.541219 C145.814755,104.964158 145.764652,104.512545 145.764652,104.21147 C145.764652,103.207885 145.914962,102.204301 146.265686,101.150538 C146.365893,100.874552 146.415996,100.698925 146.415996,100.598566 C146.415996,100.37276 146.290738,100.121864 146.090324,99.8709677 C146.090324,99.2939068 145.990117,98.7921147 145.839807,98.3405018 C145.864859,98.2401434 145.88991,98.1146953 145.88991,97.9892473 C145.88991,97.688172 145.714548,97.3870968 145.413928,97.1362007 C145.088256,96.8853047 144.762583,96.734767 144.436911,96.734767 C143.059067,96.734767 141.555964,97.5376344 139.902551,99.09319 C138.173983,100.698925 137.322225,102.25448 137.322225,103.709677 C137.322225,104.487455 137.572742,105.164875 138.12388,105.767025 C138.649966,106.394265 139.276258,106.695341 140.002758,106.695341 C141.130085,106.695341 142.382671,105.992832 143.785567,104.587814 C143.910825,106.494624 144.336704,107.473118 145.063204,107.473118 Z M140.102965,104.587814 C139.576879,104.587814 139.326362,104.286738 139.326362,103.659498 C139.326362,102.856631 139.952655,101.853047 141.230292,100.623656 C142.382671,99.5197133 143.209377,98.9426523 143.68536,98.9426523 C143.98598,98.9426523 144.136291,99.2688172 144.136291,99.8709677 C144.136291,100.724014 143.635256,101.727599 142.683291,102.88172 C141.731326,104.035842 140.854516,104.587814 140.102965,104.587814 Z M152.653873,106.870968 C153.605838,106.870968 154.582855,106.494624 155.53482,105.741935 C156.311423,105.139785 156.71225,104.612903 156.71225,104.111111 C156.71225,103.860215 156.612043,103.609319 156.41163,103.358423 C156.211216,103.157706 155.98575,103.032258 155.735233,103.032258 C155.53482,103.032258 155.234199,103.207885 154.883475,103.53405 C154.582855,103.784946 154.282234,104.035842 154.031717,104.286738 C153.605838,104.612903 153.079752,104.763441 152.453459,104.763441 C151.45139,104.763441 150.975408,104.16129 150.975408,102.90681 C150.975408,102.129032 151.200873,101.351254 151.651804,100.598566 C152.102735,99.8458781 152.653873,99.218638 153.330269,98.7670251 C153.630889,98.9426523 154.08182,99.0179211 154.708113,99.0179211 C155.033785,99.0179211 155.359458,98.8924731 155.68513,98.5913978 C155.960699,98.2903226 156.111009,98.0143369 156.111009,97.7132616 C156.111009,97.311828 155.960699,97.0107527 155.660078,96.7598566 C155.334406,96.5340502 154.983682,96.4086022 154.607906,96.4086022 C153.029648,96.4086022 151.626752,97.2365591 150.42427,98.8673835 C149.447254,100.172043 148.971271,101.602151 148.971271,103.157706 C148.971271,104.261649 149.321995,105.139785 150.023443,105.842294 C150.724891,106.519713 151.601701,106.870968 152.653873,106.870968 Z M163.025282,90.2114695 C163.576419,90.2114695 163.851988,89.7096774 163.851988,88.7060932 C163.851988,87.6523297 163.426109,87.1003584 162.574351,87 C161.872903,87.2508961 161.522179,87.6272401 161.522179,88.1541219 C161.522179,89.2078853 161.872903,89.8602151 162.599402,90.1111111 C162.799816,90.1863799 162.950126,90.2114695 163.025282,90.2114695 Z M161.24661,107.046595 C161.39692,107.046595 161.547231,106.971326 161.697541,106.820789 C161.847851,106.670251 161.948058,106.544803 161.948058,106.394265 C161.948058,105.942652 161.772696,105.566308 161.447024,105.265233 C161.497127,103.759857 161.772696,102.053763 162.27373,100.096774 L162.699609,98.4157706 C162.699609,97.3620072 162.148472,96.8351254 161.046196,96.8351254 C160.645369,97.0358423 160.470007,97.311828 160.470007,97.6379928 C160.470007,97.7383513 160.495059,97.9390681 160.545162,98.2401434 C159.868766,101.075269 159.543094,102.982079 159.543094,103.960573 C159.543094,106.017921 160.094231,107.046595 161.24661,107.046595 Z M173.647208,107.473118 C173.897725,107.473118 174.148242,107.37276 174.373707,107.222222 C174.574121,107.021505 174.699379,106.770609 174.699379,106.519713 C174.699379,106.444444 174.624224,106.143369 174.524017,105.541219 C174.398759,104.964158 174.348655,104.512545 174.348655,104.21147 C174.348655,103.207885 174.498966,102.204301 174.84969,101.150538 C174.949897,100.874552 175,100.698925 175,100.598566 C175,100.37276 174.874741,100.121864 174.674328,99.8709677 C174.674328,99.2939068 174.574121,98.7921147 174.423811,98.3405018 C174.448862,98.2401434 174.473914,98.1146953 174.473914,97.9892473 C174.473914,97.688172 174.298552,97.3870968 173.997932,97.1362007 C173.672259,96.8853047 173.346587,96.734767 173.020915,96.734767 C171.643071,96.734767 170.139968,97.5376344 168.486555,99.09319 C166.757987,100.698925 165.906228,102.25448 165.906228,103.709677 C165.906228,104.487455 166.156746,105.164875 166.707883,105.767025 C167.233969,106.394265 167.860262,106.695341 168.586762,106.695341 C169.714089,106.695341 170.966674,105.992832 172.36957,104.587814 C172.494829,106.494624 172.920708,107.473118 173.647208,107.473118 Z M168.686969,104.587814 C168.160883,104.587814 167.910365,104.286738 167.910365,103.659498 C167.910365,102.856631 168.536658,101.853047 169.814296,100.623656 C170.966674,99.5197133 171.793381,98.9426523 172.269363,98.9426523 C172.569984,98.9426523 172.720294,99.2688172 172.720294,99.8709677 C172.720294,100.724014 172.21926,101.727599 171.267295,102.88172 C170.31533,104.035842 169.43852,104.587814 168.686969,104.587814 Z" id="Autocracia" fill="#0E0E0E" fill-rule="nonzero"></path>
            <path d="M272.953633,278.841633 C273.684924,278.841633 274.063178,278.542829 274.063178,277.945219 C274.063178,277.646414 273.987527,277.272908 273.886659,276.75 C272.424078,270.599602 270.482375,265.146414 268.086768,260.415339 C267.531996,259.369522 267.052874,258.846614 266.624187,258.846614 C266.296367,258.846614 266.01898,259.045817 265.792028,259.394422 C265.716377,259.518924 265.565076,259.842629 265.363341,260.365538 C263.598156,264.548805 262.261659,268.333665 261.379067,271.72012 C259.790401,271.969124 258.98346,272.068725 258.933026,272.068725 C258.302603,272.168327 258,272.492032 258,273.064741 C258,273.811753 258.277386,274.185259 258.882592,274.185259 C259.159978,274.185259 259.815618,274.110558 260.849512,273.936255 C260.597343,275.131474 260.496475,275.953187 260.496475,276.401394 C260.496475,276.974104 260.546909,277.34761 260.647777,277.596614 C260.824295,277.97012 261.177332,278.169323 261.68167,278.169323 C261.858189,278.169323 262.059924,278.069721 262.261659,277.895418 C262.463395,277.696215 262.614696,277.521912 262.66513,277.322709 C262.614696,277.023904 262.589479,276.7251 262.589479,276.451195 C262.589479,275.729084 262.690347,274.782869 262.942516,273.63745 C264.505965,273.488048 265.691161,273.413347 266.472885,273.413347 C267.834599,273.413347 269.372831,273.662351 271.062364,274.135458 C271.314534,274.982072 271.491052,275.654382 271.617137,276.15239 C271.566703,276.276892 271.541486,276.401394 271.541486,276.525896 C271.541486,276.874502 271.692787,277.322709 271.99539,277.895418 C272.32321,278.517928 272.65103,278.841633 272.953633,278.841633 Z M270.356291,271.670319 C268.792842,271.371514 267.531996,271.222112 266.624187,271.222112 C265.792028,271.222112 264.758134,271.296813 263.522505,271.446215 C264.430315,268.059761 265.464208,265.071713 266.624187,262.457171 C267.935466,264.84761 269.171095,267.935259 270.356291,271.670319 Z M284.376898,277.820717 C284.729935,277.820717 284.93167,277.571713 284.982104,277.123506 C285.385575,273.61255 285.58731,271.271912 285.58731,270.126494 C285.58731,269.752988 285.410792,269.454183 285.108189,269.205179 C284.805586,268.981076 284.477766,268.856574 284.124729,268.831673 C282.082158,269.952191 280.165672,271.595618 278.375271,273.737052 C278.375271,272.492032 278.501356,271.222112 278.753525,269.90239 C278.87961,269.304781 279.005694,268.756972 279.131779,268.258964 C279.131779,267.860558 279.005694,267.511952 278.753525,267.188247 C278.501356,266.914343 278.173536,266.76494 277.795282,266.76494 C277.492679,266.76494 277.316161,266.964143 277.215293,267.312749 C276.660521,269.329681 276.383134,271.296813 276.383134,273.239044 C276.383134,276.202191 276.887473,277.671315 277.946584,277.671315 C278.198753,277.671315 278.450922,277.447211 278.703091,277.048805 C278.854393,276.75 279.005694,276.426295 279.182213,276.12749 C280.039588,274.733068 281.502169,273.263944 283.595174,271.695219 L283.21692,274.88247 C283.116052,275.803785 283.065618,276.276892 283.065618,276.301793 C283.065618,276.700199 283.191703,277.048805 283.443872,277.37251 C283.696041,277.671315 283.998644,277.820717 284.376898,277.820717 Z M295.951464,278.318725 C296.203633,278.318725 296.455803,278.219124 296.682755,278.069721 C296.88449,277.870518 297.010575,277.621514 297.010575,277.37251 C297.010575,277.297809 296.934924,276.999004 296.834056,276.401394 C296.707972,275.828685 296.657538,275.380478 296.657538,275.081673 C296.657538,274.085657 296.808839,273.089641 297.161876,272.043825 C297.262744,271.76992 297.313178,271.595618 297.313178,271.496016 C297.313178,271.271912 297.187093,271.022908 296.985358,270.773904 C296.985358,270.201195 296.88449,269.703187 296.733189,269.25498 C296.758406,269.155378 296.783623,269.030876 296.783623,268.906375 C296.783623,268.60757 296.607104,268.308765 296.304501,268.059761 C295.976681,267.810757 295.648861,267.661355 295.321041,267.661355 C293.934111,267.661355 292.421095,268.458167 290.756779,270.001992 C289.016811,271.595618 288.159436,273.139442 288.159436,274.583665 C288.159436,275.355578 288.411605,276.027888 288.966377,276.625498 C289.495933,277.248008 290.126356,277.546813 290.857646,277.546813 C291.992408,277.546813 293.253254,276.849602 294.665401,275.455179 C294.791486,277.34761 295.220174,278.318725 295.951464,278.318725 Z M290.958514,275.455179 C290.428959,275.455179 290.17679,275.156375 290.17679,274.533865 C290.17679,273.737052 290.807213,272.741036 292.093275,271.520916 C293.253254,270.425299 294.085412,269.85259 294.564534,269.85259 C294.867137,269.85259 295.018438,270.176295 295.018438,270.773904 C295.018438,271.620518 294.5141,272.616534 293.555857,273.761952 C292.597614,274.907371 291.715022,275.455179 290.958514,275.455179 Z M301.87744,278.144422 C302.180043,278.144422 302.432213,277.920319 302.583514,277.472112 C302.659165,277.223108 302.760033,276.700199 302.886117,275.903386 C303.340022,272.865538 304.600868,270.848606 306.643438,269.85259 C306.946041,269.952191 307.097343,270.001992 307.12256,270.001992 C307.52603,270.001992 307.979935,269.87749 308.484273,269.578685 C308.988612,269.329681 309.240781,269.030876 309.240781,268.732072 C309.240781,268.383466 309.089479,268.059761 308.812093,267.760956 C308.50949,267.462151 308.206887,267.312749 307.879067,267.312749 C305.912148,267.312749 304.146963,268.458167 302.608731,270.749004 C302.45743,269.703187 302.280911,268.956175 302.079176,268.507968 C301.80179,268.00996 301.423536,267.736056 300.944414,267.736056 C300.742679,267.736056 300.566161,267.860558 300.440076,268.059761 C300.288774,268.308765 300.213124,268.557769 300.213124,268.806773 C300.213124,269.90239 300.440076,270.773904 300.89398,271.396414 C300.994848,272.36753 301.070499,273.164343 301.070499,273.761952 C301.070499,274.434263 300.994848,275.031873 300.868764,275.579681 C300.717462,276.177291 300.667028,276.500996 300.667028,276.575697 C300.667028,276.999004 300.767896,277.34761 301.020065,277.671315 C301.272234,277.97012 301.574837,278.144422 301.87744,278.144422 Z M315.645879,283 C316.049349,283 316.377169,282.726096 316.604121,282.203187 C316.78064,281.77988 316.881508,281.406375 316.881508,281.082669 C316.881508,280.833665 316.831074,280.584661 316.755423,280.310757 C316.831074,277.073705 317.461497,273.761952 318.621475,270.375498 C318.999729,269.23008 319.47885,268.034861 320.058839,266.76494 C320.008406,265.918327 319.756236,265.49502 319.251898,265.49502 C318.949295,265.49502 318.646692,265.594622 318.344089,265.793825 C317.789317,264.84761 317.133677,264.349602 316.427603,264.349602 C314.763286,264.349602 313.250271,264.997012 311.938991,266.291833 C310.552061,267.611554 309.871204,269.155378 309.871204,270.898406 C309.871204,271.794821 310.123373,272.492032 310.627711,273.01494 C311.13205,273.537849 311.838124,273.786853 312.77115,273.786853 C313.931128,273.786853 315.091106,273.288845 316.200651,272.243028 C315.166757,275.778884 314.637202,278.966135 314.637202,281.904382 C314.637202,282.178287 314.738069,282.427291 314.939805,282.676295 C315.14154,282.875498 315.368492,283 315.645879,283 Z M312.821584,271.545817 C312.266811,271.545817 311.989425,271.247012 311.989425,270.649402 C311.989425,269.678287 312.44333,268.756972 313.376356,267.885458 C314.258948,267.088645 315.166757,266.690239 316.099783,266.690239 C316.200651,266.690239 316.351952,266.939243 316.578905,267.38745 C316.679772,267.586653 316.805857,267.760956 317.007592,267.910359 C316.629338,268.209163 316.427603,268.408367 316.377169,268.557769 C315.620662,270.549801 314.435466,271.545817 312.821584,271.545817 Z M330.70038,277.920319 C331.053416,277.920319 331.330803,277.770916 331.532538,277.472112 C331.734273,277.198207 331.835141,276.874502 331.835141,276.500996 C331.835141,276.426295 331.809924,276.227092 331.75949,275.903386 C331.709056,275.604582 331.683839,275.355578 331.683839,275.156375 C331.683839,274.807769 331.784707,273.986056 332.011659,272.691235 C332.263829,271.271912 332.465564,270.300797 332.667299,269.777888 C332.768167,269.429283 332.843818,269.180279 332.843818,269.005976 C332.843818,268.308765 332.541215,267.960159 331.936009,267.960159 C331.633406,267.960159 331.381236,268.134462 331.129067,268.483068 C327.951735,273.089641 325.78308,275.380478 324.597885,275.380478 C324.39615,275.380478 324.295282,275.280876 324.295282,275.081673 C324.295282,274.683267 324.446584,273.761952 324.774403,272.267928 C325.077007,270.823705 325.228308,269.85259 325.228308,269.404382 C325.228308,268.358566 324.875271,267.810757 324.194414,267.810757 C323.942245,267.810757 323.74051,267.935259 323.563991,268.184263 C323.362256,268.433267 323.261388,268.682271 323.261388,268.931275 C323.261388,269.005976 323.261388,269.105578 323.286605,269.205179 L323.286605,269.479084 L323.286605,269.479084 C323.286605,269.87749 323.08487,270.948207 322.731833,272.716135 C322.378796,274.23506 322.227495,275.231076 322.227495,275.729084 C322.227495,276.326693 322.42923,276.7749 322.832701,277.098606 C323.210954,277.39741 323.690076,277.546813 324.295282,277.546813 C325.631779,277.546813 327.523048,276.15239 329.994306,273.338645 C329.79257,274.982072 329.691703,276.002988 329.691703,276.426295 C329.565618,276.625498 329.515184,276.799801 329.515184,276.999004 C329.515184,277.297809 329.641269,277.521912 329.893438,277.671315 C330.12039,277.820717 330.397777,277.920319 330.70038,277.920319 Z M338.946312,261.187251 C339.501085,261.187251 339.778471,260.689243 339.778471,259.693227 C339.778471,258.64741 339.349783,258.099602 338.492408,258 C337.786334,258.249004 337.433297,258.62251 337.433297,259.145418 C337.433297,260.191235 337.786334,260.838645 338.517625,261.087649 C338.71936,261.162351 338.870662,261.187251 338.946312,261.187251 Z M337.155911,277.895418 C337.307213,277.895418 337.458514,277.820717 337.609816,277.671315 C337.761117,277.521912 337.861985,277.39741 337.861985,277.248008 C337.861985,276.799801 337.685466,276.426295 337.357646,276.12749 C337.40808,274.633466 337.685466,272.940239 338.189805,270.998008 L338.618492,269.329681 C338.618492,268.283865 338.06372,267.760956 336.954176,267.760956 C336.550705,267.960159 336.374187,268.234064 336.374187,268.557769 C336.374187,268.657371 336.399403,268.856574 336.449837,269.155378 C335.76898,271.969124 335.441161,273.861554 335.441161,274.832669 C335.441161,276.874502 335.995933,277.895418 337.155911,277.895418 Z M349.638286,278.318725 C349.890456,278.318725 350.142625,278.219124 350.369577,278.069721 C350.571312,277.870518 350.697397,277.621514 350.697397,277.37251 C350.697397,277.297809 350.621746,276.999004 350.520879,276.401394 C350.394794,275.828685 350.34436,275.380478 350.34436,275.081673 C350.34436,274.085657 350.495662,273.089641 350.848698,272.043825 C350.949566,271.76992 351,271.595618 351,271.496016 C351,271.271912 350.873915,271.022908 350.67218,270.773904 C350.67218,270.201195 350.571312,269.703187 350.420011,269.25498 C350.445228,269.155378 350.470445,269.030876 350.470445,268.906375 C350.470445,268.60757 350.293926,268.308765 349.991323,268.059761 C349.663503,267.810757 349.335683,267.661355 349.007863,267.661355 C347.620933,267.661355 346.107918,268.458167 344.443601,270.001992 C342.703633,271.595618 341.846258,273.139442 341.846258,274.583665 C341.846258,275.355578 342.098427,276.027888 342.6532,276.625498 C343.182755,277.248008 343.813178,277.546813 344.544469,277.546813 C345.67923,277.546813 346.940076,276.849602 348.352223,275.455179 C348.478308,277.34761 348.906996,278.318725 349.638286,278.318725 Z M344.645336,275.455179 C344.115781,275.455179 343.863612,275.156375 343.863612,274.533865 C343.863612,273.737052 344.494035,272.741036 345.780098,271.520916 C346.940076,270.425299 347.772234,269.85259 348.251356,269.85259 C348.553959,269.85259 348.70526,270.176295 348.70526,270.773904 C348.70526,271.620518 348.200922,272.616534 347.242679,273.761952 C346.284436,274.907371 345.401844,275.455179 344.645336,275.455179 Z" id="Anarquia" fill="#0E0E0E" fill-rule="nonzero"></path>
            <path d="M290.420245,82.6849434 C290.873006,82.6849434 291.476687,82.4073107 292.180982,81.8015666 C292.558282,81.4986945 292.809816,81.2715405 292.960736,81.1201044 C293.21227,80.8677111 293.36319,80.5395997 293.43865,80.1105309 C293.413497,79.3785901 293.111656,79 292.533129,79 C292.180982,79 291.879141,79.2019147 291.602454,79.6057441 C291.250307,80.1357702 290.696933,80.6910357 289.967485,81.2463011 C289.715951,81.4482158 289.615337,81.6501305 289.615337,81.8520453 C289.615337,82.1044386 289.690798,82.281114 289.866871,82.43255 C290.042945,82.6092254 290.219018,82.6849434 290.420245,82.6849434 Z M297.915951,103.78503 C298.645399,103.78503 299.022699,103.482158 299.022699,102.876414 C299.022699,102.573542 298.947239,102.194952 298.846626,101.664926 C297.38773,95.4308094 295.45092,89.9033943 293.06135,85.1079199 C292.507975,84.0478677 292.030061,83.5178416 291.602454,83.5178416 C291.27546,83.5178416 290.998773,83.7197563 290.772393,84.073107 C290.696933,84.1993037 290.546012,84.5274151 290.344785,85.0574413 C288.584049,89.2976501 287.25092,93.1340296 286.370552,96.5665796 C284.78589,96.818973 283.980982,96.9199304 283.930675,96.9199304 C283.30184,97.0208877 283,97.3489991 283,97.9295039 C283,98.6866841 283.276687,99.0652742 283.880368,99.0652742 C284.157055,99.0652742 284.811043,98.9895561 285.842331,98.8128808 C285.590798,100.024369 285.490184,100.857267 285.490184,101.311575 C285.490184,101.89208 285.540491,102.27067 285.641104,102.523064 C285.817178,102.901654 286.169325,103.103568 286.672393,103.103568 C286.848466,103.103568 287.049693,103.002611 287.25092,102.825936 C287.452147,102.624021 287.603067,102.447346 287.653374,102.245431 C287.603067,101.942559 287.577914,101.639687 287.577914,101.362054 C287.577914,100.630113 287.678528,99.6710183 287.930061,98.5100087 C289.489571,98.3585727 290.671779,98.2828547 291.451534,98.2828547 C292.809816,98.2828547 294.344172,98.535248 296.029448,99.0147955 C296.280982,99.872933 296.457055,100.554395 296.582822,101.059182 C296.532515,101.185379 296.507362,101.311575 296.507362,101.437772 C296.507362,101.791123 296.658282,102.245431 296.960123,102.825936 C297.287117,103.456919 297.61411,103.78503 297.915951,103.78503 Z M295.325153,96.516101 C293.765644,96.2132289 292.507975,96.0617929 291.602454,96.0617929 C290.772393,96.0617929 289.741104,96.1375109 288.508589,96.2889469 C289.41411,92.8563969 290.445399,89.8276762 291.602454,87.1775457 C292.910429,89.6005222 294.142945,92.7302002 295.325153,96.516101 Z M300.984663,108 C301.437423,108 301.915337,107.924282 302.418405,107.798085 C306.543558,106.586597 308.731902,103.40644 308.958282,98.2576153 C309.008589,97.1723238 309.084049,96.516101 309.209816,96.2637076 C309.61227,95.4560487 309.83865,94.9007833 309.83865,94.5726719 C309.83865,94.3707572 309.76319,94.1688425 309.61227,93.9669278 C309.61227,93.1087903 309.38589,92.4020888 308.958282,91.8720627 C308.505521,91.3420366 307.90184,91.0644038 307.197546,91.0644038 C305.51227,91.0644038 304.078528,91.7963446 302.896319,93.2349869 C301.764417,94.5979112 301.211043,96.1122715 301.211043,97.7780679 C301.211043,98.7624021 301.462577,99.5448216 301.990798,100.100087 C302.493865,100.680592 303.223313,100.958225 304.128834,100.958225 C305.185276,100.958225 306.090798,100.604874 306.845399,99.872933 C306.493252,103.204526 304.833129,105.147955 301.865031,105.652742 C301.71411,105.577023 301.512883,105.551784 301.286503,105.551784 C300.984663,105.551784 300.657669,105.677981 300.355828,105.980853 C300.053988,106.258486 299.928221,106.561358 299.928221,106.889469 C299.928221,107.62141 300.280368,108 300.984663,108 Z M304.254601,99.0400348 C303.600613,99.0400348 303.298773,98.5857267 303.298773,97.6771105 C303.298773,96.7937337 303.600613,95.8851175 304.229448,94.9765013 C304.908589,93.9921671 305.688344,93.4873803 306.543558,93.4873803 C307.071779,93.4873803 307.37362,93.8912097 307.423926,94.6736292 C307.323313,94.9260226 307.247853,95.102698 307.247853,95.2036554 C307.096933,96.3141862 306.795092,97.1723238 306.342331,97.8033072 C305.763804,98.6362054 305.059509,99.0400348 304.254601,99.0400348 Z M316.177301,85.8903394 C316.730675,85.8903394 317.007362,85.3855527 317.007362,84.3759791 C317.007362,83.3159269 316.579755,82.7606614 315.72454,82.6597041 C315.020245,82.9120975 314.668098,83.2906876 314.668098,83.8207137 C314.668098,84.8807659 315.020245,85.5369887 315.749693,85.7893821 C315.95092,85.8651001 316.10184,85.8903394 316.177301,85.8903394 Z M314.391411,102.825936 C314.542331,102.825936 314.693252,102.750218 314.844172,102.598782 C314.995092,102.447346 315.095706,102.321149 315.095706,102.169713 C315.095706,101.715405 314.919632,101.336815 314.592638,101.033943 C314.642945,99.5195822 314.919632,97.8033072 315.422699,95.8346388 L315.850307,94.1436031 C315.850307,93.0835509 315.296933,92.5535248 314.190184,92.5535248 C313.78773,92.7554395 313.611656,93.0330722 313.611656,93.3611836 C313.611656,93.462141 313.63681,93.6640557 313.687117,93.9669278 C313.007975,96.818973 312.680982,98.7371628 312.680982,99.721497 C312.680982,101.791123 313.234356,102.825936 314.391411,102.825936 Z M321.68589,103.154047 C321.811656,103.154047 321.962577,103.078329 322.13865,102.926893 C322.289571,102.800696 322.390184,102.6745 322.390184,102.548303 C322.390184,102.472585 322.365031,102.321149 322.339877,102.119234 C322.289571,101.89208 322.289571,101.740644 322.289571,101.639687 C322.038037,98.5604874 321.91227,96.3899043 321.91227,95.178416 C321.91227,92.2758921 322.289571,89.3733681 323.044172,86.4708442 L323.220245,86.2184508 C323.723313,85.9660574 324,85.6127067 324,85.1331593 C324,84.8302872 323.77362,84.4769365 323.371166,84.0226284 C322.968712,83.618799 322.616564,83.3916449 322.314724,83.3916449 C321.98773,83.3916449 321.68589,83.8711923 321.409202,84.7798085 C320.428221,87.9094865 319.950307,91.1401218 319.950307,94.4717145 C319.950307,95.329852 320.000613,96.516101 320.101227,98.0304613 C319.925153,98.3333333 319.849693,98.8885988 319.849693,99.6710183 C319.849693,100.529156 320.025767,101.311575 320.403067,102.043516 C320.755215,102.775457 321.182822,103.154047 321.68589,103.154047 Z" id="gil" fill="#0E0E0E" fill-rule="nonzero"></path>
            <path d="M-43.8477714,116.966951 C-43.3023841,116.966951 -43.0202873,116.749467 -43.0202873,116.314499 C-43.0202873,116.097015 -43.0767066,115.82516 -43.1519325,115.444563 C-44.2427069,110.968017 -45.6908041,106.998934 -47.4774174,103.555437 C-47.8911595,102.794243 -48.2484822,102.413646 -48.5681919,102.413646 C-48.8126758,102.413646 -49.0195469,102.558635 -49.188805,102.812367 C-49.2452243,102.902985 -49.3580631,103.138593 -49.5085147,103.51919 C-50.8249667,106.563966 -51.8217089,109.318763 -52.4799348,111.783582 C-53.6647416,111.964819 -54.2665482,112.037313 -54.3041611,112.037313 C-54.7743225,112.109808 -55,112.345416 -55,112.76226 C-55,113.30597 -54.793129,113.577825 -54.341774,113.577825 C-54.134903,113.577825 -53.6459351,113.523454 -52.8748704,113.396588 C-53.062935,114.266525 -53.1381608,114.864606 -53.1381608,115.190832 C-53.1381608,115.607676 -53.1005479,115.879531 -53.0253221,116.060768 C-52.8936769,116.332623 -52.6303865,116.477612 -52.2542574,116.477612 C-52.1226122,116.477612 -51.9721605,116.405117 -51.8217089,116.278252 C-51.6712572,116.133262 -51.5584185,116.006397 -51.5208056,115.861407 C-51.5584185,115.643923 -51.5772249,115.426439 -51.5772249,115.227079 C-51.5772249,114.701493 -51.5019991,114.012793 -51.3139345,113.179104 C-50.1479343,113.070362 -49.2640308,113.015991 -48.6810307,113.015991 C-47.665482,113.015991 -46.5182882,113.197228 -45.2582556,113.541578 C-45.070191,114.157783 -44.9385458,114.647122 -44.8445135,115.009595 C-44.8821265,115.100213 -44.9009329,115.190832 -44.9009329,115.28145 C-44.9009329,115.535181 -44.7880942,115.861407 -44.5624167,116.278252 C-44.3179328,116.731343 -44.0734488,116.966951 -43.8477714,116.966951 Z M-45.7848364,111.747335 C-46.9508367,111.529851 -47.8911595,111.421109 -48.5681919,111.421109 C-49.188805,111.421109 -49.9598697,111.47548 -50.8813861,111.584222 C-50.2043536,109.119403 -49.4332889,106.944563 -48.5681919,105.041578 C-47.5902562,106.78145 -46.6687398,109.028785 -45.7848364,111.747335 Z M-38.0177699,116.115139 C-36.4380275,116.115139 -35.2532208,115.752665 -34.4633496,115.009595 C-34.2188657,114.755864 -34.0872205,114.465885 -34.0872205,114.121535 C-34.0872205,113.65032 -34.3505109,113.414712 -34.8394788,113.414712 C-35.2156079,113.414712 -35.4600918,113.577825 -35.5541241,113.904051 C-36.3251888,114.302772 -37.1338664,114.502132 -37.980157,114.502132 C-38.7324152,114.502132 -39.2401895,114.339019 -39.5034799,113.99467 C-39.7855768,113.668443 -39.917222,113.015991 -39.917222,112.073561 C-39.917222,110.261194 -39.2778025,107.470149 -37.980157,103.700426 C-37.8861247,103.446695 -37.8297053,103.229211 -37.8297053,103.066098 C-37.8297053,102.594883 -38.0741892,102.359275 -38.5631571,102.359275 C-38.9392862,102.359275 -39.258996,102.649254 -39.5034799,103.211087 C-39.9548349,104.207889 -40.3873834,105.730277 -40.8387383,107.760128 C-41.2712868,109.753731 -41.4781579,111.203625 -41.4781579,112.109808 C-41.4781579,114.792111 -40.330964,116.115139 -38.0177699,116.115139 Z M-30.9653487,116.56823 C-30.7772842,116.56823 -30.6080261,116.477612 -30.4575744,116.314499 C-30.3071228,116.151386 -30.2130905,115.988273 -30.2130905,115.807036 C-30.2130905,115.734542 -30.2883163,115.571429 -30.401155,115.317697 C-30.4763809,115.172708 -30.5139938,114.991471 -30.5139938,114.792111 C-30.5139938,114.320896 -30.4199615,113.30597 -30.194284,111.783582 L-29.4232193,106.056503 C-29.2727677,104.824094 -29.1787354,103.990405 -29.1787354,103.555437 C-29.1787354,103.011727 -29.4420258,102.721748 -29.9309936,102.721748 C-30.3071228,102.721748 -30.6832519,103.192964 -31.0405746,104.099147 C-31.3414779,104.914712 -31.4919295,105.603412 -31.4919295,106.165245 C-31.4919295,106.491471 -31.3414779,106.727079 -31.0405746,106.890192 L-31.6611876,111.257996 C-31.8680586,112.726013 -31.9620909,113.904051 -31.9620909,114.773987 C-31.9620909,115.970149 -31.6423812,116.56823 -30.9653487,116.56823 Z M-26.0756701,117.782516 C-25.7371539,117.782516 -25.5302828,117.601279 -25.4362506,117.238806 C-25.1729602,116.151386 -25.041315,115.390192 -25.041315,114.9371 C-25.041315,114.773987 -25.0977343,114.628998 -25.1729602,114.484009 L-25.3422183,114.484009 C-25.3046054,112.871002 -25.0601214,110.696162 -24.5711536,107.977612 C-24.0445728,108.920043 -23.4239597,109.84435 -22.7093144,110.714286 C-22.3707982,111.149254 -21.6373464,111.982942 -20.508959,113.233475 C-19.5498297,114.320896 -19.0420554,114.882729 -18.9668296,114.955224 C-18.7035392,115.208955 -18.5154746,115.353945 -18.365023,115.372068 C-18.1769584,115.517058 -18.0265067,115.571429 -17.8948615,115.571429 C-17.3870872,115.571429 -17.1237968,115.335821 -17.1237968,114.828358 C-17.1237968,114.810235 -17.1426033,114.683369 -17.1802162,114.429638 C-17.4435066,112.871002 -17.5563453,111.892324 -17.5563453,111.493603 C-17.5563453,108.775053 -17.1990227,106.273987 -16.4467644,103.990405 C-16.3527321,103.682303 -16.2963127,103.464819 -16.2963127,103.356077 C-16.2963127,103.17484 -16.3715386,103.011727 -16.5219902,102.848614 C-16.6724419,102.703625 -16.8417,102.613006 -17.0297645,102.613006 C-17.3682808,102.613006 -17.6127647,102.812367 -17.7632163,103.17484 C-18.120539,104.008529 -18.4214423,105.240938 -18.6659263,106.890192 C-18.9104102,108.41258 -19.0232489,109.681237 -19.0232489,110.714286 C-19.0232489,111.167377 -19.0044425,111.837953 -18.9292166,112.744136 C-21.6749593,109.771855 -23.4051533,107.361407 -24.0821857,105.512793 C-24.0445728,105.367804 -24.0069599,105.277186 -24.0069599,105.204691 C-24.0069599,104.987207 -24.0821857,104.80597 -24.2326373,104.660981 C-24.383089,104.515991 -24.5711536,104.443497 -24.796831,104.443497 C-24.9660891,104.443497 -25.1541537,104.552239 -25.3798312,104.751599 C-25.6055087,104.969083 -25.6995409,105.15032 -25.6995409,105.313433 C-25.6995409,105.404051 -25.6807345,105.49467 -25.6243151,105.567164 C-26.4517992,109.644989 -26.8655412,112.96162 -26.8655412,115.498934 L-26.8655412,117.021322 C-26.8655412,117.202559 -26.7903154,117.365672 -26.6022509,117.528785 C-26.4329927,117.691898 -26.2637346,117.782516 -26.0756701,117.782516 Z M-6.21605212,116.930704 C-6.02798756,116.930704 -5.839923,116.858209 -5.68947135,116.71322 C-5.53901969,116.550107 -5.46379387,116.36887 -5.46379387,116.16951 C-5.46379387,116.097015 -5.48260033,115.897655 -5.48260033,115.553305 C-5.50140678,115.208955 -5.50140678,114.955224 -5.50140678,114.773987 C-5.50140678,111.819829 -5.14408411,108.231343 -4.41063231,104.026652 L-4.26018066,103.120469 C-4.26018066,102.939232 -4.33540649,102.757996 -4.48585814,102.594883 C-4.63630979,102.449893 -4.82437435,102.359275 -5.01243892,102.359275 C-5.36976159,102.359275 -5.59543906,102.558635 -5.68947135,102.939232 C-5.82111654,103.482942 -5.91514882,103.899787 -5.95276174,104.189765 C-6.1408263,105.059701 -6.32889086,106.255864 -6.51695543,107.778252 C-7.98385903,108.285714 -9.71405301,108.575693 -11.7075374,108.684435 C-11.5570857,107.397655 -11.3314083,106.165245 -11.030505,105.00533 C-10.8424404,104.171642 -10.6919887,103.627932 -10.57915,103.356077 C-10.2594402,102.413646 -10.0901821,101.869936 -10.0901821,101.74307 C-10.0901821,101.253731 -10.3534725,101 -10.8424404,101 C-11.1433437,101 -11.3690212,101.163113 -11.5382793,101.471215 C-11.5946987,101.561834 -11.7075374,101.833689 -11.857989,102.304904 C-12.4974086,104.044776 -12.96757,106.201493 -13.2496668,108.775053 C-13.4001185,108.775053 -13.6822153,108.75693 -14.0771509,108.720682 C-14.4720865,108.702559 -14.697764,108.684435 -14.7541833,108.684435 C-14.9422479,108.684435 -15.0926995,108.775053 -15.2055383,108.920043 C-15.3371835,109.083156 -15.3936028,109.246269 -15.3936028,109.427505 C-15.3936028,109.971215 -14.9798608,110.224947 -14.1147638,110.224947 L-13.7198282,110.224947 L-13.7198282,110.224947 C-13.5693766,110.224947 -13.4377314,110.206823 -13.3625056,110.206823 C-13.588183,112.635394 -13.6822153,114.574627 -13.6822153,116.02452 C-13.6822153,116.242004 -13.6257959,116.423241 -13.4753443,116.604478 C-13.3436991,116.785714 -13.174441,116.876333 -12.96757,116.876333 C-12.7606989,116.876333 -12.5726344,116.767591 -12.4033763,116.586354 C-12.2529246,116.386994 -12.1776988,116.151386 -12.1588923,115.897655 C-12.0460536,113.50533 -11.9332149,111.602345 -11.8203761,110.170576 C-9.93973049,110.025586 -8.24714942,109.753731 -6.70501999,109.391258 C-6.96831038,112.037313 -7.08114912,114.049041 -7.08114912,115.444563 C-7.08114912,116.423241 -6.79905227,116.930704 -6.21605212,116.930704 Z M8.4341774,116.966951 C8.97956464,116.966951 9.26166148,116.749467 9.26166148,116.314499 C9.26166148,116.097015 9.20524211,115.82516 9.13001629,115.444563 C8.03924182,110.968017 6.59114468,106.998934 4.80453132,103.555437 C4.39078928,102.794243 4.03346661,102.413646 3.71375685,102.413646 C3.46927292,102.413646 3.2624019,102.558635 3.09314379,102.812367 C3.03672442,102.902985 2.92388568,103.138593 2.77343403,103.51919 C1.45698208,106.563966 0.460239893,109.318763 -0.19798608,111.783582 C-1.38279283,111.964819 -1.98459944,112.037313 -2.02221235,112.037313 C-2.49237376,112.109808 -2.71805124,112.345416 -2.71805124,112.76226 C-2.71805124,113.30597 -2.51118022,113.577825 -2.05982526,113.577825 C-1.85295424,113.577825 -1.36398638,113.523454 -0.592921664,113.396588 C-0.780986228,114.266525 -0.856212054,114.864606 -0.856212054,115.190832 C-0.856212054,115.607676 -0.818599141,115.879531 -0.743373316,116.060768 C-0.611728121,116.332623 -0.348437731,116.477612 0.0276913964,116.477612 C0.159336591,116.477612 0.309788242,116.405117 0.460239893,116.278252 C0.610691544,116.133262 0.723530283,116.006397 0.761143196,115.861407 C0.723530283,115.643923 0.704723826,115.426439 0.704723826,115.227079 C0.704723826,114.701493 0.779949652,114.012793 0.968014216,113.179104 C2.13401451,113.070362 3.01791796,113.015991 3.60091811,113.015991 C4.61646676,113.015991 5.7636606,113.197228 7.02369317,113.541578 C7.21175774,114.157783 7.34340293,114.647122 7.43743521,115.009595 C7.3998223,115.100213 7.38101584,115.190832 7.38101584,115.28145 C7.38101584,115.535181 7.49385458,115.861407 7.71953206,116.278252 C7.96401599,116.731343 8.20849993,116.966951 8.4341774,116.966951 Z M6.49711239,111.747335 C5.3311121,111.529851 4.39078928,111.421109 3.71375685,111.421109 C3.09314379,111.421109 2.32207908,111.47548 1.40056271,111.584222 C2.07759514,109.119403 2.84865985,106.944563 3.71375685,105.041578 C4.69169258,106.78145 5.61320894,109.028785 6.49711239,111.747335 Z M24.2316008,118 C24.4384718,118 24.6265364,117.909382 24.7957945,117.764392 C24.9462461,117.583156 25.0402784,117.401919 25.0402784,117.220682 C25.0402784,117.184435 24.9462461,116.966951 24.7957945,116.586354 C24.6265364,116.205757 24.4008589,115.952026 24.1375685,115.843284 C23.7238264,115.190832 23.3853102,114.085288 23.1032134,112.5629 C22.9903746,111.928571 22.8023101,110.678038 22.5766326,108.829424 C22.3509551,107.053305 22.0688583,105.639659 21.6927292,104.552239 C21.561084,104.171642 21.3166,103.972281 20.9780838,103.972281 C20.6771805,103.972281 20.4703095,104.099147 20.3386643,104.334755 C19.3231157,106.074627 18.4392122,108.231343 17.6869539,110.823028 C16.5397601,109.318763 15.5618244,106.908316 14.7343403,103.591684 C14.6215016,103.17484 14.3770176,102.957356 14.0008885,102.957356 C13.6435658,102.957356 13.3990819,103.102345 13.2674367,103.3742 C12.9853398,103.954158 12.703243,104.60661 12.4399526,105.34968 C12.251888,105.240938 12.0826299,105.186567 11.9321783,105.186567 C11.424404,105.186567 11.17992,105.440299 11.17992,105.911514 C11.17992,106.056503 11.17992,106.23774 11.1987265,106.455224 C11.1987265,106.708955 11.2175329,106.890192 11.2175329,107.017058 C11.2175329,107.66951 11.1423071,108.485075 11.0294684,109.5 C10.8790167,110.859275 10.8037909,111.711087 10.8037909,112.073561 C10.8037909,112.76226 10.8602103,113.396588 11.0106619,113.940299 C11.2175329,114.665245 11.5184363,115.027719 11.8945654,115.027719 C12.3459203,115.027719 12.5715978,114.665245 12.6092107,113.940299 C12.6468236,112.599147 12.7408559,111.33049 12.8913076,110.152452 C13.0605657,108.793177 13.361469,107.343284 13.7940175,105.802772 C14.019695,106.890192 14.4522434,108.086354 15.091663,109.391258 C15.7498889,110.804904 16.4269214,111.837953 17.1227603,112.526652 C17.4612765,112.889126 17.7809862,113.052239 18.0630831,113.052239 C18.4392122,113.052239 18.7025026,112.816631 18.8153413,112.309168 C19.2102769,110.641791 19.8496964,108.738806 20.7147934,106.636461 C21.0721161,109.608742 21.2977936,111.384861 21.4106323,111.982942 C21.7867614,114.157783 22.3133422,115.807036 22.9527617,116.894456 C23.3665038,117.619403 23.7990523,118 24.2316008,118 Z M30.2872797,116.02452 C31.9422479,116.02452 33.2022805,115.408316 34.048571,114.139659 C34.3494743,113.722814 34.499926,113.378465 34.499926,113.124733 C34.499926,112.979744 34.4247001,112.816631 34.2742485,112.653518 C34.1049904,112.508529 33.9357323,112.41791 33.7852806,112.41791 C33.4655709,112.41791 33.183474,112.599147 32.9577965,112.96162 C32.5440545,113.523454 32.1867318,113.904051 31.8482156,114.121535 C31.4344736,114.39339 30.9266992,114.520256 30.3060862,114.520256 C29.4409892,114.520256 28.7639568,114.266525 28.237376,113.740938 C27.7296017,113.233475 27.4851177,112.544776 27.4851177,111.67484 C27.4851177,111.493603 27.4851177,111.312367 27.5227306,111.13113 C28.5758922,110.841151 30.0992152,110.478678 32.0738931,110.061834 C32.2995706,110.315565 32.5816674,110.442431 32.9013772,110.442431 C33.0518288,110.442431 33.3715386,110.297441 33.8228935,109.971215 C34.2742485,109.681237 34.499926,109.355011 34.499926,108.992537 C34.499926,108.485075 34.2366356,108.231343 33.7476677,108.231343 C33.4655709,108.231343 32.8825707,108.321962 31.9986673,108.485075 C30.8702799,108.702559 29.5538279,109.010661 28.0493114,109.409382 C28.4630535,108.466951 29.0084407,107.415778 29.6666667,106.273987 C29.7983119,106.03838 29.8735377,105.839019 29.8735377,105.69403 C29.8735377,105.567164 29.7983119,105.34968 29.6666667,105.023454 C30.9266992,104.624733 31.9986673,104.425373 32.8825707,104.425373 C32.976603,104.425373 33.1270546,104.46162 33.3151192,104.497868 C33.5031838,104.570362 33.634829,104.588486 33.7288612,104.588486 C34.2366356,104.588486 34.499926,104.371002 34.499926,103.936034 C34.499926,103.609808 34.3682808,103.3742 34.1237968,103.229211 C33.7476677,103.011727 33.3151192,102.902985 32.8261513,102.902985 C31.2840219,102.902985 29.5538279,103.356077 27.6355694,104.26226 C26.8268918,104.642857 26.4319562,105.00533 26.4319562,105.34968 C26.4319562,105.857143 26.6764401,106.110874 27.2030209,106.110874 C27.2782467,106.110874 27.6543758,105.965885 28.3126018,105.639659 C27.7484081,106.455224 27.2218273,107.433902 26.7704724,108.575693 C26.2438916,109.826226 25.9994077,110.804904 25.9994077,111.493603 C25.9994077,112.834755 26.3755368,113.922175 27.165408,114.755864 C27.9176662,115.607676 28.9708278,116.02452 30.2872797,116.02452 Z M37.2268621,117.782516 C37.5653784,117.782516 37.7722494,117.601279 37.8662817,117.238806 C38.129572,116.151386 38.2612172,115.390192 38.2612172,114.9371 C38.2612172,114.773987 38.2047979,114.628998 38.129572,114.484009 L37.9603139,114.484009 C37.9979268,112.871002 38.2424108,110.696162 38.7313786,107.977612 C39.2579594,108.920043 39.8785725,109.84435 40.5932178,110.714286 C40.931734,111.149254 41.6651858,111.982942 42.7935732,113.233475 C43.7527025,114.320896 44.2604768,114.882729 44.3357027,114.955224 C44.598993,115.208955 44.7870576,115.353945 44.9375093,115.372068 C45.1255738,115.517058 45.2760255,115.571429 45.4076707,115.571429 C45.915445,115.571429 46.1787354,115.335821 46.1787354,114.828358 C46.1787354,114.810235 46.1599289,114.683369 46.122316,114.429638 C45.8590256,112.871002 45.7461869,111.892324 45.7461869,111.493603 C45.7461869,108.775053 46.1035096,106.273987 46.8557678,103.990405 C46.9498001,103.682303 47.0062195,103.464819 47.0062195,103.356077 C47.0062195,103.17484 46.9309936,103.011727 46.780542,102.848614 C46.6300903,102.703625 46.4608322,102.613006 46.2727677,102.613006 C45.9342514,102.613006 45.6897675,102.812367 45.5393159,103.17484 C45.1819932,104.008529 44.8810899,105.240938 44.636606,106.890192 C44.392122,108.41258 44.2792833,109.681237 44.2792833,110.714286 C44.2792833,111.167377 44.2980897,111.837953 44.3733156,112.744136 C41.6275729,109.771855 39.8973789,107.361407 39.2203465,105.512793 C39.2579594,105.367804 39.2955723,105.277186 39.2955723,105.204691 C39.2955723,104.987207 39.2203465,104.80597 39.0698949,104.660981 C38.9194432,104.515991 38.7313786,104.443497 38.5057012,104.443497 C38.3364431,104.443497 38.1483785,104.552239 37.922701,104.751599 C37.6970235,104.969083 37.6029913,105.15032 37.6029913,105.313433 C37.6029913,105.404051 37.6217977,105.49467 37.6782171,105.567164 C36.850733,109.644989 36.436991,112.96162 36.436991,115.498934 L36.436991,117.021322 C36.436991,117.202559 36.5122168,117.365672 36.7002814,117.528785 C36.8695395,117.691898 37.0387976,117.782516 37.2268621,117.782516 Z M53.7953502,116.821962 C54.321931,116.821962 54.5852214,116.459488 54.5852214,115.752665 L54.5852214,114.53838 C54.5852214,114.248401 54.4911891,114.030917 54.3407375,113.885928 C54.2843181,113.124733 54.2655116,112.309168 54.2655116,111.457356 C54.2655116,109.536247 54.3783504,107.198294 54.6416408,104.46162 C55.6948023,104.135394 56.4094477,103.954158 56.7855768,103.881663 C56.9360284,104.008529 57.1617059,104.081023 57.4249963,104.099147 L59.061158,103.482942 C59.3996742,103.356077 59.5877388,103.102345 59.5877388,102.721748 C59.5877388,102.576759 59.5313194,102.413646 59.4184807,102.232409 C59.3056419,102.08742 59.1551903,101.996802 59.0047386,101.978678 C58.647416,101.978678 58.1396416,102.069296 57.5002221,102.214286 C55.6948023,102.649254 52.7045757,103.319829 48.5295424,104.26226 C48.1158004,104.371002 47.9089294,104.624733 47.9089294,105.059701 C47.9089294,105.530917 48.1158004,105.766525 48.5483489,105.766525 C49.3946394,105.675906 50.8991559,105.34968 53.0807049,104.769723 C52.8550274,107.578891 52.7609951,109.518124 52.7609951,110.605544 C52.7609951,112.780384 52.8362209,114.628998 53.0242855,116.151386 C53.0618984,116.586354 53.3251888,116.821962 53.7953502,116.821962 Z M66.0007404,115.607676 C67.6557086,115.607676 69.0849993,115.063966 70.2509996,113.976546 C71.4169999,112.889126 72,111.511727 72,109.808102 C72,108.104478 71.5110321,106.672708 70.5519029,105.512793 C69.5175478,104.316631 68.1822894,103.700426 66.5273212,103.700426 C66.0383533,103.700426 65.6998371,103.736674 65.5117725,103.772921 C65.1356434,103.881663 64.9099659,104.099147 64.7971272,104.425373 C63.3678365,105.114072 62.2394491,105.929638 61.4119651,106.908316 C60.4528358,108.031983 59.9826744,109.264392 59.9826744,110.569296 C59.9826744,111.982942 60.6220939,113.197228 61.9197394,114.212154 C63.1045461,115.154584 64.458611,115.607676 66.0007404,115.607676 Z M66.188805,114.030917 C64.9475789,114.030917 63.8944173,113.722814 63.0105138,113.070362 C62.0137717,112.381663 61.5248038,111.457356 61.5248038,110.315565 C61.5248038,109.228145 62.1454169,108.176972 63.4054494,107.1258 C64.5714497,106.147122 65.7562565,105.567164 66.9598697,105.422175 C67.1103213,105.422175 67.2231601,105.385928 67.3359988,105.331557 C69.404709,105.911514 70.4578706,107.433902 70.4578706,109.934968 C70.4578706,111.094883 70.0441285,112.073561 69.2354509,112.852878 C68.4079668,113.65032 67.3924182,114.030917 66.188805,114.030917 Z" id="ALINHAMENTO" fill="#0E0E0E" fill-rule="nonzero" transform="translate(8.500000, 109.500000) rotate(-90.000000) translate(-8.500000, -109.500000) "></path>
        </g>
    </g>
</svg>