<?xml version="1.0" encoding="UTF-8"?>
<svg width="36px" height="32px" viewBox="0 0 36 32" version="1.1" xmlns="http://www.w3.org/2000/svg" xmlns:xlink="http://www.w3.org/1999/xlink">
    <!-- Generator: Sketch 63.1 (92452) - https://sketch.com -->
    <title>Group 3</title>
    <desc>Created with Sketch.</desc>
    <g id="Page-1" stroke="none" stroke-width="1" fill="none" fill-rule="evenodd">
        <g id="Group-3" transform="translate(0.526855, 0.000000)">
            <path d="M7.94898474,15.5913783 L0,22.0121433 C0.289589532,22.4803661 0.598874194,22.7144775 0.927853985,22.7144775 C1.25683378,22.7144775 1.57838859,22.4803661 1.89251844,22.0121433 L6.24892402,19.5379478 L8.920448,16.8656661 L7.94898474,15.5913783 Z" id="Path-2" fill="#F0593E"></path>
            <path d="M9.42420105,15.5 L8.8364158,15.809017 L9.13030842,15.809017 L8.47314453,14.690983 L9.13030842,14.5954915 L9.42420105,14 C9.96711613,14.3046771 10.284135,14.5031742 10.3752576,14.5954915 C10.4663802,14.6878088 10.3452897,14.6878088 10.0119863,14.5954915 L10.3752576,14.690983 L10.3752576,14.9045085 L10.0119863,15.809017 L9.42420105,15.5 Z" id="Star" fill="#5E9864"></path>
            <g id="Group-2" transform="translate(0.473145, 0.000000)">
                <g id="Group" transform="translate(0.000000, 7.000000)" stroke="#000000" stroke-linecap="round" stroke-linejoin="round" stroke-width="0.5">
                    <path d="M18.4958766,2.88403157 C18.3746012,2.47560003 18.032734,2.19308452 17.6155288,2.15498109 C17.5598894,2.14989851 17.5152173,2.13424135 17.4593351,2.1023656 C16.6916726,1.66448002 15.9036279,1.28422769 15.0053179,1.17854551 C14.3881828,1.10594444 13.7955544,0.899368974 13.1845581,0.782166272 C12.7198441,0.693023254 12.2554636,0.604075713 11.7863397,0.549616576 C11.050577,0.464204432 10.3080252,0.456335064 9.57115265,0.388222678 C8.97760338,0.333356831 8.39291009,0.376336217 7.8107961,0.46225422 C7.53722002,0.50263303 7.25999087,0.504831512 6.98852989,0.52773731 C6.6016311,0.560382969 6.22881638,0.696515999 5.83612072,0.67461357 C5.80845942,0.673071008 5.74990627,0.709004675 5.71606176,0.695698877 C5.23236741,0.505533789 4.97329042,0.885238616 4.69148086,1.13303133 C4.47878055,1.32005759 4.74276689,1.51222845 4.80431622,1.70006072" id="Path"></path>
                    <path d="M20.7120272,8.16636308 C20.528692,7.68558245 20.7760567,7.34155838 21.0751419,7.01167763 C21.1279612,6.95342183 21.2206405,6.94326785 21.2322695,6.83103097 C21.2658925,6.50645698 21.4319474,6.23639402 21.6324907,5.98558843 C21.5343694,5.62892189 21.3093861,5.35224214 21.0710099,5.10531287 C20.3478471,4.35620176 19.6205707,3.60765765 18.7384182,3.03632392 C18.6700473,2.99204192 18.5874405,2.90906636 18.5277543,2.92161527 C18.0379851,3.02459032 17.7293277,2.65426961 17.3401813,2.4944442 C17.0820641,2.38843591 16.7955157,2.3664983 16.5241798,2.30067611 C16.0082011,2.17550865 15.5054597,2.00090993 15.0030147,1.82628619 C14.612714,1.69063862 14.1909933,1.68643063 13.7880056,1.58825559 C13.5039383,1.51905091 13.2413278,1.37745082 12.9409789,1.35662863 C12.8520387,1.35046211 12.7574991,1.33814393 12.6670915,1.33790027 C11.4730111,1.33469101 10.2771426,1.29627905 9.08545624,1.34979599 C8.30523924,1.38483285 7.52508617,1.35632848 6.74781346,1.40550216 C6.33210363,1.43179973 5.92970706,1.58675471 5.50254804,1.58637116 C5.34528802,1.58622942 5.27248681,1.7138483 5.34972482,1.88268537 C5.3981175,1.98847037 5.37830982,2.10408048 5.38134582,2.21614408 C5.41270092,3.37337732 5.30997324,4.52469326 5.22941941,5.67699402 C5.22871531,5.68706463 5.22889503,5.69725012 5.22939254,5.70734299 C5.2869053,6.87337204 5.0656195,8.03315859 5.145245,9.19806475 C5.16776076,9.52746005 5.05351531,9.8441684 5.10789849,10.1700061" id="Path"></path>
                    <path d="M3.04355099,13.5397693 C3.04466562,13.4756787 2.9656794,13.4645908 2.95478329,13.4177972 C2.90140718,13.1885763 2.7324117,13.0667301 2.52730745,13.0637247 C2.3091151,13.0605284 2.08457372,13.1333463 1.92235715,13.2989343 C1.71197208,13.5136931 1.49602269,13.7331844 1.32346449,13.9722517 C1.02407815,14.3870332 0.628836139,14.696997 0.281306327,15.0580327 C0.210894488,15.1311804 0.121014949,15.1836643 0.0949304621,15.2996793 C0.0699253315,15.4108952 -0.0674033266,15.5132115 0.0413412696,15.6314834 C0.151884105,15.7517063 0.360383376,15.7857963 0.454709454,15.7144775 C0.758901804,15.4844783 1.17610414,15.4269248 1.41281504,15.0946945 C1.38348656,14.9688406 1.31968547,14.8999157 1.1916872,14.9058895" id="Path"></path>
                    <path d="M9.90449837,9.41105039 C9.64253083,9.40536193 9.38866792,9.33233282 9.14981832,9.24725604 C8.98892934,9.18994712 8.85483265,9.1761299 8.68950593,9.19132939 C8.41734364,9.21635307 8.14369434,9.18574654 7.86942524,9.14505088 C7.56000441,9.09914111 7.26196701,9.14627936 6.9867066,9.34563679 C6.46620126,9.72261688 5.85487135,9.91803871 5.25890863,10.1375263 C4.83373781,10.2941128 4.62785718,10.7032317 4.773958,11.1414693" id="Path"></path>
                    <path d="M4.65252509,10.8682453 C4.50638905,10.7936875 4.37625948,10.8560568 4.25894191,10.9306498 C3.44534273,11.4479496 2.83976984,12.1482492 2.43637451,13.0236794" id="Path"></path>
                    <path d="M3.92392764,12.6593807 C3.88001252,12.5334452 3.88490888,12.4143414 3.9523644,12.2940054 C4.00198465,12.2054859 4.03910417,12.1181004 4.16692594,12.1426015 C4.36881723,12.1812998 4.57157014,12.0589886 4.75896604,12.1370428 C4.75666006,12.7262915 4.286442,12.9564555 3.88589461,13.1928231 C3.52374251,13.4065333 3.14561082,13.5980158 2.83738884,13.8806434 C2.59605724,14.101932 2.35214637,14.324601 2.12336367,14.5628975 C1.93494403,14.7591513 1.69414142,14.9253137 1.4193739,15.0121433" id="Path"></path>
                    <path d="M9.63127433,7.31633273 C9.55629965,7.29379566 9.47669084,7.33476557 9.4539018,7.37948391 C9.2089672,7.86010889 8.70463596,8.12339945 8.44730347,8.59137826" id="Path"></path>
                    <path d="M8.1437212,9.59319976 C7.88887627,9.94551937 7.50666999,10.1693668 7.22941586,10.5009708 C7.12792129,10.6223629 6.9806457,10.6977471 6.80795921,10.6860959" id="Path"></path>
                    <path d="M10.9063199,8.02975106 C10.8287437,7.97062811 10.7436021,8.07614815 10.6629315,8.01526494 C10.3373384,7.76952711 10.0016061,7.85255455 9.66099701,7.98254794 C9.47322588,8.05420959 9.29021492,8.00780695 9.11518447,7.92349727" id="Path"></path>
                    <path d="M9.81342369,9.47176685 C9.53177072,9.91961184 9.0552481,9.99292259 8.62945284,9.65391621" id="Path"></path>
                    <path d="M6.35258581,10.2307225 C6.64641152,10.2417604 6.79968502,10.5388055 6.72575074,10.8099469 C6.58355587,11.3314158 6.19154676,11.6426395 5.83649594,11.9914997" id="Path"></path>
                    <path d="M10.6634541,8.04493018 C10.503234,8.37767368 10.1365228,8.32734839 9.87206489,8.46598752 C9.53851905,8.64084751 9.19539084,8.79415987 8.99375156,9.13782635" id="Path"></path>
                    <path d="M6.62580985,10.8986035 C6.51449667,10.8884847 6.38795803,10.9089187 6.29474509,10.8624734 C6.02300429,10.7270714 5.89457475,10.8806339 5.77577949,11.0807529" id="Path"></path>
                    <path d="M3.25604664,12.5379478 C3.2325433,12.8321802 3.4605978,13.0358531 3.52927069,13.2969035" id="Path"></path>
                    <path d="M2.3149416,13.1451123 C2.3251447,13.4435935 2.51369218,13.6529011 2.67924033,13.8737098" id="Path"></path>
                    <path d="M5.2293314,10.2610808 C5.3174757,10.446973 5.47185721,10.6048917 5.44725044,10.8384578 C5.44125624,10.8953442 5.49530775,11.0066417 5.53405599,11.0125766 C5.85471756,11.06169 5.94754509,11.3769235 6.17043644,11.5361263" id="Path"></path>
                    <path d="M5.10789944,12.295082 C5.25969057,12.2040073 5.4147984,12.1179503 5.56233155,12.0204349 C5.70772269,11.9243351 5.80447937,11.9255895 5.86935189,12.1120636 C5.93971744,12.3143282 5.86953905,12.5273843 5.65336638,12.6577557 C5.46680985,12.7702705 5.35187606,12.6606611 5.25967296,12.5075988 C5.1544216,12.332876 4.99804078,12.2277802 4.80431622,12.1736491" id="Path"></path>
                    <path d="M2.13279224,14.298725 C2.03406777,14.2146358 1.93534239,14.1305466 1.83863022,14.0481714 C1.52501206,14.304104 1.52451871,14.3090346 1.76849352,14.6630237" id="Path"></path>
                    <path d="M5.32040608,11.2932605 C5.38466531,11.5304156 5.55453817,11.71225 5.65434658,11.9307832" id="Path"></path>
                    <path d="M6.6865263,9.65391621 C6.88442084,9.87811758 6.77021987,10.0711102 6.62580985,10.2610808" id="Path"></path>
                    <path d="M5.41148077,-7.21644966e-16 C5.50204033,0.0969187917 5.49305369,0.207735398 5.42367852,0.301372678 C5.34483125,0.407794141 5.37352278,0.503819824 5.41148077,0.607164542" id="Path"></path>
                </g>
                <g id="porrete" transform="translate(17.000000, 0.000000)" fill="#000000" fill-rule="nonzero">
                    <path d="M0,9 C0.556484632,9.64065297 1.16647687,10.2307894 1.86115622,10.7064256 C1.93276806,10.7554575 2.03707898,10.7973373 1.98676374,10.9160249 C1.9341815,11.0400595 1.82694909,11.0035545 1.744515,10.9531316 C1.33050109,10.6999014 0.958826593,10.3797931 0.605311318,10.0318913 C0.413378168,9.84300639 0.220216664,9.65568804 0.0138044663,9.4628207 C0,9.31257982 0,9.16718368 0,9 Z" id="Path"></path>
                    <path d="M17.984569,28.6859462 C17.9051868,28.9274023 17.8588902,29.161766 17.7039317,29.3540081 C17.669498,29.3967254 17.65156,29.4747221 17.6629764,29.528699 C17.7616066,29.9950351 17.5132028,30.3735903 17.363246,30.7796467 C17.2344698,31.1283458 17.0091537,31.3612005 16.6554008,31.4778428 C16.4282085,31.5527541 16.1941509,31.4271704 16.204925,31.1869282 C16.2278056,30.6767479 16.2518286,30.1705606 16.6068196,29.7335635 C16.8335978,29.4544031 17.0865062,29.1970987 17.2993917,28.9082944 C17.513414,28.617953 17.505143,28.5810046 17.3081657,28.29247 C17.2167008,28.1584929 17.1375932,28.0187778 17.0931616,27.8623686 C16.9430598,27.33396 16.6060125,26.9081719 16.2966208,26.4742236 C15.953797,25.9933824 15.6992053,25.4481532 15.2880241,25.0204234 C14.8391074,24.553441 14.5426196,23.9945665 14.2463163,23.4339105 C14.0926888,23.1432264 13.9978378,22.8205056 13.834249,22.5364277 C13.5140833,21.9804503 13.3339946,21.3718589 13.1144353,20.777337 C12.9915483,20.4445846 12.8031153,20.1453721 12.6214265,19.8431249 C12.5712015,19.7595757 12.4997044,19.7035446 12.3961639,19.7072707 C12.1336745,19.7167038 11.8746586,19.6829362 11.6163075,19.6444676 C11.5047566,19.627855 11.4353188,19.6523636 11.3773593,19.7639817 C10.9087011,20.6665366 10.6116463,21.6228998 10.3879211,22.6135055 C10.1298475,23.7561986 9.95502903,24.914355 9.69699557,26.0560197 C9.44633452,27.1650661 9.3271485,28.2886654 9.24056289,29.420644 C9.19381981,30.0317476 9.12936056,30.6415529 9.09968359,31.2546488 C9.0834246,31.590568 8.74517997,31.8925343 8.41569592,31.8507302 C7.85445434,31.7795084 7.2846868,31.7868228 6.73034227,31.6388379 C6.48069471,31.5721964 6.41745244,31.4063063 6.37463435,31.178799 C6.18122073,31.3111154 6.19440695,31.4450728 6.2901144,31.6021929 C6.35024725,31.7009132 6.49627198,31.7958372 6.40482544,31.9224184 C6.30600364,32.0592112 6.14896468,31.9806019 6.01969829,31.9456907 C5.80520204,31.887763 5.67541728,31.7107959 5.68287068,31.5076314 C5.69028394,31.3055544 5.86978453,31.0906498 6.08666265,31.0654555 C6.22578475,31.0492925 6.33302125,30.9981705 6.43598982,30.9124745 C6.53123807,30.8332049 6.6437905,30.7811388 6.76344417,30.7476269 C7.05952774,30.6646903 7.34594437,30.5575176 7.62942559,30.4376326 C7.88349819,30.3301845 8.15962953,30.358925 8.42787078,30.372781 C8.64287627,30.383886 8.70008068,30.3013372 8.72697717,30.0839683 C8.84814434,29.1047487 8.89252734,28.1164696 9.08483106,27.145354 C9.29576576,26.0801574 9.47632133,25.0088631 9.69574194,23.9454874 C9.8592504,23.1530753 10.0067464,22.356867 10.2530691,21.5815818 C10.4191855,21.0587426 10.5320781,20.5182651 10.652267,19.9819969 C10.7346593,19.6143755 10.6813052,19.531037 10.3018517,19.5217416 C9.71924871,19.5074697 9.21440452,19.261571 8.71314509,19.0218768 C8.35472848,18.8504876 8.20658174,18.7363405 8.36695406,18.1896529 C8.44074079,17.938123 8.41272386,17.6578864 8.44025906,17.3916322 C8.49225609,16.8888478 8.54609196,16.3861364 8.6098448,15.8847458 C8.6306091,15.7214381 8.60501345,15.6341151 8.43803989,15.543614 C8.07653574,15.347674 7.96103308,15.1333595 8.13038218,14.7563836 C8.18085367,14.6440321 8.23504028,14.5354319 8.30754877,14.4348318 C8.36465039,14.3556099 8.48915304,14.2917559 8.38474773,14.1623506 C8.28268344,14.0358453 8.20323711,13.9368271 7.98998041,13.9833351 C7.37606715,14.1172308 6.75302997,14.2109071 6.15387634,14.4072349 C5.92130472,14.4834444 5.69716123,14.5854355 5.46412478,14.659959 C5.32080588,14.7057955 5.31742991,14.7853826 5.35064835,14.9059673 C5.46809482,15.3322978 5.22891283,15.8159237 4.83645906,16.0129624 C4.20017473,16.332418 3.58195201,16.1503677 2.99162653,15.9187578 C2.56489578,15.7513307 2.57710835,15.3578742 2.94907392,15.0834851 C3.38193151,14.7641813 3.84027033,14.5431453 4.39535681,14.6011545 C4.53289499,14.6155248 4.64876773,14.5646361 4.76652052,14.5037971 C5.62611699,14.0596739 6.54403695,13.7975307 7.49448482,13.6361366 C7.62025094,13.6147808 7.74262808,13.5735667 7.87932036,13.5382593 C7.79987546,13.3051517 7.64599096,13.1500281 7.5166985,12.9846859 C6.74173262,11.9936222 6.01277097,10.9668029 5.22905333,9.98399076 C4.37262513,8.90999609 3.51689587,7.83528206 2.66372741,6.75860945 C2.52583181,6.58458872 2.40104414,6.40177832 2.24922387,6.23682257 C2.12955612,6.10680328 2.08322576,5.91869607 2.01912287,5.75630726 C1.94337915,5.56442765 2.10673918,5.42917904 2.26205797,5.33450088 C2.41408387,5.24182632 2.55833751,5.27269534 2.67328377,5.41023553 C3.52904825,6.43419286 4.4154038,7.43178694 5.21281298,8.50518449 C5.83877366,9.34779546 6.51659397,10.1526346 7.18459876,10.9634141 C7.63495841,11.5100328 8.01919605,12.1009242 8.40954332,12.6886642 C8.49404638,12.8158987 8.58049324,12.9419405 8.71482904,13.0438149 C8.85804368,12.9103815 8.93312276,12.7683173 8.95197141,12.5697907 C9.01658768,11.8891682 9.20789342,11.2332412 9.40173034,10.5810023 C9.60897531,9.88364491 9.89433765,9.21412603 10.2144224,8.56135884 C10.3314407,8.32271694 10.4935815,8.1060898 10.6098145,7.91997069 C9.75045324,7.28759977 9.08524092,6.56469542 8.86191651,5.47589639 C8.64771463,4.43156526 8.66440329,3.39567814 8.77520204,2.34955992 C8.81435717,1.97986745 9.01951119,1.65300759 9.05682392,1.28788139 C9.12210719,0.649051696 9.5299741,0.370677349 10.0955653,0.226684053 C10.390441,0.151611903 10.6676288,0.039434599 10.9831667,0.00948441884 C11.5749367,-0.0466863891 12.1040637,0.155239571 12.5969753,0.388179344 C13.0342741,0.594836614 13.4278287,0.914070941 13.7475845,1.31757094 C14.4244851,2.17175269 14.7326668,3.13038358 14.6357015,4.20324441 C14.5081028,5.6150593 13.7820886,6.68198409 12.6322048,7.48187626 C12.5704803,7.52481277 12.494442,7.55165234 12.4743587,7.60152247 C12.9281152,8.46135018 13.4258665,9.2757742 13.7149792,10.1907914 C13.7585304,10.3286294 13.790209,10.4733125 13.8033691,10.6170178 C13.8460049,11.082532 14.1500341,11.370527 14.4923552,11.6235238 C14.6892254,11.7690218 14.8538001,11.9295111 14.9551376,12.1524634 C15.0036047,12.2590924 15.0718002,12.3641338 15.1687472,12.4186924 C15.42999,12.565712 15.5132247,12.8168485 15.5965523,13.0730416 C15.6752556,13.3150259 15.5866515,13.5207897 15.3485992,13.6162139 C15.2136788,13.6702947 15.0716171,13.7095249 14.9298033,13.7428878 C14.7601224,13.7828064 14.6726325,13.8796777 14.694006,14.0533767 C14.746258,14.4780043 14.75637,14.9081422 14.8597274,15.3262338 C14.8725227,15.3779993 14.8895733,15.4333054 14.8834236,15.4844273 C14.8305392,15.9240827 14.9469877,16.3531557 14.9950872,16.7820291 C15.0334986,17.1244956 15.0787698,17.4649278 15.0600965,17.8065063 C15.0295716,18.3648806 14.8101784,18.8099648 14.2787273,19.0859893 C13.9396431,19.262105 13.6271019,19.4888564 13.2748112,19.6465695 C13.1052599,19.7224755 13.1845323,19.876218 13.2241861,19.9882126 C13.3620855,20.3776705 13.5057009,20.7655238 13.7081941,21.1285032 C14.0451006,21.7324273 14.2050314,22.4155844 14.5500695,23.015538 C15.004178,23.8051484 15.4627419,24.5901506 16.0351202,25.3061929 C16.5812599,25.9894062 17.0792479,26.7078202 17.3995503,27.532828 C17.5049754,27.8043734 17.6417832,28.0597164 17.8447314,28.2783218 C17.9408811,28.3818921 18.0385845,28.503303 17.984569,28.6859462 M12.1105248,7.2542523 C12.692942,6.98072164 13.1583627,6.57222759 13.5180244,6.04138411 C13.7354484,5.72047858 13.8553549,5.35483531 13.9830465,4.9957267 C14.2784836,4.16487554 14.2863137,3.33505985 13.9416785,2.50985392 C13.6735689,1.86788268 13.2208478,1.38966876 12.6717515,0.976245984 C12.3132561,0.706328953 11.8893865,0.608628716 11.4821971,0.516595479 C10.9590437,0.398353584 10.4341247,0.54820356 9.93715578,0.751727755 C9.76388174,0.822688922 9.64316533,0.940830361 9.57592418,1.11621609 C9.30350298,1.82678247 9.08343305,2.54718452 9.09664886,3.32083429 C9.10411353,3.75784124 9.10639117,4.19437611 9.15922625,4.62909576 C9.26499574,5.49935267 9.43136083,6.34471744 10.1533944,6.95032889 C10.4430311,7.19326446 10.7610163,7.39991611 11.1512551,7.41779461 C11.4659817,7.43221266 11.7772158,7.3709635 12.1105248,7.2542523 M11.5490065,14.970833 C11.4181879,15.0354794 11.2876503,15.1006991 11.1564464,15.1645587 C11.0789333,15.2022855 11.0107731,15.2442723 10.9837801,15.336302 C10.9151163,15.5703988 10.7284575,15.7018918 10.5236091,15.7866128 C10.1113954,15.9571084 9.67976325,15.9074308 9.25808747,15.8247836 C9.07665365,15.7892205 8.99706858,15.8199251 8.98774812,16.0068086 C8.9763064,16.2362323 8.9714187,16.4671988 8.93963385,16.6941441 C8.86838532,17.2028745 8.83238604,17.7130491 8.83358257,18.2263148 C8.83393549,18.3613653 8.84746682,18.5152821 8.9705278,18.5742102 C9.258634,18.7121662 9.55683464,18.9019383 9.8602181,18.9205713 C10.5422859,18.9624738 11.2011351,19.2198035 11.9032679,19.0995981 C12.230768,19.0435333 12.5751919,19.0697954 12.911959,19.0315796 C13.6015351,18.9533216 14.1442774,18.6738943 14.4280952,18.0074706 C14.6202412,17.5562999 14.5628282,17.0719041 14.5030616,16.6220204 C14.3954913,15.812282 14.2835995,15.0038896 14.2134588,14.1897761 C14.1914148,13.9339103 14.1795928,13.929524 13.9340596,14.0262183 C13.1492789,14.3352797 12.365146,14.645985 11.5490065,14.970833 M9.89589485,10.2845014 C9.53637742,11.2370923 9.363483,12.2303154 9.25309199,13.2367511 C9.24671757,13.2948756 9.24648444,13.3752551 9.27998425,13.4127711 C9.57881666,13.7474259 9.67017869,14.2416652 10.1483652,14.4508037 C10.3073092,14.520317 10.5006538,14.5903052 10.6342889,14.7252883 C10.7746118,14.8670266 10.9124316,14.8364596 11.073542,14.7665473 C11.9101909,14.4034892 12.7482026,14.043435 13.5890665,13.6902147 C14.0849305,13.4819164 14.1125538,13.4842824 14.021865,12.9519314 C13.894086,12.2018657 13.8151363,11.4188573 13.1125042,10.9186989 C13.0641765,10.8842949 13.0352981,10.8238114 12.9933132,10.7792647 C12.4893796,10.2445871 12.1138307,9.56258202 11.3354575,9.34199144 C11.2792313,9.32605744 11.2518975,9.27483846 11.2506396,9.21655102 C11.249174,9.14864922 11.2820864,9.09938041 11.3450019,9.07224301 C11.4315819,9.03490117 11.5307656,9.00769214 11.6146989,9.03505011 C11.9291389,9.13753856 12.2354387,9.26474645 12.4586265,9.52293879 C12.7559652,9.86691144 13.0455285,10.2175719 13.338433,10.5653591 C13.1542792,10.0282438 13.1202287,9.44357224 12.7572301,8.98228566 C12.7068853,8.9183094 12.6872443,8.82962078 12.6563236,8.75122229 C12.5071007,8.37286947 12.1905676,8.13311058 11.912077,7.86293509 C11.8793223,7.8311556 11.810069,7.81831678 11.761354,7.8246013 C11.5503982,7.85182019 11.3373858,7.86015601 11.1459688,7.98390059 C10.9097434,8.13661463 10.7693269,8.36583047 10.6334113,8.59294022 C10.3216589,9.11386585 10.1387842,9.69339792 9.89589485,10.2845014 M4.10870811,15.6662528 C4.24325416,15.6369616 4.37818647,15.6093142 4.51226344,15.5780194 C4.75994643,15.5202041 4.86197869,15.3715644 4.8332655,15.1208888 C4.2057868,14.8922462 3.66589834,15.0400962 3.16490971,15.4698126 C3.41677681,15.6715384 3.5085505,15.6898117 4.10870811,15.6662528 M14.4010678,12.6875753 C14.4191283,12.7928808 14.4360353,12.8983998 14.4554565,13.0034552 C14.5233252,13.3706018 14.524459,13.3733022 14.8690915,13.273545 C14.9505344,13.2499693 15.0665575,13.2606528 15.0853026,13.1391141 C15.1037562,13.0194609 15.0754596,12.9163851 14.9699007,12.8361643 C14.7658553,12.6811039 14.6102446,12.4853494 14.4981105,12.2535835 C14.4501913,12.15454 14.3884625,12.0598844 14.2299023,12.0343697 C14.2880928,12.2572041 14.339394,12.4536556 14.4010678,12.6875753 M7.40707732,31.2559526 C7.47409379,31.2724163 7.54027991,31.2968322 7.60827815,31.3038965 C7.83580993,31.3275313 8.06526161,31.3735841 8.28997978,31.2893745 C8.41838555,31.2412536 8.48133269,31.1430869 8.48655069,31.0069601 C8.49058128,30.901819 8.41967228,30.8606191 8.33607281,30.830617 C8.01806145,30.7164839 7.40291855,30.913902 7.20058377,31.1997136 C7.24918332,31.2457861 7.3142546,31.2357067 7.40707732,31.2559526 M10.0211257,15.0236887 C9.83575637,15.0678335 9.65364009,15.0561131 9.48259578,14.9725527 C9.33854655,14.9021823 9.18327882,14.9040313 9.03220373,14.8955423 C8.94123324,14.890431 8.7953346,14.8684569 8.77371458,14.9855882 C8.74890773,15.1199896 8.89520571,15.132834 8.99259009,15.1710189 C9.34252148,15.3082247 9.72182706,15.248476 10.0793577,15.3345401 C10.1301046,15.3467523 10.1909896,15.357419 10.2245767,15.2993001 C10.2636087,15.2317622 10.2158704,15.1814917 10.1754891,15.1370574 C10.139935,15.0979341 10.0945413,15.0677071 10.0211257,15.0236887 M16.7686139,30.7462809 C16.8262592,30.6487549 16.8864441,30.5550505 16.9592033,30.4655694 C17.1318787,30.2531966 17.2366038,30.010209 17.212254,29.686752 C16.9174621,30.0420152 16.7435626,30.4065654 16.6619647,30.8689226 C16.7143956,30.8114388 16.7336717,30.7903049 16.7686139,30.7462809 Z" id="Shape"></path>
                    <path d="M1.1830762,7 C1.35003806,7.04501765 1.50629672,7.07093043 1.32610504,7.27666018 C1.26054937,7.35150572 1.36168319,7.46210476 1.40839757,7.54597112 C1.72216816,8.10928678 2.14849027,8.55502488 2.80273348,8.7562857 C2.81499535,8.76005755 2.82770849,8.76315963 2.83913399,8.76864851 C2.91554016,8.80535947 3.03949065,8.82121668 2.98772431,8.93979944 C2.94450926,9.03879068 2.84380213,8.99115881 2.76581863,8.9681434 C2.11977805,8.77747829 1.63447814,8.39063644 1.30275926,7.82974627 C1.19247572,7.64327145 1.08019212,7.45345239 1.01903101,7.2438655 C0.982158017,7.11750933 0.980946614,7.00199341 1.1830762,7 Z" id="Path"></path>
                    <path d="M12.9441569,10.8352544 C13.0345735,10.9796871 13.2449246,11.061653 13.2366022,11.238806 C12.9677521,11.1446605 12.9134737,10.9356194 12.7631579,10.7633869 C12.8697492,10.749695 12.8900652,10.8033311 12.9441569,10.8352544 Z" id="Path"></path>
                </g>
            </g>
        </g>
    </g>
</svg>