<?xml version="1.0" encoding="UTF-8"?>
<svg width="511px" height="379px" viewBox="0 0 511 379" version="1.1" xmlns="http://www.w3.org/2000/svg" xmlns:xlink="http://www.w3.org/1999/xlink">
    <!-- Generator: Sketch 63.1 (92452) - https://sketch.com -->
    <title>Group 4</title>
    <desc>Created with Sketch.</desc>
    <g id="Page-1" stroke="none" stroke-width="1" fill="none" fill-rule="evenodd">
        <g id="Group-4" fill-rule="nonzero">
            <path d="M419.314472,201.845948 C419.221987,199.468037 416.574095,197.134544 419.497375,194.732205 C421.42273,193.149922 423.271535,191.474806 425.379757,189.646025 C424.721777,189.410084 424.377514,189.179191 424.033104,189.17897 C416.716087,189.174272 409.399106,189.195163 402.082089,189.211873 C399.16626,189.218542 396.221104,189.491863 393.341318,189.173959 C388.818353,188.674662 384.322355,189.192344 379.821304,189.062869 C374.006137,188.895571 368.143787,188.754728 362.384842,189.004192 C355.157727,189.31727 349.213245,188.397122 342,188.670996 C330.833898,189.094942 324.825292,188.757104 313.667969,188.670996 C305.024737,188.604268 294.110363,188.08187 285.5,187.587677 C280.259625,187.286906 273.894543,190.602208 271.539746,194.747146 C262.563503,210.546985 254.173746,226.653123 245.743077,242.739328 C244.509088,245.093841 242.801352,245.952548 240.632888,244.829713 C238.774491,243.86745 237.1903,244.023915 235.513994,244.765601 C230.456762,247.003166 224.995929,245.892914 219.758192,246.724337 C204.747098,249.107166 189.480668,248.23057 174.400313,250.057711 C166.035881,251.071189 157.596174,251.491027 149.227352,252.59824 C145.345009,253.111869 143.599515,251.35 143.778176,247.441962 C143.941767,243.863434 143.645499,240.384556 141.184716,237.550016 C139.442689,235.543345 139.26637,232.669307 137.09195,230.621128 C132.760337,232.907643 128.855768,235.884794 124.962359,238.833057 C116.629726,245.142901 108.001379,251.018831 99.3408086,256.862596 C90.8324665,262.603671 83.1310499,269.413179 74.9986222,275.651634 C66.3356164,282.297086 57.9397812,289.280378 49.307386,295.964997 C41.6478675,301.89627 33.3498846,307.137275 26.6146217,314.241309 C25.9407424,314.9521 25.3334133,315.725859 24.3936912,316.822129 C26.9608486,316.542765 28.8491921,315.672507 30.8021132,314.99823 C34.438506,313.742677 37.833321,315.893286 38.3579323,319.665438 C38.5819592,321.276258 37.3808955,321.667523 36.3393465,322.264128 C33.6425186,323.808957 30.5079942,323.510913 27.6124184,324.340346 C20.4175091,326.401236 14.3520585,330.595751 7.88668677,334.015178 C5.58778853,335.231012 3.77644435,335.556397 1.96553354,333.621482 C0.149015582,331.680525 -0.781012903,329.818454 0.826731789,326.929382 C2.39825029,324.105381 4.24904883,321.49269 6.00084245,318.819718 C8.45839772,315.069822 8.56264172,311.153935 7.77809946,306.993466 C7.59611868,306.028404 6.54576152,304.718797 8.06392773,304.097432 C9.30939839,303.587745 9.98880213,304.882798 10.7186539,305.660942 C11.1888607,306.162227 11.5317675,306.782635 12.2006574,307.730896 C14.4845692,303.683544 15.6167031,299.470607 16.9185058,295.359917 C18.2654256,291.106782 21.5400878,290.070018 24.9446604,292.909568 C26.0887931,293.863798 26.0490341,294.776945 25.8878778,296.065328 C25.4619124,299.470828 24.1057142,302.605513 23.2023017,305.86503 C23.43996,305.946975 23.7032569,306.101027 23.7567022,306.047196 C30.2333252,299.524218 38.2236042,294.915521 45.2538806,289.069141 C58.5336083,278.025676 72.0952447,267.308866 85.774349,256.759796 C96.4302924,248.542192 108.035964,241.630438 118.777733,233.505335 C122.853142,230.422677 127.061025,227.508533 131.291282,224.639303 C133.002062,223.47894 133.120222,222.391974 132.14456,220.652102 C128.80093,214.689565 125.199786,208.896114 121.302374,203.280793 C117.860875,198.322339 115.207928,192.902319 112.403786,187.587677 C110.152947,183.321664 107.925108,179.047177 105.524991,174.862722 C104.961082,173.879623 104.287332,172.799658 103.187035,172.633889 C100.129307,172.173226 100.212661,170.127903 100.100846,167.753179 C99.8818081,163.10211 102.354784,159.438414 104.308138,155.660717 C108.276472,147.986072 112.755906,140.57491 116.71736,132.896986 C119.65927,127.195133 121.927061,121.147244 124.847684,115.433268 C127.35305,110.531722 130.09754,105.64719 132.288359,100.698251 C134.172857,96.4412933 137.439238,93.4947427 139.514367,89.5998123 C141.017952,86.777653 144.548008,85.9568325 147.459354,87.5980503 C149.461238,88.7265785 151.4228,87.8738034 153.363243,87.6631837 C161.988915,86.7269167 170.631834,86.8324979 179.28071,87.0126637 C180.388182,87.0357291 181.496411,87.028296 182.604289,87.0267572 C189.062089,87.0177672 189.348489,86.445323 189.531042,79.9262143 C189.801468,70.2686904 189.079686,60.672533 188.36982,51.0694581 C188.199478,48.7650913 189.584515,46.2978486 187.795692,44.1251686 C186.368895,44.1154964 186.225687,45.3152383 185.814375,46.1392372 C184.871914,48.0273764 184.071463,49.9855865 183.166096,51.8929776 C181.832558,54.7023607 179.144732,55.9775994 176.863383,54.9283355 C175.036914,54.0882999 174.686528,51.1271216 175.68794,48.4114375 C178.328694,41.2501957 182.509499,34.7988597 185.176335,27.6724835 C186.469736,24.216191 188.549716,21.0616287 188.98556,17.2456674 C189.180582,15.53827 190.823281,14.9207037 192.448014,15.0080235 C194.333895,15.1093723 196.434019,15.1170179 197.099487,17.4647428 C199.017795,24.2324306 201.985768,30.3885587 206.974513,35.4929177 C208.636763,37.1937012 208.071859,39.1447125 206.549202,40.5910075 C204.699326,42.3480823 202.669331,40.9601692 201.064592,40.0968605 C199.661941,39.3422745 198.345428,38.0917408 197.835988,36.2797806 C197.491762,35.0554532 196.757142,33.9541492 195.739443,33.1264932 C195.213531,49.2677683 197.641999,65.2830903 197.048633,81.3901675 C196.911068,85.1240736 197.094119,85.0682429 200.81169,84.7232477 C210.296413,83.8430685 219.688561,81.9390858 229.248154,81.9443819 C234.574392,81.9473387 239.917766,82.1110536 245.219821,82.580661 C248.228909,82.8471845 251.226191,82.6173044 254.184592,82.7962176 C256.145213,89.5642006 255.987727,90.1846084 251.704146,92.0992582 C253.851249,97.1560907 256.694144,101.840588 259.722747,106.377481 C264.362212,113.327445 268.510775,120.531442 272.038801,128.097944 C274.751068,133.914922 276.657977,140.168392 280.477956,145.386387 C283.147761,149.033282 285.443496,152.863392 287.795785,156.693041 C288.766596,158.2735 288.912646,159.27784 288.073902,160.971011 C285.800559,165.560326 283.838388,170.303841 281.778568,174.997503 C281.588988,175.429501 281.583602,175.942098 281.339608,177.217586 C342,177.217586 385.237241,177.57556 428.091617,177.217586 C428.174252,176.057259 409.138696,170.654041 408.633923,170.126834 C407.141626,168.568188 406.487889,166.802413 407.86896,164.992939 C409.194659,163.255996 411.206374,162.527189 413.248597,163.541735 C415.559826,164.689939 418.046175,164.9955 420.479143,165.532544 C422.061748,165.881897 423.597832,165.846894 424.341767,163.728211 C425.076922,161.634749 426.593529,162.605136 428.091617,163.086248 C434.15513,165.033635 439.265061,169.02244 445.307768,170.98066 C446.729087,171.441249 448.339101,171.533087 449.592383,172.259242 C453.448219,174.493362 454.076649,178.424245 451.24851,181.972854 C449.458655,184.218692 447.075932,185.907569 445.786202,188.670996 C445.090925,190.160742 443.635446,191.401133 441.319605,190.930614 C439.629908,190.587322 438.132853,191.978339 436.682723,192.860554 C432.510956,195.398486 427.969361,197.333106 423.975075,200.596584 C422.370189,201.145088 421.126056,202.187802 419.314472,201.845948 Z M189.546886,165.399384 C188.946382,157.078171 189.071294,148.736729 188.818151,140.406857 C188.556431,131.794765 188.315702,123.190909 188.304081,114.571448 C188.29661,109.03622 189.155423,103.559163 188.946696,98.0248476 C188.871863,96.0407342 188.271433,95.1519792 186.135175,95.0961859 C175.184145,94.8101986 164.25475,95.3089788 153.327035,95.8584036 C151.147689,95.9679733 148.676059,95.8639303 147.024746,97.4218125 C144.289147,100.002697 141.624672,102.343292 139.841531,106.173743 C131.757781,123.538842 121.872794,140.012939 113.604665,157.309599 C111.341264,162.044565 110.655451,166.530749 113.209125,171.62603 C116.360112,177.913159 119.553265,184.188036 122.990264,190.30396 C127.851736,198.954575 133.352725,207.244432 138.376921,215.807574 C139.695131,218.054296 140.53642,218.423268 142.653531,216.737025 C149.877308,210.983386 157.130209,205.253052 164.589052,199.810574 C172.289842,194.191642 180.222728,188.887889 188.106329,183.522842 C189.617181,182.494645 190.259944,181.301323 190.158845,179.50867 C189.904761,175.002846 189.738164,170.492085 189.546886,165.399384 M275.638507,159.80665 C274.864359,158.286359 274.197784,156.699158 273.298392,155.256777 C267.801665,146.441445 263.84615,136.937024 260.03248,127.303791 C257.989851,122.144141 255.555702,117.058597 252.220134,112.403079 C247.395773,105.669583 242.238733,99.1110126 238.520757,91.6374619 C238.023436,90.6378199 237.265151,90.4647558 236.304632,90.4662838 C223.834357,90.4862643 211.478645,91.7419377 199.18347,93.7634769 C197.010249,94.1207974 196.428651,95.1296877 196.505014,97.2209205 C196.655251,101.335341 196.770479,105.476245 196.482991,109.577014 C195.261379,127.001932 198.303446,144.257951 198.450086,161.629701 C198.478732,165.022324 198.705627,168.444644 198.805342,171.855708 C198.846125,173.250538 198.849795,174.69465 200.93068,174.841407 C204.767204,175.112038 205.564612,176.759925 203.472272,180.009679 C207.518648,180.29013 211.49211,180.775332 215.520538,180.635908 C223.342439,180.365239 231.147667,180.10417 238.962227,179.403807 C248.04785,178.589572 257.211718,178.599833 266.344747,178.387492 C269.076343,178.324006 270.941086,177.307655 272.136967,174.874531 C273.244938,172.620201 274.345457,170.3501 275.643672,168.204281 C277.263166,165.527386 277.335029,162.920756 275.638507,159.80665 M199.16331,187.636111 C196.17857,187.990383 193.637974,189.276463 191.29096,191.128383 C188.374671,193.429507 185.430806,195.715175 182.347495,197.782274 C169.991488,206.066015 158.528693,215.572775 146.255191,223.96464 C144.754927,224.990406 144.278227,225.974905 145.410952,227.668333 C148.100493,231.689303 150.31066,235.987299 152.009433,240.517256 C152.714485,242.397381 153.774848,242.750805 155.706825,242.491724 C162.475667,241.584049 169.224718,240.527923 175.991789,239.611165 C191.097119,237.564791 206.293771,238.059592 221.446174,237.485187 C225.195359,237.343091 229.044721,237.002047 232.75661,237.480212 C234.779614,237.740785 235.698779,237.333953 236.652214,235.812245 C245.289508,222.026538 252.794667,207.594135 260.90461,193.507546 C261.684107,192.153596 262.484483,190.761787 262.156306,188.833117 C253.094218,188.72387 244.149442,188.705779 235.209942,188.288354 C228.083372,187.955582 220.925168,188.302742 213.786646,188.318696 C209.107745,188.329142 204.33599,188.6567 199.16331,187.636111" id="Shape" fill="#000000"></path>
            <g id="Group-3" transform="translate(30.000000, 335.000000)" fill="#000000">
                <path d="M35.9384979,30.4304379 C36.2424677,39.4668919 34.0614525,42.0125887 24.1894851,43.1825279 C17.7392702,43.9469465 11.2224405,44.1346893 4.70196525,43.9131076 C1.54823272,43.805944 0.188716097,42.5265277 0.0979290968,39.2739737 C-0.0688569958,33.2983709 -0.0985181538,27.3537841 0.635859903,21.4012376 C0.864302845,19.5494973 1.51616939,18.099709 2.78022109,16.9374552 C8.27596821,11.8842916 14.6466338,8.89049116 22.1670861,9.00306604 C28.1379882,9.09238869 33.8445653,14.4106967 34.3893347,20.4060229 C34.6889737,23.7035909 36.3358883,26.7628739 35.9384979,30.4304379 M12.8148376,27.2574706 C17.0071189,27.8263687 21.192451,27.8298309 25.3634113,27.0681361 C26.3317847,26.8913667 27.6242455,27.2828734 27.9593654,25.8397377 C28.16009,24.9753812 27.8912414,24.0933627 27.307812,23.4694969 C26.3909327,22.4890966 25.1755434,22.6107422 24.0781509,23.0744114 C22.6315945,23.6855955 21.3053323,24.5217875 19.7038408,24.8178679 C14.6341473,25.7553206 9.58680786,26.3304432 4.17312351,24.1440906 C3.80693362,29.2672482 3.60295635,33.8079311 4.61640455,38.2980805 C8.75607285,38.8164841 12.6486961,39.7201315 16.5782874,38.8010401 C16.6274739,34.3054832 16.7109741,34.2822978 20.9296736,34.0023613 C22.9958158,33.8653112 25.0920533,33.6462946 27.5087587,32.5638159 C25.0813972,31.3708179 23.0968828,31.7706499 21.1675491,31.9954626 C17.9929528,32.3654174 14.8852458,31.9761281 11.7999415,31.3310215 C10.6803392,31.0969504 9.56220451,30.7799402 9.7679093,29.0770578 C9.97830515,27.3353126 11.0241365,27.1276558 12.8148376,27.2574706 M7.29113924,18.7326091 C12.6284123,21.0478333 17.9946887,19.5817077 23.3344496,18.7804982 C24.544228,18.5989433 26.0641425,18.099305 25.970565,16.4954743 C25.8816224,14.9714575 24.3788442,14.5302983 23.1582925,14.3222305 C17.3240098,13.3277779 12.097061,14.9183133 7.29113924,18.7326091 M23.6685741,39.1107903 C25.1693917,38.5784812 27.08033,39.3107729 29.164557,37.6139408 C25.6092409,37.4601431 23.1676124,38.2540724 20.7341772,39.1960784 C21.5529726,39.1960784 22.3717686,39.1960784 23.6685741,39.1107903 Z" id="Shape"></path>
                <path d="M42.1689337,30.9568426 C42.1607001,29.6128293 42.1528773,28.3263567 42.1454422,27.0398842 C42.1383487,25.8124784 41.9790979,24.5923142 42.0023092,23.3618448 C42.02425,22.1985807 42.0967203,22.2835619 43.1560209,21.9415246 C44.7247561,21.4350034 46.3567574,21.3532838 47.9375608,20.9661076 C48.7260261,20.7729913 49.5469879,20.6424325 50.3563729,20.624047 C52.5358366,20.57454 54.6898821,20.226686 56.8605633,20.1177976 C58.5916164,20.0309604 60.3326417,20.1482862 62.0637638,20.0622294 C63.9025168,19.9708258 65.7445631,20.0060631 67.5776889,20.0096238 C70.4149984,20.0151337 73.260008,20.0234858 76.0976553,20.2225235 C77.8684059,20.3467299 79.6385345,20.1332711 81.409285,20.0846454 C82.474063,20.055411 83.5453126,20.0030811 84.60269,20.0041451 C85.7225654,20.0052711 86.8552998,20.0256214 87.9797891,20.0897553 C89.774154,20.192097 91.5666916,20.176084 93.3611332,20.1006508 C95.6042466,20.0063544 97.8344474,20.1310811 100.043529,20.5619516 C100.149118,20.5825465 100.278352,20.5766407 100.308775,20.685595 C100.466329,21.2498277 100.997321,21.6498213 100.957562,22.3061643 C100.81236,24.7030858 101.327476,27.0640281 101.370229,29.4454217 C101.402764,31.2572165 101.821365,33.038674 101.694005,34.8521501 C101.654929,35.4085548 102.127668,35.8339039 101.966306,36.4406855 C101.772924,37.1678217 101.136773,37.6988827 100.390481,37.7396648 C97.8874414,37.8764247 95.378859,37.7124574 92.8747523,38.0356199 C91.0540018,38.2705901 89.1971772,38.2038895 87.3607273,38.3337805 C84.8770489,38.5094393 82.392979,38.4893336 79.907819,38.4500424 C78.5734879,38.4289466 77.239341,38.3405794 75.9056316,38.3510982 C74.6520928,38.360988 73.3992448,38.4610699 72.1460976,38.5213132 C71.4171709,38.5563564 70.6930423,38.4643315 69.9580893,38.5059874 C68.2894575,38.6005555 66.6056101,38.4927932 64.9457072,38.6542017 C62.8235979,38.8605548 60.7167658,38.805138 58.5956851,38.7288117 C56.849355,38.6659669 55.0935745,38.8714969 53.3472637,38.8084812 C51.3169361,38.7352147 49.2952951,38.9042492 47.2688829,38.8783308 C46.7073944,38.8711474 46.1440098,38.9240908 45.5833504,38.9717496 C45.1402675,39.0094138 44.712262,39.0822843 44.4068997,38.618576 C44.2408357,38.3663969 43.9991882,38.5359362 43.7780229,38.5792229 C42.8491999,38.7610205 42.3447743,38.3379624 42.4120934,37.4538171 C42.4747643,36.6307343 42.4386595,35.812474 42.3359803,34.9926064 C42.2655327,34.4300783 42.3747105,33.862083 42.3073952,33.2901388 C42.2187225,32.5366959 42.2116674,31.7734254 42.1689337,30.9568426 M43.6820763,29.4344681 C43.6885019,31.2097946 43.8223957,32.9797199 43.8912886,34.7521575 C43.9208372,35.5124032 43.9920295,36.2608409 44.0933959,37.0108979 C44.1185916,37.1973046 44.1748907,37.3920362 44.3790553,37.3427311 C44.844271,37.2303869 45.292678,37.3937873 45.7502397,37.3701366 C47.8791316,37.2601261 50.0077701,37.0949395 52.137802,37.0716072 C54.3086369,37.0478282 56.4789498,36.9719601 58.6551893,37.1275055 C61.7514194,37.3488078 64.8372932,36.9144776 67.9282953,36.7767626 C70.5420367,36.6603181 73.1572443,36.5973258 75.7739642,36.616818 C77.9504187,36.6330291 80.1270727,36.6628188 82.3029283,36.6826293 C84.3055689,36.7008595 86.310405,36.5073744 88.3137749,36.39776 C89.6079325,36.3269514 90.9003629,36.1958101 92.1950579,36.1709906 C93.5580087,36.1448663 94.9007691,35.887717 96.2624531,35.8790232 C97.3687635,35.8719603 98.4754038,35.8740259 99.5811767,35.8444614 C100.095087,35.8307199 100.300592,35.54295 100.252265,35.0011294 C100.148949,33.8428315 100.046461,32.6811051 100.025619,31.5192776 C99.9733078,28.6025982 99.5000928,25.7123344 99.5185251,22.7924594 C99.5213118,22.3507634 99.2219107,22.2614682 98.8590903,22.1855923 C96.893514,21.7745363 94.9040702,21.9116573 92.9271552,21.9559418 C90.9825753,21.9994963 89.0517603,21.7814906 87.1094454,21.799088 C84.4320698,21.8233483 81.7537191,21.7117964 79.0778329,21.9012511 C77.788673,21.9925265 76.4928726,21.9751893 75.2101151,21.8686192 C73.6917828,21.7424791 72.1700881,21.687633 70.6542584,21.699173 C69.3430425,21.7091599 68.0344523,21.6144752 66.7152447,21.7080105 C65.073659,21.8244006 63.4110613,21.6241747 61.7669728,21.7223501 C60.4915239,21.7985093 59.2220708,21.7302868 57.9508595,21.7775533 C57.073261,21.8101853 56.1793029,21.7193719 55.3200754,21.8578402 C53.8699221,22.0915367 52.4077505,22.1738039 50.9531253,22.2556399 C48.5877718,22.3887032 46.3016214,22.9262682 43.9987736,23.3971908 C43.751499,23.447758 43.5972998,23.576352 43.5592183,23.9077579 C43.5182272,24.2644882 43.4386018,24.6241967 43.4892773,24.9752696 C43.6980367,26.4214693 43.6135135,27.877155 43.6820763,29.4344681 Z" id="Shape" stroke="#000000" stroke-width="7"></path>
                <path d="M41.1454422,7.03988419 C41.1383487,5.81247839 40.9790979,4.59231416 41.0023092,3.36184479 C41.02425,2.19858072 41.0967203,2.28356189 42.1560209,1.94152458 C43.7247561,1.43500339 45.3567574,1.35328376 46.9375608,0.966107647 C47.7260261,0.772991315 48.5469879,0.64243251 49.3563729,0.624047046 C51.5358366,0.574540018 53.6898821,0.226686024 55.8605633,0.117797637 C57.5916164,0.0309603554 59.3326417,0.148286207 61.0637638,0.0622293853 C62.9025168,-0.0291742346 64.7445631,0.00606312918 66.5776889,0.00962380189 C69.4149984,0.0151337155 72.260008,0.0234858055 75.0976553,0.222523529 C76.8684059,0.34672987 78.6385345,0.133271072 80.409285,0.0846454009 C81.474063,0.0554109865 82.5453126,0.00308112146 83.60269,0.0041450609 C84.7225654,0.00527109104 85.8552998,0.0256214457 86.9797891,0.0897552875 C88.774154,0.19209705 90.5666916,0.17608401 92.3611332,0.100650806 C94.6042466,0.0063543702 96.8344474,0.131081103 99.0435289,0.561951637 C99.1491177,0.582546537 99.2783515,0.576640668 99.3087752,0.685594963 C99.4663294,1.24982767 99.9973212,1.64982132 99.9575622,2.30616431 C99.8123603,4.70308576 100.327476,7.06402806 100.370229,9.44542174 C100.402764,11.2572165 100.821365,13.038674 100.694005,14.8521501 C100.654929,15.4085548 101.127668,15.8339039 100.966306,16.4406855 C100.772924,17.1678217 100.136773,17.6988827 99.3904811,17.7396648 C96.8874414,17.8764247 94.378859,17.7124574 91.8747523,18.0356199 C90.0540018,18.2705901 88.1971772,18.2038895 86.3607273,18.3337805 C83.8770489,18.5094393 81.392979,18.4893336 78.907819,18.4500424 C77.5734879,18.4289466 76.239341,18.3405794 74.9056316,18.3510982 C73.6520928,18.360988 72.3992448,18.4610699 71.1460976,18.5213132 C70.4171709,18.5563564 69.6930423,18.4643315 68.9580893,18.5059874 C67.2894575,18.6005555 65.6056101,18.4927932 63.9457072,18.6542017 C61.8235979,18.8605548 59.7167658,18.805138 57.5956851,18.7288117 C55.849355,18.6659669 54.0935745,18.8714969 52.3472637,18.8084812 C50.3169361,18.7352147 48.2952951,18.9042492 46.2688829,18.8783308 C45.7073944,18.8711474 45.1440098,18.9240908 44.5833504,18.9717496 C44.1402675,19.0094138 43.712262,19.0822843 43.4068997,18.618576 C43.2408357,18.3663969 42.9991882,18.5359362 42.7780229,18.5792229 C41.8491999,18.7610205 41.3447743,18.3379624 41.4120934,17.4538171 C41.4747643,16.6307343 41.4386595,15.812474 41.3359803,14.9926064 C41.2655327,14.4300783 41.3747105,13.862083 41.3073952,13.2901388 C41.2187225,12.5366959 41.2116674,11.7734254 41.1689337,10.9568426 C41.1607001,9.61282935 41.1528773,8.32635671 41.1454422,7.03988419 Z M42.6820763,9.43446808 C42.6885019,11.2097946 42.8223957,12.9797199 42.8912886,14.7521575 C42.9208372,15.5124032 42.9920295,16.2608409 43.0933959,17.0108979 C43.1185916,17.1973046 43.1748907,17.3920362 43.3790553,17.3427311 C43.844271,17.2303869 44.292678,17.3937873 44.7502397,17.3701366 C46.8791316,17.2601261 49.0077701,17.0949395 51.137802,17.0716072 C53.3086369,17.0478282 55.4789498,16.9719601 57.6551893,17.1275055 C60.7514194,17.3488078 63.8372932,16.9144776 66.9282953,16.7767626 C69.5420367,16.6603181 72.1572443,16.5973258 74.7739642,16.616818 C76.9504187,16.6330291 79.1270727,16.6628188 81.3029283,16.6826293 C83.3055689,16.7008595 85.310405,16.5073744 87.3137749,16.39776 C88.6079325,16.3269514 89.9003629,16.1958101 91.1950579,16.1709906 C92.5580087,16.1448663 93.9007691,15.887717 95.2624531,15.8790232 C96.3687635,15.8719603 97.4754038,15.8740259 98.5811767,15.8444614 C99.0950873,15.8307199 99.3005917,15.54295 99.2522653,15.0011294 C99.1489487,13.8428315 99.0464615,12.6811051 99.0256186,11.5192776 C98.9733078,8.60259824 98.5000928,5.71233436 98.5185251,2.79245945 C98.5213118,2.35076337 98.2219107,2.26146816 97.8590903,2.18559231 C95.893514,1.77453634 93.9040702,1.91165729 91.9271552,1.95594183 C89.9825753,1.9994963 88.0517603,1.78149063 86.1094454,1.799088 C83.4320698,1.82334829 80.7537191,1.71179636 78.0778329,1.90125112 C76.788673,1.99252649 75.4928726,1.97518931 74.2101151,1.86861915 C72.6917828,1.74247909 71.1700881,1.68763303 69.6542584,1.69917299 C68.3430425,1.70915992 67.0344523,1.61447517 65.7152447,1.70801048 C64.073659,1.82440065 62.4110613,1.62417467 60.7669728,1.72235013 C59.4915239,1.79850933 58.2220708,1.73028679 56.9508595,1.77755334 C56.073261,1.81018531 55.1793029,1.71937193 54.3200754,1.85784018 C52.8699221,2.09153673 51.4077505,2.17380385 49.9531253,2.25563991 C47.5877718,2.38870321 45.3016214,2.92626821 42.9987736,3.39719081 C42.751499,3.44775797 42.5972998,3.57635201 42.5592183,3.90775795 C42.5182272,4.26448824 42.4386018,4.62419672 42.4892773,4.97526963 C42.6980367,6.42146933 42.6135135,7.87715504 42.6820763,9.43446808 Z" id="Shape" stroke="#000000" stroke-width="7"></path>
                <path d="M46.3502924,8.94666036 C46.1521941,7.48692017 46.2451079,6.07326261 46.0063559,4.67335655 C45.9460181,4.31956678 46.3235461,4.0766921 46.7875711,4.01078213 C47.3323449,3.93339844 47.9827366,4.28279477 48.0659984,4.73027789 C48.1336197,5.09370068 48.1185713,5.46768695 48.1220566,5.83709137 C48.1421692,7.96854525 48.4020159,10.0872069 48.6206408,12.2095385 C48.7274477,13.2463706 48.6136365,14.2942617 48.9621752,15.31962 C49.0552574,15.5934602 49.0028577,15.9217556 48.5031277,15.982089 C47.8413127,16.0619859 47.2869447,15.8744106 46.9701154,15.4227844 C46.7879273,15.1630819 46.6738514,14.8291986 46.692929,14.5352184 C46.81321,12.6819226 46.3456083,10.853541 46.3502924,8.94666036 Z" id="Path"></path>
                <path d="M57.17633,6.15932326 C57.1769685,5.62548768 57.232359,5.15701476 57.3364344,4.68443354 C57.4499095,4.16919213 57.7903746,3.95101443 58.4423775,4.00914953 C59.1619544,4.07330853 59.697289,4.5066187 59.498488,4.98330461 C58.7536556,6.76920653 59.0045241,8.60177629 59.1421671,10.3991682 C59.2510021,11.82032 59.2021775,13.2899829 59.9241294,14.665042 C60.1802766,15.1529123 59.7493765,15.8516906 59.2068276,15.9779469 C58.6961498,16.0967877 57.9354016,15.7196324 57.7004488,15.2236821 C57.6361376,15.0879216 57.5624565,14.9448974 57.5579963,14.8040148 C57.4847244,12.493168 56.82884,10.2079098 57.0426485,7.88379812 C57.0936983,7.32897796 56.9700551,6.76581192 57.17633,6.15932326 Z" id="Path"></path>
                <path d="M52.5168658,15.5157555 C52.0452287,14.9495042 51.908896,14.3003424 51.8369088,13.6554703 C51.5412287,11.0066598 51.2795547,8.35424427 51.0050449,5.70318903 C50.961486,5.28252513 51.2037596,5.07596983 51.5863116,5.01111722 C52.0400795,4.93419084 52.5524254,5.2670479 52.5581185,5.68306075 C52.5705704,6.59348182 52.6967314,7.49044165 52.7983913,8.39203457 C52.9904926,10.0957629 53.1336809,11.8049632 53.3444934,13.5063179 C53.4089619,14.0266316 53.5860629,14.5455434 53.7916368,15.033014 C53.9192623,15.3356414 54.1708951,15.6599136 53.8245883,15.8650396 C53.4881176,16.0643394 53.0422,16.0619275 52.7069961,15.7287817 C52.6502626,15.6723941 52.6005336,15.6093086 52.5168658,15.5157555 Z" id="Path"></path>
                <path d="M51.9086445,26.1145866 C52.2894143,26.3175808 52.3884658,26.5786602 52.3764954,26.9582711 C52.3449323,27.959231 52.4183882,28.9513255 52.6089858,29.9474559 C52.7608478,30.7411436 52.699947,31.5720987 52.7228956,32.3867827 C52.7265243,32.5156728 52.7127927,32.6284129 52.7993777,32.7484545 C53.1482336,33.2321052 53.0362657,33.6751253 52.5092007,33.9598848 C52.2352712,34.1078811 51.5074705,33.8241372 51.3426953,33.4727164 C51.2433496,33.2608468 51.1139931,33.028129 51.1838487,32.7862666 C51.3943472,32.0574343 51.2445049,31.3238094 51.1997028,30.6000217 C51.1183092,29.2849654 50.9752885,27.9728956 51.0036694,26.6537059 C51.0176241,26.0048934 51.2477367,25.8688532 51.9086445,26.1145866 Z" id="Path"></path>
                <path d="M56.0187218,29.4731522 C56.0131286,28.3526403 56.0019732,27.2788957 56.0000206,26.2051405 C55.9995772,25.9606029 56.0059405,25.7121008 56.0533162,25.4723378 C56.1322832,25.072763 56.4837418,24.9343905 56.8593703,25.0281842 C57.2055934,25.1146446 57.6983307,25.1485833 57.6268317,25.68338 C57.4668515,26.880086 57.6114754,28.0800362 57.6115377,29.2783939 C57.6115844,30.2887138 57.6250814,31.3007511 57.9474221,32.28905 C58.0224529,32.519087 58.068646,32.9500765 57.7130023,32.9512502 C57.3169688,32.9525625 56.8004892,33.1725204 56.4785296,32.6671474 C56.0442845,31.9854987 56.1300739,31.2418829 56.0865025,30.5225283 C56.066362,30.1899376 56.0877238,29.8525237 56.0187218,29.4731522 Z" id="Path"></path>
                <path d="M48.666599,31.1117836 C48.7108708,31.8597024 48.6461558,32.561311 48.957113,33.233456 C49.1290524,33.6051129 48.7467681,33.7402185 48.4693433,33.9018841 C48.1943994,34.0621012 47.9578764,34.021814 47.7418082,33.8123426 C47.4830295,33.5614597 47.2566586,33.2875787 47.242244,32.9417019 C47.1550029,30.8479465 47.08036,28.7537929 47.0013657,26.6597709 C46.9873646,26.2885697 47.0736203,25.9962484 47.6070646,26 C48.1769975,26.0040843 48.5277822,26.2641503 48.5490796,26.7619931 C48.5702995,27.2579992 48.5787589,27.7564868 48.5474217,28.2516962 C48.4879354,29.1917197 48.7614417,30.1187518 48.666599,31.1117836 Z" id="Path"></path>
            </g>
            <path d="M431.426567,224.076316 C428.32236,219.81808 425.351653,215.730755 422.380908,211.643431 C422.106788,213.971903 420.545299,215.185735 419.483312,216.690663 C415.092072,222.913302 411.033561,229.318104 408.900128,236.715303 C408.619293,237.689165 407.983807,238.421057 407.016668,238.411699 C404.814241,238.390427 403.389294,236.812801 401.993762,235.424969 C400.938156,234.375247 400.673345,232.968019 401.442664,231.534572 C405.705376,223.59171 410.275221,215.842134 416.041184,208.851679 C417.006134,207.68179 418.363867,206.948391 419.499299,205.99374 C420.998656,204.733118 421.990981,204.538452 423.171668,206.191551 C423.598465,206.789062 424.332991,207.045908 425.067739,206.941404 C428.250955,206.488734 430.0251,208.134074 431.682327,210.633329 C433.501058,213.376102 435.889175,215.743809 437.979579,218.314566 C440.774538,221.751815 441.974735,225.847725 443,229.866839 C436.611868,233.341704 432.421749,238.650931 428.332969,244.023239 C426.799153,246.038569 425.535303,248.231632 422.786006,249 C421.711,248.150368 420.622936,247.296966 419.858254,246.096943 C418.580642,244.091927 418.484718,242.414321 420.378044,240.498585 C424.052193,236.78092 427.366943,232.716027 430.998731,228.954567 C432.525203,227.373595 432.880633,225.996078 431.426567,224.076316 Z" id="Path" fill="#000000"></path>
            <path d="M285.727168,20.2515057 C286.196735,17.8005132 286.282203,15.909342 284.25977,13.9944166 C281.654101,11.527283 285.527466,12.1381496 286.15699,11.0252372 C286.380531,10.1382501 285.601466,9.65201079 285.111293,9.04616213 C284.216867,7.94072829 283.039414,6.9785327 282.441701,5.73935377 C281.689334,4.17944703 280.445327,2.18802876 282.292085,0.746970856 C284.227959,-0.763612473 286.144168,0.23804829 287.752007,1.7908239 C291.336556,5.25258576 293.946173,9.21582874 294.828943,14.2093671 C295.472981,17.8522869 294.204383,21.056174 292.594776,24.0944749 C291.175133,26.7742481 290.559822,29.5793824 290.161773,32.4908873 C289.8522,34.7547827 290.1347,36.8252293 291.451616,38.8702928 C293.208018,41.597959 292.020752,43.7953925 288.855197,44.2245231 C286.149996,44.5912449 284.989314,46.9759246 286.355188,49.6499503 C287.27665,51.4539234 288.563372,53.0791633 289.447345,54.8978337 C290.834613,57.751994 289.944136,59.5231 286.883526,60.3936826 C284.382351,61.1051498 281.898247,61.1441251 279.286261,60.7506556 C277.161665,60.4306062 276.589408,58.9681105 276.10653,57.5305068 C275.557059,55.8946177 277.261045,55.6556575 278.29659,55.1497358 C280.067394,54.2845479 280.755426,53.2581004 279.544094,51.3483603 C277.457025,48.0577996 278.286099,44.7117925 279.799747,41.4845972 C281.254999,38.381882 282.71559,35.3746277 282.458885,31.7501649 C282.171535,27.6933222 283.959109,24.0672768 285.727168,20.2515057 Z" id="Path" fill="#000000"></path>
            <path d="M248.851505,36.917769 C248.26842,38.1213599 248.300447,39.1249811 248.827894,40.0459154 C251.353819,44.4560597 251.380053,49.0613431 249.849232,53.7763632 C254.272559,54.7181194 249.628903,59.7479502 253.29735,60.5943323 C253.130656,61.1286626 253.129708,61.2567129 253.066346,61.3167082 C251.076177,63.2011932 249.302838,66.077296 246.062404,64.5860977 C242.940934,63.149619 242.10972,60.0975009 242.044791,56.7603985 C242.001104,54.5150081 242.411045,52.348556 242.710184,50.1551371 C243.295783,45.8615829 243.293488,45.8307383 239.152722,45.2883944 C237.56885,45.080942 236.327403,44.4659897 235.557984,42.9930867 C234.535591,41.0358634 234.882352,39.6126279 236.895658,38.4998994 C242.308369,35.5083316 243.09524,33.4140858 241.332869,27.281813 C238.572989,17.6787286 244.024795,8.37609563 253.711628,6.08889052 C255.065114,5.76931412 255.678806,6.32885242 256.250377,7.48717649 C257.13435,9.27866069 257.531648,10.933428 255.748544,12.3613462 C254.426829,13.4197567 252.939184,14.2293585 251.581179,15.2625926 C247.033605,18.7225962 246.556111,23.0274317 248.291156,28.145765 C249.216812,30.8764472 250.135363,33.7386547 248.851505,36.917769 Z" id="Path" fill="#000000"></path>
            <path d="M377.621155,226.328019 C382.604301,218.996531 387.993819,212.275631 393.941259,205.997276 C395.242151,204.623967 396.777276,203.655276 398.85576,204.11615 C401.747439,204.757265 402.643841,206.822294 400.639834,208.970221 C397.788688,212.026175 395.640995,215.645516 392.530212,218.485442 C390.664774,220.188427 390.00125,221.601242 391.904887,224.348045 C395.651006,229.753417 398.512878,235.75813 401.708902,241.532035 C401.932598,241.936243 401.895227,242.481484 402,243.079319 C400.635168,243.651443 399.457338,244.251044 398.340213,245.15831 C396.426001,246.712993 393.765245,245.94187 392.625576,244.245337 C389.560481,239.682496 384.622835,237.361839 380.836749,233.716415 C378.820059,231.774682 375.650906,230.248517 377.621155,226.328019 M389.76393,227.23614 C389.228437,226.38831 388.770733,225.43782 387.444702,225.519528 C386.738764,226.444623 385.173532,227.563623 386.293329,228.528614 C388.211117,230.181273 389.177632,233.270636 392.581168,233.299769 C392.24585,230.97848 391.07837,229.306319 389.76393,227.23614 Z" id="Shape" fill="#000000"></path>
            <path d="M277,22.8923188 C276.720261,24.7353925 275.472596,25.2809185 274.11098,25.6568497 C271.35777,26.4170209 268.584614,27.0473042 265.702627,27.0585628 C264.660285,27.0626333 263.564593,27.0213265 262.150347,28.0707394 C265.450771,27.9219614 268.181074,27.7169568 270.911666,27.7134885 C272.113771,27.7119566 273.645252,27.5711464 274.031152,29.2865159 C274.468888,31.2321556 272.789295,31.1654178 271.588668,31.4880851 C272.258276,33.2821393 272.86988,34.9207832 273.646658,37.0019359 C270.437389,36.5536926 269.683733,39.9230667 267.646232,40.5161866 C264.685897,41.3779571 261.367581,41.1672963 258.561706,39.2420367 C257.506956,38.5183179 256.440302,37.7540623 255.572117,36.8240902 C254.180272,35.3331662 255.49604,32.4555809 257.711161,32.1816099 C259.068846,32.0136826 260.428478,31.9805025 261.696812,31.3201942 C260.172113,29.6274112 258.99497,27.7847521 256.866711,26.6254669 C254.836461,25.5195812 255.327006,23.5977361 257.233277,22.1141281 C259.773768,20.1369226 262.475358,19.237942 265.660098,19.6702499 C266.722964,19.8145283 267.790809,19.6520619 268.810281,19.1224213 C273.139628,16.8732092 275.552424,17.9422589 277,22.8923188 Z" id="Path" fill="#000000"></path>
            <path d="M254.158126,47.5980184 C255.240553,46.0786783 256.436848,45.5397841 258.115341,45.5938222 C260.162894,45.6597372 262.190367,45.2136483 264.18272,44.5397782 C267.961739,43.261603 270.441692,44.2829226 271.667997,47.2905187 C272.358911,48.9850138 272.001863,50.2665536 270.310117,50.6577467 C266.364804,51.5700368 262.404158,52.6023186 258.397694,52.9734081 C255.107407,53.2781628 253.460348,50.9310445 254.158126,47.5980184 Z" id="Path" fill="#000000"></path>
            <path d="M322.56,38.87 C323.28,38.87 324.3,38.69 325.59,38.33 C326.94,37.94 328.02,37.49 328.86,36.95 C329.67,36.44 330.09,35.9 330.09,35.33 C330.09,35 329.94,34.67 329.64,34.37 C329.34,34.07 329.04,33.92 328.74,33.92 C328.59,33.92 328.2,34.13 327.6,34.49 C325.71,35.6 324.03,36.14 322.59,36.14 C320.31,36.14 319.17,34.55 319.17,31.31 C319.17,28.7 319.8,26.06 321.09,23.42 C322.38,20.81 323.7,19.49 325.02,19.49 C325.68,19.49 326.34,19.88 327,20.6 C327.66,21.35 328.14,21.71 328.5,21.71 C328.86,21.71 329.19,21.59 329.49,21.32 C329.73,21.08 329.88,20.75 329.88,20.36 C329.88,19.94 329.64,19.46 329.22,18.92 C328.8,18.38 328.23,17.87 327.54,17.42 C326.76,16.94 326.04,16.7 325.41,16.7 C322.89,16.7 320.7,18.38 318.9,21.74 C317.31,24.74 316.53,27.83 316.53,31.04 C316.53,33.29 316.98,35.12 317.88,36.5 C318.96,38.06 320.52,38.87 322.56,38.87 Z M341.16,14.81 C341.7,14.81 342.42,14.48 343.26,13.76 C343.68,13.4 344.01,13.13 344.19,12.95 C344.49,12.65 344.67,12.26 344.76,11.75 C344.73,10.88 344.37,10.43 343.68,10.43 C343.26,10.43 342.9,10.67 342.57,11.15 C342.12,11.78 341.46,12.44 340.62,13.1 C340.32,13.34 340.2,13.58 340.2,13.82 C340.2,14.12 340.29,14.33 340.5,14.51 C340.68,14.72 340.92,14.81 341.16,14.81 Z M342.48,37.64 C345.12,37.64 347.4,36.74 349.26,34.94 C351.12,33.14 352.05,30.86 352.05,28.04 C352.05,25.22 351.27,22.85 349.74,20.93 C348.09,18.95 345.96,17.93 343.32,17.93 C342.54,17.93 342,17.99 341.7,18.05 C341.1,18.23 340.74,18.59 340.56,19.13 C338.28,20.27 336.48,21.62 335.16,23.24 C333.63,25.1 332.88,27.14 332.88,29.3 C332.88,31.64 333.9,33.65 335.97,35.33 C337.86,36.89 340.02,37.64 342.48,37.64 Z M342.78,35.03 C340.8,35.03 339.12,34.52 337.71,33.44 C336.12,32.3 335.34,30.77 335.34,28.88 C335.34,27.08 336.33,25.34 338.34,23.6 C340.2,21.98 342.09,21.02 344.01,20.78 C344.25,20.78 344.43,20.72 344.61,20.63 C347.91,21.59 349.59,24.11 349.59,28.25 C349.59,30.17 348.93,31.79 347.64,33.08 C346.32,34.4 344.7,35.03 342.78,35.03 Z M357.63,38.15 C357.93,38.15 358.74,37.85 360,37.25 C362.46,36.11 364.62,34.31 366.42,31.82 C368.34,29.18 369.33,26.51 369.33,23.84 C369.33,21.59 368.55,19.7 367.02,18.2 C365.46,16.76 363.6,16.01 361.41,16.01 C359.79,16.01 358.29,16.43 356.91,17.21 C355.65,17.93 355.02,18.65 355.02,19.34 C355.02,19.94 355.32,20.36 355.98,20.6 L355.980742,20.7754066 C355.985995,21.5461159 356.020588,24.0376471 356.13,28.25 C356.19,32.87 356.25,35.33 356.25,35.57 C355.95,35.54 355.68,35.51 355.38,35.51 C355.05,35.51 354.78,35.66 354.57,35.9 C354.33,36.2 354.21,36.5 354.21,36.8 C354.21,37.64 354.75,38.06 355.86,38.06 C355.92,38.06 356.07,38.03 356.31,38.03 L356.79,38.03 L356.79,38.03 C356.82,38.03 356.94,38.06 357.15,38.12 C357.36,38.12 357.51,38.15 357.63,38.15 Z M358.68,35.15 L358.5,28.43 C358.32,22.79 358.23,19.76 358.23,19.34 C359.25,18.86 360.3,18.59 361.38,18.59 C362.97,18.59 364.26,19.07 365.28,19.97 C366.39,20.93 366.96,22.25 366.96,23.9 C366.96,26.06 366.09,28.28 364.35,30.56 C362.7,32.72 360.81,34.25 358.68,35.15 Z M374.94,39.23 C375.24,39.23 375.51,39.08 375.75,38.81 C375.99,38.54 376.14,38.27 376.14,37.97 C376.14,37.85 376.02,37.58 375.84,37.16 C375.72,36.92 375.66,36.62 375.66,36.29 C375.66,35.51 375.81,33.83 376.17,31.31 L377.4,21.83 C377.64,19.79 377.79,18.41 377.79,17.69 C377.79,16.79 377.37,16.31 376.59,16.31 C375.99,16.31 375.39,17.09 374.82,18.59 C374.34,19.94 374.1,21.08 374.1,22.01 C374.1,22.55 374.34,22.94 374.82,23.21 L373.83,30.44 C373.5,32.87 373.35,34.82 373.35,36.26 C373.35,38.24 373.86,39.23 374.94,39.23 Z M388.53,39.11 C390.45,39.11 392.13,38.27 393.6,36.65 C393.96,38.27 394.56,39.08 395.43,39.08 C395.73,39.08 395.97,38.93 396.18,38.66 C396.42,38.36 396.54,38.03 396.54,37.67 C396.54,37.55 396.36,37.13 396.06,36.38 C395.46,34.94 395.16,33.2 395.16,31.16 C395.16,30.62 395.04,30.17 394.86,29.81 C397.59,29.69 398.97,29.12 398.97,28.07 C398.97,27.26 398.55,26.84 397.77,26.84 C397.71,26.84 397.38,26.9 396.72,26.99 C395.28,27.23 394.29,27.35 393.75,27.35 C393.27,27.35 392.55,27.26 391.59,27.08 C391.23,27.08 390.93,27.23 390.69,27.47 C390.42,27.71 390.3,28.01 390.3,28.34 C390.3,29.24 391.17,29.72 392.91,29.81 C392.7,30.05 392.61,30.29 392.61,30.53 C392.61,30.65 392.61,30.89 392.67,31.25 C392.67,31.61 392.7,31.85 392.7,31.97 C392.7,33.41 392.22,34.55 391.32,35.45 C390.48,36.26 389.61,36.65 388.71,36.65 C387.33,36.65 386.19,36.11 385.29,35.03 C384.33,33.95 383.88,32.51 383.88,30.71 C383.88,27.59 384.99,24.71 387.24,22.1 C389.46,19.49 392.07,18.05 395.07,17.75 C395.91,17.69 396.36,17.24 396.36,16.46 C396.36,15.62 395.91,15.17 395.07,15.17 C391.53,15.17 388.38,16.82 385.62,20.12 C382.86,23.42 381.48,27.08 381.48,31.04 C381.48,33.26 382.08,35.15 383.34,36.68 C384.66,38.3 386.37,39.11 388.53,39.11 Z M410.43,37.64 C413.07,37.64 415.35,36.74 417.21,34.94 C419.07,33.14 420,30.86 420,28.04 C420,25.22 419.22,22.85 417.69,20.93 C416.04,18.95 413.91,17.93 411.27,17.93 C410.49,17.93 409.95,17.99 409.65,18.05 C409.05,18.23 408.69,18.59 408.51,19.13 C406.23,20.27 404.43,21.62 403.11,23.24 C401.58,25.1 400.83,27.14 400.83,29.3 C400.83,31.64 401.85,33.65 403.92,35.33 C405.81,36.89 407.97,37.64 410.43,37.64 Z M410.73,35.03 C408.75,35.03 407.07,34.52 405.66,33.44 C404.07,32.3 403.29,30.77 403.29,28.88 C403.29,27.08 404.28,25.34 406.29,23.6 C408.15,21.98 410.04,21.02 411.96,20.78 C412.2,20.78 412.38,20.72 412.56,20.63 C415.86,21.59 417.54,24.11 417.54,28.25 C417.54,30.17 416.88,31.79 415.59,33.08 C414.27,34.4 412.65,35.03 410.73,35.03 Z" id="CÓDIGO" fill="#0E0E0E"></path>
            <path d="M80.05,313.23 C80.35,313.23 80.62,313.08 80.86,312.81 C81.1,312.54 81.25,312.27 81.25,311.97 C81.25,311.85 81.13,311.58 80.95,311.16 C80.83,310.92 80.77,310.62 80.77,310.29 C80.77,309.51 80.92,307.83 81.28,305.31 L82.51,295.83 C82.75,293.79 82.9,292.41 82.9,291.69 C82.9,290.79 82.48,290.31 81.7,290.31 C81.1,290.31 80.5,291.09 79.93,292.59 C79.45,293.94 79.21,295.08 79.21,296.01 C79.21,296.55 79.45,296.94 79.93,297.21 L78.94,304.44 C78.61,306.87 78.46,308.82 78.46,310.26 C78.46,312.24 78.97,313.23 80.05,313.23 Z M87.85,315.24 C88.39,315.24 88.72,314.94 88.87,314.34 C89.29,312.54 89.5,311.28 89.5,310.53 C89.5,310.26 89.41,310.02 89.29,309.78 L89.02,309.78 C89.08,307.11 89.47,303.51 90.25,299.01 C91.09,300.57 92.08,302.1 93.22,303.54 C93.76,304.26 94.93,305.64 96.73,307.71 C98.26,309.51 99.07,310.44 99.19,310.56 C99.61,310.98 99.91,311.22 100.15,311.25 C100.45,311.49 100.69,311.58 100.9,311.58 C101.71,311.58 102.13,311.19 102.13,310.35 C102.13,310.32 102.1,310.11 102.04,309.69 C101.62,307.11 101.44,305.49 101.44,304.83 C101.44,300.33 102.01,296.19 103.21,292.41 C103.36,291.9 103.45,291.54 103.45,291.36 C103.45,291.06 103.33,290.79 103.09,290.52 C102.85,290.28 102.58,290.13 102.28,290.13 C101.74,290.13 101.35,290.46 101.11,291.06 C100.54,292.44 100.06,294.48 99.67,297.21 C99.28,299.73 99.1,301.83 99.1,303.54 C99.1,304.29 99.13,305.4 99.25,306.9 C94.87,301.98 92.11,297.99 91.03,294.93 C91.09,294.69 91.15,294.54 91.15,294.42 C91.15,294.06 91.03,293.76 90.79,293.52 C90.55,293.28 90.25,293.16 89.89,293.16 C89.62,293.16 89.32,293.34 88.96,293.67 C88.6,294.03 88.45,294.33 88.45,294.6 C88.45,294.75 88.48,294.9 88.57,295.02 C87.25,301.77 86.59,307.26 86.59,311.46 L86.59,313.98 C86.59,314.28 86.71,314.55 87.01,314.82 C87.28,315.09 87.55,315.24 87.85,315.24 Z M107.83,314.25 C108.1,314.25 108.37,314.13 108.67,313.89 C108.91,313.65 109.03,313.38 109.03,313.11 C109.03,312.99 108.97,312.48 108.91,311.55 C108.79,310.65 108.76,309.9 108.76,309.36 C108.76,307.65 108.85,305.82 109.09,303.9 C111.85,303.87 114.76,303.39 117.76,302.46 C118.72,302.16 119.23,301.65 119.23,300.93 C119.23,300.15 118.84,299.76 118.06,299.76 L117.526855,299.937187 C117.271094,300.021563 117.08125,300.0825 116.95,300.12 C115.33,300.69 112.84,301.11 109.45,301.41 C109.9,298.65 110.5,296.1 111.25,293.73 C114.28,293.49 116.83,293.34 118.87,293.34 C118.93,293.34 119.05,293.37 119.2,293.37 C119.32,293.43 119.44,293.43 119.53,293.43 C119.77,293.43 120.01,293.28 120.25,292.98 C120.49,292.68 120.61,292.38 120.61,292.14 C120.61,291.27 119.86,290.82 118.36,290.82 C117.91,290.82 116.59,290.88 114.4,291 C112.24,291.15 111.13,291.21 111.07,291.21 L110.5,291.06 C110.14,291.12 109.87,291.24 109.69,291.42 C108.91,291.51 108.37,291.6 108.07,291.69 C107.44,291.93 107.14,292.32 107.14,292.89 C107.14,293.64 107.62,294.12 108.58,294.3 C107.98,296.4 107.62,297.84 107.5,298.56 C106.96,301.14 106.63,304.08 106.45,307.32 C106.03,307.62 105.82,307.89 105.82,308.16 C105.82,310.59 106.15,312.39 106.84,313.59 C107.08,314.01 107.41,314.25 107.83,314.25 Z M134.68,313.26 C135.4,313.26 135.76,312.81 135.76,311.97 C135.76,310.56 134.62,309.03 132.37,307.35 C131.32,306.57 129.88,305.76 128.08,304.86 C133.9,302.16 136.84,299.01 136.84,295.38 C136.84,293.88 136.33,292.59 135.34,291.57 C134.35,290.58 133.15,290.07 131.77,290.07 C130.54,290.07 129.25,290.43 127.9,291.12 C126.52,291.84 125.32,292.77 124.27,293.94 C123.79,294.39 123.52,294.93 123.46,295.53 C123.52,296.28 123.91,296.73 124.6,296.91 C124.33,299.73 124.15,301.8 124.03,303.15 C122.98,303.24 122.47,303.69 122.47,304.53 C122.47,305.34 122.95,305.73 123.91,305.73 L123.91,307.08 C123.91,308.7 124.06,310.35 124.36,312.06 C124.45,312.66 124.81,312.99 125.44,312.99 C126.16,312.99 126.52,312.54 126.52,311.67 C126.28,310.23 126.13,308.61 126.13,306.81 C127.27,307.23 128.59,307.92 130.12,308.88 C131.92,310.05 133.03,311.07 133.45,311.91 C133.45,312.81 133.87,313.26 134.68,313.26 Z M126.19,302.82 C126.34,301.23 126.46,300.12 126.52,299.49 C126.73,297.33 126.85,295.74 126.91,294.72 C128.65,293.43 130.36,292.77 132.07,292.77 C132.73,292.77 133.33,292.98 133.84,293.37 C134.38,293.85 134.65,294.51 134.65,295.29 C134.65,296.67 133.69,298.17 131.8,299.76 C130.03,301.2 128.17,302.22 126.19,302.82 Z M156.76,313.89 C157.63,313.89 158.08,313.53 158.08,312.81 C158.08,312.45 157.99,312 157.87,311.37 C156.13,303.96 153.82,297.39 150.97,291.69 C150.31,290.43 149.74,289.8 149.23,289.8 C148.84,289.8 148.51,290.04 148.24,290.46 C148.15,290.61 147.97,291 147.73,291.63 C145.63,296.67 144.04,301.23 142.99,305.31 C141.1,305.61 140.14,305.73 140.08,305.73 C139.33,305.85 138.97,306.24 138.97,306.93 C138.97,307.83 139.3,308.28 140.02,308.28 C140.35,308.28 141.13,308.19 142.36,307.98 C142.06,309.42 141.94,310.41 141.94,310.95 C141.94,311.64 142,312.09 142.12,312.39 C142.33,312.84 142.75,313.08 143.35,313.08 C143.56,313.08 143.8,312.96 144.04,312.75 C144.28,312.51 144.46,312.3 144.52,312.06 C144.46,311.7 144.43,311.34 144.43,311.01 C144.43,310.14 144.55,309 144.85,307.62 C146.71,307.44 148.12,307.35 149.05,307.35 C150.67,307.35 152.5,307.65 154.51,308.22 C154.81,309.24 155.02,310.05 155.17,310.65 C155.11,310.8 155.08,310.95 155.08,311.1 C155.08,311.52 155.26,312.06 155.62,312.75 C156.01,313.5 156.4,313.89 156.76,313.89 Z M153.67,305.25 C151.81,304.89 150.31,304.71 149.23,304.71 C148.24,304.71 147.01,304.8 145.54,304.98 C146.62,300.9 147.85,297.3 149.23,294.15 C150.79,297.03 152.26,300.75 153.67,305.25 Z" id="INFRA" fill="#0E0E0E"></path>
            <path d="M372.87,292.5 C373.47,292.5 373.86,292.08 374.01,291.27 C373.77,289.95 373.68,289.05 373.68,288.63 L373.68,287.7 C373.62,287.34 373.53,287.04 373.41,286.77 L373.41,285.39 L373.41,285.39 C373.38,284.58 373.38,284.04 373.38,283.74 C375.12,283.56 377.22,282.27 379.68,279.87 C382.2,277.41 383.49,275.22 383.49,273.24 C383.49,272.16 383.16,271.2 382.53,270.39 C381.87,269.61 381.03,269.19 380.04,269.19 C377.73,269.19 375,270.75 371.88,273.87 C370.98,274.77 370.53,275.46 370.53,275.94 C370.53,276.63 370.89,277.11 371.61,277.35 C371.25,281.04 371.07,283.92 371.07,285.96 C371.07,287.4 371.22,288.96 371.55,290.58 C371.79,291.84 372.21,292.5 372.87,292.5 Z M373.59,281.16 C373.86,277.86 374.04,275.79 374.16,274.98 C376.62,272.85 378.54,271.77 379.89,271.77 C380.19,271.77 380.49,271.89 380.73,272.13 C380.97,272.34 381.09,272.58 381.09,272.85 C381.09,274.35 380.16,276 378.36,277.77 C376.89,279.15 375.3,280.29 373.59,281.16 Z M397.83,292.26 C398.55,292.26 398.91,291.81 398.91,290.97 C398.91,289.56 397.77,288.03 395.52,286.35 C394.47,285.57 393.03,284.76 391.23,283.86 C397.05,281.16 399.99,278.01 399.99,274.38 C399.99,272.88 399.48,271.59 398.49,270.57 C397.5,269.58 396.3,269.07 394.92,269.07 C393.69,269.07 392.4,269.43 391.05,270.12 C389.67,270.84 388.47,271.77 387.42,272.94 C386.94,273.39 386.67,273.93 386.61,274.53 C386.67,275.28 387.06,275.73 387.75,275.91 C387.48,278.73 387.3,280.8 387.18,282.15 C386.13,282.24 385.62,282.69 385.62,283.53 C385.62,284.34 386.1,284.73 387.06,284.73 L387.06,286.08 C387.06,287.7 387.21,289.35 387.51,291.06 C387.6,291.66 387.96,291.99 388.59,291.99 C389.31,291.99 389.67,291.54 389.67,290.67 C389.43,289.23 389.28,287.61 389.28,285.81 C390.42,286.23 391.74,286.92 393.27,287.88 C395.07,289.05 396.18,290.07 396.6,290.91 C396.6,291.81 397.02,292.26 397.83,292.26 Z M389.34,281.82 C389.49,280.23 389.61,279.12 389.67,278.49 C389.88,276.33 390,274.74 390.06,273.72 C391.8,272.43 393.51,271.77 395.22,271.77 C395.88,271.77 396.48,271.98 396.99,272.37 C397.53,272.85 397.8,273.51 397.8,274.29 C397.8,275.67 396.84,277.17 394.95,278.76 C393.18,280.2 391.32,281.22 389.34,281.82 Z M412.05,290.64 C414.69,290.64 416.97,289.74 418.83,287.94 C420.69,286.14 421.62,283.86 421.62,281.04 C421.62,278.22 420.84,275.85 419.31,273.93 C417.66,271.95 415.53,270.93 412.89,270.93 C412.11,270.93 411.57,270.99 411.27,271.05 C410.67,271.23 410.31,271.59 410.13,272.13 C407.85,273.27 406.05,274.62 404.73,276.24 C403.2,278.1 402.45,280.14 402.45,282.3 C402.45,284.64 403.47,286.65 405.54,288.33 C407.43,289.89 409.59,290.64 412.05,290.64 Z M412.35,288.03 C410.37,288.03 408.69,287.52 407.28,286.44 C405.69,285.3 404.91,283.77 404.91,281.88 C404.91,280.08 405.9,278.34 407.91,276.6 C409.77,274.98 411.66,274.02 413.58,273.78 C413.82,273.78 414,273.72 414.18,273.63 C417.48,274.59 419.16,277.11 419.16,281.25 C419.16,283.17 418.5,284.79 417.21,286.08 C415.89,287.4 414.27,288.03 412.35,288.03 Z M427.2,291.15 C427.5,291.15 428.31,290.85 429.57,290.25 C432.03,289.11 434.19,287.31 435.99,284.82 C437.91,282.18 438.9,279.51 438.9,276.84 C438.9,274.59 438.12,272.7 436.59,271.2 C435.03,269.76 433.17,269.01 430.98,269.01 C429.36,269.01 427.86,269.43 426.48,270.21 C425.22,270.93 424.59,271.65 424.59,272.34 C424.59,272.94 424.89,273.36 425.55,273.6 L425.550742,273.775407 C425.555995,274.546116 425.590588,277.037647 425.7,281.25 C425.76,285.87 425.82,288.33 425.82,288.57 C425.52,288.54 425.25,288.51 424.95,288.51 C424.62,288.51 424.35,288.66 424.14,288.9 C423.9,289.2 423.78,289.5 423.78,289.8 C423.78,290.64 424.32,291.06 425.43,291.06 C425.49,291.06 425.64,291.03 425.88,291.03 L426.36,291.03 L426.36,291.03 C426.39,291.03 426.51,291.06 426.72,291.12 C426.93,291.12 427.08,291.15 427.2,291.15 Z M428.25,288.15 L428.07,281.43 C427.89,275.79 427.8,272.76 427.8,272.34 C428.82,271.86 429.87,271.59 430.95,271.59 C432.54,271.59 433.83,272.07 434.85,272.97 C435.96,273.93 436.53,275.25 436.53,276.9 C436.53,279.06 435.66,281.28 433.92,283.56 C432.27,285.72 430.38,287.25 428.25,288.15 Z M448.65,291.72 C450.87,291.72 452.82,290.4 454.47,287.73 C455.91,285.42 456.63,283.08 456.63,280.74 L456.63,278.43 L456.63,278.43 C456.6,277.29 456.6,276.66 456.6,276.6 C456.66,276.09 456.72,275.64 456.72,275.25 C456.72,273.21 456.33,271.26 455.58,269.4 C455.37,268.89 455.04,268.62 454.56,268.62 C453.78,268.62 453.36,269.04 453.27,269.82 C453.48,271.02 453.66,272.01 453.78,272.76 C454.2,275.28 454.41,277.38 454.41,279.03 C454.41,281.52 453.9,283.77 452.94,285.81 C451.8,288.18 450.33,289.35 448.53,289.35 C447.45,289.35 446.49,288.78 445.71,287.61 C444.78,286.29 444.33,284.58 444.33,282.42 C444.33,281.94 444.42,280.56 444.6,278.28 C444.72,276 444.81,274.53 444.81,273.87 C444.81,272.31 444.33,271.5 443.37,271.5 C443.07,271.5 442.83,271.62 442.62,271.8 C442.35,272.04 442.23,272.28 442.23,272.55 C442.23,272.76 442.23,273.06 442.29,273.48 C442.29,273.93 442.32,274.26 442.32,274.44 C442.32,275.28 442.26,276.51 442.17,278.16 C442.05,279.78 441.99,281.01 441.99,281.82 C441.99,284.52 442.47,286.77 443.43,288.51 C444.6,290.67 446.34,291.72 448.65,291.72 Z M468.27,292.65 C469.11,292.65 469.53,292.05 469.53,290.88 L469.53,288.87 C469.53,288.39 469.38,288.03 469.14,287.79 C469.05,286.53 469.02,285.18 469.02,283.77 C469.02,280.59 469.2,276.72 469.62,272.19 C471.3,271.65 472.44,271.35 473.04,271.23 C473.28,271.44 473.64,271.56 474.06,271.59 L476.67,270.57 C477.21,270.36 477.51,269.94 477.51,269.31 C477.51,269.07 477.42,268.8 477.24,268.5 C477.06,268.26 476.82,268.11 476.58,268.08 C476.01,268.08 475.2,268.23 474.18,268.47 C471.3,269.19 466.53,270.3 459.87,271.86 C459.21,272.04 458.88,272.46 458.88,273.18 C458.88,273.96 459.21,274.35 459.9,274.35 C461.25,274.2 463.65,273.66 467.13,272.7 C466.77,277.35 466.62,280.56 466.62,282.36 C466.62,285.96 466.74,289.02 467.04,291.54 C467.1,292.26 467.52,292.65 468.27,292.65 Z M487.74,290.64 C490.38,290.64 492.66,289.74 494.52,287.94 C496.38,286.14 497.31,283.86 497.31,281.04 C497.31,278.22 496.53,275.85 495,273.93 C493.35,271.95 491.22,270.93 488.58,270.93 C487.8,270.93 487.26,270.99 486.96,271.05 C486.36,271.23 486,271.59 485.82,272.13 C483.54,273.27 481.74,274.62 480.42,276.24 C478.89,278.1 478.14,280.14 478.14,282.3 C478.14,284.64 479.16,286.65 481.23,288.33 C483.12,289.89 485.28,290.64 487.74,290.64 Z M488.04,288.03 C486.06,288.03 484.38,287.52 482.97,286.44 C481.38,285.3 480.6,283.77 480.6,281.88 C480.6,280.08 481.59,278.34 483.6,276.6 C485.46,274.98 487.35,274.02 489.27,273.78 C489.51,273.78 489.69,273.72 489.87,273.63 C493.17,274.59 494.85,277.11 494.85,281.25 C494.85,283.17 494.19,284.79 492.9,286.08 C491.58,287.4 489.96,288.03 488.04,288.03 Z M502.53,291.93 C504.27,291.93 505.95,291.36 507.54,290.25 C509.28,289.05 510.18,287.55 510.18,285.78 C510.18,284.55 509.73,283.5 508.83,282.63 C508.26,282.09 507.3,281.49 505.98,280.83 C503.85,279.81 502.8,278.88 502.8,278.1 C502.8,276.9 503.67,275.76 505.41,274.62 C506.82,273.69 508.32,273.03 509.94,272.67 C510.54,272.52 510.84,272.1 510.84,271.41 C510.84,270.93 510.66,270.57 510.36,270.3 C510,270.06 509.58,269.91 509.16,269.91 C508.23,269.91 507.57,270.24 507.18,270.9 C505.38,271.62 503.91,272.49 502.74,273.57 C501.12,274.98 500.34,276.48 500.34,278.07 C500.34,279.39 500.79,280.44 501.69,281.28 C502.17,281.76 503.1,282.33 504.45,282.93 C506.61,283.95 507.72,284.91 507.72,285.75 C507.72,286.77 507.09,287.67 505.86,288.39 C504.75,289.02 503.67,289.32 502.62,289.32 C502.44,289.32 502.17,289.29 501.84,289.2 C501.45,289.11 501.18,289.05 501,289.05 C500.64,289.05 500.37,289.2 500.16,289.5 C499.92,289.74 499.8,290.04 499.8,290.4 C499.8,291.42 500.7,291.93 502.53,291.93 Z" id="PRODUTOS" fill="#0E0E0E"></path>
        </g>
    </g>
</svg>