<?xml version="1.0" encoding="UTF-8"?>
<svg width="462px" height="278px" viewBox="0 0 462 278" version="1.1" xmlns="http://www.w3.org/2000/svg" xmlns:xlink="http://www.w3.org/1999/xlink">
    <!-- Generator: Sketch 63.1 (92452) - https://sketch.com -->
    <title>Group 6</title>
    <desc>Created with Sketch.</desc>
    <g id="Page-1" stroke="none" stroke-width="1" fill="none" fill-rule="evenodd">
        <g id="Group-6" transform="translate(-6.846154, -27.924276)" fill-rule="nonzero">
            <g id="Group-5">
                <path d="M16,244.579273 C18.7339063,236.414098 21.1614886,228.765205 26.635227,223.666925 C35.4521676,215.454665 45.8084389,215.086912 54.0055137,224.400287 C56.2803194,226.984819 57.9886742,227.26465 60.5799313,226.459076 C66.5682301,224.597462 72.6085164,222.988814 78.6743954,221.698779 C82.4640836,220.892849 83.9735619,218.966611 83.6912364,213.128363 C82.9277301,197.339822 82.8584055,181.541553 85.1723233,165.855349 C86.1809591,159.017697 88.3304938,152.991735 90.507913,146.887268 C100.109088,119.969888 111.882238,95.4880637 129.570591,77.1526588 C138.109592,68.3012509 147.55559,61.7952015 157.124306,55.8841623 C193.699565,33.290149 231.867932,23.2489899 272.065153,28.2509131 C302.563386,32.0458152 327.595749,50.6503838 349.437997,79.1316936 C358.889102,91.4555954 367.180815,104.807954 370.497546,122.845096 C371.437953,127.958997 373.871721,130.208981 377.960906,129.727823 C392.833597,127.977608 407.725683,126.538107 422.615064,125.071337 C424.947571,124.841537 425.977124,123.367491 426.397857,120.213568 C428.962462,100.988998 441.046151,96.3435784 451.670565,99.4347525 C462.446307,102.569975 466.315992,117.362327 461.900279,131.806517 C461.387435,133.48412 460.288645,135.25674 459.128481,136.046158 C450.416035,141.97447 440.775973,145.063948 432.422272,137.853546 C425.760943,132.103889 419.428299,133.108691 412.850737,133.628678 C402.18125,134.472098 391.565019,136.539901 380.909547,137.824403 C376.455559,138.361348 374.594786,140.74848 375.772218,147.181604 C379.946073,169.985691 374.363687,190.515693 368.42378,211.296741 C356.513455,252.965724 332.842553,275.870453 303.949914,290.623753 C283.505839,301.063012 262.295383,305.236288 240.478635,306.171111 C227.861305,306.711761 215.230718,306.408097 202.629707,306.717652 C186.385245,307.116556 170.111705,304.850327 154.138066,299.274772 C143.08588,295.41721 131.466836,294.105351 121.998955,284.192995 C110.089902,271.724848 98.1655547,259.321594 91.750152,239.497774 C87.814847,227.337486 87.4504556,227.538679 78.2491875,229.950136 C72.3853184,231.48693 66.5437079,233.190998 60.6704916,234.653439 C57.2916409,235.494806 54.9382774,237.696322 53.612996,242.2785 C50.2032161,254.067822 43.2280757,260.380132 35.02365,264.43362 C27.2267458,268.285826 20.4881319,263.164428 16.1979897,250.264619 C16,248.284112 16,246.724198 16,244.579273 M357.179513,227.165478 C360.280385,216.678793 363.119658,206.025728 366.542248,195.743693 C371.925277,179.572272 371.34267,163.213284 368.422985,146.509676 C367.735666,142.577754 366.32024,141.484877 363.566641,141.812816 C357.601714,142.523291 351.711553,144.171683 345.790123,144.890991 C341.201092,145.44838 338.768661,148.448763 336.867143,153.393762 C332.982566,163.495994 327.979691,172.708125 324.552293,183.181071 C323.205277,187.297035 321.216118,189.356824 318.798854,184.553357 C317.132702,181.24252 314.892236,181.639687 312.651512,182.044659 C308.992459,182.705756 305.378937,183.908229 301.712365,184.410753 C298.615202,184.835174 294.986127,186.540126 292.488287,183.414268 C286.782379,176.27388 280.304995,170.039696 276.629372,160.185826 C275.869353,158.14834 275.049475,156.170894 276.020627,154.042637 C281.192815,142.707958 283.578764,129.335749 289.617521,118.637723 C290.805098,116.533909 291.764376,113.659671 294.070767,114.286957 C302.214204,116.501971 310.163805,112.959677 318.204822,113.054331 C323.381689,113.115217 328.191436,113.943138 331.172916,122.119443 C333.767173,129.233781 338.379438,135.023518 344.692478,135.83828 C350.685124,136.611603 356.564637,134.274994 362.495682,133.325658 C365.267965,132.881878 366.125919,130.518595 365.501944,127.162975 C364.144892,119.864728 362.941342,112.45537 358.929434,106.738785 C346.218487,88.6270734 332.261752,72.844032 315.671875,61.8621815 C313.781167,60.6105543 311.4357,59.9460681 309.639539,55.5363777 C320.836802,60.2271717 329.222286,68.9096578 338.134392,76.2067 C325.738095,61.1298056 311.648059,50.1224423 295.995097,42.9948994 C281.051818,36.1904791 265.63816,37.1616721 250.128794,36.6581217 C217.542781,35.6001268 187.534875,46.5863037 158.775437,66.950989 C129.927405,87.3783899 107.312517,116.041689 93.6995861,157.150652 C88.487806,172.889446 88.3734869,189.815634 90.0039734,206.546452 C90.919196,215.937718 94.2867681,218.076368 101.134635,216.409687 C108.719117,214.563693 116.230955,211.929298 124.634083,212.228822 C124.831001,205.467804 125.588439,198.713653 124.231799,192.117005 C122.623054,184.294557 125.12395,179.458171 131.07501,179.591451 C135.124955,179.682134 139.148062,179.395634 143.193668,178.740113 C151.826901,177.341287 160.421033,177.937439 168.871198,181.099114 C172.688626,182.527424 174.078575,185.487483 173.814602,191.238503 C173.170798,205.265429 172.697339,219.343028 175.686288,233.146349 C176.90594,238.77885 172.970846,245.787876 168.681976,245.97067 C155.66682,246.525382 142.607244,245.25948 129.641088,247.745697 C126.330026,248.380699 125.158429,246.177727 125.165988,242.011404 C125.17729,235.780209 125.168932,229.549012 125.168932,222.832776 C114.633585,222.664168 105.060725,222.58486 96.3843981,228.730056 C97.810971,246.984728 107.341825,255.727208 117.285208,264.140234 C135.284798,279.369588 155.247974,287.413103 175.540128,293.636895 C197.123312,300.256694 219.120048,300.374095 241.098117,297.885648 C264.982948,295.181402 288.447788,289.93197 310.827116,277.184102 C329.468139,266.565787 345.970569,252.483147 357.179513,227.165478 M285.401487,164.879225 C290.897793,170.525696 294.80697,182.715666 303.92917,173.509864 C304.400158,173.034582 305.322431,173.148968 305.98007,173.343941 C317.978173,176.900213 325.366415,169.611059 329.547026,154.357573 C330.27789,151.69088 331.648446,149.362109 332.725021,146.878502 C333.683889,144.666377 334.225578,142.19049 332.914163,140.118474 C329.01412,133.956583 324.973567,127.964873 320.941702,121.966598 C320.043571,120.630391 318.771786,120.751029 317.523599,120.742868 C306.771128,120.672702 296.597197,122.255998 291.056471,137.794979 C290.833575,138.420129 290.376574,138.886406 290.022399,139.418636 C283.209601,149.656698 283.209185,150.446039 289.887799,160.754089 C292.41122,164.648813 294.777814,168.687152 296.066908,173.662348 C290.439228,169.571496 287.53864,161.905835 282.923077,155.693337 C283.337782,160.590384 283.337782,160.590384 285.401487,164.879225 M167.371089,209.480001 C167.375554,208.513199 167.381382,207.546398 167.384272,206.579596 C167.4283,191.850772 167.425346,191.872182 157.18095,189.320147 C149.683627,187.45246 142.209472,186.335969 134.557943,187.964422 C130.615777,188.803432 129.380326,191.174509 129.286756,196.540866 C129.114844,206.399303 131.150773,216.049598 129.710048,226.10525 C128.163781,236.897486 129.023524,237.276993 137.13929,237.539681 C146.616539,237.846342 156.129091,235.948007 165.585462,238.716046 C168.58429,239.593923 168.473503,235.953603 168.147928,233.345469 C167.218092,225.897195 167.762707,218.385538 167.371089,209.480001 M38.4476486,226.590477 C31.6079287,224.481635 24.6445232,234.301204 22.7682064,242.257829 C20.6369607,251.295619 24.2618608,259.166172 30.379488,257.909848 C36.0902695,256.73695 41.3505224,253.38429 45.019405,246.728621 C50.9332465,236.000399 48.9451238,229.145658 38.4476486,226.590477 M434.114032,117.643421 C431.474939,125.976905 433.224978,131.186106 439.333596,133.437561 C443.560094,134.995335 447.645553,133.074946 451.688716,132.21161 C458.499639,130.757269 460.32693,122.541567 455.891899,114.965223 C450.168706,105.188316 441.456367,105.92206 434.114032,117.643421 M141.424883,286.64286 C143.98952,287.11335 146.401202,289.077935 149.846154,287.97769 C140.470337,283.233597 131.346002,280.023593 122.923077,274.282233 C127.921657,280.69299 133.769243,284.81684 141.424883,286.64286 Z" id="Shape" fill="#000000" transform="translate(239.846154, 166.877006) rotate(7.000000) translate(-239.846154, -166.877006) "></path>
                <path d="M24.8450314,226.020939 C26.8758006,226.020939 28.6296468,225.356577 30.060416,224.027853 C31.4911852,222.699128 32.2065698,221.016077 32.2065698,218.934409 C32.2065698,216.852741 31.6065698,215.103253 30.4296468,213.685947 C29.160416,212.22435 27.5219544,211.471406 25.4911852,211.471406 C24.8911852,211.471406 24.4758006,211.515697 24.2450314,211.559988 C23.7834929,211.692861 23.5065698,211.958605 23.3681083,212.357223 C21.6142621,213.198748 20.2296468,214.195292 19.2142621,215.391144 C18.0373391,216.764159 17.460416,218.270047 17.460416,219.864516 C17.460416,221.591858 18.2450314,223.0756 19.8373391,224.315743 C21.2911852,225.467304 22.9527237,226.020939 24.8450314,226.020939 Z M25.0758006,224.094289 C23.5527237,224.094289 22.260416,223.717817 21.1758006,222.920582 C19.9527237,222.079057 19.3527237,220.949641 19.3527237,219.55448 C19.3527237,218.225756 20.1142621,216.941322 21.660416,215.656888 C23.0911852,214.461036 24.5450314,213.752383 26.0219544,213.57522 C26.2065698,213.57522 26.3450314,213.530929 26.4834929,213.464493 C29.0219544,214.173146 30.3142621,216.03336 30.3142621,219.089427 C30.3142621,220.506733 29.8065698,221.702585 28.8142621,222.654837 C27.7988775,223.629235 26.5527237,224.094289 25.0758006,224.094289 Z" id="O" fill="#0E0E0E" transform="translate(24.833493, 218.746173) rotate(7.000000) translate(-24.833493, -218.746173) "></path>
                <path d="M447.848184,152.41061 C448.078953,152.41061 448.70203,152.189156 449.671261,151.746248 C451.563568,150.904723 453.225107,149.575998 454.609722,147.737929 C456.086645,145.789133 456.848184,143.818192 456.848184,141.847251 C456.848184,140.186345 456.248184,138.791185 455.071261,137.683914 C453.871261,136.620935 452.440491,136.067299 450.755876,136.067299 C449.509722,136.067299 448.355876,136.377335 447.294337,136.953116 C446.325107,137.484606 445.840491,138.016095 445.840491,138.52544 C445.840491,138.968348 446.071261,139.278384 446.578953,139.455547 L446.579524,139.585028 C446.583564,140.153951 446.610175,141.99315 446.694337,145.102626 C446.740491,148.513019 446.786645,150.328942 446.786645,150.506105 C446.555876,150.48396 446.348184,150.461814 446.117414,150.461814 C445.863568,150.461814 445.655876,150.572541 445.494337,150.749705 C445.309722,150.971159 445.217414,151.192613 445.217414,151.414067 C445.217414,152.034138 445.632799,152.344174 446.486645,152.344174 C446.532799,152.344174 446.648184,152.322029 446.832799,152.322029 L447.20203,152.322029 L447.20203,152.322029 C447.225107,152.322029 447.317414,152.344174 447.478953,152.388465 C447.640491,152.388465 447.755876,152.41061 447.848184,152.41061 Z M448.655876,150.19607 L448.517414,145.235498 C448.378953,141.072162 448.309722,138.835475 448.309722,138.52544 C449.094337,138.171113 449.90203,137.971804 450.732799,137.971804 C451.955876,137.971804 452.948184,138.326131 453.732799,138.990493 C454.586645,139.699146 455.025107,140.673544 455.025107,141.891542 C455.025107,143.486011 454.355876,145.124771 453.017414,146.807822 C451.748184,148.402291 450.294337,149.531707 448.655876,150.19607 Z" id="D" fill="#0E0E0E" transform="translate(451.032799, 144.238955) rotate(7.000000) translate(-451.032799, -144.238955) "></path>
            </g>
            <path d="M165.266154,111.644276 C165.566154,111.644276 166.376154,111.344276 167.636154,110.744276 C170.096154,109.604276 172.256154,107.804276 174.056154,105.314276 C175.976154,102.674276 176.966154,100.004276 176.966154,97.3342762 C176.966154,95.0842762 176.186154,93.1942762 174.656154,91.6942762 C173.096154,90.2542762 171.236154,89.5042762 169.046154,89.5042762 C167.426154,89.5042762 165.926154,89.9242762 164.546154,90.7042762 C163.286154,91.4242762 162.656154,92.1442762 162.656154,92.8342762 C162.656154,93.4342762 162.956154,93.8542762 163.616154,94.0942762 L163.616896,94.2696827 C163.622149,95.0403921 163.656742,97.5319232 163.766154,101.744276 C163.826154,106.364276 163.886154,108.824276 163.886154,109.064276 C163.586154,109.034276 163.316154,109.004276 163.016154,109.004276 C162.686154,109.004276 162.416154,109.154276 162.206154,109.394276 C161.966154,109.694276 161.846154,109.994276 161.846154,110.294276 C161.846154,111.134276 162.386154,111.554276 163.496154,111.554276 C163.556154,111.554276 163.706154,111.524276 163.946154,111.524276 L164.426154,111.524276 L164.426154,111.524276 C164.456154,111.524276 164.576154,111.554276 164.786154,111.614276 C164.996154,111.614276 165.146154,111.644276 165.266154,111.644276 Z M166.316154,108.644276 L166.136154,101.924276 C165.956154,96.2842762 165.866154,93.2542762 165.866154,92.8342762 C166.886154,92.3542762 167.936154,92.0842762 169.016154,92.0842762 C170.606154,92.0842762 171.896154,92.5642762 172.916154,93.4642762 C174.026154,94.4242762 174.596154,95.7442762 174.596154,97.3942762 C174.596154,99.5542762 173.726154,101.774276 171.986154,104.054276 C170.336154,106.214276 168.446154,107.744276 166.316154,108.644276 Z M189.356154,111.134276 C191.996154,111.134276 194.276154,110.234276 196.136154,108.434276 C197.996154,106.634276 198.926154,104.354276 198.926154,101.534276 C198.926154,98.7142762 198.146154,96.3442762 196.616154,94.4242762 C194.966154,92.4442762 192.836154,91.4242762 190.196154,91.4242762 C189.416154,91.4242762 188.876154,91.4842762 188.576154,91.5442762 C187.976154,91.7242762 187.616154,92.0842762 187.436154,92.6242762 C185.156154,93.7642762 183.356154,95.1142762 182.036154,96.7342762 C180.506154,98.5942762 179.756154,100.634276 179.756154,102.794276 C179.756154,105.134276 180.776154,107.144276 182.846154,108.824276 C184.736154,110.384276 186.896154,111.134276 189.356154,111.134276 Z M189.656154,108.524276 C187.676154,108.524276 185.996154,108.014276 184.586154,106.934276 C182.996154,105.794276 182.216154,104.264276 182.216154,102.374276 C182.216154,100.574276 183.206154,98.8342762 185.216154,97.0942762 C187.076154,95.4742762 188.966154,94.5142762 190.886154,94.2742762 C191.126154,94.2742762 191.306154,94.2142762 191.486154,94.1242762 C194.786154,95.0842762 196.466154,97.6042762 196.466154,101.744276 C196.466154,103.664276 195.806154,105.284276 194.516154,106.574276 C193.196154,107.894276 191.576154,108.524276 189.656154,108.524276 Z M223.136154,115.094276 C223.466154,115.094276 223.766154,114.944276 224.036154,114.704276 C224.276154,114.404276 224.426154,114.104276 224.426154,113.804276 C224.426154,113.744276 224.276154,113.384276 224.036154,112.754276 C223.766154,112.124276 223.406154,111.704276 222.986154,111.524276 C222.326154,110.444276 221.786154,108.614276 221.336154,106.094276 C221.156154,105.044276 220.856154,102.974276 220.496154,99.9142762 C220.136154,96.9742762 219.686154,94.6342762 219.086154,92.8342762 C218.876154,92.2042762 218.486154,91.8742762 217.946154,91.8742762 C217.466154,91.8742762 217.136154,92.0842762 216.926154,92.4742762 C215.306154,95.3542762 213.896154,98.9242762 212.696154,103.214276 C210.866154,100.724276 209.306154,96.7342762 207.986154,91.2442762 C207.806154,90.5542762 207.416154,90.1942762 206.816154,90.1942762 C206.246154,90.1942762 205.856154,90.4342762 205.646154,90.8842762 C205.196154,91.8442762 204.746154,92.9242762 204.326154,94.1542762 C204.026154,93.9742762 203.756154,93.8842762 203.516154,93.8842762 C202.706154,93.8842762 202.316154,94.3042762 202.316154,95.0842762 C202.316154,95.3242762 202.316154,95.6242762 202.346154,95.9842762 C202.346154,96.4042762 202.376154,96.7042762 202.376154,96.9142762 C202.376154,97.9942762 202.256154,99.3442762 202.076154,101.024276 C201.836154,103.274276 201.716154,104.684276 201.716154,105.284276 C201.716154,106.424276 201.806154,107.474276 202.046154,108.374276 C202.376154,109.574276 202.856154,110.174276 203.456154,110.174276 C204.176154,110.174276 204.536154,109.574276 204.596154,108.374276 C204.656154,106.154276 204.806154,104.054276 205.046154,102.104276 C205.316154,99.8542762 205.796154,97.4542762 206.486154,94.9042762 C206.846154,96.7042762 207.536154,98.6842762 208.556154,100.844276 C209.606154,103.184276 210.686154,104.894276 211.796154,106.034276 C212.336154,106.634276 212.846154,106.904276 213.296154,106.904276 C213.896154,106.904276 214.316154,106.514276 214.496154,105.674276 C215.126154,102.914276 216.146154,99.7642762 217.526154,96.2842762 C218.096154,101.204276 218.456154,104.144276 218.636154,105.134276 C219.236154,108.734276 220.076154,111.464276 221.096154,113.264276 C221.756154,114.464276 222.446154,115.094276 223.136154,115.094276 Z M227.726154,88.3042762 C228.266154,88.3042762 228.986154,87.9742762 229.826154,87.2542762 C230.246154,86.8942762 230.576154,86.6242762 230.756154,86.4442762 C231.056154,86.1442762 231.236154,85.7542762 231.326154,85.2442762 C231.296154,84.3742762 230.936154,83.9242762 230.246154,83.9242762 C229.826154,83.9242762 229.466154,84.1642762 229.136154,84.6442762 C228.686154,85.2742762 228.026154,85.9342762 227.186154,86.5942762 C226.886154,86.8342762 226.766154,87.0742762 226.766154,87.3142762 C226.766154,87.6142762 226.856154,87.8242762 227.066154,88.0042762 C227.246154,88.2142762 227.486154,88.3042762 227.726154,88.3042762 Z M228.266154,112.724276 C228.566154,112.724276 228.836154,112.574276 229.076154,112.304276 C229.316154,112.034276 229.436154,111.764276 229.436154,111.464276 C229.436154,111.344276 229.346154,111.074276 229.166154,110.654276 C229.046154,110.414276 228.986154,110.114276 228.986154,109.784276 C228.986154,109.004276 229.136154,107.324276 229.466154,104.804276 L230.726154,95.3242762 C230.966154,93.2842762 231.116154,91.9042762 231.116154,91.1842762 C231.116154,90.2842762 230.696154,89.8042762 229.916154,89.8042762 C229.316154,89.8042762 228.716154,90.5842762 228.146154,92.0842762 C227.636154,93.4342762 227.396154,94.5742762 227.396154,95.5042762 C227.396154,96.0442762 227.636154,96.4342762 228.146154,96.7042762 L227.156154,103.934276 C226.826154,106.364276 226.676154,108.314276 226.676154,109.754276 C226.676154,111.734276 227.186154,112.724276 228.266154,112.724276 Z M236.486154,114.734276 C237.026154,114.734276 237.356154,114.434276 237.506154,113.834276 C237.926154,112.034276 238.136154,110.774276 238.136154,110.024276 C238.136154,109.754276 238.046154,109.514276 237.926154,109.274276 L237.656154,109.274276 C237.716154,106.604276 238.106154,103.004276 238.886154,98.5042762 C239.726154,100.064276 240.716154,101.594276 241.856154,103.034276 C242.396154,103.754276 243.566154,105.134276 245.366154,107.204276 C246.896154,109.004276 247.706154,109.934276 247.826154,110.054276 C248.246154,110.474276 248.546154,110.714276 248.786154,110.744276 C249.086154,110.984276 249.326154,111.074276 249.536154,111.074276 C250.346154,111.074276 250.766154,110.684276 250.766154,109.844276 C250.766154,109.814276 250.736154,109.604276 250.676154,109.184276 C250.256154,106.604276 250.076154,104.984276 250.076154,104.324276 C250.076154,99.8242762 250.646154,95.6842762 251.846154,91.9042762 C251.996154,91.3942762 252.086154,91.0342762 252.086154,90.8542762 C252.086154,90.5542762 251.966154,90.2842762 251.726154,90.0142762 C251.486154,89.7742762 251.216154,89.6242762 250.916154,89.6242762 C250.376154,89.6242762 249.986154,89.9542762 249.746154,90.5542762 C249.176154,91.9342762 248.696154,93.9742762 248.306154,96.7042762 C247.916154,99.2242762 247.736154,101.324276 247.736154,103.034276 C247.736154,103.784276 247.766154,104.894276 247.886154,106.394276 C243.506154,101.474276 240.746154,97.4842762 239.666154,94.4242762 C239.726154,94.1842762 239.786154,94.0342762 239.786154,93.9142762 C239.786154,93.5542762 239.666154,93.2542762 239.426154,93.0142762 C239.186154,92.7742762 238.886154,92.6542762 238.526154,92.6542762 C238.256154,92.6542762 237.956154,92.8342762 237.596154,93.1642762 C237.236154,93.5242762 237.086154,93.8242762 237.086154,94.0942762 C237.086154,94.2442762 237.116154,94.3942762 237.206154,94.5142762 C235.886154,101.264276 235.226154,106.754276 235.226154,110.954276 L235.226154,113.474276 C235.226154,113.774276 235.346154,114.044276 235.646154,114.314276 C235.916154,114.584276 236.186154,114.734276 236.486154,114.734276 Z M256.976154,112.724276 C257.276154,112.724276 257.546154,112.574276 257.786154,112.304276 C258.026154,112.034276 258.176154,111.764276 258.176154,111.464276 C258.176154,111.344276 258.056154,111.074276 257.876154,110.654276 C257.756154,110.414276 257.696154,110.114276 257.696154,109.784276 C257.696154,109.004276 257.846154,107.324276 258.206154,104.804276 L259.436154,95.3242762 C259.676154,93.2842762 259.826154,91.9042762 259.826154,91.1842762 C259.826154,90.2842762 259.406154,89.8042762 258.626154,89.8042762 C258.026154,89.8042762 257.426154,90.5842762 256.856154,92.0842762 C256.376154,93.4342762 256.136154,94.5742762 256.136154,95.5042762 C256.136154,96.0442762 256.376154,96.4342762 256.856154,96.7042762 L255.866154,103.934276 C255.536154,106.364276 255.386154,108.314276 255.386154,109.754276 C255.386154,111.734276 255.896154,112.724276 256.976154,112.724276 Z M272.816154,111.134276 C275.456154,111.134276 277.736154,110.234276 279.596154,108.434276 C281.456154,106.634276 282.386154,104.354276 282.386154,101.534276 C282.386154,98.7142762 281.606154,96.3442762 280.076154,94.4242762 C278.426154,92.4442762 276.296154,91.4242762 273.656154,91.4242762 C272.876154,91.4242762 272.336154,91.4842762 272.036154,91.5442762 C271.436154,91.7242762 271.076154,92.0842762 270.896154,92.6242762 C268.616154,93.7642762 266.816154,95.1142762 265.496154,96.7342762 C263.966154,98.5942762 263.216154,100.634276 263.216154,102.794276 C263.216154,105.134276 264.236154,107.144276 266.306154,108.824276 C268.196154,110.384276 270.356154,111.134276 272.816154,111.134276 Z M273.116154,108.524276 C271.136154,108.524276 269.456154,108.014276 268.046154,106.934276 C266.456154,105.794276 265.676154,104.264276 265.676154,102.374276 C265.676154,100.574276 266.666154,98.8342762 268.676154,97.0942762 C270.536154,95.4742762 272.426154,94.5142762 274.346154,94.2742762 C274.586154,94.2742762 274.766154,94.2142762 274.946154,94.1242762 C278.246154,95.0842762 279.926154,97.6042762 279.926154,101.744276 C279.926154,103.664276 279.266154,105.284276 277.976154,106.574276 C276.656154,107.894276 275.036154,108.524276 273.116154,108.524276 Z" id="DOMÃNIO" fill="#0E0E0E" transform="translate(222.116154, 99.509276) rotate(-5.000000) translate(-222.116154, -99.509276) "></path>
        </g>
    </g>
</svg>