<?xml version="1.0" encoding="UTF-8"?>
<svg width="526px" height="396px" viewBox="0 0 526 396" version="1.1" xmlns="http://www.w3.org/2000/svg" xmlns:xlink="http://www.w3.org/1999/xlink">
    <!-- Generator: Sketch 63.1 (92452) - https://sketch.com -->
    <title>abordagem</title>
    <desc>Created with Sketch.</desc>
    <g id="Page-1" stroke="none" stroke-width="1" fill="none" fill-rule="evenodd">
        <g id="abordagem" transform="translate(-1.000000, 0.000000)">
            <path d="M312.528757,51.7326884 C313.042763,50.834458 312.960992,50.4032047 311.854985,50.0596095 C310.655022,49.6868349 309.423881,49.2202163 308.550371,48.2448669 C307.67515,47.2676175 307.833937,46.6156851 309.09738,46.2288465 C311.594666,45.4642225 314.111028,44.7574757 316.630061,44.0634906 C317.549979,43.8100592 318.086954,43.2668831 318.258838,42.3719067 C318.48187,41.2105226 319.048883,40.166928 319.407458,39.0592387 C319.694392,38.1728341 320.329771,38.026474 321.018186,38.0009906 C321.709665,37.9753957 322.0901,38.4483474 322.280619,39.1246079 C322.562243,40.1241784 322.986725,41.0810864 323.092654,42.1319221 C323.175615,42.9548016 323.774293,43.3371117 324.544643,43.3264172 C326.660974,43.2970345 328.62772,43.9761389 330.626964,44.4892952 C331.423344,44.6937076 331.914807,45.3442578 331.994885,46.1072488 C332.06874,46.8107335 331.326424,47.1232809 330.825497,47.3576536 C329.559367,47.9500438 328.606495,48.9470689 327.441342,49.6515973 C326.9188,49.9675699 326.920364,50.3270133 326.94742,50.8413208 C327.032157,52.4516987 327.283516,54.0201394 327.761719,55.5685336 C328.270334,57.2154001 327.783905,57.8130719 326.041299,57.9442168 C323.902831,58.1051626 322.337289,56.8603539 320.752167,55.7998795 C319.742316,55.1242598 319.048101,54.7852572 318.0116,55.7577509 C316.639248,57.0453652 315.095321,58.1569219 313.641996,59.3635732 C312.890573,59.9874733 312.071469,60.2334723 311.196753,59.7305286 C310.323764,59.2285768 310.409478,58.3830857 310.586428,57.4584837 C310.98022,55.4012391 311.526056,53.4848657 312.528757,51.7326884 Z" id="Path" fill-opacity="0.867105551" fill="#FBDC1B" fill-rule="nonzero"></path>
            <path d="M310.586428,57.4584837 C310.98022,55.4012391 311.526056,53.4848657 312.528757,51.7326884 C313.042763,50.834458 312.960992,50.4032047 311.854985,50.0596095 C310.655022,49.6868349 309.423881,49.2202163 308.550371,48.2448669 C307.67515,47.2676175 307.833937,46.6156851 309.09738,46.2288465 C311.594666,45.4642225 314.111028,44.7574757 316.630061,44.0634906 C317.549979,43.8100592 318.086954,43.2668831 318.258838,42.3719067 C318.48187,41.2105226 319.048883,40.166928 319.407458,39.0592387 C319.694392,38.1728341 320.329771,38.026474 321.018186,38.0009906 C321.709665,37.9753957 322.0901,38.4483474 322.280619,39.1246079 C322.562243,40.1241784 322.986725,41.0810864 323.092654,42.1319221 C323.175615,42.9548016 323.774293,43.3371117 324.544643,43.3264172 C326.660974,43.2970345 328.62772,43.9761389 330.626964,44.4892952 C331.423344,44.6937076 331.914807,45.3442578 331.994885,46.1072488 C332.06874,46.8107335 331.326424,47.1232809 330.825497,47.3576536 C329.559367,47.9500438 328.606495,48.9470689 327.441342,49.6515973 C326.9188,49.9675699 326.920364,50.3270133 326.94742,50.8413208 C327.032157,52.4516987 327.283516,54.0201394 327.761719,55.5685336 C328.270334,57.2154001 327.783905,57.8130719 326.041299,57.9442168 C323.902831,58.1051626 322.337289,56.8603539 320.752167,55.7998795 C319.742316,55.1242598 319.048101,54.7852572 318.0116,55.7577509 C316.639248,57.0453652 315.095321,58.1569219 313.641996,59.3635732 C312.890573,59.9874733 312.071469,60.2334723 311.196753,59.7305286 C310.323764,59.2285768 310.409478,58.3830857 310.586428,57.4584837 M315.697144,46.6654209 C314.905666,46.9045575 313.970843,46.8125218 313.353839,47.5355192 C313.736034,48.0329026 314.260824,48.0578123 314.701725,48.2274969 C317.180426,49.1814417 317.30165,49.8135705 315.602243,51.7642259 C314.724921,52.7712401 314.052761,53.9605256 313.934453,55.7056689 C315.144727,54.6885577 316.04658,53.9403516 316.937455,53.1798263 C318.526747,51.8231027 318.841488,51.8726315 320.674044,52.8251663 C321.97197,53.4998019 322.899626,54.8175875 324.665054,55.0056097 C324.250085,53.5212466 324.522344,52.0344575 323.753101,50.674026 C323.311173,49.8924702 323.473659,49.1689628 324.360901,48.5575657 C325.231056,47.9579541 326.353401,47.5821524 326.911454,46.4048759 C324.707047,45.8416533 322.04892,46.3934286 320.800578,43.6066983 C320.730225,46.0208094 319.044501,46.1929675 317.351414,46.377648 C316.868747,46.4302956 316.394747,46.5589351 315.697144,46.6654209 Z" id="Shape" fill="#000000" fill-rule="nonzero"></path>
            <path d="M320.540117,32.7161951 C319.608113,33.2591662 318.998704,33.0089507 318.999998,32.086247 C319.002372,30.4109879 319.06897,28.732541 319.197308,27.0625193 C319.242567,26.4735739 319.610769,25.8500654 320.321019,26.0322255 C321.065482,26.2231599 322.039169,26.2933728 321.998784,27.4980215 C321.937422,29.3280009 321.338366,31.0015186 320.540117,32.7161951 Z" id="Path" fill="#000000" fill-rule="nonzero"></path>
            <path d="M306.735414,65.0121265 C306.216647,65.56695 305.768096,66.0739677 305.289217,66.5399584 C304.643714,67.1680946 303.60644,67.1595805 303.217003,66.4738356 C302.719866,65.5984637 303.151758,64.9155478 303.758752,64.418729 C304.659404,63.6815663 305.603262,63.0128694 306.539296,62.3342674 C306.919994,62.058284 307.334406,61.8773944 307.799986,62.0996716 C308.406762,63.4951911 307.51138,64.1796467 306.735414,65.0121265 Z" id="Path" fill="#000000" fill-rule="nonzero"></path>
            <path d="M329.213278,60.923554 C329.62773,61.8882099 329.516912,62.942277 329.925976,63.8333358 C330.143587,64.3073506 329.855372,64.7642672 329.400963,64.9185678 C328.448148,65.242105 327.656011,64.5822526 327.441756,63.282478 C327.39079,62.9733122 327.337162,62.6503813 327.224441,62.3756676 C326.880824,61.5382678 326.892617,60.7590436 327.535907,60.2356194 C328.195157,59.6992043 328.728929,60.1425189 329.213278,60.923554 Z" id="Path" fill="#000000" fill-rule="nonzero"></path>
            <path d="M338,43.765621 C337.967475,45.0639156 336.79875,46.1989458 335.813445,45.9705601 C335.092704,45.8034955 334.740856,44.7697266 335.219597,44.1020318 C335.770438,43.3337742 336.598715,43.2016009 337.367099,43.0110359 C337.696951,42.9292348 337.89541,43.3142732 338,43.765621 Z" id="Path" fill="#000000" fill-rule="nonzero"></path>
            <path d="M305.151857,44.9942742 C304.92593,44.9830538 304.792714,44.9762405 304.660798,44.9628828 C303.754196,44.8710703 302.860105,44.591659 303.018306,43.8734734 C303.190562,43.0915043 304.11061,42.8690192 305.192985,43.0696064 C305.791452,43.1805155 306.415677,43.2185726 307.016987,43.3230315 C307.667399,43.4360247 308.014278,43.8431564 307.99955,44.2404495 C307.983687,44.6681774 307.555783,44.907052 306.810951,44.9098032 C306.307349,44.91166 305.777348,45.0265896 305.151857,44.9942742 Z" id="Path" fill="#000000" fill-rule="nonzero"></path>
            <polygon id="Triangle" fill-opacity="0.3" fill="#F8E69F" fill-rule="nonzero" points="264.5 0 478 355 51 355"></polygon>
            <text id="TECNOLOGIA" font-family="HanziPenSC-W5, HanziPen SC" font-size="35" font-weight="bold" fill="#1B681B">
                <tspan x="319.445" y="392">TECNOLOGIA</tspan>
            </text>
            <text id="CULTURA" font-family="HanziPenTC-W5, HanziPen TC" font-size="35" font-weight="bold" fill="#1B681B">
                <tspan x="0.285" y="392">CULTURA</tspan>
            </text>
            <text id="PRODUTO" font-family="HanziPenTC-W5, HanziPen TC" font-size="35" font-weight="bold" fill="#1B681B">
                <tspan x="131.4175" y="64">PRODUTO</tspan>
            </text>
        </g>
    </g>
</svg>