<?xml version="1.0" encoding="UTF-8"?>
<svg width="461px" height="396px" viewBox="0 0 461 396" version="1.1" xmlns="http://www.w3.org/2000/svg" xmlns:xlink="http://www.w3.org/1999/xlink">
    <!-- Generator: Sketch 63.1 (92452) - https://sketch.com -->
    <title>Group 3</title>
    <desc>Created with Sketch.</desc>
    <g id="Page-1" stroke="none" stroke-width="1" fill="none" fill-rule="evenodd">
        <g id="Group-3">
            <g id="missao" fill-rule="nonzero">
                <path d="M92.779402,147.749233 C94.25868,147.073805 95.638995,146.486958 97.152914,147.393298 C97.276863,147.467515 97.531684,147.448668 97.66678,147.373039 C99.208335,146.510085 101.098751,146.682648 102.606528,145.955607 C104.640827,144.974684 106.743739,144.506614 109.011179,144.287368 C109.011179,143.567159 109.035626,142.940857 109.006575,142.316916 C108.920885,140.476448 108.52603,138.590818 108.825153,136.814549 C109.00015,135.775348 108.982509,134.425634 110.056761,133.556308 C110.517616,133.183372 110.693411,132.561904 110.27162,131.979891 C109.964796,132.05315 109.95197,132.234557 109.921001,132.403743 C109.83776,132.858451 109.874457,133.492188 109.17909,133.396483 C108.542153,133.308838 108.063424,132.915469 108.007815,132.178505 C107.909217,130.871853 109.061597,129.249085 110.271397,129.126202 C111.417665,129.009763 112.977332,130.262654 112.896161,131.532546 C112.888262,131.65615 113.020169,131.813614 112.976727,131.906014 C111.816482,134.373847 113.540868,136.440392 113.953805,138.687529 C114.192743,139.987786 114.402415,141.29313 114.658179,142.788696 C117.352036,141.483082 120.160929,140.762049 122.912002,139.876807 C124.857759,139.250695 126.591312,138.197132 128.433018,137.366721 C130.556108,136.409442 132.253788,135.029998 133.416992,132.833016 C134.388123,130.998826 136.312513,129.767762 138.218723,128.679119 C141.026539,127.075571 144.002861,125.677875 146.192333,123.210057 C146.762288,122.567641 147.598804,122.772375 148.302093,122.573871 C150.139518,122.055289 152.013133,121.716735 153.925286,122.239502 C155.438845,122.653288 156.944347,123.088134 157.336526,124.875546 C157.467884,125.474219 157.885512,125.568926 158.425091,125.584603 C160.04782,125.631738 161.337398,126.182888 161.954526,127.798634 C162.30354,128.712376 163.081963,129.098802 164.048715,129.120123 C166.412995,129.172259 168.804586,128.969848 171.032247,130.056161 C171.617162,130.34139 172.039693,129.899094 172.373438,129.481432 C173.679837,127.846482 175.457747,126.944533 177.282025,125.911268 C181.442573,123.554738 186.107746,122.451559 190.348372,120.357423 C192.124208,119.480464 193.613969,118.432814 194.330364,116.434272 C194.840851,115.010158 195.901333,113.970584 197.627077,113.544132 C199.137351,113.170927 200.500771,112.284806 202.122922,112.127517 C203.612488,111.983076 204.232609,112.3898 204.534831,113.817876 C204.77535,114.954416 205.717654,114.706677 206.44157,114.539337 C207.377718,114.322945 208.318355,114.009508 209.167116,113.572032 C211.330822,112.456781 213.711477,111.86628 215.907096,110.885524 C218.300011,109.81664 220.553487,108.418166 222.647246,106.798252 C223.706174,105.978961 223.244227,104.807889 223.696824,103.847534 C224.483817,102.177703 225.49941,100.98206 227.382879,100.434089 C228.408976,100.135576 229.491565,99.7554511 230.294071,98.9486366 C230.580675,98.6604834 230.93821,98.5103434 231.345455,98.4334545 C234.017087,97.9290357 236.024645,96.4783782 237.550921,94.3176254 C238.253632,93.3227852 239.052691,92.3679388 240.18177,91.8327359 C241.002342,91.4437655 241.176907,90.6535714 241.620967,90.0477648 C242.658952,88.6316481 244.013492,87.5138221 245.186819,86.2285538 C245.800484,85.5563284 246.568044,85.484084 247.357428,85.910623 C248.156877,86.3425755 248.947479,86.2694751 249.80181,86.0797929 C251.484551,85.7061908 253.21936,85.0421609 254.873058,85.1795638 C257.28095,85.3796527 258.979318,84.208509 260.834752,83.1964538 C261.101875,83.0507445 261.333402,82.83585 261.562847,82.6330111 C262.548991,81.7612359 263.45617,81.762401 264.28167,82.808268 C264.934557,83.6354522 265.620828,84.419813 266.439888,85.0749502 C268.141052,86.4356333 268.492668,88.3199234 268.567486,90.2758716 C268.600658,91.1437552 268.954275,91.6789581 269.762618,91.6752171 C273.264856,91.6590325 276.124858,93.4801534 279.209216,94.673838 C280.232191,95.0697356 281.318309,95.324537 282.391597,95.5798531 C284.365071,96.0493186 285.597295,97.3976216 285.507094,99.3390335 C285.439594,100.791704 285.802089,102.04519 287.277044,102.792109 C287.993951,103.155154 288.401229,103.90105 288.360137,104.628733 C288.169133,108.009658 290.253053,109.817686 292.958948,111.26813 C294.003681,111.828132 295.009647,112.419625 296.184258,112.73945 C297.494764,113.096265 298.417603,113.950278 298.784813,115.284568 C298.975573,115.977741 299.370509,116.493201 299.98632,116.928601 C300.896394,117.572008 301.400539,118.566341 301.993244,119.475614 C303.133186,121.224474 304.67473,122.597807 306.627504,123.347881 C308.81083,124.18651 310.24118,125.663537 311.338356,127.589826 C311.723063,128.265246 312.269179,128.851349 312.706459,129.500724 C313.332221,130.430017 312.922797,131.361498 311.808125,131.417922 C311.029116,131.457353 310.22383,131.382034 309.678023,130.644047 C308.877761,129.561967 307.923229,128.575813 307.384886,127.331902 C307.064833,126.592354 306.56446,126.172331 305.779532,125.945769 C302.573752,125.020463 300.425892,122.871765 298.808538,120.125187 C298.611355,119.790366 298.443051,119.360855 298.134934,119.180327 C296.839763,118.421543 296.113343,117.28678 295.650338,115.940633 C295.486751,115.464961 295.176536,115.123332 294.688976,114.93063 C292.476804,114.056311 290.46092,112.828576 288.461607,111.581424 C286.339098,110.257437 285.752232,108.148417 285.611296,105.880903 C285.563618,105.113907 285.401706,104.472006 284.628535,104.218434 C283.086779,103.712779 282.800761,102.542 282.708218,101.167914 C282.508433,98.2023677 282.259149,97.9097918 279.332362,97.2738193 C277.448747,96.8645269 275.719824,96.1124484 274.084111,95.1592189 C272.2645,94.0988474 270.193215,94.2047132 268.224179,93.8542627 C266.538073,93.554181 265.840402,92.8386011 265.806563,91.1761563 C265.788172,90.273256 265.732574,89.3688816 265.642634,88.4700396 C265.480558,86.8505607 262.788518,85.248099 261.424595,86.1194304 C259.06186,87.6288344 256.633072,88.0688713 253.84296,87.6780543 C252.664609,87.5129978 251.347875,88.1306376 250.123944,88.4894977 C249.389686,88.7048042 248.634094,88.8990514 247.911333,88.811946 C246.522594,88.6445674 245.732073,89.4325424 245.083202,90.3555426 C243.850799,92.1085643 242.633503,93.8563155 240.631213,94.8650658 C239.938096,95.2142562 239.774379,95.9368586 239.339717,96.4590154 C237.158441,99.0793739 234.124639,100.154123 231.003043,101.166178 C228.041473,102.126351 225.569902,103.505985 225.396184,107.121144 C225.333172,108.432829 224.059758,109.314417 222.9044,109.980539 C222.109586,110.438789 221.247385,110.864227 220.358223,111.070506 C219.004804,111.384489 217.884066,111.996756 216.971781,112.982663 C216.25837,113.753661 215.233167,113.80273 214.3335,114.092262 C212.179868,114.785333 210.458661,116.35449 208.185509,116.817576 C206.372175,117.186993 204.667831,117.44949 202.900102,116.520839 C202.096994,116.098944 201.919633,115.334882 201.241273,114.720674 C199.375773,115.548183 197.029941,115.760874 196.728312,118.526038 C196.622989,119.491616 195.567288,119.917117 194.916068,120.521457 C193.208317,122.106252 191.229217,123.313237 188.840024,123.69608 C188.416022,123.764021 188.080684,123.931297 187.784389,124.190608 C186.840719,125.016484 185.783173,125.631207 184.500994,125.733681 C182.095207,125.925963 180.399344,127.709388 178.210523,128.354776 C176.031124,128.997391 174.787493,130.646259 173.470971,132.254935 C172.730233,133.160062 170.762653,133.652417 169.886313,132.968723 C168.163626,131.624716 166.123717,131.977497 164.202042,131.693457 C163.289416,131.558567 162.348396,131.574649 161.450161,131.386575 C160.262809,131.137957 159.574936,130.236435 159.141738,129.219133 C158.746209,128.290307 158.126902,128.032994 157.159678,128.113965 C155.184797,128.27929 154.980581,128.124958 154.427253,126.184433 C154.266714,125.621435 153.953394,125.322676 153.400708,125.122461 C151.513093,124.438672 149.665594,124.490356 148.125057,125.775981 C146.19613,127.385703 143.92758,128.470138 141.863198,129.86472 C140.429444,130.833294 138.842925,131.58282 137.448999,132.661817 C136.657905,133.274195 136.240451,134.030355 135.855386,134.826605 C134.696646,137.222669 132.429771,138.324302 130.267524,139.586911 C125.434743,142.408919 119.842633,143.332617 114.767283,145.541147 C114.45193,145.678375 114.171465,145.901996 113.89385,146.10967 C112.691095,147.009416 111.439003,147.466026 109.841162,147.153778 C107.994137,146.792849 106.256407,147.489407 104.62032,148.262656 C103.845702,148.628752 103.100486,148.975461 102.235724,148.949797 C100.983907,148.912657 99.965629,149.598324 98.835752,149.936934 C98.456007,150.050765 97.997081,150.28889 97.683964,150.177468 C95.716528,149.477376 94.04136,150.640514 92.228697,150.886961 C91.430389,150.995482 90.37998,151.26054 90.079565,150.239338 C89.760315,149.154111 90.431256,148.452591 91.564566,148.1908 C91.948398,148.102109 92.308576,147.916136 92.779402,147.749233 M111.041987,138.510838 C110.942635,139.83488 110.824135,141.157994 110.755936,142.483549 C110.736211,142.866908 110.583624,143.481877 111.269806,143.438998 C111.806709,143.405456 111.913371,142.896155 111.834626,142.44281 C111.558767,140.85475 111.434442,139.252296 111.240076,137.627063 C111.179528,137.863904 111.118979,138.100753 111.041987,138.510838 Z" id="Shape" fill="#000000"></path>
                <path d="M261.528757,51.7326884 C262.042763,50.834458 261.960992,50.4032047 260.854985,50.0596095 C259.655022,49.6868349 258.423881,49.2202163 257.550371,48.2448669 C256.67515,47.2676175 256.833937,46.6156851 258.09738,46.2288465 C260.594666,45.4642225 263.111028,44.7574757 265.630061,44.0634906 C266.549979,43.8100592 267.086954,43.2668831 267.258838,42.3719067 C267.48187,41.2105226 268.048883,40.166928 268.407458,39.0592387 C268.694392,38.1728341 269.329771,38.026474 270.018186,38.0009906 C270.709665,37.9753957 271.0901,38.4483474 271.280619,39.1246079 C271.562243,40.1241784 271.986725,41.0810864 272.092654,42.1319221 C272.175615,42.9548016 272.774293,43.3371117 273.544643,43.3264172 C275.660974,43.2970345 277.62772,43.9761389 279.626964,44.4892952 C280.423344,44.6937076 280.914807,45.3442578 280.994885,46.1072488 C281.06874,46.8107335 280.326424,47.1232809 279.825497,47.3576536 C278.559367,47.9500438 277.606495,48.9470689 276.441342,49.6515973 C275.9188,49.9675699 275.920364,50.3270133 275.94742,50.8413208 C276.032157,52.4516987 276.283516,54.0201394 276.761719,55.5685336 C277.270334,57.2154001 276.783905,57.8130719 275.041299,57.9442168 C272.902831,58.1051626 271.337289,56.8603539 269.752167,55.7998795 C268.742316,55.1242598 268.048101,54.7852572 267.0116,55.7577509 C265.639248,57.0453652 264.095321,58.1569219 262.641996,59.3635732 C261.890573,59.9874733 261.071469,60.2334723 260.196753,59.7305286 C259.323764,59.2285768 259.409478,58.3830857 259.586428,57.4584837 C259.98022,55.4012391 260.526056,53.4848657 261.528757,51.7326884 Z" id="Path" fill-opacity="0.867105551" fill="#FBDC1B"></path>
                <path d="M259.586428,57.4584837 C259.98022,55.4012391 260.526056,53.4848657 261.528757,51.7326884 C262.042763,50.834458 261.960992,50.4032047 260.854985,50.0596095 C259.655022,49.6868349 258.423881,49.2202163 257.550371,48.2448669 C256.67515,47.2676175 256.833937,46.6156851 258.09738,46.2288465 C260.594666,45.4642225 263.111028,44.7574757 265.630061,44.0634906 C266.549979,43.8100592 267.086954,43.2668831 267.258838,42.3719067 C267.48187,41.2105226 268.048883,40.166928 268.407458,39.0592387 C268.694392,38.1728341 269.329771,38.026474 270.018186,38.0009906 C270.709665,37.9753957 271.0901,38.4483474 271.280619,39.1246079 C271.562243,40.1241784 271.986725,41.0810864 272.092654,42.1319221 C272.175615,42.9548016 272.774293,43.3371117 273.544643,43.3264172 C275.660974,43.2970345 277.62772,43.9761389 279.626964,44.4892952 C280.423344,44.6937076 280.914807,45.3442578 280.994885,46.1072488 C281.06874,46.8107335 280.326424,47.1232809 279.825497,47.3576536 C278.559367,47.9500438 277.606495,48.9470689 276.441342,49.6515973 C275.9188,49.9675699 275.920364,50.3270133 275.94742,50.8413208 C276.032157,52.4516987 276.283516,54.0201394 276.761719,55.5685336 C277.270334,57.2154001 276.783905,57.8130719 275.041299,57.9442168 C272.902831,58.1051626 271.337289,56.8603539 269.752167,55.7998795 C268.742316,55.1242598 268.048101,54.7852572 267.0116,55.7577509 C265.639248,57.0453652 264.095321,58.1569219 262.641996,59.3635732 C261.890573,59.9874733 261.071469,60.2334723 260.196753,59.7305286 C259.323764,59.2285768 259.409478,58.3830857 259.586428,57.4584837 M264.697144,46.6654209 C263.905666,46.9045575 262.970843,46.8125218 262.353839,47.5355192 C262.736034,48.0329026 263.260824,48.0578123 263.701725,48.2274969 C266.180426,49.1814417 266.30165,49.8135705 264.602243,51.7642259 C263.724921,52.7712401 263.052761,53.9605256 262.934453,55.7056689 C264.144727,54.6885577 265.04658,53.9403516 265.937455,53.1798263 C267.526747,51.8231027 267.841488,51.8726315 269.674044,52.8251663 C270.97197,53.4998019 271.899626,54.8175875 273.665054,55.0056097 C273.250085,53.5212466 273.522344,52.0344575 272.753101,50.674026 C272.311173,49.8924702 272.473659,49.1689628 273.360901,48.5575657 C274.231056,47.9579541 275.353401,47.5821524 275.911454,46.4048759 C273.707047,45.8416533 271.04892,46.3934286 269.800578,43.6066983 C269.730225,46.0208094 268.044501,46.1929675 266.351414,46.377648 C265.868747,46.4302956 265.394747,46.5589351 264.697144,46.6654209 Z" id="Shape" fill="#000000"></path>
                <path d="M269.540117,32.7161951 C268.608113,33.2591662 267.998704,33.0089507 267.999998,32.086247 C268.002372,30.4109879 268.06897,28.732541 268.197308,27.0625193 C268.242567,26.4735739 268.610769,25.8500654 269.321019,26.0322255 C270.065482,26.2231599 271.039169,26.2933728 270.998784,27.4980215 C270.937422,29.3280009 270.338366,31.0015186 269.540117,32.7161951 Z" id="Path" fill="#000000"></path>
                <path d="M255.735414,65.0121265 C255.216647,65.56695 254.768096,66.0739677 254.289217,66.5399584 C253.643714,67.1680946 252.60644,67.1595805 252.217003,66.4738356 C251.719866,65.5984637 252.151758,64.9155478 252.758752,64.418729 C253.659404,63.6815663 254.603262,63.0128694 255.539296,62.3342674 C255.919994,62.058284 256.334406,61.8773944 256.799986,62.0996716 C257.406762,63.4951911 256.51138,64.1796467 255.735414,65.0121265 Z" id="Path" fill="#000000"></path>
                <path d="M278.213278,60.923554 C278.62773,61.8882099 278.516912,62.942277 278.925976,63.8333358 C279.143587,64.3073506 278.855372,64.7642672 278.400963,64.9185678 C277.448148,65.242105 276.656011,64.5822526 276.441756,63.282478 C276.39079,62.9733122 276.337162,62.6503813 276.224441,62.3756676 C275.880824,61.5382678 275.892617,60.7590436 276.535907,60.2356194 C277.195157,59.6992043 277.728929,60.1425189 278.213278,60.923554 Z" id="Path" fill="#000000"></path>
                <path d="M287,43.765621 C286.967475,45.0639156 285.79875,46.1989458 284.813445,45.9705601 C284.092704,45.8034955 283.740856,44.7697266 284.219597,44.1020318 C284.770438,43.3337742 285.598715,43.2016009 286.367099,43.0110359 C286.696951,42.9292348 286.89541,43.3142732 287,43.765621 Z" id="Path" fill="#000000"></path>
                <path d="M254.151857,44.9942742 C253.92593,44.9830538 253.792714,44.9762405 253.660798,44.9628828 C252.754196,44.8710703 251.860105,44.591659 252.018306,43.8734734 C252.190562,43.0915043 253.11061,42.8690192 254.192985,43.0696064 C254.791452,43.1805155 255.415677,43.2185726 256.016987,43.3230315 C256.667399,43.4360247 257.014278,43.8431564 256.99955,44.2404495 C256.983687,44.6681774 256.555783,44.907052 255.810951,44.9098032 C255.307349,44.91166 254.777348,45.0265896 254.151857,44.9942742 Z" id="Path" fill="#000000"></path>
                <polygon id="Triangle" fill-opacity="0.3" fill="#F8E69F" points="213.5 0 427 355 0 355"></polygon>
                <path d="M135.54,68.32 C135.936,68.32 136.296,68.14 136.62,67.852 C136.908,67.492 137.088,67.132 137.088,66.772 C137.088,66.7 136.908,66.268 136.62,65.512 C136.296,64.756 135.864,64.252 135.36,64.036 C134.568,62.74 133.92,60.544 133.38,57.52 C133.164,56.26 132.804,53.776 132.372,50.104 C131.94,46.576 131.4,43.768 130.68,41.608 C130.428,40.852 129.96,40.456 129.312,40.456 C128.736,40.456 128.34,40.708 128.088,41.176 C126.144,44.632 124.452,48.916 123.012,54.064 C120.816,51.076 118.944,46.288 117.36,39.7 C117.144,38.872 116.676,38.44 115.956,38.44 C115.272,38.44 114.804,38.728 114.552,39.268 C114.012,40.42 113.472,41.716 112.968,43.192 C112.608,42.976 112.284,42.868 111.996,42.868 C111.024,42.868 110.556,43.372 110.556,44.308 C110.556,44.596 110.556,44.956 110.592,45.388 C110.592,45.892 110.628,46.252 110.628,46.504 C110.628,47.8 110.484,49.42 110.268,51.436 C109.98,54.136 109.836,55.828 109.836,56.548 C109.836,57.916 109.944,59.176 110.232,60.256 C110.628,61.696 111.204,62.416 111.924,62.416 C112.788,62.416 113.22,61.696 113.292,60.256 C113.364,57.592 113.544,55.072 113.832,52.732 C114.156,50.032 114.732,47.152 115.56,44.092 C115.992,46.252 116.82,48.628 118.044,51.22 C119.304,54.028 120.6,56.08 121.932,57.448 C122.58,58.168 123.192,58.492 123.732,58.492 C124.452,58.492 124.956,58.024 125.172,57.016 C125.928,53.704 127.152,49.924 128.808,45.748 C129.492,51.652 129.924,55.18 130.14,56.368 C130.86,60.688 131.868,63.964 133.092,66.124 C133.884,67.564 134.712,68.32 135.54,68.32 Z M141.948,65.476 C142.308,65.476 142.632,65.296 142.92,64.972 C143.208,64.648 143.388,64.324 143.388,63.964 C143.388,63.82 143.244,63.496 143.028,62.992 C142.884,62.704 142.812,62.344 142.812,61.948 C142.812,61.012 142.992,58.996 143.424,55.972 L144.9,44.596 C145.188,42.148 145.368,40.492 145.368,39.628 C145.368,38.548 144.864,37.972 143.928,37.972 C143.208,37.972 142.488,38.908 141.804,40.708 C141.228,42.328 140.94,43.696 140.94,44.812 C140.94,45.46 141.228,45.928 141.804,46.252 L140.616,54.928 C140.22,57.844 140.04,60.184 140.04,61.912 C140.04,64.288 140.652,65.476 141.948,65.476 Z M152.712,65.116 C154.8,65.116 156.816,64.432 158.724,63.1 C160.812,61.66 161.892,59.86 161.892,57.736 C161.892,56.26 161.352,55 160.272,53.956 C159.588,53.308 158.436,52.588 156.852,51.796 C154.296,50.572 153.036,49.456 153.036,48.52 C153.036,47.08 154.08,45.712 156.168,44.344 C157.86,43.228 159.66,42.436 161.604,42.004 C162.324,41.824 162.684,41.32 162.684,40.492 C162.684,39.916 162.468,39.484 162.108,39.16 C161.676,38.872 161.172,38.692 160.668,38.692 C159.552,38.692 158.76,39.088 158.292,39.88 C156.132,40.744 154.368,41.788 152.964,43.084 C151.02,44.776 150.084,46.576 150.084,48.484 C150.084,50.068 150.624,51.328 151.704,52.336 C152.28,52.912 153.396,53.596 155.016,54.316 C157.608,55.54 158.94,56.692 158.94,57.7 C158.94,58.924 158.184,60.004 156.708,60.868 C155.376,61.624 154.08,61.984 152.82,61.984 C152.604,61.984 152.28,61.948 151.884,61.84 C151.416,61.732 151.092,61.66 150.876,61.66 C150.444,61.66 150.12,61.84 149.868,62.2 C149.58,62.488 149.436,62.848 149.436,63.28 C149.436,64.504 150.516,65.116 152.712,65.116 Z M168.948,65.116 C171.036,65.116 173.052,64.432 174.96,63.1 C177.048,61.66 178.128,59.86 178.128,57.736 C178.128,56.26 177.588,55 176.508,53.956 C175.824,53.308 174.672,52.588 173.088,51.796 C170.532,50.572 169.272,49.456 169.272,48.52 C169.272,47.08 170.316,45.712 172.404,44.344 C174.096,43.228 175.896,42.436 177.84,42.004 C178.56,41.824 178.92,41.32 178.92,40.492 C178.92,39.916 178.704,39.484 178.344,39.16 C177.912,38.872 177.408,38.692 176.904,38.692 C175.788,38.692 174.996,39.088 174.528,39.88 C172.368,40.744 170.604,41.788 169.2,43.084 C167.256,44.776 166.32,46.576 166.32,48.484 C166.32,50.068 166.86,51.328 167.94,52.336 C168.516,52.912 169.632,53.596 171.252,54.316 C173.844,55.54 175.176,56.692 175.176,57.7 C175.176,58.924 174.42,60.004 172.944,60.868 C171.612,61.624 170.316,61.984 169.056,61.984 C168.84,61.984 168.516,61.948 168.12,61.84 C167.652,61.732 167.328,61.66 167.112,61.66 C166.68,61.66 166.356,61.84 166.104,62.2 C165.816,62.488 165.672,62.848 165.672,63.28 C165.672,64.504 166.752,65.116 168.948,65.116 Z M189.144,35.884 C189.396,35.884 189.72,35.668 190.152,35.2 C191.16,34.12 191.952,33.58 192.492,33.58 C192.816,33.58 193.248,33.94 193.824,34.624 C194.292,35.2 194.868,35.488 195.516,35.488 C196.236,35.488 197.316,34.912 198.684,33.724 C199.116,33.364 199.368,32.968 199.368,32.536 C199.368,31.816 199.008,31.42 198.324,31.42 C198.036,31.42 197.712,31.6 197.316,31.924 C196.56,32.572 196.02,32.896 195.66,32.896 C195.408,32.896 195.012,32.644 194.472,32.068 C193.896,31.564 193.284,31.276 192.6,31.276 C191.268,31.276 189.864,32.176 188.352,33.94 C188.172,34.156 188.1,34.444 188.1,34.732 C188.1,35.02 188.208,35.308 188.424,35.524 C188.604,35.776 188.856,35.884 189.144,35.884 Z M202.86,66.268 C203.904,66.268 204.444,65.836 204.444,64.972 C204.444,64.54 204.336,64 204.192,63.244 C202.104,54.352 199.332,46.468 195.912,39.628 C195.12,38.116 194.436,37.36 193.824,37.36 C193.356,37.36 192.96,37.648 192.636,38.152 C192.528,38.332 192.312,38.8 192.024,39.556 C189.504,45.604 187.596,51.076 186.336,55.972 C184.068,56.332 182.916,56.476 182.844,56.476 C181.944,56.62 181.512,57.088 181.512,57.916 C181.512,58.996 181.908,59.536 182.772,59.536 C183.168,59.536 184.104,59.428 185.58,59.176 C185.22,60.904 185.076,62.092 185.076,62.74 C185.076,63.568 185.148,64.108 185.292,64.468 C185.544,65.008 186.048,65.296 186.768,65.296 C187.02,65.296 187.308,65.152 187.596,64.9 C187.884,64.612 188.1,64.36 188.172,64.072 C188.1,63.64 188.064,63.208 188.064,62.812 C188.064,61.768 188.208,60.4 188.568,58.744 C190.8,58.528 192.492,58.42 193.608,58.42 C195.552,58.42 197.748,58.78 200.16,59.464 C200.52,60.688 200.772,61.66 200.952,62.38 C200.88,62.56 200.844,62.74 200.844,62.92 C200.844,63.424 201.06,64.072 201.492,64.9 C201.96,65.8 202.428,66.268 202.86,66.268 Z M199.152,55.9 C196.92,55.468 195.12,55.252 193.824,55.252 C192.636,55.252 191.16,55.36 189.396,55.576 C190.692,50.68 192.168,46.36 193.824,42.58 C195.696,46.036 197.46,50.5 199.152,55.9 Z M218.556,63.568 C221.724,63.568 224.46,62.488 226.692,60.328 C228.924,58.168 230.04,55.432 230.04,52.048 C230.04,48.664 229.104,45.82 227.268,43.516 C225.288,41.14 222.732,39.916 219.564,39.916 C218.628,39.916 217.98,39.988 217.62,40.06 C216.9,40.276 216.468,40.708 216.252,41.356 C213.516,42.724 211.356,44.344 209.772,46.288 C207.936,48.52 207.036,50.968 207.036,53.56 C207.036,56.368 208.26,58.78 210.744,60.796 C213.012,62.668 215.604,63.568 218.556,63.568 Z M218.916,60.436 C216.54,60.436 214.524,59.824 212.832,58.528 C210.924,57.16 209.988,55.324 209.988,53.056 C209.988,50.896 211.176,48.808 213.588,46.72 C215.82,44.776 218.088,43.624 220.392,43.336 C220.68,43.336 220.896,43.264 221.112,43.156 C225.072,44.308 227.088,47.332 227.088,52.3 C227.088,54.604 226.296,56.548 224.748,58.096 C223.164,59.68 221.22,60.436 218.916,60.436 Z" id="MISSÃO" fill="#1B681B"></path>
                <g id="Group-22" transform="translate(238.000000, 211.000000)">
                    <g id="Group-6" transform="translate(80.000000, 0.000000)" fill="#000000">
                        <path d="M8.604,33.348 C9.54,33.348 10.044,32.556 10.044,30.972 L10.044,28.956 C11.844,28.812 13.32,28.164 14.472,27.012 C15.624,25.932 16.2,24.456 16.2,22.584 C16.2,21.432 15.696,20.28 14.724,19.128 C14.076,18.408 12.996,17.4 11.484,16.104 C12.132,12.936 12.996,9.624 14.076,6.132 C15.048,6.348 15.696,6.492 16.02,6.6 C16.092,6.636 16.344,6.744 16.74,6.888 C17.028,6.996 17.28,7.032 17.46,7.032 C17.604,7.032 17.82,6.852 18.072,6.492 C18.288,6.132 18.432,5.772 18.432,5.412 C18.432,4.872 18.072,4.404 17.352,3.972 C16.704,3.612 15.948,3.36 15.084,3.216 C15.48,2.316 15.696,1.74 15.696,1.488 C15.696,1.164 15.552,0.84 15.336,0.552 C15.12,0.264 14.832,0.12 14.472,0.12 C13.896,0.12 13.428,0.408 13.032,0.912 C12.744,1.38 12.384,2.172 11.952,3.324 C9.792,3.72 8.028,4.548 6.66,5.772 C5.112,7.176 4.356,8.868 4.356,10.884 C4.356,12.864 5.688,15.024 8.352,17.328 C7.812,20.424 7.452,23.16 7.308,25.5 C5.904,24.924 4.824,24.456 4.104,24.096 C2.952,23.592 2.304,23.34 2.16,23.34 C1.188,23.34 0.72,23.808 0.72,24.672 C0.72,25.248 0.936,25.716 1.404,26.004 C3.348,27.336 5.292,28.236 7.236,28.74 L7.2,31.764 C7.272,32.808 7.74,33.348 8.604,33.348 Z M9,13.944 C7.776,12.72 7.164,11.496 7.164,10.272 C7.164,9.624 7.524,8.94 8.28,8.184 C9,7.536 9.864,7.032 10.872,6.6 C10.152,9.048 9.504,11.496 9,13.944 Z M10.116,25.932 C10.224,23.916 10.476,21.756 10.836,19.488 C12.456,20.964 13.284,22.152 13.284,23.016 C13.284,23.736 12.96,24.384 12.384,24.924 C11.736,25.428 10.98,25.788 10.116,25.932 Z M27.792,33.348 C28.728,33.348 29.232,32.556 29.232,30.972 L29.232,28.956 C31.032,28.812 32.508,28.164 33.66,27.012 C34.812,25.932 35.388,24.456 35.388,22.584 C35.388,21.432 34.884,20.28 33.912,19.128 C33.264,18.408 32.184,17.4 30.672,16.104 C31.32,12.936 32.184,9.624 33.264,6.132 C34.236,6.348 34.884,6.492 35.208,6.6 C35.28,6.636 35.532,6.744 35.928,6.888 C36.216,6.996 36.468,7.032 36.648,7.032 C36.792,7.032 37.008,6.852 37.26,6.492 C37.476,6.132 37.62,5.772 37.62,5.412 C37.62,4.872 37.26,4.404 36.54,3.972 C35.892,3.612 35.136,3.36 34.272,3.216 C34.668,2.316 34.884,1.74 34.884,1.488 C34.884,1.164 34.74,0.84 34.524,0.552 C34.308,0.264 34.02,0.12 33.66,0.12 C33.084,0.12 32.616,0.408 32.22,0.912 C31.932,1.38 31.572,2.172 31.14,3.324 C28.98,3.72 27.216,4.548 25.848,5.772 C24.3,7.176 23.544,8.868 23.544,10.884 C23.544,12.864 24.876,15.024 27.54,17.328 C27,20.424 26.64,23.16 26.496,25.5 C25.092,24.924 24.012,24.456 23.292,24.096 C22.14,23.592 21.492,23.34 21.348,23.34 C20.376,23.34 19.908,23.808 19.908,24.672 C19.908,25.248 20.124,25.716 20.592,26.004 C22.536,27.336 24.48,28.236 26.424,28.74 L26.388,31.764 C26.46,32.808 26.928,33.348 27.792,33.348 Z M28.188,13.944 C26.964,12.72 26.352,11.496 26.352,10.272 C26.352,9.624 26.712,8.94 27.468,8.184 C28.188,7.536 29.052,7.032 30.06,6.6 C29.34,9.048 28.692,11.496 28.188,13.944 Z M29.304,25.932 C29.412,23.916 29.664,21.756 30.024,19.488 C31.644,20.964 32.472,22.152 32.472,23.016 C32.472,23.736 32.148,24.384 31.572,24.924 C30.924,25.428 30.168,25.788 29.304,25.932 Z M46.98,33.348 C47.916,33.348 48.42,32.556 48.42,30.972 L48.42,28.956 C50.22,28.812 51.696,28.164 52.848,27.012 C54,25.932 54.576,24.456 54.576,22.584 C54.576,21.432 54.072,20.28 53.1,19.128 C52.452,18.408 51.372,17.4 49.86,16.104 C50.508,12.936 51.372,9.624 52.452,6.132 C53.424,6.348 54.072,6.492 54.396,6.6 C54.468,6.636 54.72,6.744 55.116,6.888 C55.404,6.996 55.656,7.032 55.836,7.032 C55.98,7.032 56.196,6.852 56.448,6.492 C56.664,6.132 56.808,5.772 56.808,5.412 C56.808,4.872 56.448,4.404 55.728,3.972 C55.08,3.612 54.324,3.36 53.46,3.216 C53.856,2.316 54.072,1.74 54.072,1.488 C54.072,1.164 53.928,0.84 53.712,0.552 C53.496,0.264 53.208,0.12 52.848,0.12 C52.272,0.12 51.804,0.408 51.408,0.912 C51.12,1.38 50.76,2.172 50.328,3.324 C48.168,3.72 46.404,4.548 45.036,5.772 C43.488,7.176 42.732,8.868 42.732,10.884 C42.732,12.864 44.064,15.024 46.728,17.328 C46.188,20.424 45.828,23.16 45.684,25.5 C44.28,24.924 43.2,24.456 42.48,24.096 C41.328,23.592 40.68,23.34 40.536,23.34 C39.564,23.34 39.096,23.808 39.096,24.672 C39.096,25.248 39.312,25.716 39.78,26.004 C41.724,27.336 43.668,28.236 45.612,28.74 L45.576,31.764 C45.648,32.808 46.116,33.348 46.98,33.348 Z M47.376,13.944 C46.152,12.72 45.54,11.496 45.54,10.272 C45.54,9.624 45.9,8.94 46.656,8.184 C47.376,7.536 48.24,7.032 49.248,6.6 C48.528,9.048 47.88,11.496 47.376,13.944 Z M48.492,25.932 C48.6,23.916 48.852,21.756 49.212,19.488 C50.832,20.964 51.66,22.152 51.66,23.016 C51.66,23.736 51.336,24.384 50.76,24.924 C50.112,25.428 49.356,25.788 48.492,25.932 Z M66.168,33.348 C67.104,33.348 67.608,32.556 67.608,30.972 L67.608,28.956 C69.408,28.812 70.884,28.164 72.036,27.012 C73.188,25.932 73.764,24.456 73.764,22.584 C73.764,21.432 73.26,20.28 72.288,19.128 C71.64,18.408 70.56,17.4 69.048,16.104 C69.696,12.936 70.56,9.624 71.64,6.132 C72.612,6.348 73.26,6.492 73.584,6.6 C73.656,6.636 73.908,6.744 74.304,6.888 C74.592,6.996 74.844,7.032 75.024,7.032 C75.168,7.032 75.384,6.852 75.636,6.492 C75.852,6.132 75.996,5.772 75.996,5.412 C75.996,4.872 75.636,4.404 74.916,3.972 C74.268,3.612 73.512,3.36 72.648,3.216 C73.044,2.316 73.26,1.74 73.26,1.488 C73.26,1.164 73.116,0.84 72.9,0.552 C72.684,0.264 72.396,0.12 72.036,0.12 C71.46,0.12 70.992,0.408 70.596,0.912 C70.308,1.38 69.948,2.172 69.516,3.324 C67.356,3.72 65.592,4.548 64.224,5.772 C62.676,7.176 61.92,8.868 61.92,10.884 C61.92,12.864 63.252,15.024 65.916,17.328 C65.376,20.424 65.016,23.16 64.872,25.5 C63.468,24.924 62.388,24.456 61.668,24.096 C60.516,23.592 59.868,23.34 59.724,23.34 C58.752,23.34 58.284,23.808 58.284,24.672 C58.284,25.248 58.5,25.716 58.968,26.004 C60.912,27.336 62.856,28.236 64.8,28.74 L64.764,31.764 C64.836,32.808 65.304,33.348 66.168,33.348 Z M66.564,13.944 C65.34,12.72 64.728,11.496 64.728,10.272 C64.728,9.624 65.088,8.94 65.844,8.184 C66.564,7.536 67.428,7.032 68.436,6.6 C67.716,9.048 67.068,11.496 66.564,13.944 Z M67.68,25.932 C67.788,23.916 68.04,21.756 68.4,19.488 C70.02,20.964 70.848,22.152 70.848,23.016 C70.848,23.736 70.524,24.384 69.948,24.924 C69.3,25.428 68.544,25.788 67.68,25.932 Z" id="$$$$"></path>
                    </g>
                    <g id="Group-20" transform="translate(153.000000, 25.000000)">
                        <rect id="Rectangle" fill="#FFFFFF" x="3" y="4" width="60" height="84"></rect>
                        <g id="Ilustração_Sem_Título-2">
                            <path d="M1.4624366,64.8510374 C1.28519215,63.3681506 1.34311717,61.9500804 1.34084982,60.5353669 C1.32967494,53.5577326 1.43416436,46.5782974 1.30947044,39.602879 C1.16315835,31.418125 1.0067111,23.2349033 0.991824665,15.0482588 C0.987522732,12.6824715 0.911387719,10.3132922 0.895433513,7.94524413 C0.893144893,7.60583701 0.858162175,7.32051334 0.590707711,7.03952955 C-0.45715068,5.93864192 -0.0628760001,4.47822505 1.39346371,4.01752492 C2.30389643,3.7295164 3.26384298,3.71437082 4.20076014,3.57453782 C7.9288407,3.01812642 11.6589298,2.47495839 15.3901998,1.94035921 C18.6417694,1.4744896 21.9080771,1.15105549 25.1852798,0.923422262 C31.3136312,0.497754078 37.4512876,0.51004502 43.5886005,0.489409234 C44.7480471,0.485510256 45.8944066,0.374054455 47.0179085,0.0744551284 C47.4888309,-0.0511209105 47.9655442,-0.0364797372 48.345144,0.263706645 C48.7664561,0.596874136 49.2192439,0.612925015 49.714661,0.631891863 C55.6986456,0.860979601 61.639728,1.39783941 67.4633091,2.92143214 C69.6389691,3.49063888 69.9583365,4.19027538 69.9970614,6.42432699 C70.0408762,8.95225922 69.5836195,11.4877254 69.3660601,14.0217936 C69.2121578,15.814454 69.0344711,17.608156 68.9723946,19.4050359 C68.8089334,24.1358043 68.4931599,28.8576714 68.1532351,33.5766721 C67.8246003,38.1390251 67.3104322,42.6880405 66.9883363,47.2507612 C66.7349027,50.8408247 66.4721266,54.4311427 66.3045916,58.0286269 C66.1047857,62.3191779 65.9162607,66.6110489 65.677523,70.8992425 C65.4601328,74.8040157 65.2456782,78.706441 65.1933395,82.6174752 C65.1662621,84.6406752 64.4820753,85.2711225 62.4949215,85.5392518 C60.7956645,85.7685328 59.1186768,86.1724618 57.4381048,86.5287451 C56.4540916,86.7373572 55.4562951,86.82437 54.4606532,86.8892525 C53.5739697,86.947063 52.7186254,87.1077654 51.9268726,87.4806817 C50.836667,87.9941593 49.8947092,87.9910195 49.1227234,86.8525257 C48.5184183,87.8848465 47.5960347,88.0822095 46.5733296,87.9734622 C42.845216,87.5770765 39.1099476,87.2810462 35.3641135,87.1213811 C35.1846063,87.113734 35.0056446,87.087898 34.8261939,87.0849561 C28.4059804,86.9794996 21.9860255,86.844756 15.5653792,86.7850501 C12.4072772,86.7556782 9.24791458,86.867537 6.08904572,86.9099779 C5.72228827,86.9149095 5.39581743,86.9963119 5.06083906,87.165293 C3.93454995,87.7334225 2.75135426,86.959387 2.79325447,85.7033391 C2.7991395,85.5268806 2.90273517,85.3393429 2.78370261,85.1781409 C2.16587065,84.341401 2.29684251,83.3681168 2.26988514,82.4233369 C2.12826543,77.4600769 1.89200214,72.5015315 1.5538226,67.5476442 C1.49424636,66.6749413 1.4972664,65.7979481 1.4624366,64.8510374 M8.00183081,83.4893577 C10.7515574,83.3757073 13.5083496,83.4399202 16.3255293,83.2325056 C16.0997046,82.8369591 15.8846856,82.5292742 15.8587137,82.1666923 C15.7191074,80.2176248 15.4769639,78.2722724 15.5374927,76.3142567 C15.5735503,75.1480031 16.3448448,74.3110842 17.2811998,74.3264821 C18.224898,74.3420026 18.9491741,75.1826933 19.0058219,76.3429498 C19.0183304,76.5991794 18.9817036,76.8575307 18.9879977,77.1144016 C19.0043683,77.7826507 19.027353,78.4508242 19.0561427,79.1186678 C19.1155848,80.4975596 19.6007938,81.8878324 18.8462605,83.2863371 C20.829853,83.2833764 22.7141966,83.5492992 24.6253305,83.384599 C24.4056119,82.1066847 24.5119124,80.8321272 24.1586843,79.6133153 C23.9950584,79.0487029 23.9635073,78.3849233 23.5044442,77.9932712 C22.6527176,77.2666459 22.6608934,76.4100198 22.9377163,75.4672955 C23.128283,74.8183198 23.5404172,74.3947686 24.2317262,74.3123289 C24.938338,74.2280693 25.504111,74.472456 25.8356999,75.124317 C27.1683972,77.7442265 28.4386557,80.3812312 27.7241173,83.5231803 C29.3460047,83.5231803 30.9240255,83.5231803 32.5875636,83.5231803 C32.4405059,82.9187105 32.3039009,82.3776524 32.1775606,81.8341896 C31.7691804,80.0774595 31.8005431,78.2478884 31.3650104,76.5058113 C31.124184,75.5425312 30.6855841,74.659824 31.626761,73.8873915 C31.388743,73.6677472 31.20893,73.6551026 31.0289477,73.6442873 C29.2354892,73.5364924 27.4384459,73.4693282 25.6495034,73.310521 C23.6570575,73.1336666 21.6520092,73.1387772 19.6674006,72.8458019 C18.4560996,72.6669861 17.2326432,72.4317364 16.031268,72.952503 C15.7702702,73.0656347 15.4760371,73.0266072 15.1968387,72.9500042 C14.0515189,72.6357754 13.4072517,71.5846528 13.5400463,70.2430818 C13.638458,69.2489023 14.3923516,68.6223493 15.6268676,68.6066968 C21.1743127,68.536317 26.7158822,68.6440177 32.2358925,69.2693448 C32.8974475,69.3442789 33.5685568,69.4027023 34.210914,69.5652999 C35.5190741,69.8964164 36.3407646,71.3047651 35.3004421,72.6214335 C34.8037879,73.2500232 34.1897405,73.5645633 33.3876854,73.7851222 C34.5515445,74.9400134 34.587207,76.4327347 34.8885996,77.8184722 C35.2594781,79.5236906 35.4754992,81.2638065 36.0782801,82.9145239 C36.2565031,83.4025994 36.501121,83.7298782 37.1187248,83.7502359 C39.6829414,83.8347783 42.2394621,84.0464927 44.7898109,84.3323868 C45.6896285,84.4332512 45.7862056,84.3434001 45.7828373,83.4588165 C45.7707664,80.2926343 45.7514134,77.1264804 45.7329918,73.9603265 C45.7316558,73.7307532 45.7654318,73.4878566 45.6123199,73.2894939 C45.1003486,72.6262235 45.101694,71.858204 45.1450008,71.0776622 C45.1920098,70.2304089 45.2628925,69.382901 45.2684199,68.5351573 C45.3389264,57.7261563 45.2821985,46.9178673 45.5313372,36.1080601 C45.7186487,27.9807584 45.7594434,19.8505054 46.2337904,11.732475 C46.3565887,9.63078611 46.4528269,7.52346319 46.785131,5.43711098 C46.8722433,4.89016895 46.850491,4.32580866 46.8816986,3.71108701 C45.6081567,3.81035322 44.4196899,3.98261333 43.2167295,3.97792461 C37.2336105,3.95459439 31.2518417,3.98114708 25.2782393,4.40395584 C22.0009613,4.63592169 18.7373255,4.97893566 15.4825855,5.42188754 C11.9001514,5.9094396 8.35029379,6.64474453 4.73411896,6.86923546 C4.17058033,6.9042226 4.12283995,7.1552049 4.17000875,7.60830496 C4.45551551,10.3508109 4.43109849,13.1091556 4.43986004,15.8573521 C4.46479454,23.6818297 4.59443503,31.5032285 4.77291435,39.3253958 C4.87329945,43.7249863 4.80251071,48.1287728 4.78926379,52.5306121 C4.77447139,57.4459575 4.71189637,62.3625995 4.99780993,67.2723391 C5.24746366,71.5594108 5.55676192,75.8426822 5.63255812,80.1386174 C5.6528215,81.2869081 5.75556335,82.4337374 5.82395988,83.6434877 C6.53535593,83.5971336 7.19753888,83.5539856 8.00183081,83.4893577 M48.9206596,37.9914909 C48.8701366,40.3843352 48.7849295,42.7770382 48.775493,45.1700429 C48.7454379,52.7906843 48.7457859,60.4114386 48.7272703,68.032127 C48.7254638,68.7765925 48.5706254,69.534504 48.665396,70.262836 C48.9775426,72.6618849 49.1827864,75.064347 49.1832381,77.4838196 C49.1837084,79.999989 49.1833415,82.5161487 49.1833415,85.1342668 C50.3880472,84.1883648 51.6693746,83.7155459 53.0237204,83.5867616 C55.7129651,83.331041 58.3532298,82.8438331 60.9802569,82.2346865 C61.5404225,82.1047894 61.7564954,81.8959134 61.7675125,81.3269069 C61.8322046,77.9837005 62.021266,74.6462649 62.202575,71.3071884 C62.4326288,67.0703746 62.6046515,62.8301003 62.8315534,58.5923436 C63.1106155,53.380237 63.4468711,48.1738256 63.9174124,42.9754433 C64.3576118,38.1119821 64.7663965,33.2456452 65.0342155,28.3687992 C65.0474342,28.1280853 65.1736195,27.8619173 64.9494836,27.6486235 C63.3099509,27.9050606 62.3659514,27.1480402 62.4642503,25.7186784 C62.614201,23.5382933 62.7028092,21.3536177 62.8578216,19.1736476 C62.9853617,17.3801197 63.158777,15.5880253 63.4750962,13.8165902 C63.7150288,12.4728882 64.4430305,11.9371269 65.7925781,12.0177962 C65.8609487,12.0218813 65.9324618,11.9729201 66.0402255,11.9355946 C66.3156934,10.2733286 66.5733514,8.60086504 66.8793967,6.93734507 C66.9827195,6.37568879 66.6653936,6.2899794 66.2668546,6.18242505 C61.2323451,4.82376829 56.039549,4.56083678 50.8981696,3.94106337 C50.3102868,3.87019568 50.1407761,4.13052252 50.130615,4.68626204 C50.1108762,5.76555205 50.0629123,6.84668078 49.9677183,7.92181025 C49.6001517,12.0729124 49.4145243,16.2368831 49.2594082,20.3969666 C49.0427473,26.2080409 49.0251442,32.0265691 48.9206596,37.9914909 Z" id="Shape" fill="#FFFFFF"></path>
                            <path d="M1.4624366,64.8510374 C1.28519215,63.3681506 1.34311717,61.9500804 1.34084982,60.5353669 C1.32967494,53.5577326 1.43416436,46.5782974 1.30947044,39.602879 C1.16315835,31.418125 1.0067111,23.2349033 0.991824665,15.0482588 C0.987522732,12.6824715 0.911387719,10.3132922 0.895433513,7.94524413 C0.893144893,7.60583701 0.858162175,7.32051334 0.590707711,7.03952955 C-0.45715068,5.93864192 -0.0628760001,4.47822505 1.39346371,4.01752492 C2.30389643,3.7295164 3.26384298,3.71437082 4.20076014,3.57453782 C7.9288407,3.01812642 11.6589298,2.47495839 15.3901998,1.94035921 C18.6417694,1.4744896 21.9080771,1.15105549 25.1852798,0.923422262 C31.3136312,0.497754078 37.4512876,0.51004502 43.5886005,0.489409234 C44.7480471,0.485510256 45.8944066,0.374054455 47.0179085,0.0744551284 C47.4888309,-0.0511209105 47.9655442,-0.0364797372 48.345144,0.263706645 C48.7664561,0.596874136 49.2192439,0.612925015 49.714661,0.631891863 C55.6986456,0.860979601 61.639728,1.39783941 67.4633091,2.92143214 C69.6389691,3.49063888 69.9583365,4.19027538 69.9970614,6.42432699 C70.0408762,8.95225922 69.5836195,11.4877254 69.3660601,14.0217936 C69.2121578,15.814454 69.0344711,17.608156 68.9723946,19.4050359 C68.8089334,24.1358043 68.4931599,28.8576714 68.1532351,33.5766721 C67.8246003,38.1390251 67.3104322,42.6880405 66.9883363,47.2507612 C66.7349027,50.8408247 66.4721266,54.4311427 66.3045916,58.0286269 C66.1047857,62.3191779 65.9162607,66.6110489 65.677523,70.8992425 C65.4601328,74.8040157 65.2456782,78.706441 65.1933395,82.6174752 C65.1662621,84.6406752 64.4820753,85.2711225 62.4949215,85.5392518 C60.7956645,85.7685328 59.1186768,86.1724618 57.4381048,86.5287451 C56.4540916,86.7373572 55.4562951,86.82437 54.4606532,86.8892525 C53.5739697,86.947063 52.7186254,87.1077654 51.9268726,87.4806817 C50.836667,87.9941593 49.8947092,87.9910195 49.1227234,86.8525257 C48.5184183,87.8848465 47.5960347,88.0822095 46.5733296,87.9734622 C42.845216,87.5770765 39.1099476,87.2810462 35.3641135,87.1213811 C35.1846063,87.113734 35.0056446,87.087898 34.8261939,87.0849561 C28.4059804,86.9794996 21.9860255,86.844756 15.5653792,86.7850501 C12.4072772,86.7556782 9.24791458,86.867537 6.08904572,86.9099779 C5.72228827,86.9149095 5.39581743,86.9963119 5.06083906,87.165293 C3.93454995,87.7334225 2.75135426,86.959387 2.79325447,85.7033391 C2.7991395,85.5268806 2.90273517,85.3393429 2.78370261,85.1781409 C2.16587065,84.341401 2.29684251,83.3681168 2.26988514,82.4233369 C2.12826543,77.4600769 1.89200214,72.5015315 1.5538226,67.5476442 C1.49424636,66.6749413 1.4972664,65.7979481 1.4624366,64.8510374 M8.00183081,83.4893577 C10.7515574,83.3757073 13.5083496,83.4399202 16.3255293,83.2325056 C16.0997046,82.8369591 15.8846856,82.5292742 15.8587137,82.1666923 C15.7191074,80.2176248 15.4769639,78.2722724 15.5374927,76.3142567 C15.5735503,75.1480031 16.3448448,74.3110842 17.2811998,74.3264821 C18.224898,74.3420026 18.9491741,75.1826933 19.0058219,76.3429498 C19.0183304,76.5991794 18.9817036,76.8575307 18.9879977,77.1144016 C19.0043683,77.7826507 19.027353,78.4508242 19.0561427,79.1186678 C19.1155848,80.4975596 19.6007938,81.8878324 18.8462605,83.2863371 C20.829853,83.2833764 22.7141966,83.5492992 24.6253305,83.384599 C24.4056119,82.1066847 24.5119124,80.8321272 24.1586843,79.6133153 C23.9950584,79.0487029 23.9635073,78.3849233 23.5044442,77.9932712 C22.6527176,77.2666459 22.6608934,76.4100198 22.9377163,75.4672955 C23.128283,74.8183198 23.5404172,74.3947686 24.2317262,74.3123289 C24.938338,74.2280693 25.504111,74.472456 25.8356999,75.124317 C27.1683972,77.7442265 28.4386557,80.3812312 27.7241173,83.5231803 C29.3460047,83.5231803 30.9240255,83.5231803 32.5875636,83.5231803 C32.4405059,82.9187105 32.3039009,82.3776524 32.1775606,81.8341896 C31.7691804,80.0774595 31.8005431,78.2478884 31.3650104,76.5058113 C31.124184,75.5425312 30.6855841,74.659824 31.626761,73.8873915 C31.388743,73.6677472 31.20893,73.6551026 31.0289477,73.6442873 C29.2354892,73.5364924 27.4384459,73.4693282 25.6495034,73.310521 C23.6570575,73.1336666 21.6520092,73.1387772 19.6674006,72.8458019 C18.4560996,72.6669861 17.2326432,72.4317364 16.031268,72.952503 C15.7702702,73.0656347 15.4760371,73.0266072 15.1968387,72.9500042 C14.0515189,72.6357754 13.4072517,71.5846528 13.5400463,70.2430818 C13.638458,69.2489023 14.3923516,68.6223493 15.6268676,68.6066968 C21.1743127,68.536317 26.7158822,68.6440177 32.2358925,69.2693448 C32.8974475,69.3442789 33.5685568,69.4027023 34.210914,69.5652999 C35.5190741,69.8964164 36.3407646,71.3047651 35.3004421,72.6214335 C34.8037879,73.2500232 34.1897405,73.5645633 33.3876854,73.7851222 C34.5515445,74.9400134 34.587207,76.4327347 34.8885996,77.8184722 C35.2594781,79.5236906 35.4754992,81.2638065 36.0782801,82.9145239 C36.2565031,83.4025994 36.501121,83.7298782 37.1187248,83.7502359 C39.6829414,83.8347783 42.2394621,84.0464927 44.7898109,84.3323868 C45.6896285,84.4332512 45.7862056,84.3434001 45.7828373,83.4588165 C45.7707664,80.2926343 45.7514134,77.1264804 45.7329918,73.9603265 C45.7316558,73.7307532 45.7654318,73.4878566 45.6123199,73.2894939 C45.1003486,72.6262235 45.101694,71.858204 45.1450008,71.0776622 C45.1920098,70.2304089 45.2628925,69.382901 45.2684199,68.5351573 C45.3389264,57.7261563 45.2821985,46.9178673 45.5313372,36.1080601 C45.7186487,27.9807584 45.7594434,19.8505054 46.2337904,11.732475 C46.3565887,9.63078611 46.4528269,7.52346319 46.785131,5.43711098 C46.8722433,4.89016895 46.850491,4.32580866 46.8816986,3.71108701 C45.6081567,3.81035322 44.4196899,3.98261333 43.2167295,3.97792461 C37.2336105,3.95459439 31.2518417,3.98114708 25.2782393,4.40395584 C22.0009613,4.63592169 18.7373255,4.97893566 15.4825855,5.42188754 C11.9001514,5.9094396 8.35029379,6.64474453 4.73411896,6.86923546 C4.17058033,6.9042226 4.12283995,7.1552049 4.17000875,7.60830496 C4.45551551,10.3508109 4.43109849,13.1091556 4.43986004,15.8573521 C4.46479454,23.6818297 4.59443503,31.5032285 4.77291435,39.3253958 C4.87329945,43.7249863 4.80251071,48.1287728 4.78926379,52.5306121 C4.77447139,57.4459575 4.71189637,62.3625995 4.99780993,67.2723391 C5.24746366,71.5594108 5.55676192,75.8426822 5.63255812,80.1386174 C5.6528215,81.2869081 5.75556335,82.4337374 5.82395988,83.6434877 C6.53535593,83.5971336 7.19753888,83.5539856 8.00183081,83.4893577 M48.9206596,37.9914909 C48.8701366,40.3843352 48.7849295,42.7770382 48.775493,45.1700429 C48.7454379,52.7906843 48.7457859,60.4114386 48.7272703,68.032127 C48.7254638,68.7765925 48.5706254,69.534504 48.665396,70.262836 C48.9775426,72.6618849 49.1827864,75.064347 49.1832381,77.4838196 C49.1837084,79.999989 49.1833415,82.5161487 49.1833415,85.1342668 C50.3880472,84.1883648 51.6693746,83.7155459 53.0237204,83.5867616 C55.7129651,83.331041 58.3532298,82.8438331 60.9802569,82.2346865 C61.5404225,82.1047894 61.7564954,81.8959134 61.7675125,81.3269069 C61.8322046,77.9837005 62.021266,74.6462649 62.202575,71.3071884 C62.4326288,67.0703746 62.6046515,62.8301003 62.8315534,58.5923436 C63.1106155,53.380237 63.4468711,48.1738256 63.9174124,42.9754433 C64.3576118,38.1119821 64.7663965,33.2456452 65.0342155,28.3687992 C65.0474342,28.1280853 65.1736195,27.8619173 64.9494836,27.6486235 C63.3099509,27.9050606 62.3659514,27.1480402 62.4642503,25.7186784 C62.614201,23.5382933 62.7028092,21.3536177 62.8578216,19.1736476 C62.9853617,17.3801197 63.158777,15.5880253 63.4750962,13.8165902 C63.7150288,12.4728882 64.4430305,11.9371269 65.7925781,12.0177962 C65.8609487,12.0218813 65.9324618,11.9729201 66.0402255,11.9355946 C66.3156934,10.2733286 66.5733514,8.60086504 66.8793967,6.93734507 C66.9827195,6.37568879 66.6653936,6.2899794 66.2668546,6.18242505 C61.2323451,4.82376829 56.039549,4.56083678 50.8981696,3.94106337 C50.3102868,3.87019568 50.1407761,4.13052252 50.130615,4.68626204 C50.1108762,5.76555205 50.0629123,6.84668078 49.9677183,7.92181025 C49.6001517,12.0729124 49.4145243,16.2368831 49.2594082,20.3969666 C49.0427473,26.2080409 49.0251442,32.0265691 48.9206596,37.9914909 Z" id="Shape" fill="#000000"></path>
                            <path d="M39.9290157,22.0356898 C39.7350664,24.0408455 39.715591,25.9774879 39.851215,27.9148555 C39.9247617,28.9655226 39.4388049,29.7562407 38.5895171,29.9125731 C37.6586635,30.0839264 36.9211611,29.5585086 36.731042,28.4768921 C36.4021237,26.6056475 36.5343322,24.7098341 36.6358537,22.8296593 C36.7882975,20.0062042 37.1271827,17.1955011 37.167531,14.3630504 C37.1875697,12.9567586 37.6823885,12.2282571 38.6133687,12.2221872 C39.5589281,12.2161646 40.0365514,12.9974707 40.1170383,14.4032761 C40.2618388,16.9323573 40.1048396,19.4469554 39.9290157,22.0356898 Z" id="Path" fill="#000000"></path>
                            <path d="M20.4209952,13.2251248 C21.1702288,14.2697251 20.8307663,15.4439247 20.926773,16.5321364 C21.2325362,19.9980229 20.9969976,23.4805551 21.1158009,26.9540201 C21.1344474,27.4991935 21.2452962,28.0404318 21.2947876,28.5852701 C21.385357,29.5822853 20.8254743,30.3588278 19.9102997,30.5273803 C19.051111,30.6856208 18.2356114,30.1663714 17.9842854,29.245118 C17.7573142,28.413146 17.6521272,27.5520281 17.6521739,26.6896319 C17.6523938,22.925036 17.6694961,19.1604161 17.6902341,15.395868 C17.6922367,15.0323361 17.734831,14.663715 17.8044754,14.3068376 C18.0811062,12.8891951 19.1651838,12.4215139 20.4209952,13.2251248 Z" id="Path" fill="#000000"></path>
                            <path d="M30.2017281,22.0918411 C30.2110008,23.955785 30.1483795,25.7441036 30.4183635,27.5235143 C30.5293013,28.254669 30.0671065,28.916143 29.363366,29.2027574 C28.6534914,29.4918669 27.9533061,29.2961378 27.4771585,28.6627634 C27.1650149,28.2475493 26.9724708,27.7776991 26.9289595,27.2552914 C26.6013355,23.3218163 26.9141225,19.3915943 26.9984415,15.460394 C27.005006,15.1542741 27.0444434,14.8551335 26.9733782,14.5489527 C26.8589313,14.0558711 26.9672951,13.5786579 27.1646492,13.129996 C27.4245874,12.5390685 27.8860787,12.2309405 28.5364243,12.2224048 C29.1865431,12.2138713 29.653307,12.5045302 29.9265779,13.0952821 C30.1329962,13.5415356 30.1814423,14.0195375 30.2028253,14.511051 C30.3116429,17.0128584 30.2859084,19.5139122 30.2017281,22.0918411 Z" id="Path" fill="#000000"></path>
                            <path d="M9.00558623,23.8221312 C8.79046996,20.9673971 8.421693,18.1946923 8.54714691,15.3983111 C8.56752934,14.9439646 8.59949926,14.4831729 8.69987114,14.0405249 C8.87251084,13.2791952 9.56664452,12.7902889 10.3208986,12.8363261 C11.0839942,12.8829013 11.7428449,13.4236406 11.8214992,14.1828538 C11.9625677,15.5445098 12.0257542,16.9133005 12.1492277,18.2768333 C12.412185,21.1807924 12.6424365,24.0865026 12.7571416,26.9996965 C12.7651274,27.2025622 12.7874268,27.4056841 12.781671,27.6081401 C12.7565596,28.4909583 12.1499367,29.1660675 11.2600326,29.3122894 C10.4896359,29.4388773 9.6895629,28.9848942 9.36891557,28.2054159 C9.07169239,27.4828747 9.12162651,26.7069312 9.05981646,25.9521305 C9.0039455,25.2698401 9.02147945,24.5821011 9.00558623,23.8221312 Z" id="Path" fill="#000000"></path>
                            <path d="M39.9356635,47.9110902 C39.3324283,48.7513313 38.6710049,49.035994 37.9252576,48.8190592 C37.0738357,48.571381 36.417562,47.7075114 36.5354757,46.6653701 C36.8977868,43.4631732 36.8242362,40.2362505 37.178097,37.0357417 C37.2503399,36.382324 37.2075,35.7199127 37.3992997,35.0748007 C37.5956644,34.4143053 37.9962356,33.9700842 38.6590769,33.7256193 C39.2622979,33.503146 39.7990196,33.6067235 40.2562173,34.0199825 C40.7105935,34.4306931 40.9209795,34.9618202 40.6847881,35.5383534 C40.4733481,36.0544969 40.4608885,36.5720449 40.4631639,37.1045856 C40.4763804,40.1974757 40.4235288,43.2876407 40.0720919,46.3663238 C40.0156045,46.8611734 40.2479253,47.3770846 39.9356635,47.9110902 Z" id="Path" fill="#000000"></path>
                            <path d="M22.5754098,35.3957589 C22.7929828,38.9120872 22.6700227,42.3784802 23.1187028,45.8126258 C23.2198768,46.5869784 22.6532173,47.4154573 21.9382697,47.6058741 C21.1241138,47.8227107 20.3849187,47.4523202 20.0425127,46.6093141 C19.6240393,45.5790337 19.6555916,44.4631253 19.6153044,43.3804667 C19.5189428,40.7910333 19.3900856,38.2010313 19.5640556,35.6055978 C19.6474325,34.3616416 20.0382361,33.6868517 20.921934,33.617266 C21.8326774,33.5455403 22.3670674,34.0984223 22.5754098,35.3957589 Z" id="Path" fill="#000000"></path>
                            <path d="M12.5791,35.4596904 C12.9278064,36.0343257 13.0577298,36.6035238 13.0883941,37.2103835 C13.2228042,39.8707839 13.5061803,42.5251529 13.4168211,45.1942557 C13.4076489,45.4681393 13.5071165,45.691752 13.6621603,45.9128315 C14.205417,46.6875005 14.0442522,47.4432626 13.5280121,48.1476843 C13.0678187,48.7756277 12.4085349,48.9872917 11.6395781,48.8478522 C10.7332818,48.683503 10.1782966,48.1345855 10.0046322,47.2638373 C9.89899966,46.7342163 9.86046786,46.1855745 9.85184862,45.6445561 C9.80398473,42.6420828 9.77376653,39.6393432 9.73934313,36.6366702 C9.73101014,35.9098625 9.96616346,35.3032689 10.6865722,34.9873557 C11.403673,34.6728874 12.024886,34.8446416 12.5791,35.4596904 Z" id="Path" fill="#000000"></path>
                            <path d="M29.379317,56.9901391 C29.3790654,56.0275502 29.361159,55.1426072 29.3831537,54.2586365 C29.4109883,53.1400792 30.2381662,52.4538264 31.3810696,52.5678833 C32.3549872,52.6650764 32.8544892,53.4544375 32.703758,54.5691721 C32.6380836,55.0549041 32.621077,55.5603312 32.6762236,56.046435 C33.0088006,58.9781485 32.6839648,61.9220164 32.866372,64.8566756 C32.9236522,65.7782728 32.2030755,66.5108317 31.2877057,66.602224 C30.3994061,66.690928 29.6149257,66.1086083 29.4027293,65.1685458 C29.153409,64.0640019 29.2015157,62.9369887 29.2834469,61.8253715 C29.4003585,60.2390517 29.3560159,58.6539045 29.379317,56.9901391 Z" id="Path" fill="#000000"></path>
                            <path d="M39.5516584,56.0886674 C39.5246055,57.9077932 39.2738035,59.635677 39.1240372,61.3708664 C39.0568187,62.1497007 39.0835557,62.9353684 39.0647716,63.7178787 C39.045827,64.5072039 38.5895685,65.1053693 37.8116388,65.3145294 C37.0006939,65.5325786 36.3632786,65.2582786 35.8689053,64.6593818 C35.1114094,63.7417217 35.297791,62.6824855 35.4080935,61.6615277 C35.6738688,59.2015509 35.9982578,56.7469908 36.2885385,54.28919 C36.3147841,54.0669742 36.2598158,53.8373045 36.2519481,53.6108108 C36.2201817,52.6967294 36.8565038,52.0055443 37.7777913,51.9489509 C38.7856379,51.8870427 39.5067641,52.4671013 39.5476219,53.4353733 C39.583836,54.2934864 39.5531727,55.1539977 39.5516584,56.0886674 Z" id="Path" fill="#000000"></path>
                            <path d="M12.4596475,67.7888665 C11.3882106,67.471472 10.9871076,66.7306803 10.9785133,65.7988256 C10.9703391,64.9131175 11.1258028,64.0259247 11.1159479,63.1403412 C11.09066,60.8660622 11.0128857,58.5923388 10.9575977,56.3183471 C10.9423199,55.6898903 11.0858276,55.1123418 11.6394027,54.7138143 C12.5308586,54.0720511 13.6839619,54.4176492 14.129092,55.4276574 C14.4804949,56.2250188 14.3486731,57.0798409 14.4589488,57.903327 C14.7364192,59.9753151 14.9631939,62.0595847 14.7705315,64.1569598 C14.7508865,64.3708041 14.7393508,64.5811327 14.872398,64.7620316 C15.9681824,66.2519303 14.2601884,68.148595 12.4596475,67.7888665 Z" id="Path" fill="#000000"></path>
                            <path d="M28.0339012,44.3661294 C28.0223752,41.3680835 28.014111,38.4418673 28.0000788,35.5156752 C27.9976654,35.0133695 28.0498691,34.5257059 28.2682008,34.0644925 C28.6440308,33.2705554 29.3562614,32.8733592 30.1177265,33.0359248 C30.8589821,33.1941837 31.4751866,33.8785605 31.4435583,34.6875475 C31.3191268,37.870053 31.7642886,41.0397148 31.6247913,44.222647 C31.5628801,45.6352123 31.0466119,46.3694724 29.9181271,46.4405303 C28.9061607,46.50425 28.2336666,45.7890156 28.0339012,44.3661294 Z" id="Path" fill="#000000"></path>
                            <path d="M23.9829308,57.4367855 C24.214298,59.0440664 24.2402928,60.5907063 24.1960576,62.1401126 C24.1864737,62.4756884 24.2212059,62.8037988 24.2978115,63.1371292 C24.5582446,64.2703674 23.7772997,65.2365284 22.5207878,65.3750048 C21.3701855,65.5018096 20.4742844,64.7491279 20.4559679,63.563311 C20.4308602,61.9368365 20.4619333,60.3095662 20.4723028,58.6826561 C20.4785822,57.6986941 20.3606103,56.727948 20.1717854,55.7604513 C20.0624547,55.2002932 20.0111952,54.6302161 20.3204146,54.0952201 C20.6804071,53.4723654 21.2226865,53.0990466 21.9939916,53.176868 C22.7605632,53.2542109 23.2592057,53.6909036 23.4092287,54.4010485 C23.6173685,55.3862893 23.7821753,56.3795165 23.9829308,57.4367855 Z" id="Path" fill="#000000"></path>
                            <path d="M58.263965,17.9443804 C58.3939087,16.464997 58.5083018,15.0565924 58.6360779,13.6492878 C58.6859417,13.1001858 58.864884,12.5840994 59.2597067,12.1694205 C59.7893254,11.6131757 60.4440754,11.4641252 61.1753958,11.7603286 C61.8104888,12.0175585 62.1920277,12.739096 62.0614078,13.4228475 C61.886701,14.3374862 61.8250451,15.2596053 61.8319355,16.185756 C61.8547048,19.2473769 61.6214741,22.2997355 61.4720025,25.3550729 C61.4595639,25.6094729 61.4004832,25.8646563 61.3369182,26.1134476 C61.0970258,27.0522457 60.3288869,27.5890118 59.3874432,27.4878476 C58.5097435,27.3935336 57.8083812,26.6992922 57.8264276,25.7895656 C57.8590303,24.1456022 57.9618299,22.5026539 58.0511371,20.8600501 C58.1027209,19.9111872 58.1851873,18.9638302 58.263965,17.9443804 Z" id="Path" fill="#000000"></path>
                            <path d="M55.7199702,20.9112238 C55.7409566,22.1256778 55.7675089,23.2641987 55.7805204,24.4028818 C55.7884406,25.0961817 55.7159097,25.7717065 55.2220542,26.3167619 C54.7559007,26.831252 54.1817769,27.0080214 53.5280233,26.8092937 C52.8876645,26.6146376 52.4965876,26.1279118 52.4885762,25.4679782 C52.4517772,22.4325966 52.2291571,19.3976 52.4321047,16.3612028 C52.5028744,15.302339 52.422533,14.2337784 52.6411109,13.1841155 C52.8089382,12.3781144 53.4321429,11.7170862 54.1814393,11.6247387 C54.8082025,11.5474909 55.3305356,11.799688 55.6307962,12.3548994 C55.9343143,12.9161393 56.1101254,13.597593 55.9229998,14.1832444 C55.6498665,15.0381078 55.7153622,15.8810529 55.7101065,16.7339222 C55.7016754,18.1009939 55.7154352,19.4682048 55.7199702,20.9112238 Z" id="Path" fill="#000000"></path>
                            <path d="M62.8120437,62.1194894 C62.7258377,63.7919702 62.6469749,65.39154 62.5682375,66.9911099 C62.5467172,67.4284991 62.5963119,67.8693701 62.4617623,68.3003363 C62.1816047,69.1976851 61.5072683,69.723943 60.6971217,69.6616961 C59.859045,69.5973049 59.2695385,68.9219711 59.1452004,67.9733807 C58.91124,66.1884456 59.1445171,64.4085007 59.2146985,62.632 C59.301251,60.4413636 59.5535557,58.2562585 59.938976,56.0919593 C60.0431219,55.5071546 60.1412334,54.9113823 60.5319087,54.4274385 C60.9841416,53.8672441 61.5680563,53.6079813 62.266752,53.8970821 C62.9541871,54.181534 63.409856,54.7264536 63.2832178,55.4787872 C62.9166324,57.6564162 62.8982594,59.852394 62.8120437,62.1194894 Z" id="Path" fill="#000000"></path>
                            <path d="M51.1304348,38.5087486 C51.1325549,36.9910001 51.1130522,35.5513267 51.2849867,34.1179891 C51.394726,33.2031998 51.6109384,32.3556362 52.5580591,31.9372695 C53.1653887,31.6689999 53.7431489,31.7321294 54.2317994,32.1801329 C54.7293038,32.6362325 54.9128905,33.1788104 54.687108,33.8776247 C54.2665073,35.179403 54.5301207,36.5220942 54.563329,37.8467512 C54.6203667,40.1211819 54.7299532,42.3943225 54.7808306,44.668835 C54.7929984,45.2128326 54.6698974,45.7621877 54.3883095,46.2526484 C53.7838929,47.3053904 52.3021341,47.3292572 51.6787401,46.2866546 C51.4201505,45.8541817 51.2956455,45.3730067 51.2833726,44.8654711 C51.2327721,42.7727548 51.1815891,40.6800483 51.1304348,38.5087486 Z" id="Path" fill="#000000"></path>
                            <path d="M60.9837344,36.3664411 C61.1384876,35.5854096 61.3446787,34.9030117 62.054542,34.4933851 C62.6569812,34.1457518 63.2799077,34.1101201 63.8495514,34.5169223 C64.4364713,34.9360491 64.6750185,35.5220794 64.4206592,36.2114959 C64.1407177,36.9703039 64.0554106,37.7496652 64.055069,38.5452543 C64.0539563,41.1532526 63.9384893,43.7570146 63.7498379,46.3583793 C63.7211809,46.7536872 63.6016243,47.1181723 63.3755217,47.4363902 C62.938543,48.0513857 62.3519258,48.4073559 61.5431784,48.2338746 C60.7889339,48.0720846 60.2974525,47.4867391 60.2748763,46.6654031 C60.215835,44.5167562 60.3529899,42.3721204 60.5077039,40.2306465 C60.599609,38.9586104 60.7087122,37.6843364 60.9837344,36.3664411 Z" id="Path" fill="#000000"></path>
                            <path d="M51.3077882,55.1227636 C51.5132084,54.1727231 51.8958688,53.4464011 52.8481161,53.2134991 C54.0147498,52.9281685 55.1184701,53.994332 54.6871543,55.1165558 C54.2305761,56.3045081 54.4565464,57.4693025 54.5021445,58.6396486 C54.5837666,60.7341107 54.7628954,62.8247418 54.7579496,64.9231016 C54.7561171,65.7007117 54.4377632,66.2668289 53.6777996,66.523174 C52.9033536,66.7844054 52.3453134,66.4339927 51.870017,65.8627419 C51.4313526,65.3355164 51.3466638,64.6768336 51.3297879,64.0344166 C51.2523452,61.0863962 50.9357958,58.1381287 51.3077882,55.1227636 Z" id="Path" fill="#000000"></path>
                            <path d="M56.1355527,36.672569 C56.2357507,35.8544155 56.2892969,35.0983687 56.4445581,34.3668165 C56.6586885,33.3578919 57.2737192,32.9020774 58.1240115,33.0175141 C58.9088277,33.1240689 59.3829059,33.7532155 59.3047008,34.7770072 C59.0997265,37.4604103 59.2731746,40.1312792 59.4588669,42.8033145 C59.4966768,43.3473131 59.5851693,43.8870999 59.6385718,44.4301375 C59.7348829,45.4096101 59.3146739,46.1488634 58.5389422,46.383198 C57.789997,46.609444 56.9917068,46.1974321 56.6203311,45.3364319 C56.2684708,44.5206971 56.2268817,43.6267744 56.1346011,42.7483879 C55.9243395,40.7471412 55.988532,38.7465255 56.1355527,36.672569 Z" id="Path" fill="#000000"></path>
                            <path d="M56.5067622,53.7973167 C57.6374758,53.6768962 58.3232795,54.112763 58.4597912,55.1142448 C58.8731269,58.1466652 59.078311,61.1960094 59.0386374,64.2550333 C59.0250714,65.3010338 58.3032705,65.9831049 57.3536534,65.9997692 C56.4422162,66.0157574 55.6325283,65.1990469 55.5564365,64.1300831 C55.495471,63.2735782 55.4785543,62.4134423 55.4651702,61.5545845 C55.4324951,59.4563774 55.407996,57.3580219 55.3913664,55.259648 C55.3856988,54.5445076 55.7680731,54.0732558 56.5067622,53.7973167 Z" id="Path" fill="#000000"></path>
                        </g>
                    </g>
                    <g id="Group-21" transform="translate(0.000000, 42.000000)">
                        <path d="M14.8517405,42.4453153 C12.2458116,44.5871637 9.69782697,46.6859337 7.14762477,48.7820693 C6.37641469,49.4159541 5.55173793,49.9063895 4.48354985,49.8190563 C3.95208149,49.7755981 3.43640644,49.6749145 3.18352706,49.1827022 C2.91730255,48.664512 3.33715679,48.2981958 3.64585979,47.9554435 C6.04661661,45.2898663 8.90056936,43.1338156 11.7453209,40.9706579 C12.8718651,40.114035 14.0283523,39.2950864 15.1855073,38.4787787 C16.0477203,37.8705349 16.9442708,37.3527061 18.0800256,37.4474282 C18.6607497,37.4958553 19.0465124,37.007246 19.5387058,36.8037892 C21.7273014,35.8991375 23.1032693,34.3344509 23.8271881,32.0822446 C24.2225397,30.8522411 24.9535277,29.7276817 25.5313232,28.5546954 C25.6793441,28.2542068 25.8780787,27.9579213 25.4669386,27.683178 C23.6197035,26.4487815 23.4346829,24.5502513 23.6803796,22.6616716 C24.4132312,17.0285149 26.2951314,11.7980344 29.9300016,7.32535906 C32.2914788,4.41957885 35.4879702,3.5411595 39.1343963,4.21450472 C41.6266486,4.67472525 43.1205241,6.31428559 43.8349207,8.59571131 C45.1586276,12.8229883 44.418567,16.7441033 41.6064543,20.1965854 C40.3192077,21.7769628 38.5124449,22.6467954 36.4674827,22.671836 C35.2360225,22.6869207 34.7099301,23.2019188 34.3507875,24.2246731 C33.9002015,25.5078522 33.5496014,25.5749236 32.5047925,24.6181744 C31.2167335,26.5154301 30.2423897,28.5547139 29.1629564,30.7937045 C30.4799317,30.8262201 31.4335853,31.3523693 32.3065231,32.0538953 C32.774606,32.4300698 33.2135585,32.1050612 33.635591,31.9326191 C37.5526244,30.3320718 41.5073985,28.6438544 45.7184984,28.2192467 C50.9416953,27.6925827 55.8077497,25.7424274 60.9601285,25.034854 C62.5336342,24.8187698 64.0864402,24.4389865 65.6825061,24.408162 C66.424889,24.393825 66.9631515,24.1112884 67.3955897,23.5185702 C68.0307281,22.6480146 68.7642555,21.8536841 69.6000046,21.1674753 C70.6298961,20.3218563 71.8067512,19.8563576 73.1711135,20.0723191 C74.1171022,20.2220488 74.5015177,20.7114058 74.2933541,21.5013127 C74.09639,22.2486927 73.7323144,22.7281915 72.8356381,22.2442078 C72.4381937,22.0296982 72.2431395,22.3364425 72.062218,22.7829171 C73.7493865,22.6163752 74.8392504,23.6056705 75.9581298,24.5118541 C78.1611681,26.2960987 80.2135718,28.2387915 82.1220133,30.328941 C85.8255191,34.3850532 87.4896499,39.3161998 88.3331814,44.5826115 C88.782766,47.3895247 89.0012237,50.2160256 89,53.066544 C88.998644,56.1852684 87.6910542,58.4361819 84.8991016,59.9081375 C83.1607045,60.8246511 81.3245013,61.4909229 79.3727565,62.1797234 C79.7182406,62.4779449 79.9935391,62.6948318 80.2430526,62.9375927 C80.4397314,63.1289486 80.6496438,63.4019088 80.4022698,63.6356386 C79.8279035,64.1783304 80.0740809,64.8133488 80.1135085,65.4285835 C80.4041177,69.9631101 80.7951005,74.4941382 80.9535921,79.0331192 C81.0454512,81.6637854 80.7751696,84.3076244 80.646816,86.9445402 C80.5976091,87.9554083 80.7657934,88.945065 80.8697139,89.9410448 C80.9068036,90.2965407 80.9268461,90.6120772 80.5669812,90.8141061 C79.6884807,91.3073108 78.8107059,91.1739646 77.9320071,90.8095477 C77.1717336,90.4942443 76.9383743,89.8903505 76.9007141,89.1245224 C76.7935812,86.946317 76.9045091,84.7756843 77.1267992,82.612012 C77.5009269,78.9702814 77.3559727,75.3223875 77.2033351,71.6837449 C77.0782807,68.7026314 77.0032146,65.7470668 77.7682073,62.6860396 C76.124894,63.0202263 74.5897306,63.3446038 73.0492218,63.6419309 C71.7545491,63.8918174 70.4561619,64.1253448 69.1544631,64.3362641 C68.4839899,64.4449004 68.1622691,64.7034012 68.2217453,65.457092 C68.4819189,68.7542935 68.689239,72.0555877 68.9147289,75.3554606 C69.210876,79.6894715 69.8025994,84.0041215 69.7090846,88.364564 C69.6864252,89.4210041 69.2146525,89.9788723 68.2716901,90.2662861 C68.0140094,90.3448209 67.7429837,90.4437339 67.4810492,90.4359159 C64.3900969,90.3438038 61.6120351,91.6374047 58.7057499,92.3572688 C57.771984,92.5885476 56.8356259,92.6929137 55.8928559,92.5086771 C55.4336407,92.4189301 54.9074891,92.2598629 54.8136642,91.7225322 C54.7143698,91.1539173 55.2216571,90.8966847 55.6326513,90.7019713 C58.0570804,89.5534314 60.5678497,88.6615113 63.2735366,88.4489194 C65.0545177,88.3089682 65.0637699,88.3329 65.3345539,86.5834074 C65.4108788,86.0902761 65.4635274,85.5888735 65.4696418,85.0905713 C65.5127531,81.5778983 65.2694718,78.0732638 65.1507177,74.565039 C65.0567129,71.7879516 65.1904615,69.0175182 65.4531527,66.2531626 C65.5569803,65.1604878 65.4401364,64.9990251 64.3299323,65.0739573 C62.8790067,65.17189 61.4310453,65.3120126 59.9808019,65.4208696 C59.6443963,65.4461187 59.3031848,65.4315121 58.9654461,65.4129231 C56.2011448,65.2607671 55.3008533,64.2889642 55.3933326,61.5652117 C55.5608222,56.632227 56.3742466,51.7908276 57.6724229,47.0381704 C59.3661276,40.8375017 61.2477425,34.6935191 64.0505102,28.8690309 C64.1644581,28.6322378 64.238005,28.3764572 64.4108835,27.9142976 C63.5200861,28.1567704 62.7873274,28.34222 62.0629964,28.555596 C56.1381154,30.3008858 50.1055992,31.4474344 43.9189105,31.7148071 C42.849393,31.7610347 41.7139343,31.9046619 40.9747357,30.8206078 C40.8668774,30.6624353 40.6730851,30.6707372 40.5090746,30.7253096 C38.2407152,31.4800787 35.9715778,32.2336714 33.877936,33.2316362 C33.7652065,33.5615952 33.8874796,33.7322545 34.0178455,33.882364 C36.8613831,37.1564854 38.0577536,41.12388 38.719266,45.2511809 C39.5234475,50.2686252 40.0161988,55.3246996 40.0106551,60.4179032 C40.0080815,62.7805351 39.3904709,64.7888535 37.0810874,65.9346608 C36.7108509,66.118358 36.6518055,66.3742059 36.7332528,66.7576408 C38.3809069,74.5145532 38.8915832,82.3677562 38.7601414,90.2751945 C38.7541975,90.6326881 38.6736433,91.0138806 39.0081358,91.4587316 C40.456122,91.0934692 41.9934806,90.9800845 43.5467454,91.0466473 C44.63811,91.0934324 45.6017784,91.4553617 46.4516724,92.1041166 C47.6639181,93.0294407 47.600777,94.2454627 46.3010968,95.0323552 C45.2989311,95.6391283 44.1837629,95.9121317 43.018625,95.97394 C40.8450986,96.0892487 38.6962252,95.798318 36.5445085,95.5632037 C36.5109256,95.5595397 36.4755226,95.5580203 36.4446837,95.5461094 C35.9856547,95.368821 35.2903237,95.3845917 35.2087712,94.8243707 C35.1092472,94.1407167 35.8957706,94.2609637 36.2905206,94.0178599 C34.3101415,93.2702899 34.1801446,93.1292484 34.2282323,91.0215268 C34.2930664,88.1798986 34.4785954,85.3404638 34.4012813,82.4964092 C34.2704194,77.6827831 34.121301,72.8696103 33.996076,68.055837 C33.9801636,67.4442356 33.7869201,67.1782783 33.1381853,67.3564983 C31.8014806,67.7237212 30.4636225,68.0884321 29.1178919,68.4212341 C28.5754187,68.5553891 28.4770575,68.8488808 28.4813737,69.3661643 C28.5173842,73.6806551 28.270869,77.9833206 27.882593,82.2800799 C27.6060824,85.3400103 27.4011156,88.4061534 27.0037423,91.4550553 C26.8732276,92.4564512 26.653195,93.4255584 26.2213737,94.3465813 C25.5753614,95.7244274 23.7318222,96.2892804 22.4418655,95.4948639 C21.9504286,95.1922064 21.8830334,94.7041238 21.8033506,94.1973786 C21.4534324,91.9721307 21.9973349,89.8003094 22.265409,87.626307 C22.8414525,82.954813 23.5662332,78.3011117 24.2420518,73.6418225 C24.3856698,72.6516756 24.5764264,71.6680845 24.7534909,70.682876 C24.8064215,70.3883428 24.9095268,70.0971917 24.6642238,69.7678942 C23.599292,69.7723179 22.585533,70.174979 21.5491953,70.4241976 C20.4123725,70.6975561 19.2712552,70.7581881 18.1209616,70.6843832 C16.5353635,70.5826641 15.7767163,69.9470576 15.5543067,68.4984211 C15.2093467,66.2515572 14.8214971,63.9928441 14.9661692,61.7183235 C15.0496379,60.4060355 14.5106639,59.6317828 13.5307606,58.8683626 C10.4581594,56.474563 7.00623699,54.6757303 3.72265697,52.6138014 C2.60879198,51.9143462 1.46244464,51.260267 0.461093154,50.4011749 C0.209871502,50.1856544 -0.100315489,49.9279378 0.0313266954,49.557976 C0.212442422,49.0489762 0.7305496,49.1030646 1.1544433,49.0511083 C1.52820508,49.0052973 1.96028906,48.9735537 2.01813882,49.4876512 C2.06967528,49.9456384 2.4152307,50.0865515 2.73028684,50.2604947 C3.70499887,50.7986343 4.67653972,51.3451677 5.67412058,51.8395794 C8.89739107,53.4370817 12.4020072,54.5299587 15.2948046,57.2983519 C16.6790201,50.5994298 18.8067333,44.3639601 21.0765328,38.1266462 C18.8555743,39.3526551 16.9247416,40.937401 14.8517405,42.4453153" id="Path" fill="#000000"></path>
                        <path d="M82.1224784,58.3484629 C84.0899065,57.1740918 85.1785361,55.4720765 85.4175573,53.2202256 C85.9809658,47.9122612 85.0077971,42.8255704 83.0626194,37.9054031 C81.0749443,32.877733 77.3402402,29.1193095 73.560453,25.4026591 C72.8415355,24.6957535 72.0624661,24.1905032 70.9623762,24.1066073 C69.9899888,25.6262978 69.0448684,27.2020554 68.3122587,28.8864251 C65.2136603,36.0104575 63.102072,43.4359648 61.5559944,51.0194485 C60.8204887,54.6271069 60.4808584,58.2909433 60.430126,61.978356 C60.4176801,62.8828975 60.7135232,63.2867841 61.6648511,63.1550431 C62.8023034,62.9975262 63.9502236,62.9120495 65.0860324,62.7450665 C69.3344793,62.1204883 73.603043,61.590522 77.8630865,60.2141893 C79.3507482,59.7436052 80.779585,59.1500537 82.1224784,58.3484629 Z" id="Path" fill="#FFFFFF"></path>
                        <path d="M22.9088044,47.8837892 C22.4078083,49.861185 21.8842427,51.8333117 21.4105012,53.817061 C20.4169661,57.9774043 19.939206,62.1693443 20.6920055,66.4306594 C20.9041659,67.6316459 20.9964559,67.7357423 22.2052195,67.4282811 C25.3461909,66.6293676 28.4872493,65.828898 31.6140231,64.9779363 C34.617153,64.1606175 35.7086726,62.7915392 36.0337361,59.7362222 C36.5297681,55.0738819 36.1629175,50.4485237 35.3498125,45.8613853 C34.7537015,42.4983991 33.8767763,39.1934225 32.0568606,36.2259104 C31.4400406,35.2201338 30.9603924,34.0298817 29.4717136,33.9843466 C29.4114933,33.9825024 29.3556851,33.8398065 29.3718082,33.8612813 C29.2067589,33.3875295 29.8705689,33.4201738 29.6829314,32.9955661 C29.4225687,32.6847597 29.161496,32.3296312 28.6806509,32.270678 C27.9421438,33.1304441 27.8490567,33.4156889 28.04852,34.4807925 C28.1024709,34.7688741 28.0123885,34.9894185 27.7723101,35.0419508 C27.0684399,35.1959693 26.9661038,35.7873701 26.759689,36.3029873 C25.2646973,40.0373382 24.0724662,43.8707369 22.9088044,47.8837892" id="Path" fill="#FFFFFF"></path>
                        <path d="M37.8641876,7.80067325 C37.0690878,6.82250146 36.6560937,7.8066806 36.3022318,8.1931452 C34.0258295,10.6793234 32.5215732,13.635528 31.1679887,16.6761618 C30.9436863,17.1800152 31.1157306,17.5407987 31.4263452,17.9531771 C32.3759336,19.2138887 33.6309275,19.6813605 35.1941703,19.6892274 C35.7196055,19.691862 36.0897769,19.6606024 36.4450899,19.2960937 C38.8304513,16.8490022 40.2094951,11.216354 37.8641876,7.80067325" id="Path" fill="#FFFFFF"></path>
                        <path d="M138.31244,21.1872828 C136.096921,21.4364988 134.017759,21.0219987 131.920132,20.7737663 C128.901578,20.4165591 125.870646,20.1652581 122.853764,19.8696064 C122.628723,20.3170434 122.889439,20.6359563 123.015569,20.9642789 C124.419756,24.6191444 125.700642,28.3017871 126.30466,32.2022807 C127.160358,37.7279616 126.781197,43.0888038 124.583097,48.2792829 C123.949968,49.7742946 122.914518,50.8828247 121.638647,51.7889579 C121.062486,52.19815 120.926498,52.6533511 120.994012,53.334377 C121.705879,60.514755 122.687953,67.6697746 122.84988,74.9014694 C122.917812,77.9350828 123.215039,80.9632272 123.390366,83.9948732 C123.440609,84.8638258 123.800789,85.2702774 124.715102,85.2022757 C125.549508,85.1402004 126.392545,85.1856463 127.231463,85.2010135 C127.497096,85.2058761 127.775969,85.2245222 128.023986,85.3098831 C128.656672,85.5276471 129.244942,85.8312918 129.047377,86.6696214 C128.908487,87.2589327 127.970793,87.6561788 127.360739,87.218003 C126.439825,86.556545 125.533306,86.7389347 124.578548,86.9012059 C124.545504,86.9068356 124.511919,86.9103248 124.478444,86.9120076 C121.249885,87.075046 119.742138,87.0026023 119.790033,82.7757166 C119.869989,75.7210292 119.644112,68.65898 119.381048,61.6062971 C119.287791,59.1063108 119.275953,56.5576491 118.529075,54.0481913 C117.656129,54.319722 116.950876,54.9003787 116.168359,55.3245543 C114.987196,55.9648175 113.838672,56.6689253 112.639573,57.2719708 C111.612125,57.7887025 111.045541,58.5091425 111.095869,59.7087437 C111.350807,65.7850149 110.677652,71.7693675 109.294277,77.6806083 C109.087725,78.5631959 108.98681,79.476691 108.415221,80.2387041 C108.203236,80.5213024 108.284335,80.8928251 108.284617,81.2266846 C108.285871,82.7507603 108.127374,84.2609165 107.853689,85.7556931 C107.566628,87.3234702 106.887683,87.8090592 105.335214,87.9794718 C103.67417,88.1617873 101.993249,88.2391183 100.365016,88.6838888 C99.7738447,88.8453682 99.1695686,88.850404 98.5865659,88.60829 C98.304306,88.4910686 98.0004161,88.3678217 97.9520484,88.0221461 C97.8934154,87.6030988 98.2210313,87.4179005 98.5270725,87.2882073 C100.020989,86.6550088 101.562185,86.2212997 103.201605,86.214804 C104.817458,86.208407 104.861406,86.2143957 105.309668,84.6970013 C105.922439,82.6226878 106.30331,80.5446379 106.035365,78.3224677 C105.793458,76.3162302 106.342513,74.3032991 106.604065,72.3004147 C107.175678,67.9229749 107.759522,63.5471125 108.351431,59.1724009 C108.44089,58.5111097 108.255777,58.20869 107.545914,58.1006493 C106.182381,57.893093 105.268805,57.058395 104.710027,55.7852365 C103.59569,53.2462569 103.174289,50.5532833 102.94524,47.8229498 C102.474715,42.2141163 103.997201,36.9199087 105.580895,31.6509665 C106.386597,28.9704402 107.278339,26.3115913 108.485465,23.775711 C108.569588,23.5989695 108.668844,23.4107089 108.525258,23.1328617 C107.75061,23.2407726 107.016234,23.5292913 106.308854,23.8945286 C103.412889,25.3898062 100.521251,26.8935904 97.624623,28.3875999 C96.7871248,28.8195644 95.9412796,29.1729978 94.9600792,29.2153442 C93.8596155,29.2628379 92.9329295,28.9229652 92.2836724,28.0938659 C91.6602862,27.2978086 90.8964065,27.144681 89.9862612,27.1231766 C86.7353771,27.046384 83.4792438,27.00173 80.2758918,26.3359599 C79.7528681,26.2272635 79.2358311,26.0683946 78.7343207,25.8826643 C78.3502233,25.7404186 77.9887086,25.4998574 78,25.0197929 C78.0110578,24.5944541 78.3432162,24.3774263 78.6838506,24.2170358 C79.8137013,23.6850419 81.0190083,23.6326487 82.2278125,23.7479337 C83.0880164,23.8299787 83.9806684,23.8534503 84.7527047,24.408662 C83.2441718,25.0932328 81.6017159,23.904297 79.9760894,24.8970965 C81.1731783,25.4178558 82.352571,25.5067987 83.5000133,25.5797559 C86.1106819,25.7457637 88.725862,25.8655214 91.3451297,25.8106166 C92.2926709,25.7907518 93.2268251,25.9115181 94.0619198,26.4107667 C94.4314373,26.6316795 94.7429307,26.5643523 95.0978006,26.3821171 C100.064433,23.8316244 105.302772,21.8988452 110.375876,19.5895818 C111.1498,19.2372991 111.832163,18.8016287 112.450183,18.2000433 C114.584788,16.1222223 117.145134,15.123001 120.131651,15.3113173 C121.755569,15.4137159 122.534053,16.1007552 122.77982,17.7073152 C124.368997,17.69407 126.05802,17.5931561 127.497907,18.3119443 C130.180129,19.6508959 133.120312,19.0685566 135.879023,19.7228261 C136.199963,19.7989446 136.535226,19.7851302 136.856449,19.6099972 C140.648643,17.5425259 144.693784,16.123113 148.822482,14.9285972 C149.356981,14.7739599 149.811845,14.5281897 150.237832,14.1951283 C150.422661,14.050606 150.657942,13.9029534 150.573844,13.6295885 C150.48875,13.3529725 150.24908,13.1901352 149.961147,13.1760641 C149.249808,13.1413145 148.480188,13.4102005 147.975979,12.580198 C147.398612,11.6297851 147.473073,10.6531383 147.715681,9.64519403 C148.503705,6.37102883 150.384847,3.833871 153.074653,1.93005091 C155.258997,0.383991439 159.940868,0.681180383 161.310647,3.45903236 C161.849449,4.55169106 162.057021,5.70195526 161.932674,6.88984239 C161.616024,9.91526472 160.454125,12.4782728 157.802108,14.1183789 C157.784946,14.4581032 158.013638,14.5789684 158.185437,14.7225008 C159.353852,15.698597 160.43421,16.7800117 161.292735,18.0263951 C162.444579,19.6986184 164.043688,20.506962 165.930633,20.9749381 C169.237255,21.7950113 172.62918,21.9482195 175.987839,22.3595584 C178.061457,22.6135195 180.095663,23.0060453 182.024012,23.8449006 C182.549918,24.0736766 183.04187,24.350144 183.457457,24.7646504 C184.110636,25.4161607 184.171684,26.1066334 183.653314,26.8546589 C183.461711,27.1311696 183.268202,27.4130255 183.035306,27.6528567 C179.58784,31.2031893 176.259717,34.8727476 172.629487,38.240443 C172.1872,38.6507489 171.69966,39.0189617 171.20032,39.3577393 C170.635234,39.7411155 170.656612,40.2565665 170.533864,40.8789076 C169.775762,44.7226276 169.841236,48.8631316 166.982176,52.0230791 C165.170773,54.0251282 162.779521,54.7055046 160.201018,54.9005581 C157.655805,55.0930812 155.104962,55.1089371 152.554291,55.1294082 C152.228765,55.1320188 151.880189,55.0452164 151.57684,55.2827586 C151.426137,55.6314346 151.559125,55.9567877 151.735005,56.2346656 C152.007572,56.6653372 152.198364,57.0288112 151.699675,57.4535006 C151.574664,57.5599697 151.593006,57.9062145 151.631066,58.1273378 C152.68921,64.2752609 153.188673,70.5024017 154.226263,76.652428 C154.461815,78.0485674 154.807981,79.4254423 155.076884,80.8163356 C155.410942,82.544268 154.976202,83.2923616 153.261892,83.6804765 C150.747597,84.2497189 148.66546,85.6917125 146.479284,86.9308886 C146.370747,86.9924193 146.298745,87.1192173 146.177792,87.2501852 C146.499334,87.897006 147.11556,88.2066639 147.617396,88.6314769 C147.848473,88.8271057 148.129177,89.0142962 148.030167,89.373384 C147.938595,89.7055607 147.624477,89.8150737 147.336077,89.8956959 C146.77538,90.052486 146.198911,90.0129916 145.638338,89.9053716 C144.176986,89.624852 142.805843,89.0540505 141.489811,88.3899693 C140.203294,87.7407728 140.143143,86.7024715 141.351352,85.8914121 C143.795059,84.250944 146.52488,83.1811288 149.256889,82.1514886 C150.087362,81.8385148 150.35506,81.4949921 150.312181,80.5720314 C150.175246,77.6247567 149.475119,74.7636719 149.138493,71.849074 C148.724307,68.2630331 148.420749,64.6680588 148.260236,61.0641389 C148.185468,59.385296 147.900682,57.7003225 148.226233,56.0125958 C148.354452,55.3479146 148.014764,55.1054789 147.370092,55.1280719 C146.463475,55.1598332 145.562599,55.0888868 144.668361,54.8984423 C143.085946,54.56144 142.152111,53.6264221 141.795827,52.0259372 C141.115702,48.9707702 140.887698,45.8783482 141.063799,42.7659191 C141.313316,38.3559261 141.757177,33.9666391 142.54648,29.6123676 C143.257547,25.6897019 144.411063,21.9458686 146.47283,18.5168281 C146.574901,18.3470588 146.709587,18.1823067 146.623128,17.8175953 C144.768834,18.4893848 142.872252,19.0019036 141.171046,20.0186635 C140.297916,20.5405053 139.412947,21.0020658 138.31244,21.1872828" id="Path" fill="#000000"></path>
                        <path d="M152.176478,15.3769635 C150.075262,17.5776139 149.027945,20.3629334 148.221083,23.2296747 C146.314295,30.0044076 145.914972,36.9568293 146.176578,43.9627085 C146.245791,45.8158294 146.55131,47.6513523 146.88814,49.4778062 C147.064525,50.4342417 147.451324,50.8854401 148.500607,50.8629583 C151.585847,50.7968451 154.673533,50.8352228 157.76011,50.8559848 C160.066655,50.8715048 161.664164,49.7534817 162.698615,47.6916201 C163.402144,46.2893219 163.887522,44.8055667 164.259524,43.2791545 C165.110825,39.7861674 165.549902,36.274467 164.33998,32.7820315 C162.443053,27.3065678 160.236093,21.9785801 156.769253,17.3146115 C156.140684,16.4689885 155.534649,15.5619721 154.608719,14.9909506 C153.819112,16.0581577 153.677625,16.0764718 152.619978,15.3558904 C152.534059,15.2973553 152.39368,15.3232124 152.176478,15.3769635 L170,47.6916201" id="Path" fill="#FFFFFF"></path>
                        <path d="M113.120068,23.5999533 C110.688937,29.3099973 109.21769,35.2875633 108.297562,41.4081608 C107.65026,45.7140477 108.035814,49.9548284 109.379273,54.0973181 C109.796089,55.3825277 109.936969,55.439134 111.174362,54.8365341 C113.378461,53.7631555 115.545348,52.6188119 117.645839,51.347361 C119.467703,50.2445781 120.67435,48.658353 121.579861,46.7421783 C123.599659,42.468164 123.604158,37.9816999 122.996526,33.4582962 C122.257823,27.9592606 120.392871,22.7334258 118.927696,17.3436431 C117.983204,17.4085083 117.302267,17.9570942 116.659156,18.5351958 C115.131015,19.9088349 114.131387,21.6691104 113.120068,23.5999533" id="Path" fill="#FFFFFF"></path>
                        <path d="M173.583409,24.0818303 C170.715079,23.69825 167.83635,23.3902811 164.751781,22.6932507 C167.056968,26.9743178 169.298598,30.9935295 170.213243,35.7314493 C171.053304,34.9221406 171.734905,34.2777818 172.403033,33.6195778 C174.630895,31.4248074 176.986398,29.3542554 178.90351,26.8564714 C179.737855,25.7694207 179.630953,25.3766352 178.301127,24.9467989 C176.826978,24.470304 175.295568,24.2726399 173.583409,24.0818303" id="Path" fill="#FFFFFF"></path>
                        <path d="M152.929494,5.89398663 C152.45415,6.58488609 151.937181,7.25086962 151.511403,7.97144888 C150.319533,9.98855901 150.532575,10.8427816 152.509052,12.1608507 C152.813421,12.3638321 153.158555,12.5041198 153.48043,12.6814738 C154.534714,13.2624025 155.413216,12.9285152 156.194749,12.1446947 C157.373748,10.9622702 158.082407,9.51716495 158.285516,7.87373047 C158.48007,6.29960908 158.306587,4.77361854 157.097482,3.55964925 C156.62928,3.08956677 156.18773,3.00245499 155.598562,3.40727022 C154.621492,4.07862052 153.750267,4.84869776 152.929494,5.89398663 Z" id="Path" fill="#FFFFFF"></path>
                        <path d="M85.7426133,7.92935108 C84.9725684,11.4431067 83.4670589,14.471339 80.6217574,16.6445905 C77.3140544,19.1710215 73.5863013,19.6364139 69.7126199,18.1784961 C66.9402476,17.1350747 65.6935333,14.8084753 66.0636951,11.9007517 C66.1605352,11.1400486 66.3728197,10.4195046 67.1562315,10.0497475 C67.4942331,9.89021833 67.6278153,9.57285757 67.8198885,9.29322844 C69.766214,6.45968271 72.010629,3.89588172 74.8093571,1.85055265 C76.7720308,0.416213458 78.9941863,-0.190642222 81.4161226,0.0520695415 C84.292324,0.340307116 85.839384,2.02585712 85.9894214,4.89932486 C86.041314,5.8932856 85.8932367,6.86601735 85.7426133,7.92935108" id="Path" fill="#000000"></path>
                        <path d="M70.8192167,15.9244146 C72.6345692,17.4497273 74.4947117,17.3296335 76.4036398,16.0967205 C79.0217523,14.4057665 80.449385,11.8971729 81.3500562,9.03760248 C81.9123605,7.25231104 82.0838569,5.41519128 81.5130699,3.61352563 C81.0208401,2.05983855 80.3860853,1.87775085 78.9940791,2.74222638 C75.6465083,4.82116248 73.0400928,7.64577505 70.785922,10.8173304 C70.6937456,10.947025 70.571646,11.0906102 70.6971361,11.2715152 C71.1114577,11.4540397 71.7137875,11.0206287 72.0475853,11.6362928 C71.7621635,11.9351325 71.447392,11.9012635 71.1463784,11.8718032 C70.6147784,11.8197812 70.1312459,11.7815003 69.8670183,12.4152205 C69.6034085,13.0474774 69.5313046,13.5840179 70.1787268,14.0320936 C70.4554832,14.2236258 70.608703,14.5213049 70.3801715,14.8269964 C69.9932017,15.3446383 70.464111,15.5432221 70.8192167,15.9244146 Z" id="Path" fill="#FFFFFF"></path>
                        <path d="M160.59121,57.129057 C162.100591,56.8139303 162.515681,57.0276487 162.809652,58.3110765 C163.252875,60.2462221 163.420152,62.2201595 163.577598,64.1880458 C164.02218,69.7447172 164.380952,75.3076479 164.848091,80.8625299 C165.06451,83.4360903 166.489064,85.4143374 168.651554,86.9461383 C168.95226,87.1591552 169.228621,87.4083485 169.488027,87.6661374 C169.714529,87.891221 170.110787,88.0844438 169.970762,88.458347 C169.813719,88.8777114 169.362705,88.9414095 168.946998,88.9868352 C168.384319,89.0483222 167.856407,88.8831206 167.334058,88.7256226 C166.614386,88.5086349 165.913218,88.2330135 165.187001,88.0400406 C162.719487,87.3843935 161.493302,85.7194184 160.964899,83.4752628 C160.40373,81.0919529 160.190886,78.6782087 160.173892,76.2372639 C160.14158,71.5985519 160.033843,66.9603155 160.000599,62.3215916 C159.990151,60.8647117 160.119111,59.4069938 160.181244,57.9495432 C160.193995,57.6503351 160.23094,57.3648759 160.59121,57.129057 Z" id="Path" fill="#000000"></path>
                        <path d="M111.623689,2.17166206 C114.293226,0.4545881 120.09973,0.516829592 122.697338,3.08031241 C124.867666,5.22212098 125.67726,9.28073748 124.370637,11.9785807 C123.447006,13.885651 121.466605,14.4585315 119.637484,13.6324997 C116.42297,12.1808351 114.619052,9.50317466 113.627029,6.33304856 C113.494824,5.91058069 113.542457,5.44669078 114.002087,5.15943984 C114.578129,4.79944769 115.180525,4.63383639 115.918408,5.03764305 C115.498175,5.5160921 115.600672,5.96084393 115.847982,6.4665383 C116.912066,8.64240087 118.212039,10.6357724 120.270388,12.1240918 C120.956556,12.6202372 121.361335,12.5035902 121.732832,11.8068118 C123.165894,9.11895154 121.978736,3.60040895 117.389838,2.43714296 C114.961906,1.82167571 112.798433,2.84208282 111.925293,5.06238197 C111.697398,5.64188263 111.286249,5.82561839 110.698072,5.74289702 C110.122187,5.66190284 109.995529,5.28197599 109.999887,4.78575927 C110.01068,3.64295876 110.673849,2.86979081 111.623689,2.17166206 Z" id="Path" fill="#000000"></path>
                    </g>
                </g>
                <g id="Group-16" transform="translate(255.000000, 366.000000)" fill="#1B681B">
                    <g id="Group-6">
                        <path d="M8.072,28.044 C8.936,28.044 10.16,27.828 11.708,27.396 C13.328,26.928 14.624,26.388 15.632,25.74 C16.604,25.128 17.108,24.48 17.108,23.796 C17.108,23.4 16.928,23.004 16.568,22.644 C16.208,22.284 15.848,22.104 15.488,22.104 C15.308,22.104 14.84,22.356 14.12,22.788 C11.852,24.12 9.836,24.768 8.108,24.768 C5.372,24.768 4.004,22.86 4.004,18.972 C4.004,15.84 4.76,12.672 6.308,9.504 C7.856,6.372 9.44,4.788 11.024,4.788 C11.816,4.788 12.608,5.256 13.4,6.12 C14.192,7.02 14.768,7.452 15.2,7.452 C15.632,7.452 16.028,7.308 16.388,6.984 C16.676,6.696 16.856,6.3 16.856,5.832 C16.856,5.328 16.568,4.752 16.064,4.104 C15.56,3.456 14.876,2.844 14.048,2.304 C13.112,1.728 12.248,1.44 11.492,1.44 C8.468,1.44 5.84,3.456 3.68,7.488 C1.772,11.088 0.836,14.796 0.836,18.648 C0.836,21.348 1.376,23.544 2.456,25.2 C3.752,27.072 5.624,28.044 8.072,28.044 Z M41.408,29.268 C42.452,29.268 42.992,28.836 42.992,27.972 C42.992,27.54 42.884,27 42.74,26.244 C40.652,17.352 37.88,9.468 34.46,2.628 C33.668,1.116 32.984,0.36 32.372,0.36 C31.904,0.36 31.508,0.648 31.184,1.152 C31.076,1.332 30.86,1.8 30.572,2.556 C28.052,8.604 26.144,14.076 24.884,18.972 C22.616,19.332 21.464,19.476 21.392,19.476 C20.492,19.62 20.06,20.088 20.06,20.916 C20.06,21.996 20.456,22.536 21.32,22.536 C21.716,22.536 22.652,22.428 24.128,22.176 C23.768,23.904 23.624,25.092 23.624,25.74 C23.624,26.568 23.696,27.108 23.84,27.468 C24.092,28.008 24.596,28.296 25.316,28.296 C25.568,28.296 25.856,28.152 26.144,27.9 C26.432,27.612 26.648,27.36 26.72,27.072 C26.648,26.64 26.612,26.208 26.612,25.812 C26.612,24.768 26.756,23.4 27.116,21.744 C29.348,21.528 31.04,21.42 32.156,21.42 C34.1,21.42 36.296,21.78 38.708,22.464 C39.068,23.688 39.32,24.66 39.5,25.38 C39.428,25.56 39.392,25.74 39.392,25.92 C39.392,26.424 39.608,27.072 40.04,27.9 C40.508,28.8 40.976,29.268 41.408,29.268 Z M37.7,18.9 C35.468,18.468 33.668,18.252 32.372,18.252 C31.184,18.252 29.708,18.36 27.944,18.576 C29.24,13.68 30.716,9.36 32.372,5.58 C34.244,9.036 36.008,13.5 37.7,18.9 Z M48.752,28.8 C49.472,28.8 49.94,28.296 50.12,27.324 C49.832,25.74 49.724,24.66 49.724,24.156 L49.724,23.04 C49.652,22.608 49.544,22.248 49.4,21.924 L49.4,20.268 L49.4,20.268 C49.364,19.296 49.364,18.648 49.364,18.288 C51.452,18.072 53.972,16.524 56.924,13.644 C59.948,10.692 61.496,8.064 61.496,5.688 C61.496,4.392 61.1,3.24 60.344,2.268 C59.552,1.332 58.544,0.828 57.356,0.828 C54.584,0.828 51.308,2.7 47.564,6.444 C46.484,7.524 45.944,8.352 45.944,8.928 C45.944,9.756 46.376,10.332 47.24,10.62 C46.808,15.048 46.592,18.504 46.592,20.952 C46.592,22.68 46.772,24.552 47.168,26.496 C47.456,28.008 47.96,28.8 48.752,28.8 Z M49.616,15.192 C49.94,11.232 50.156,8.748 50.3,7.776 C53.252,5.22 55.556,3.924 57.176,3.924 C57.536,3.924 57.896,4.068 58.184,4.356 C58.472,4.608 58.616,4.896 58.616,5.22 C58.616,7.02 57.5,9 55.34,11.124 C53.576,12.78 51.668,14.148 49.616,15.192 Z M85.004,29.268 C86.048,29.268 86.588,28.836 86.588,27.972 C86.588,27.54 86.48,27 86.336,26.244 C84.248,17.352 81.476,9.468 78.056,2.628 C77.264,1.116 76.58,0.36 75.968,0.36 C75.5,0.36 75.104,0.648 74.78,1.152 C74.672,1.332 74.456,1.8 74.168,2.556 C71.648,8.604 69.74,14.076 68.48,18.972 C66.212,19.332 65.06,19.476 64.988,19.476 C64.088,19.62 63.656,20.088 63.656,20.916 C63.656,21.996 64.052,22.536 64.916,22.536 C65.312,22.536 66.248,22.428 67.724,22.176 C67.364,23.904 67.22,25.092 67.22,25.74 C67.22,26.568 67.292,27.108 67.436,27.468 C67.688,28.008 68.192,28.296 68.912,28.296 C69.164,28.296 69.452,28.152 69.74,27.9 C70.028,27.612 70.244,27.36 70.316,27.072 C70.244,26.64 70.208,26.208 70.208,25.812 C70.208,24.768 70.352,23.4 70.712,21.744 C72.944,21.528 74.636,21.42 75.752,21.42 C77.696,21.42 79.892,21.78 82.304,22.464 C82.664,23.688 82.916,24.66 83.096,25.38 C83.024,25.56 82.988,25.74 82.988,25.92 C82.988,26.424 83.204,27.072 83.636,27.9 C84.104,28.8 84.572,29.268 85.004,29.268 Z M81.296,18.9 C79.064,18.468 77.264,18.252 75.968,18.252 C74.78,18.252 73.304,18.36 71.54,18.576 C72.836,13.68 74.312,9.36 75.968,5.58 C77.84,9.036 79.604,13.5 81.296,18.9 Z M96.776,28.044 C97.64,28.044 98.864,27.828 100.412,27.396 C102.032,26.928 103.328,26.388 104.336,25.74 C105.308,25.128 105.812,24.48 105.812,23.796 C105.812,23.4 105.632,23.004 105.272,22.644 C104.912,22.284 104.552,22.104 104.192,22.104 C104.012,22.104 103.544,22.356 102.824,22.788 C100.556,24.12 98.54,24.768 96.812,24.768 C94.076,24.768 92.708,22.86 92.708,18.972 C92.708,15.84 93.464,12.672 95.012,9.504 C96.56,6.372 98.144,4.788 99.728,4.788 C100.52,4.788 101.312,5.256 102.104,6.12 C102.896,7.02 103.472,7.452 103.904,7.452 C104.336,7.452 104.732,7.308 105.092,6.984 C105.38,6.696 105.56,6.3 105.56,5.832 C105.56,5.328 105.272,4.752 104.768,4.104 C104.264,3.456 103.58,2.844 102.752,2.304 C101.816,1.728 100.952,1.44 100.196,1.44 C97.172,1.44 94.544,3.456 92.384,7.488 C90.476,11.088 89.54,14.796 89.54,18.648 C89.54,21.348 90.08,23.544 91.16,25.2 C92.456,27.072 94.328,28.044 96.776,28.044 Z M112.544,28.476 C112.904,28.476 113.228,28.296 113.516,27.972 C113.804,27.648 113.984,27.324 113.984,26.964 C113.984,26.82 113.84,26.496 113.624,25.992 C113.48,25.704 113.408,25.344 113.408,24.948 C113.408,24.012 113.588,21.996 114.02,18.972 L115.496,7.596 C115.784,5.148 115.964,3.492 115.964,2.628 C115.964,1.548 115.46,0.972 114.524,0.972 C113.804,0.972 113.084,1.908 112.4,3.708 C111.824,5.328 111.536,6.696 111.536,7.812 C111.536,8.46 111.824,8.928 112.4,9.252 L111.212,17.928 C110.816,20.844 110.636,23.184 110.636,24.912 C110.636,27.288 111.248,28.476 112.544,28.476 Z M123.74,27.18 C124.1,27.18 125.072,26.82 126.584,26.1 C129.536,24.732 132.128,22.572 134.288,19.584 C136.592,16.416 137.78,13.212 137.78,10.008 C137.78,7.308 136.844,5.04 135.008,3.24 C133.136,1.512 130.904,0.612 128.276,0.612 C126.332,0.612 124.532,1.116 122.876,2.052 C121.364,2.916 120.608,3.78 120.608,4.608 C120.608,5.328 120.968,5.832 121.76,6.12 C121.76,6.696 121.796,9.756 121.94,15.3 C122.012,20.844 122.084,23.796 122.084,24.084 C121.724,24.048 121.4,24.012 121.04,24.012 C120.644,24.012 120.32,24.192 120.068,24.48 C119.78,24.84 119.636,25.2 119.636,25.56 C119.636,26.568 120.284,27.072 121.616,27.072 C121.688,27.072 121.868,27.036 122.156,27.036 L122.732,27.036 L122.732,27.036 C122.768,27.036 122.912,27.072 123.164,27.144 C123.416,27.144 123.596,27.18 123.74,27.18 Z M125,23.58 L124.784,15.516 C124.568,8.748 124.46,5.112 124.46,4.608 C125.684,4.032 126.944,3.708 128.24,3.708 C130.148,3.708 131.696,4.284 132.92,5.364 C134.252,6.516 134.936,8.1 134.936,10.08 C134.936,12.672 133.892,15.336 131.804,18.072 C129.824,20.664 127.556,22.5 125,23.58 Z M162.08,29.268 C163.124,29.268 163.664,28.836 163.664,27.972 C163.664,27.54 163.556,27 163.412,26.244 C161.324,17.352 158.552,9.468 155.132,2.628 C154.34,1.116 153.656,0.36 153.044,0.36 C152.576,0.36 152.18,0.648 151.856,1.152 C151.748,1.332 151.532,1.8 151.244,2.556 C148.724,8.604 146.816,14.076 145.556,18.972 C143.288,19.332 142.136,19.476 142.064,19.476 C141.164,19.62 140.732,20.088 140.732,20.916 C140.732,21.996 141.128,22.536 141.992,22.536 C142.388,22.536 143.324,22.428 144.8,22.176 C144.44,23.904 144.296,25.092 144.296,25.74 C144.296,26.568 144.368,27.108 144.512,27.468 C144.764,28.008 145.268,28.296 145.988,28.296 C146.24,28.296 146.528,28.152 146.816,27.9 C147.104,27.612 147.32,27.36 147.392,27.072 C147.32,26.64 147.284,26.208 147.284,25.812 C147.284,24.768 147.428,23.4 147.788,21.744 C150.02,21.528 151.712,21.42 152.828,21.42 C154.772,21.42 156.968,21.78 159.38,22.464 C159.74,23.688 159.992,24.66 160.172,25.38 C160.1,25.56 160.064,25.74 160.064,25.92 C160.064,26.424 160.28,27.072 160.712,27.9 C161.18,28.8 161.648,29.268 162.08,29.268 Z M158.372,18.9 C156.14,18.468 154.34,18.252 153.044,18.252 C151.856,18.252 150.38,18.36 148.616,18.576 C149.912,13.68 151.388,9.36 153.044,5.58 C154.916,9.036 156.68,13.5 158.372,18.9 Z M169.964,27.18 C170.324,27.18 171.296,26.82 172.808,26.1 C175.76,24.732 178.352,22.572 180.512,19.584 C182.816,16.416 184.004,13.212 184.004,10.008 C184.004,7.308 183.068,5.04 181.232,3.24 C179.36,1.512 177.128,0.612 174.5,0.612 C172.556,0.612 170.756,1.116 169.1,2.052 C167.588,2.916 166.832,3.78 166.832,4.608 C166.832,5.328 167.192,5.832 167.984,6.12 C167.984,6.696 168.02,9.756 168.164,15.3 C168.236,20.844 168.308,23.796 168.308,24.084 C167.948,24.048 167.624,24.012 167.264,24.012 C166.868,24.012 166.544,24.192 166.292,24.48 C166.004,24.84 165.86,25.2 165.86,25.56 C165.86,26.568 166.508,27.072 167.84,27.072 C167.912,27.072 168.092,27.036 168.38,27.036 L168.956,27.036 L168.956,27.036 C168.992,27.036 169.136,27.072 169.388,27.144 C169.64,27.144 169.82,27.18 169.964,27.18 Z M171.224,23.58 L171.008,15.516 C170.792,8.748 170.684,5.112 170.684,4.608 C171.908,4.032 173.168,3.708 174.464,3.708 C176.372,3.708 177.92,4.284 179.144,5.364 C180.476,6.516 181.16,8.1 181.16,10.08 C181.16,12.672 180.116,15.336 178.028,18.072 C176.048,20.664 173.78,22.5 171.224,23.58 Z M195.92,27.396 C199.088,27.396 201.5,26.172 203.12,23.652 C203.696,22.824 203.984,22.14 203.984,21.636 C203.984,21.348 203.84,21.024 203.552,20.7 C203.228,20.412 202.904,20.232 202.616,20.232 C202.004,20.232 201.464,20.592 201.032,21.312 C200.24,22.428 199.556,23.184 198.908,23.616 C198.116,24.156 197.144,24.408 195.956,24.408 C194.3,24.408 193.004,23.904 191.996,22.86 C191.024,21.852 190.556,20.484 190.556,18.756 C190.556,18.396 190.556,18.036 190.628,17.676 C192.644,17.1 195.56,16.38 199.34,15.552 C199.772,16.056 200.312,16.308 200.924,16.308 C201.212,16.308 201.824,16.02 202.688,15.372 C203.552,14.796 203.984,14.148 203.984,13.428 C203.984,12.42 203.48,11.916 202.544,11.916 C202.004,11.916 200.888,12.096 199.196,12.42 C197.036,12.852 194.516,13.464 191.636,14.256 C192.428,12.384 193.472,10.296 194.732,8.028 C194.984,7.56 195.128,7.164 195.128,6.876 C195.128,6.624 194.984,6.192 194.732,5.544 C197.144,4.752 199.196,4.356 200.888,4.356 C201.068,4.356 201.356,4.428 201.716,4.5 C202.076,4.644 202.328,4.68 202.508,4.68 C203.48,4.68 203.984,4.248 203.984,3.384 C203.984,2.736 203.732,2.268 203.264,1.98 C202.544,1.548 201.716,1.332 200.78,1.332 C197.828,1.332 194.516,2.232 190.844,4.032 C189.296,4.788 188.54,5.508 188.54,6.192 C188.54,7.2 189.008,7.704 190.016,7.704 C190.16,7.704 190.88,7.416 192.14,6.768 C191.06,8.388 190.052,10.332 189.188,12.6 C188.18,15.084 187.712,17.028 187.712,18.396 C187.712,21.06 188.432,23.22 189.944,24.876 C191.384,26.568 193.4,27.396 195.92,27.396 Z" id="CAPACIDADE"></path>
                    </g>
                </g>
            </g>
            <g id="Group-2" transform="translate(16.000000, 243.000000)">
                <circle id="Oval" fill="#FFDDDD" cx="47.5" cy="48.5" r="47.5"></circle>
                <text id="?" font-family="HanziPenSC-W5, HanziPen SC" font-size="70" font-weight="bold" fill="#1B681B">
                    <tspan x="28.485" y="74">?</tspan>
                </text>
            </g>
        </g>
    </g>
</svg>