<?xml version="1.0" encoding="UTF-8"?>
<svg width="198px" height="200px" viewBox="0 0 198 200" version="1.1" xmlns="http://www.w3.org/2000/svg" xmlns:xlink="http://www.w3.org/1999/xlink">
    <!-- Generator: Sketch 63.1 (92452) - https://sketch.com -->
    <title>Artboard</title>
    <desc>Created with Sketch.</desc>
    <defs>
        <path d="M68.4985916,30.7928438 C68.5110671,33.467654 68.5230378,36.1424624 68.5363611,38.8172691 C68.5399779,39.5459275 68.6255851,40.2031965 69.5776536,39.9262098 C72.3213161,39.1279141 75.1221397,39.2388259 77.9110433,39.4155617 C83.3725139,39.7616159 88.830209,39.4366335 94.2893478,39.4455585 C97.9241669,39.4515052 101.563381,39.6057253 105.186423,39.9891003 C105.621859,40.0351776 105.909577,39.9457361 106.183066,39.5161573 C109.521883,34.2720224 112.116034,28.6115734 114.575625,22.872685 C114.855145,22.2204724 114.873893,21.6565761 114.542904,21.007517 C113.552306,19.065098 112.681877,17.0510793 111.635457,15.1442299 C109.583911,11.4056981 108.248713,7.28845558 106.044169,3.62515491 C104.89679,1.71852408 103.50981,0.445204455 101.336083,0.245853741 C97.5230475,-0.103838965 93.6999279,-0.00150248682 89.8859751,0.0779185063 C85.5930267,0.167332208 81.2938229,0.372666815 77.0183614,0.776567055 C74.5385627,1.01081442 71.9623714,0.46029655 69.563967,1.79485419 C68.7638016,2.24009455 68.383614,2.61219037 68.4096349,3.52762576 C68.4816373,6.06159076 68.7419365,8.61573223 68.5403348,11.1271113 C68.0204163,17.6047115 68.1699934,24.0677188 68.4985916,30.7928438 L89.7706099,22.426849" id="path-1"></path>
        <filter x="-15.0%" y="-12.5%" width="130.1%" height="135.0%" filterUnits="objectBoundingBox" id="filter-2">
            <feOffset dx="0" dy="2" in="SourceAlpha" result="shadowOffsetOuter1"></feOffset>
            <feGaussianBlur stdDeviation="2" in="shadowOffsetOuter1" result="shadowBlurOuter1"></feGaussianBlur>
            <feColorMatrix values="0 0 0 0 0   0 0 0 0 0   0 0 0 0 0  0 0 0 0.5 0" type="matrix" in="shadowBlurOuter1"></feColorMatrix>
        </filter>
    </defs>
    <g id="Artboard" stroke="none" stroke-width="1" fill="none" fill-rule="evenodd">
        <rect fill="#FFFFFF" x="0" y="0" width="198" height="200"></rect>
        <rect id="Rectangle" fill="#D8D8D8" x="0" y="155.705882" width="198" height="35.2941176"></rect>
        <g id="Group-2" transform="translate(11.000000, 151.000000)" fill-rule="nonzero">
            <g id="Group">
                <path d="M131.430479,38.8172691 C131.434096,39.5459275 131.519703,40.2031965 132.471771,39.9262098 C135.215434,39.1279141 138.016257,39.2388259 140.805161,39.4155617 C146.266632,39.7616159 151.724327,39.4366335 157.183465,39.4455585 C160.818285,39.4515052 164.457498,39.6057253 168.08054,39.9891003 C168.515977,40.0351776 168.803694,39.9457361 169.077184,39.5161573 C172.416,34.2720224 175.010152,28.6115734 177.469742,22.872685 C177.749262,22.2204724 177.768011,21.6565761 177.437022,21.007517 C176.446424,19.065098 175.575995,17.0510793 174.529574,15.1442299 C172.478029,11.4056981 171.142831,7.28845558 168.938287,3.62515491 C167.790907,1.71852408 166.403927,0.445204455 164.230201,0.245853741 C160.417165,-0.103838965 156.594046,-0.00150248682 152.780093,0.0779185063 C148.487144,0.167332208 144.187941,0.372666815 139.912479,0.776567055 C137.43268,1.01081442 134.856489,0.46029655 132.458085,1.79485419 C131.657919,2.24009455 131.277732,2.61219037 131.303753,3.52762576 C131.375755,6.06159076 131.636054,8.61573223 131.434452,11.1271113 C130.914534,17.6047115 131.064111,24.0677188 131.392709,30.7928438 C131.405185,33.467654 131.417155,36.1424624 131.430479,38.8172691 Z" id="Shape" fill="#B17FB1"></path>
                <path d="M0.983419882,38.8172691 C0.987036687,39.5459275 1.07264394,40.2031965 2.0247124,39.9262098 C4.76837494,39.1279141 7.56919851,39.2388259 10.3581021,39.4155617 C15.8195728,39.7616159 21.2772678,39.4366335 26.7364067,39.4455585 C30.3712257,39.4515052 34.0104393,39.6057253 37.6334814,39.9891003 C38.0689183,40.0351776 38.3566356,39.9457361 38.6301251,39.5161573 C41.9689413,34.2720224 44.5630929,28.6115734 47.0226835,22.872685 C47.3022036,22.2204724 47.3209519,21.6565761 46.989963,21.007517 C45.9993653,19.065098 45.1289359,17.0510793 44.0825155,15.1442299 C42.0309702,11.4056981 40.6957719,7.28845558 38.4912279,3.62515491 C37.3438484,1.71852408 35.9568684,0.445204455 33.7831419,0.245853741 C29.9701063,-0.103838965 26.1469867,-0.00150248682 22.3330339,0.0779185063 C18.0400855,0.167332208 13.7408817,0.372666815 9.46542018,0.776567055 C6.98562151,1.01081442 4.40943018,0.46029655 2.01102581,1.79485419 C1.21086039,2.24009455 0.83067285,2.61219037 0.85669371,3.52762576 C0.928696139,6.06159076 1.18899529,8.61573223 0.987393673,11.1271113 C0.467475117,17.6047115 0.617052246,24.0677188 0.945650392,30.7928438 C0.958125965,33.467654 0.970096637,36.1424624 0.983419882,38.8172691 Z" id="Shape" fill="#B1B180"></path>
                <g id="Shape">
                    <use fill="black" fill-opacity="1" filter="url(#filter-2)" xlink:href="#path-1"></use>
                    <use fill="#7FB1B1" xlink:href="#path-1"></use>
                </g>
            </g>
        </g>
        <path d="M144.965021,192.375055 C144.132743,191.069969 144.095472,189.669994 144.088537,188.312072 C144.066126,183.919922 143.749037,179.551877 143.32051,175.183571 C143.021926,172.140037 143.23333,169.079092 143.287728,166.025813 C143.343893,162.874901 143.140964,159.738737 142.839059,156.602979 C142.699814,155.156699 142.814768,153.747304 144.544239,153.146793 C145.049819,152.97123 145.565526,152.559829 145.206905,151.92646 C144.151621,150.062621 144.833878,148.267716 145.453132,146.537698 C146.962319,142.321518 149.115553,138.431759 152.510455,135.470436 C153.645546,134.480321 154.786941,133.436208 156.020312,132.544139 C157.816983,131.24464 160.112476,131.357248 161.773937,132.72961 C163.035471,133.771636 163.60326,135.255152 162.774385,136.6338 C161.84078,138.18663 161.777923,139.771661 161.826666,141.488384 C163.197127,142.04621 163.005736,143.393965 163.023755,144.503169 C163.047754,145.981545 163.282282,147.407246 163.550757,148.842856 C163.701831,149.650586 163.907888,150.256831 164.983362,150.117407 C165.906256,149.997798 165.838521,150.626197 165.447053,151.325445 C166.601185,151.325445 167.670664,151.474907 168.683605,151.298402 C172.219389,150.682298 175.734577,151.188604 179.233463,151.489428 C180.786289,151.622939 181.659483,153.172326 182.483885,154.405459 C185.586799,159.046782 187.761731,164.21663 190.654991,168.980696 C191.093063,169.702049 191.469476,170.46971 192.212484,170.929741 C192.853873,171.326833 192.826763,171.837297 192.54137,172.415848 C190.367183,176.823509 188.730126,181.476055 186.39631,185.815514 C185.513474,187.45706 184.150386,188.904624 184.171808,190.98801 C184.178744,191.662212 183.46928,191.583973 182.906676,191.523015 C179.220872,191.123649 175.52058,191.135441 171.819868,191.17236 C168.036463,191.210107 164.280996,191.797965 160.487642,191.695606 C156.468382,191.587156 152.446707,191.546697 148.435063,191.944308 C147.900882,191.997259 147.404491,192.076781 146.913706,192.330275 C146.328676,192.632447 145.694125,192.903271 144.965021,192.375055 M145.177007,182.509862 C145.277216,185.029695 145.376922,187.549544 145.477973,190.069344 C145.505488,190.755777 145.612179,191.372092 146.549672,191.077976 C149.25133,190.230322 152.039667,190.237355 154.818312,190.306823 C160.259694,190.44282 165.675293,189.946682 171.103289,189.765109 C174.717373,189.644218 178.340693,189.66288 181.955457,189.89802 C182.3899,189.926282 182.673024,189.831995 182.930837,189.417719 C186.078281,184.360382 188.471681,178.936699 190.728721,173.443792 C190.985222,172.819535 190.985352,172.287566 190.634962,171.687526 C189.586306,169.891808 188.654776,168.024446 187.551786,166.264185 C185.389331,162.81305 183.926667,158.980156 181.614564,155.60523 C180.411204,153.848689 178.990412,152.697206 176.822658,152.585021 C173.0201,152.388229 169.222355,152.6177 165.432972,152.825261 C161.167679,153.058906 156.899972,153.401993 152.662388,153.931346 C150.204559,154.238358 147.625131,153.809301 145.284346,155.150218 C144.503404,155.59758 144.13762,155.961408 144.193542,156.823047 C144.348311,159.208101 144.690954,161.605612 144.572953,163.978907 C144.268666,170.100343 144.629539,176.184731 145.177007,182.509862 M150.510467,142.368182 C150.790788,141.650677 151.400125,141.764357 151.967929,141.800708 C152.356075,141.825542 152.842064,142.007148 152.980207,141.479955 C153.398023,139.88552 153.560554,138.262157 153.537171,136.569066 C153.286082,136.625395 153.233094,136.621789 153.202613,136.646306 C149.573897,139.562638 147.73456,143.601445 146.33344,147.871338 C145.990602,148.91619 145.730601,150.104461 146.347797,151.234472 C146.625655,151.743214 146.894196,151.921327 147.496402,151.724714 C150.510645,150.740527 152.324088,148.513933 152.550059,145.489955 C152.635716,144.343556 152.627679,143.324156 151.106483,143.198781 C150.788292,143.17255 150.58478,142.889966 150.510467,142.368182 M157.569945,145.915698 C156.539519,146.379953 155.709785,147.107381 155.001115,147.966551 C154.480546,148.597662 153.414697,148.984132 153.539083,149.904714 C153.761181,151.548257 152.62507,151.773814 151.567598,152.188383 C151.129883,152.359967 150.600191,152.220218 150.170951,152.631473 C154.433699,152.268052 158.636119,151.909762 162.961709,151.540981 C161.953482,148.942519 161.953661,146.252515 161.673842,143.535501 C160.0158,143.949794 158.712296,144.599567 157.569945,145.915698 M159.488328,137.234863 C159.785518,137.150972 160.080991,137.060299 160.380222,136.984504 C161.132677,136.793892 161.608716,136.382011 161.740961,135.559111 C161.868506,134.765544 161.433724,134.275521 160.911891,133.873256 C159.817522,133.029622 158.569275,132.850908 157.289932,133.364953 C156.048734,133.863657 155.667362,135.215009 156.403758,136.322833 C157.107794,137.381929 158.200397,137.285758 159.488328,137.234863 M156.150903,141.777709 C157.287712,141.818883 158.325187,141.252741 159.525242,141.384336 C160.37972,141.478022 160.401191,140.441932 160.447811,139.739688 C160.497235,138.995197 159.960932,138.819691 159.397065,138.87662 C157.732444,139.044712 156.230451,138.813178 155.060051,137.059576 C154.676929,138.774976 154.470775,140.182754 154.43122,141.641468 C154.956553,141.887507 155.447808,141.75661 156.150903,141.777709 M154.248725,146.970702 C155.237263,145.39674 157.30907,144.908642 158.184954,143.116514 C157.735863,142.858294 157.33955,143.003614 156.964935,143.017111 C156.526702,143.032882 156.083898,143.172599 155.654739,143.132691 C154.952858,143.06743 154.335678,143.060949 153.974886,143.816412 C153.591861,144.618408 153.656322,146.488581 154.248725,146.970702 Z" id="Shape" fill="#000000" fill-rule="nonzero" transform="translate(167.765202, 162.153267) rotate(2.000000) translate(-167.765202, -162.153267) "></path>
        <path d="M150.796709,141.710102 C151.093171,141.003611 151.737592,141.115546 152.33809,141.151338 C152.748584,141.175792 153.262555,141.354609 153.408652,140.835508 C153.850526,139.265547 154.022414,137.667103 153.997685,136 C153.73214,136.055464 153.6761,136.051913 153.643864,136.076055 C149.806214,138.947622 147.860971,142.924435 146.379177,147.128787 C146.016599,148.157601 145.741628,149.327633 146.394361,150.440298 C146.688218,150.941231 146.972221,151.11661 147.609101,150.923015 C150.796898,149.953935 152.714755,147.761518 152.953737,144.783957 C153.044326,143.655155 153.035826,142.651402 151.427044,142.527952 C151.090532,142.502123 150.875302,142.223877 150.796709,141.710102" id="Path" fill="#B17FB1"></path>
        <path d="M110.85725,190.290983 C115.719695,190.153897 114.470346,190.668194 116.762063,186.665243 C119.009462,182.739719 120.651688,178.522613 122.698345,174.501682 C122.758577,174.383356 122.780777,174.231344 122.868865,174.143603 C124.875287,172.145149 123.900377,170.248388 122.649392,168.393564 C119.895506,164.310425 117.905953,159.788775 115.319995,155.608994 C114.881405,154.900082 114.595655,154.092498 114.273559,153.316229 C114.082135,152.854898 113.927156,152.289146 114.549456,152.071759 C115.129171,151.869233 115.263036,152.47184 115.444056,152.841417 C117.490454,157.019639 119.8034,161.052703 122.081344,165.10443 C123.144924,166.996238 124.246407,168.866816 125.346723,170.737558 C125.690631,171.322265 125.855058,171.920258 125.37291,172.461192 C123.378496,174.698733 122.545035,177.546336 121.270747,180.1645 C119.953243,182.871477 118.58437,185.553473 117.220293,188.237369 C116.934997,188.798687 116.664253,189.258052 117.042838,189.952639 C117.395917,190.600447 115.992626,191.589085 114.961163,191.448686 C111.972264,191.041881 108.985318,191.337816 105.991858,191.369878 C102.087633,191.411702 98.2453497,191.976708 94.3796673,192.310162 C89.6732077,192.716155 84.9364215,192.640823 80.249391,193.286358 C79.4438179,193.397325 78.4440264,192.478091 78.4387922,191.35461 C78.413254,185.870977 77.5991738,180.441886 77.7367334,174.92265 C77.892815,168.660279 77.9585726,162.347265 77.1154539,156.094444 C76.7953912,153.72076 77.4809054,152.66051 79.8293063,152.103838 C80.6425601,151.911074 81.4781438,151.797101 82.3098059,151.702603 C83.1223144,151.61025 83.9646149,151.711001 84.8018919,151.272247 C84.3116337,150.835199 83.9336155,151.195437 83.5564809,151.306356 C83.0808634,151.446251 82.653373,151.452862 82.4852112,150.888165 C82.3463389,150.421832 82.5947049,150.033511 83.0271292,149.981162 C84.7135774,149.776947 84.4803302,148.717428 84.2172829,147.555112 C83.7444932,145.466009 83.7466647,143.333604 83.7427351,141.205276 C83.7413739,140.469581 83.7726727,139.6491 82.6899629,139.815584 C81.6855934,139.969999 80.214535,139.142811 79.9041223,140.956054 C79.5132136,143.23948 79.6078479,145.549121 79.5891884,147.853321 C79.5837354,148.527556 80.0114201,148.868043 80.4989642,149.247496 C79.5884835,151.009203 77.984111,151.460057 76.3440401,151.835807 C75.9915521,151.916563 75.6139069,151.866748 75.4514896,151.454892 C75.2756871,151.009105 75.610747,150.818632 75.9118343,150.622928 C75.9488373,150.598873 75.9869744,150.567867 76.0282553,150.560395 C78.4814828,150.116558 78.5687765,148.374196 78.4377066,146.378486 C78.3171776,144.543121 78.4120872,142.693511 78.4120872,140.803198 C77.9477805,140.656481 77.460512,140.921588 76.9559615,141.037412 C76.1416786,141.224361 75.7631016,140.893749 75.8325782,140.069808 C76.0338541,137.682724 76.3405884,135.294544 76.9885567,133.000463 C77.3658615,131.664638 78.2801018,130.487679 79.2752995,129.461685 C80.1383093,128.571979 81.0191276,127.697566 81.9271939,126.854379 C82.8972506,125.953645 83.4720636,124.973998 83.5863376,123.554606 C83.7076848,122.047246 84.6093017,120.763502 85.7303109,119.687157 C87.0139724,118.454625 88.6254831,117.840121 90.2271253,117.21013 C92.0949986,116.475425 93.9079146,116.958261 94.5536222,118.312374 C95.1179512,119.49583 94.3011323,121.684182 92.9086334,122.601596 C91.7948349,123.335416 90.577158,123.856786 89.3064356,124.269325 C88.5533247,124.513804 87.8315288,124.855177 87.0143614,125.185887 C87.6128655,126.382206 86.8224761,127.329799 86.5771648,128.36385 C86.2347643,129.807199 86.7472874,131.201447 88.0240298,131.976117 C88.7800333,132.434816 89.5546638,132.865091 90.3378421,133.275729 C91.2360317,133.746675 91.4724388,134.34332 90.7890316,135.17824 C89.5563733,136.684187 88.3246634,138.190914 87.0955134,139.699744 C86.8110115,140.04897 86.4398075,140.175627 86.0297776,140.041661 C85.1004756,139.738043 84.929413,140.286075 84.9416554,140.999892 C84.9878787,143.694817 84.9304986,146.403434 85.8509775,148.999168 C85.880494,149.082393 85.9434889,149.174731 85.9280623,149.249868 C85.5152371,151.259253 86.6975478,151.324076 88.2352957,151.388396 C92.4405105,151.564316 96.6268305,151.207067 100.821877,151.136543 C104.577936,151.073392 108.333145,150.960167 112.089058,150.886248 C112.621829,150.875756 113.45298,150.656355 113.41255,151.506851 C113.378197,152.228968 112.646451,152.361473 111.967257,152.300532 C106.758661,151.833208 101.562705,152.425971 96.3603318,152.491184 C93.6684286,152.524919 90.9759744,152.534064 88.2838604,152.525455 C85.3656535,152.516132 82.4732929,152.696942 79.6181132,153.369552 C78.8265816,153.556014 78.5036749,153.977632 78.463901,154.726614 C78.4498519,154.991348 78.3865652,155.259346 78.4116982,155.51945 C79.2315719,164.005621 78.9297473,172.518267 79.0677689,181.021721 C79.1285761,184.767166 79.5692002,188.506439 79.8365577,192.237088 C85.9341631,191.734892 91.9495391,191.783115 97.9049828,191.041199 C102.168015,190.51014 106.438323,190.304496 110.85725,190.290983 C93.966156,155.151609 85.5206087,137.581923 85.5206087,137.581923 M84.4602124,126.608397 C84.3343361,126.578535 84.146502,126.47949 84.0916092,126.528883 C82.5377299,127.927159 80.9234807,129.265737 79.596618,130.897156 C77.6053314,133.345506 77.3555232,136.256178 77.2648591,139.282137 C77.6275073,139.282137 77.8735396,139.353295 78.0476243,139.271206 C79.9545911,138.371951 82.0119595,138.474147 84.026848,138.413304 C85.1593707,138.379097 85.2844853,137.932409 85.2162727,136.932167 C85.011748,133.933015 84.7065851,130.91166 85.4394162,127.942394 C85.6542309,127.072026 85.0431764,127.000698 84.4602124,126.608397 M91.1757837,118.246471 C88.6925939,118.877152 86.5878759,120.063361 85.249662,122.348704 C84.9675746,122.830459 84.6453728,123.35096 85.2926604,123.933499 C85.8605464,123.391541 86.4999262,123.328757 87.2675727,123.254472 C89.1313138,123.07411 91.0198641,122.64139 92.4853561,121.295568 C93.1067979,120.724894 93.7402872,120.023949 93.4255559,119.107671 C93.1093012,118.186943 92.199955,118.240973 91.1757837,118.246471 M88.8490482,133.708514 C88.0487659,133.271734 87.2484836,132.834961 86.2621904,132.296659 C86.3973356,134.31056 86.3380516,136.184557 86.8020423,138.173746 C87.8883255,137.113106 88.5573108,136.023417 89.3271449,135.011212 C89.7988491,134.391008 89.5616399,134.082022 88.8490482,133.708514 Z" id="Shape" fill="#000000" fill-rule="nonzero" transform="translate(100.538247, 155.081448) rotate(2.000000) translate(-100.538247, -155.081448) "></path>
        <path d="M85.0040026,126.094578 C84.8814738,126.064239 84.6986349,125.96361 84.6452019,126.013793 C83.1326459,127.434422 81.5613255,128.794399 80.2697489,130.451898 C78.3314179,132.939388 78.088253,135.89659 78,138.970923 C78.3530041,138.970923 78.5924935,139.043218 78.7619487,138.959817 C80.6182022,138.046186 82.6208577,138.150016 84.582163,138.0882 C85.6845677,138.053447 85.806355,137.599618 85.7399565,136.583385 C85.5408708,133.536289 85.2438233,130.466634 85.9571658,127.449901 C86.1662678,126.565619 85.5714634,126.49315 85.0040026,126.094578" id="Path" fill="#7FB1B1"></path>
        <path d="M30.1475701,142.767892 C30.3005648,143.746703 30.4375167,144.61055 30.6048279,145.665878 C32.007151,145.221082 33.0979388,145.64949 33.9364798,146.717308 C34.6316678,147.602563 34.5541943,148.94387 33.7801959,149.464306 C33.4721285,149.671461 33.1275971,149.799401 32.8166817,149.485161 C32.5425952,149.208149 32.6340534,148.92537 32.8900882,148.675157 C33.4106974,148.166383 33.3425454,147.650348 32.8724575,147.16558 C32.3393223,146.615761 31.7470286,146.770973 31.1769958,147.101683 C30.9923012,147.20885 30.8406841,147.384234 30.6965413,147.548363 C30.4214339,147.861563 30.295671,148.469172 29.7303292,148.261189 C29.1306664,148.040619 29.3327281,147.430378 29.3486936,146.974635 C29.4648959,143.657354 28.69522,140.471196 27.9077351,137.294865 C27.6048087,136.073004 26.9504154,135.88232 25.8172001,136.430855 C25.3538941,136.655113 25.1781484,136.963262 25.1570663,137.462697 C25.0488286,140.027456 24.9401048,142.592686 24.7806446,145.15457 C24.7171838,146.174165 25.0222776,146.846857 26.0336675,147.19428 C26.5255301,147.363233 26.9903189,147.659704 27.4127816,147.972498 C28.1196655,148.495858 28.1819878,149.242907 27.9012979,150.007125 C27.6150703,150.786414 26.9568972,150.990759 26.1882663,150.983129 C25.6843923,150.977798 25.313869,150.821384 25.2428772,150.272345 C25.1688835,149.700063 25.5978078,149.655072 25.996762,149.566178 C26.1563314,149.530624 26.3002759,149.42461 26.4486157,149.352007 C26.0304835,148.285065 25.6798794,148.151814 24.8875253,148.775307 C24.6081682,148.995131 24.3972185,149.336723 23.9900244,149.128707 C23.5495827,148.903735 23.633696,148.480201 23.6422885,148.075426 C23.7145523,144.671784 23.8123828,141.26767 23.6716712,137.842442 C22.1432491,138.254364 21.8790594,138.120365 21.822117,136.60775 C21.6688388,132.535842 20.9822836,128.528344 20.4709921,124.49908 C20.3662505,123.673662 20.0778472,123.087306 19.3267657,122.563954 C16.9420224,120.902292 17.0734813,116.458411 19.451751,114.783162 C20.3573583,114.145262 21.1175223,114.359546 21.8133098,115.059233 C22.0869346,115.334378 22.2697048,115.708349 22.4622381,116.05496 C23.0669405,117.143585 22.9673075,118.56361 24.2205288,119.366727 C25.2657012,120.036528 25.8024987,121.239507 26.6818953,122.25336 C28.2382861,119.563235 30.4659355,117.385815 31.3148876,114.356794 C31.4684534,113.808892 31.7719593,113.107126 32.5399458,113.129394 C33.298935,113.151411 33.2876932,113.883549 33.4976911,114.393347 C33.7641776,115.040286 34.1146805,115.642714 33.8956811,116.417131 C33.7211386,117.034347 33.3185829,117.653066 32.8418636,117.671079 C30.6622527,117.753427 30.0995239,119.58699 29.0720711,120.927297 C28.9647772,121.067265 28.908317,121.257804 28.7798439,121.368309 C27.1344538,122.783494 27.3385208,124.427955 27.9291251,126.299565 C28.6713062,128.651525 29.1741472,131.08339 29.3497914,133.562933 C29.3654248,133.783528 29.4445999,134.030899 29.3745236,134.221632 C28.296509,137.155815 29.9197433,139.840523 30.1475701,142.767892 M21.6688024,124.495295 C22.1469801,128.280567 22.6251581,132.06583 23.1165749,135.955914 C24.4431742,135.633747 25.5869549,135.167033 26.7503752,134.815581 C27.5788694,134.565312 28.3040886,133.901114 28.1640534,132.710707 C27.8024346,129.636687 27.3344654,126.583814 26.1235094,123.72221 C25.5332088,122.327271 24.7276923,120.998016 23.1555183,120.129199 C22.5244511,121.577469 21.3818901,122.632594 21.6688024,124.495295 M19.8709728,116.04705 C18.7146094,117.261634 19.1412207,120.09219 20.5911319,120.916586 C21.0572416,121.181603 21.3776364,121.037331 21.5400943,120.596019 C22.0139495,119.308807 22.0317137,117.984027 21.564721,116.706707 C21.3367362,116.083116 20.7718524,115.767081 19.8709728,116.04705 Z" id="Shape" fill="#000000" fill-rule="nonzero" transform="translate(26.007300, 132.056105) rotate(2.000000) translate(-26.007300, -132.056105) "></path>
        <path d="M8.84005141,171.863109 C8.97149992,169.085657 9.05387132,166.431094 9.25531735,163.785627 C9.46180272,161.074005 9.00942867,158.391165 9.02644339,155.690571 C9.02774777,155.483839 8.92575264,155.257843 8.81777008,155.072405 C8.44817045,154.437688 8.12294471,153.739284 8.60531933,153.097372 C9.05178905,152.503244 9.78546497,152.67884 10.4574178,152.746538 C14.1549584,153.119023 17.8368782,153.121134 21.5302058,152.537158 C23.5227442,152.22209 25.5545583,152.198019 27.5954063,152.251277 C30.3693894,152.323653 33.1552704,152.145377 35.9290063,151.965542 C39.1407937,151.757283 42.3436929,151.420158 45.5278758,150.930079 C45.9395748,150.866733 46.4044892,150.873312 46.4751245,151.385497 C46.5636091,152.027198 45.9582343,152.071572 45.5688652,152.100337 C42.9700524,152.292354 40.3940679,152.660648 37.8120309,152.995841 C31.8525079,153.769495 25.8297506,153.639508 19.8499882,154.206105 C17.5006191,154.428722 15.0888628,154.117373 12.7158878,153.922368 C10.7636055,153.761959 10.337699,153.932617 10.4783175,155.902647 C10.7754874,160.066023 10.6639276,164.220207 10.46742,168.375202 C10.2565917,172.832922 10.330326,177.288595 10.5215471,181.739996 C10.640905,184.518569 10.9742917,187.287819 11.2063033,190.061698 C11.239381,190.45715 11.2830438,190.858984 11.2461988,191.250733 C11.2168485,191.562731 11.0439831,191.851991 10.6759433,191.889706 C10.3220922,191.925959 10.0631407,191.715555 9.9493712,191.418727 C9.80818144,191.050351 9.68929133,190.651911 9.67038072,190.261121 C9.37571441,184.171633 8.70512678,178.098973 8.84005141,171.863109 Z" id="Path" fill="#000000" fill-rule="nonzero" transform="translate(27.423290, 171.398125) rotate(2.000000) translate(-27.423290, -171.398125) "></path>
        <path d="M101.256329,115.876717 C99.3035927,116.010408 99.0364863,115.74219 97.9414689,112.618923 C97.253986,112.59322 96.8561907,114.077491 96.0945561,113.161489 C95.3409347,112.255136 96.1428535,111.320675 96.5547468,110.506764 C97.0259893,109.575568 97.7232758,110.109672 98.3054783,110.523803 C98.9765053,109.91958 99.3128699,109.075516 100.126845,108.72685 C100.501103,108.566538 100.9079,108.358637 101.177276,108.817986 C101.428655,109.246694 101.009016,109.4391 100.744746,109.653385 C99.6675939,110.526815 99.1108647,111.638797 99.3400527,113.030983 C99.5216725,114.134193 100.083149,114.856968 101.355249,114.475931 C102.086776,114.256831 102.557637,114.431257 102.742068,115.220723 C103.030946,116.45725 103.535942,117.457151 105.013296,117.612428 C106.498824,117.768557 107.302015,116.932021 107.963296,115.798056 C108.161395,115.458356 108.386038,115.134208 108.703962,114.638533 C110.21067,116.050689 111.825283,115.827219 113.482142,115.039556 C114.343596,114.630006 114.932143,114.046347 115.030828,113.057571 C115.103894,112.325571 115.365823,111.866944 116.22748,112.139312 C116.777557,112.313194 117.142319,112.047462 117.416126,111.561573 C118.481862,109.670358 117.551823,107.738107 115.446651,107.59848 C114.284815,107.521435 114.530733,106.692403 114.556685,106.049694 C114.604132,104.874376 114.455196,103.865712 113.317002,103.19821 C112.40384,102.662668 111.607722,102.75931 110.704874,103.246043 C109.317568,103.993929 109.113959,103.893283 108.523719,102.434293 C108.16795,101.554853 107.633048,101.335703 106.74856,101.691012 C104.461128,102.609897 102.999233,104.667538 102.960472,107.112608 C102.950417,107.747398 102.950401,107.747398 102.553643,108.495511 C101.819758,107.92327 102.058847,107.127591 102.025888,106.429764 C101.881659,103.376014 105.061569,100.734332 107.325625,100.198611 C108.73317,99.8655626 109.376066,100.908993 109.810759,102.129043 C110.109067,102.020877 110.348116,101.929523 110.590195,101.847133 C113.087733,100.997059 114.96123,101.964695 115.70858,104.519985 C115.950853,105.34831 115.943496,106.352289 117.245364,106.19555 C117.350774,106.182865 117.478076,106.308215 117.587586,106.380973 C119.701605,107.785543 119.467613,112.251749 117.193396,113.374629 C116.615236,113.660096 116.124338,113.999008 115.761828,114.510779 C114.251482,116.64303 112.138969,117.202691 109.68904,116.845109 C109.239989,116.779563 108.866711,116.630694 108.527268,117.115015 C106.37038,120.192447 102.640272,119.213807 101.721624,116.223361 C101.679306,116.085626 101.478282,115.99687 101.256329,115.876717 Z" id="Path" fill="#000000" fill-rule="nonzero" transform="translate(107.414121, 109.566824) rotate(2.000000) translate(-107.414121, -109.566824) "></path>
        <path d="M18.1155606,73.0953422 C18.6705029,72.2473957 19.4426097,71.7617263 20.4806764,72.0961798 C21.334101,72.3711542 22.1571224,73.8963562 21.6191905,74.6292744 C19.6601752,77.298358 21.2713736,79.8000317 21.8700439,82.2840341 C22.3490725,84.2716386 22.9149933,86.2121325 22.8565803,88.2750364 C22.8491303,88.5383324 22.9050885,88.8932677 22.7619381,89.0484223 C21.7668092,90.1270178 22.0167673,90.7441931 23.3688846,91.1826219 C23.8303354,91.3322624 24.3597641,91.7801849 24.0996213,92.4171356 C23.8649564,92.9916911 23.4431702,93.4922631 22.7477875,93.5511252 C22.1672178,93.6002826 21.5432321,93.6141697 21.3160374,92.9022853 C21.0741045,92.1442239 20.8628751,91.3736317 20.6910064,90.5967779 C20.5823999,90.1058703 20.5716565,89.6142397 19.8737298,89.618349 C19.2053317,89.6222877 19.1250872,90.1249225 18.9786959,90.5873492 C18.7937785,91.1714635 18.9053181,91.7035373 19.1714361,92.2520972 C19.4330654,92.7914152 19.1302442,93.2513245 18.6644061,93.4572851 C17.935537,93.7795165 17.2344141,93.4606312 16.7209955,92.966621 C16.2847104,92.5468303 16.7002052,92.23553 17.0625736,91.9120564 C17.698729,91.3441601 17.6338704,90.502467 17.1721849,89.9895348 C15.9806416,88.6657372 16.3047836,87.2078758 16.5434957,85.7308809 C16.8186801,84.0282233 17.1502764,82.3344502 17.4075792,80.6292669 C17.5886761,79.4291386 17.8276638,78.3388245 18.9729514,77.59638 C19.5997891,77.1900217 19.2551281,76.6710553 18.6783297,76.4023505 C17.8079227,75.9968776 17.3630574,75.3843311 17.6332385,74.2929043 C17.8069505,73.8252719 17.9021476,73.4214472 18.1155606,73.0953422 Z M18.8338078,81.2083785 C18.2438069,83.4532777 17.6102483,85.6936454 18.0223241,88.1500844 C18.994167,88.1417277 19.8578615,88.2747522 20.7237232,87.9879049 C21.1807339,87.836502 21.5538824,87.6343827 21.5540125,87.1041767 C21.554648,84.4689423 20.555071,82.106075 19.6912876,79.6182803 C19.1034704,80.059511 19.0738729,80.576707 18.8338078,81.2083785 Z M21.5540134,87.1041767 C21.554648,84.4689423 20.555071,82.106075 19.6912876,79.6182803 C19.1034704,80.059511 21.5538824,87.6343827 21.5540134,87.1041767 Z" id="Shape" fill="#000000" fill-rule="nonzero" transform="translate(20.241759, 82.788513) rotate(2.000000) translate(-20.241759, -82.788513) "></path>
        <path d="M82.8313858,25.1579683 C81.8089242,26.543188 81.9491415,27.9367767 82.5853938,29.3170873 C82.759114,29.6939658 83.070961,30.0429787 82.660291,30.3606093 C82.211905,30.7074193 82.1057172,31.6003345 81.2626388,31.3374221 C80.6611614,31.1498558 80.0602347,31.0846674 79.4352282,31.1183865 C79.0827404,31.1374062 78.8393166,30.9491132 78.8097759,30.5764473 C78.7808349,30.2114034 78.9727685,30.0068191 79.3270632,29.9239935 C79.9189802,29.7856171 80.5070567,29.6307547 81.181009,29.4616988 C80.9063837,27.7034396 81.0541118,26.0286763 80.7009675,24.3623833 C80.3851344,22.8721265 80.9195578,21.3934524 81.2242181,19.9388272 C81.4723977,18.753873 81.6946665,17.7304336 81.4010818,16.3985414 C81.0497365,14.8046201 80.9252213,12.8943826 81.9682061,11.2661862 C82.4709903,10.4812986 83.0911678,9.90071803 84.0075065,10.1670969 C84.9349695,10.4367072 85.4060742,11.2040552 85.3310718,12.2229731 C85.3116424,12.4868529 85.3473896,12.7833755 85.2395733,13.0078545 C83.7161178,16.1795037 84.8244956,19.2375245 85.6899442,22.2743259 C85.9635403,23.2343442 86.1305842,24.0800713 85.9445811,25.0979631 C85.7279032,26.2837294 85.3848867,27.6524367 87.2735423,28.1293395 C88.1448002,28.3493416 87.9360138,29.568364 86.9728928,30.2381159 C86.4261781,30.6183017 85.805166,30.7734584 85.2201845,30.5062136 C84.5705311,30.209432 84.7779239,29.5723778 84.7890646,28.9880016 C84.8108919,27.8426119 84.8012099,26.6818183 84.6380226,25.5515561 C84.4483735,24.2380361 83.5824388,24.9270452 82.8313858,25.1579683 M83.6967696,23.4968464 C84.1215941,23.3290715 84.7719445,23.3020178 84.5665933,22.6100078 C84.2769384,21.6339117 84.1398646,20.5928768 83.4440609,19.4447928 C83.0377498,20.8896076 82.7012398,22.0862277 82.3662447,23.2774614 C82.7196805,23.6704483 83.1214298,23.5451288 83.6967696,23.4968464 M82.5967371,12.5707871 C82.4447146,13.2453773 82.2509254,13.9234959 82.7520084,14.6157433 C83.5262985,14.3014902 83.7061601,13.5898452 83.9739229,12.9751243 C84.1824987,12.4962967 84.3999546,11.8524363 83.7923841,11.5834604 C83.1917895,11.3175779 82.8688911,11.8613868 82.5967371,12.5707871 Z" id="Shape" fill="#000000" fill-rule="nonzero" transform="translate(83.315591, 20.743334) rotate(2.000000) translate(-83.315591, -20.743334) "></path>
        <path d="M161.041001,86.7297132 C161.06137,87.4606579 161.150883,88.085581 161.096744,88.6977377 C161.017034,89.599097 161.081155,90.2919859 162.228286,90.3521719 C162.74294,90.3791748 163.0038,90.7722711 162.940813,91.2894915 C162.871976,91.854919 162.547077,92.2879146 162.032082,92.5105725 C161.573641,92.708753 161.380338,92.3261653 161.07853,92.0414945 C159.74696,90.7855736 159.713903,89.2481247 159.990221,87.6217575 C160.128737,86.8064419 160.01213,86.1818112 159.008635,86.1547514 C158.109093,86.1304935 157.540267,86.525807 157.577035,87.4807822 C157.610983,88.3623583 157.756564,89.2391103 157.808872,90.1206212 C157.853127,90.8666633 156.19831,93.1804056 155.509458,93.3517134 C154.825337,93.5218433 154.482191,93.2208651 154.552179,92.5157458 C154.58906,92.144292 154.85342,91.8874035 155.110617,91.637954 C157.013881,89.7920717 157.112323,88.800649 155.624817,86.6317883 C155.531334,86.4954828 155.440605,86.3081845 155.454525,86.1542479 C155.719776,83.222916 155.352922,80.1854732 156.876354,77.4619535 C157.26693,76.7636803 157.194529,76.0052452 157.176704,75.2535916 C157.144602,73.8987225 157.665107,72.7541509 158.533488,71.7575834 C159.078023,71.1326523 159.754754,70.8401282 160.533963,71.3071962 C161.335225,71.7874774 161.721264,72.4934863 161.400837,73.4430769 C161.289221,73.7738679 161.187197,74.2036478 160.935947,74.3758406 C159.271391,75.5165954 159.903203,76.9399417 160.537609,78.2194952 C161.903192,80.9738509 161.779698,83.764386 161.041001,86.7297132 M159.050346,77.6507381 C158.782745,76.6653817 158.472932,77.2052681 158.165695,77.6259035 C156.758709,79.5522098 156.834903,81.8477685 156.576944,84.0588187 C156.531004,84.4526705 156.721196,84.793077 157.077791,84.9066757 C158.010148,85.2036503 158.835086,84.5685839 159.742909,84.4821503 C160.321976,84.4270157 160.295287,83.5173082 160.374575,82.8915728 C160.611469,81.0221067 159.658338,79.4804186 159.050346,77.6507381 M160.22261,72.5473052 C158.991443,72.5108005 158.447912,73.1179057 158.308926,74.7225003 C159.598365,74.6400299 160.175844,73.8919739 160.22261,72.5473052 Z" id="Shape" fill="#000000" fill-rule="nonzero" transform="translate(158.746654, 82.237809) rotate(2.000000) translate(-158.746654, -82.237809) "></path>
        <path d="M93.3783537,92.9953235 C92.819567,92.9245476 92.5515287,92.6964242 92.5933928,92.1951459 C92.6360187,91.6847635 93.0579185,91.5480112 93.4221626,91.4544798 C94.5750542,91.1584231 95.1984564,90.5348401 94.9468819,89.2726577 C94.9296487,89.1861919 94.9386744,89.092904 94.9126663,89.0099789 C93.8073592,85.4858757 93.612079,79.8670741 94.5031792,76.4286327 C94.7257314,75.5698772 94.9473194,74.5719656 96.0976185,74.6213585 C97.2817928,74.6722049 97.655395,75.5336 97.7876315,76.6245558 C98.0487019,78.7785791 99.1149076,80.6425066 100.058429,82.5461873 C100.39216,83.2195368 100.729586,83.8971094 100.983478,84.6023506 C101.216101,85.2485429 101.302908,86.0339563 100.620368,86.4010977 C99.7311637,86.8794258 99.824388,87.5687984 99.9133019,88.3240823 C100.057173,89.546211 100.260758,90.7667803 100.024465,92.0122491 C99.1813459,92.3297213 98.6527721,91.4254875 97.8684593,91.562475 C97.6175979,91.6062806 97.4309306,91.1193684 97.5827988,90.8054533 C97.870404,90.21096 98.3542129,90.6706663 98.80571,90.6483819 C99.0275736,89.7216766 98.6610364,88.8269363 98.6339749,87.9184385 C98.6216758,87.5055183 98.314277,87.2190851 97.918677,87.3283307 C97.2641297,87.5090672 96.4756688,87.5555121 96.2211532,88.3860143 C96.118117,88.7222382 95.9579763,89.1069293 96.0313907,89.420796 C96.5441084,91.6128587 94.8268231,92.1654872 93.3783537,92.9953235 M97.0123123,86.1783099 C97.2726534,85.6568993 97.3347328,84.8500296 98.2439901,85.1910452 C98.6905771,85.3585441 99.1441162,85.7871544 99.5581404,85.3091512 C100.015009,84.7816577 99.6355409,84.2269746 99.3849552,83.7124422 C98.2103982,81.300759 96.7296739,79.0127528 96.3868278,76.26301 C96.3825335,76.2285924 96.2338414,76.212269 96.1330981,76.1815628 C95.5796018,76.4565372 95.5600917,77.0479361 95.4448697,77.5309745 C94.8831984,79.8855254 95.0147302,82.2860666 95.1516742,84.6681321 C95.2056431,85.6070029 95.964045,86.1229156 97.0123123,86.1783099 Z" id="Shape" fill="#000000" fill-rule="nonzero" transform="translate(96.871183, 83.807460) rotate(2.000000) translate(-96.871183, -83.807460) "></path>
        <path d="M53.6959188,179.672107 C54.7152855,177.449119 55.6646003,175.301998 56.6806692,173.187087 C57.0631193,172.391034 56.8475755,171.717255 56.4893107,171.044498 C54.7413098,167.76204 52.9626096,164.49597 51.2215362,161.209857 C49.9568095,158.822821 48.7179453,156.42159 47.5075602,154.006536 C47.302136,153.596629 46.8013207,153.127113 47.608433,152.343437 C51.0565343,158.638439 54.450877,164.835304 57.8684492,171.074595 C57.876535,171.075764 57.9705454,171.119716 58.0386447,171.094215 C58.4713446,170.932101 58.7649534,170.077625 59.3494814,170.725142 C59.8583343,171.288831 59.2618232,171.728933 58.9445559,172.083746 C56.7311139,174.559221 55.903122,177.765941 54.470201,180.642829 C52.6547976,184.287637 50.8947082,187.954957 48.8019654,191.451603 C48.5675758,191.843205 48.4972159,192.528761 47.8121798,192.155204 C47.3005319,191.876177 47.1648761,191.329574 47.3340428,190.759518 C47.3956034,190.552071 47.5126484,190.352842 47.6386787,190.174161 C49.9583247,186.885579 52.0071372,183.440406 53.6959188,179.672107 Z" id="Path" fill="#000000" fill-rule="nonzero" transform="translate(53.356042, 172.303261) rotate(2.000000) translate(-53.356042, -172.303261) "></path>
        <path d="M125.844937,52.895472 C125.936865,51.8290544 126.233406,50.9506862 126.871312,50.233645 C127.347529,49.6983387 127.988918,49.4559061 128.671094,49.7421118 C129.349851,50.0268802 129.210265,50.6778884 129.159254,51.2516767 C129.139662,51.4721459 129.149742,51.7123168 129.06415,51.9072733 C127.916387,54.521535 128.988167,56.9125175 129.811678,59.3191006 C130.069038,60.0711523 130.439115,60.7853515 130.772069,61.510193 C131.001443,62.0095306 131.276368,62.7304499 130.966992,63.0290363 C129.672579,64.2782815 130.420659,65.822536 130.179487,67.2112822 C130.158503,67.3321778 130.063026,67.4400757 129.982279,67.5912144 C129.137037,67.6248887 129.141866,67.028808 129.093609,66.4448156 C129.026588,65.6336296 129.178667,64.424913 128.097683,64.4608046 C127.109825,64.4936019 127.469224,65.7136839 127.339848,66.4336489 C127.254888,66.9066252 127.324211,67.4065759 127.314115,67.894235 C127.306386,68.2670979 127.255196,68.6473142 126.765561,68.6350674 C126.207107,68.6210868 126.131075,68.1972924 126.215954,67.7823175 C126.334701,67.2016018 126.258361,66.639906 126.211887,66.0652044 C126.1565,65.3801724 126.112424,64.7787357 125.289431,64.4974108 C124.656646,64.2810957 124.718353,63.6420903 124.876201,63.1211261 C125.557275,60.8732628 125.461523,58.4752799 126.271082,56.2426519 C126.662663,55.1627409 125.583947,54.1495168 125.844937,52.895472 M129.783968,62.0620421 C129.176479,60.5543775 128.568989,59.0467089 127.9615,57.5390445 C127.835737,57.5703028 127.709974,57.6015571 127.584195,57.6328154 C127.055443,59.1614243 126.604602,60.7142426 126.299553,62.3092134 C126.240942,62.61571 126.262607,62.9107965 126.610647,63.0963283 C127.316384,63.4725247 129.243468,62.9796841 129.783968,62.0620421 M127.839885,51.0518881 C126.850829,51.6758732 127.030975,52.570642 127.203633,53.4661622 C127.572836,52.7085109 128.310982,52.0670043 127.839885,51.0518881 Z" id="Shape" fill="#000000" fill-rule="nonzero" transform="translate(127.937932, 59.128047) rotate(2.000000) translate(-127.937932, -59.128047) "></path>
        <path d="M161.852705,125.821152 C159.498146,126.460896 157.253859,127.101379 154.994016,127.680791 C154.514363,127.80377 153.74982,128.248769 153.570583,127.380032 C153.412735,126.614889 154.22197,126.4588 154.738342,126.398858 C156.770869,126.16293 158.680939,125.483311 160.617017,124.895664 C161.243481,124.705516 161.846693,124.438435 162.438869,124.13874 C158.822468,124.828998 155.289407,125.854546 151.67286,126.82867 C151.779907,125.918134 151.779907,125.918134 152.431262,125.363565 C151.863214,124.961438 151.649801,124.504363 152.410196,124.105581 C152.916375,123.840101 153.427384,123.496527 153.972113,123.406764 C156.889826,122.925967 159.614851,121.749171 162.483691,121.10068 C162.968545,120.991085 163.652909,120.799434 163.70768,121.389428 C163.779838,122.167085 165.632658,122.759914 163.949774,123.723659 C164.575008,124.268963 164.673077,124.814112 163.840022,125.1817 C163.238544,125.447107 162.586768,125.59808 161.852705,125.821152 M160.018585,123.047646 C159.308797,123.26427 158.599025,123.480894 157.889237,123.697517 C157.917951,123.789782 157.946665,123.882038 157.97538,123.974303 C159.491162,123.554926 161.006929,123.13555 162.522711,122.716173 C162.506037,122.648905 162.489362,122.581638 162.472672,122.514378 C161.717381,122.683014 160.962091,122.851658 160.018585,123.047646 Z" id="Shape" fill="#000000" fill-rule="nonzero" transform="translate(158.163377, 124.442802) rotate(2.000000) translate(-158.163377, -124.442802) "></path>
        <path d="M44.7724282,49.2259485 C45.87477,50.079328 46.0247668,51.2625035 45.6511685,52.2819645 C44.5155651,55.3807668 45.0399114,58.3225548 46.1462192,61.2558844 C46.4900051,62.1674194 46.8352576,63.0735416 46.9984772,64.0379088 C47.1240456,64.7798253 46.8344231,65.3102748 46.0747657,65.3440021 C44.731609,65.4036356 43.4672227,65.7157683 42.2366307,66.2346777 C41.5643883,66.5181467 41.2392292,66.387242 41.1247811,65.5333143 C40.6975137,62.3452483 41.6174417,59.3468926 42.2696189,56.3068388 C42.4348885,55.5364331 43.0265503,55.1812666 44.1067363,54.9922913 C43.1258716,54.4730082 41.9827026,54.6961004 42.2700931,53.3317053 C42.4337136,52.5548921 42.0599654,51.6597296 42.3753979,50.8506187 C42.7775441,49.8190854 43.3109834,48.9046876 44.7724282,49.2259485 M42.5477282,64.5645699 C43.6989913,64.4454285 44.83136,64.2625807 45.9027388,63.7045921 C45.3113162,61.7726213 44.4427401,60.0683761 44.0841635,58.0121436 C43.7940183,58.7064947 42.7754619,58.0970585 42.7010187,59.0832026 C42.5670642,60.8576186 41.7808759,62.5978611 42.5477282,64.5645699 M44.1070119,52.0882547 C44.4830447,51.6490137 44.7680327,51.1975384 44.3535911,50.6136109 C43.2804823,51.2404099 43.2146964,51.5260959 44.1070119,52.0882547 Z" id="Shape" fill="#000000" fill-rule="nonzero" transform="translate(44.021169, 57.765130) rotate(2.000000) translate(-44.021169, -57.765130) "></path>
        <path d="M26.0460761,192.506621 C21.6470679,193.178143 17.3297103,193.366213 12.9926477,193.181652 C12.6833288,193.168479 12.371113,193.189318 12.0644759,193.155615 C11.6279515,193.107652 11.0660168,193.082249 11.0812765,192.501765 C11.0985311,191.870686 11.6851655,192.006764 12.1077904,191.971258 C14.7533973,191.749063 17.4021766,192.202825 20.0496149,191.914069 C24.0019181,191.483014 27.9605778,190.844204 31.9356647,191.067113 C36.2242393,191.307581 40.5049061,191.25632 44.7905518,191.253218 C45.4804329,191.252714 45.9875518,191.50702 46.0506683,192.495349 C39.4016449,193.16372 32.7688136,192.013456 26.0460761,192.506621 Z" id="Path" fill="#000000" fill-rule="nonzero" transform="translate(28.565972, 192.134916) rotate(2.000000) translate(-28.565972, -192.134916) "></path>
        <path d="M156.726965,130.209482 C156.18721,129.856504 155.58617,130.658427 155.195934,130.021071 C154.927216,129.582212 154.496306,129.133859 154.651156,128.578404 C154.798892,128.048491 155.374005,128.1907 155.784059,128.078449 C157.953579,127.484565 160.120911,126.882585 162.286574,126.274716 C162.666504,126.168085 163.061002,125.936299 163.379388,126.339019 C163.655107,126.68779 163.574344,127.101336 163.415329,127.477809 C163.295951,127.760441 163.188191,128.159474 162.961685,128.267551 C161.160768,129.126858 159.527001,130.427039 157.413662,130.486876 C157.212484,130.492569 157.006687,130.333484 156.726965,130.209482 Z" id="Path" fill="#000000" fill-rule="nonzero" transform="translate(159.089637, 128.299041) rotate(2.000000) translate(-159.089637, -128.299041) "></path>
        <path d="M104.368827,110.037104 C104.932686,108.681537 105.410556,107.391532 106.426601,106.415839 C106.707579,106.14603 106.984116,105.783762 107.433636,105.907301 C107.904295,106.036638 107.922428,106.497002 107.955493,106.881539 C108.073437,108.25317 108.373415,109.57778 108.881903,110.856797 C109.198182,111.65233 108.924075,112.161534 108.089763,112.301381 C106.963342,112.490198 105.831905,112.658581 104.696887,112.783217 C103.838002,112.877536 103.588995,112.366187 103.781918,111.620949 C103.913725,111.111785 104.147296,110.62908 104.368827,110.037104 M106.783926,111.190503 C107.740525,110.727573 107.746464,110.045542 106.735734,109.003638 C106.353657,109.703991 105.985718,110.378428 105.640862,111.010563 C105.994622,111.415833 106.307766,111.220974 106.783926,111.190503 Z" id="Shape" fill="#000000" fill-rule="nonzero" transform="translate(106.364982, 109.338403) rotate(2.000000) translate(-106.364982, -109.338403) "></path>
        <path d="M100.692135,149.372682 C100.203505,150.085087 99.642587,150.601917 98.7965434,150.431081 C98.0060326,150.271451 97.7002461,149.598678 97.543565,148.88106 C97.3554797,148.019551 97.6459852,147.323796 98.3498592,146.795092 C99.1925483,146.162129 99.9000194,146.287828 100.453005,147.180912 C100.655626,147.508162 100.809787,147.865558 101.003633,148.243452 C101.423216,147.794189 101.786398,147.373172 102.185385,146.989578 C102.445686,146.739316 102.794219,146.568382 103.152808,146.705093 C103.751709,146.933428 104.063491,147.423117 103.991155,148.054229 C103.865051,149.154483 103.361741,150.1133 102.354503,150.57848 C101.784057,150.84193 101.291287,150.373648 101.043075,149.767452 C100.978346,149.609365 101.129388,149.268033 100.692135,149.372682 Z" id="Path" fill="#000000" fill-rule="nonzero" transform="translate(100.744538, 148.526592) rotate(2.000000) translate(-100.744538, -148.526592) "></path>
        <path d="M41.6473442,107.990287 C42.331497,109.422583 41.7964821,110.467873 40.8279243,111.384695 C40.1664498,112.010853 39.3811122,112.11832 38.6615321,111.584768 C37.9096852,111.027283 37.5020008,110.286138 37.9414782,109.275273 C38.7452607,107.426459 40.346052,106.805995 41.6473442,107.990287 Z" id="Path" fill="#000000" fill-rule="nonzero" transform="translate(39.858021, 109.656257) rotate(2.000000) translate(-39.858021, -109.656257) "></path>
        <path d="M95.1974964,70.4908276 C95.4838297,69.2921611 96.2918981,68.5733004 97.039864,67.8404512 C97.8443594,67.0522319 98.8812107,67.4359972 99.0924686,68.5423061 C99.2895393,69.5742899 98.1828386,72.055661 97.2923783,72.6540848 C96.6327914,73.0973457 96.3598757,72.5588316 95.9191059,72.0816731 C95.8633869,72.5428898 95.8204127,72.8985316 95.7836365,73.2029206 C95.0227636,73.6281608 94.7299326,72.7425893 95.0435945,71.2431635 C95.088643,71.0278554 95.131601,70.8121087 95.1974964,70.4908276 M97.7499521,68.7858232 C96.8530103,69.3346388 96.4073307,70.0168119 96.9736768,71.2286672 C97.6685571,70.4127995 98.1318754,69.7506004 97.7499521,68.7858232 Z" id="Shape" fill="#000000" fill-rule="nonzero" transform="translate(97.017469, 70.366719) rotate(2.000000) translate(-97.017469, -70.366719) "></path>
        <path d="M108.831699,136.241923 C107.873059,136.830504 107.130473,136.539108 106.545734,135.833558 C105.98651,135.158804 106.139342,134.418837 106.632371,133.769428 C107.178673,133.049869 107.93611,132.714019 108.829925,132.906344 C109.662584,133.085497 110.063053,134.31426 109.597028,135.208513 C109.416284,135.555344 109.14067,135.852505 108.831699,136.241923 Z" id="Path" fill="#000000" fill-rule="nonzero" transform="translate(107.991930, 134.705176) rotate(2.000000) translate(-107.991930, -134.705176) "></path>
        <path d="M111.79279,106.274803 C113.896771,106.280553 114.643092,107.120362 114.037312,108.647261 C113.843142,109.136675 113.545093,109.512075 113.025529,109.581422 C112.34576,109.672135 112.003975,109.97477 112.013017,110.69156 C112.01783,111.073619 111.788463,111.415447 111.378004,111.39486 C110.893223,111.370545 110.862791,110.974265 110.766488,110.54857 C110.468277,109.230523 110.532066,108.27467 112.263141,108.401564 C112.586777,108.425285 112.858412,108.246417 112.854272,107.834203 C112.643176,107.347405 112.212794,107.492067 111.833431,107.497663 C111.407537,107.503948 110.862572,107.670765 110.79205,107.028251 C110.726771,106.433433 111.249292,106.371429 111.79279,106.274803 Z" id="Path" fill="#000000" fill-rule="nonzero" transform="translate(112.435272, 108.835274) rotate(2.000000) translate(-112.435272, -108.835274) "></path>
        <path d="M107.562013,147.281897 C108.337364,148.180032 108.416669,149.05931 107.861642,150.008998 C107.500363,150.627213 107.039735,151.035171 106.276779,150.9231 C105.439316,150.800113 105.126091,150.169602 104.989828,149.455428 C104.727778,148.082026 106.085348,146.884967 107.562013,147.281897 Z" id="Path" fill="#000000" fill-rule="nonzero" transform="translate(106.589023, 149.073197) rotate(2.000000) translate(-106.589023, -149.073197) "></path>
        <path d="M103.435033,143.720376 C103.895856,145.145493 102.952755,145.735138 102.085759,146.336834 C101.658699,146.633224 101.225626,146.43653 100.895403,146.114282 C100.313549,145.546451 100.073617,144.827631 100.412064,144.075368 C100.757997,143.306473 101.309889,142.587133 102.176845,142.448164 C102.916911,142.329514 103.140184,143.062855 103.435033,143.720376 Z" id="Path" fill="#000000" fill-rule="nonzero" transform="translate(101.906528, 144.459031) rotate(2.000000) translate(-101.906528, -144.459031) "></path>
        <path d="M111.252983,142.187748 C112.508878,141.705172 112.9709,142.390679 113.193355,143.364617 C113.41026,144.314305 112.651097,145.637453 111.825738,145.795344 C110.874309,145.977323 110.232709,145.525559 110.056842,144.63371 C109.858783,143.629302 110.42064,142.866855 111.252983,142.187748 Z" id="Path" fill="#000000" fill-rule="nonzero" transform="translate(111.623916, 143.932259) rotate(2.000000) translate(-111.623916, -143.932259) "></path>
        <path d="M104.145203,141.165524 C102.90723,139.976667 103.192834,138.267805 104.644803,137.681783 C105.305832,137.414995 105.830493,137.567689 106.182762,138.262056 C106.903107,139.681918 105.892361,141.234294 104.145203,141.165524 Z" id="Path" fill="#000000" fill-rule="nonzero" transform="translate(104.891187, 139.362967) rotate(2.000000) translate(-104.891187, -139.362967) "></path>
        <path d="M109.176851,149.384607 C109.204253,149.106603 109.22241,148.929822 109.268374,148.760626 C109.521026,147.830639 110.038815,147.11869 111.068148,147.116396 C111.687102,147.115019 112.110452,147.565029 112.203352,148.215111 C112.355698,149.281273 111.983814,150.244296 111.080082,150.710548 C109.98231,151.276918 109.555841,150.3137 109.176851,149.384607 Z" id="Path" fill="#000000" fill-rule="nonzero" transform="translate(110.706692, 148.997953) rotate(2.000000) translate(-110.706692, -148.997953) "></path>
        <path d="M106.992285,145.904965 C105.866487,145.827749 105.291731,145.202047 105.148159,144.245423 C105.042798,143.543398 105.383626,143.008002 106.074601,142.669106 C107.333729,142.051525 108.140907,142.517046 108.130673,143.931264 C108.12467,144.760028 107.901591,145.493028 106.992285,145.904965 Z" id="Path" fill="#000000" fill-rule="nonzero" transform="translate(106.630054, 144.153382) rotate(2.000000) translate(-106.630054, -144.153382) "></path>
        <path d="M92.1710773,149.404072 C92.1755416,148.877074 92.3791995,148.532835 92.5971415,148.201654 C92.9924983,147.600867 93.4411838,146.920817 94.2674418,147.277677 C95.1933736,147.677579 95.129933,148.574919 94.8369887,149.331404 C94.5690234,150.023392 94.4073999,151.01086 93.3689686,150.952095 C92.577218,150.907299 92.1117365,150.37611 92.1710773,149.404072 Z" id="Path" fill="#000000" fill-rule="nonzero" transform="translate(93.597974, 149.066750) rotate(2.000000) translate(-93.597974, -149.066750) "></path>
        <path d="M74.046902,112.240984 C74.6244618,111.830914 75.0293549,112.357263 75.5881664,112.336635 C76.0375082,111.665966 76.7565007,111.121677 76.9611956,110.214625 C77.0328113,109.897324 77.1882528,109.596102 77.5786833,109.662703 C78.0029973,109.735079 78.192768,110.108433 78.0946092,110.458163 C77.7969171,111.518916 77.4371452,112.56337 77.062668,113.600068 C77.0018284,113.768484 76.692485,114.010048 76.5839149,113.971944 C75.7193738,113.66844 74.7345389,113.675887 73.9994877,113.042185 C73.7734274,112.847294 73.828004,112.559983 74.046902,112.240984 Z" id="Path" fill="#000000" fill-rule="nonzero" transform="translate(75.987072, 111.814668) rotate(2.000000) translate(-75.987072, -111.814668) "></path>
        <path d="M110.91953,138.97328 C110.862774,139.243179 110.840542,139.427724 110.752551,139.571972 C110.35525,140.223354 110.093475,141.121505 109.054776,140.85773 C108.502131,140.717397 107.937834,140.386946 107.98345,139.705516 C108.046015,138.770966 108.530172,137.972177 109.404533,137.658725 C110.387149,137.306462 110.865318,137.896634 110.91953,138.97328 Z" id="Path" fill="#000000" fill-rule="nonzero" transform="translate(109.450194, 139.230862) rotate(2.000000) translate(-109.450194, -139.230862) "></path>
        <path d="M97.5195848,145.53274 C96.7821113,146.093604 96.1816221,145.983481 95.7553716,145.318423 C95.3008927,144.609316 95.3947085,143.903409 96.0109646,143.292974 C96.4613031,142.846927 96.9829252,142.356474 97.6078993,142.758488 C98.3042866,143.206451 98.4182282,143.988291 98.155813,144.75808 C98.0635528,145.028709 97.7904265,145.23739 97.5195848,145.53274 Z" id="Path" fill="#000000" fill-rule="nonzero" transform="translate(96.878164, 144.251380) rotate(2.000000) translate(-96.878164, -144.251380) "></path>
        <path d="M93.4375588,114.649523 C93.3898488,114.498196 93.3703362,114.430545 93.358404,114.361573 C93.224908,113.589941 93.5933696,113.063454 94.2312445,112.728155 C94.6019791,112.533278 94.9383888,112.752859 95.1129956,113.083019 C95.454474,113.728707 95.39458,114.369229 94.9374009,114.953188 C94.3907099,115.651486 93.9954457,115.59063 93.4375588,114.649523 Z" id="Path" fill="#000000" fill-rule="nonzero" transform="translate(94.331203, 114.039307) rotate(2.000000) translate(-94.331203, -114.039307) "></path>
        <path d="M101.160311,140.689598 C101.087366,140.907489 101.051668,141.038288 100.984573,141.150149 C100.36395,142.184784 99.4100573,142.618146 98.8851702,142.037418 C98.1720517,141.248448 98.6445011,140.466623 99.1225819,139.761512 C99.4120342,139.334599 99.8754578,139.096308 100.386474,139.238299 C101.04205,139.420456 101.202345,139.972419 101.160311,140.689598 Z" id="Path" fill="#000000" fill-rule="nonzero" transform="translate(99.843656, 140.747341) rotate(2.000000) translate(-99.843656, -140.747341) "></path>
        <path d="M59.1852059,103.769431 C60.0783641,103.743972 60.8642648,103.717586 61.6485288,103.742656 C62.0078387,103.754139 62.3733388,103.900458 62.3718122,104.342744 C62.370584,104.69565 62.06278,104.847255 61.7638074,104.945854 C60.7141303,105.29201 59.5953249,105.10377 58.6893004,104.741412 C57.8656918,104.41201 58.536719,103.96736 59.1852059,103.769431 Z" id="Path" fill="#000000" fill-rule="nonzero" transform="translate(60.339755, 104.430704) rotate(2.000000) translate(-60.339755, -104.430704) "></path>
        <path d="M51.7907595,105.642151 C51.2931527,105.626453 50.8136865,105.72268 50.780589,105.142578 C50.7515423,104.633203 51.1611591,104.542579 51.5605912,104.419697 C53.4347599,103.843136 53.7864456,103.927791 54.3356233,105.222246 C53.5159039,105.36258 52.7101769,105.500518 51.7907595,105.642151 Z" id="Path" fill="#000000" fill-rule="nonzero" transform="translate(52.557377, 104.860543) rotate(2.000000) translate(-52.557377, -104.860543) "></path>
        <path d="M67.9412169,105.552459 C68.190879,105.93032 68.6893611,106.219369 68.2433088,106.607284 C67.9050566,106.901456 67.4995881,106.775318 67.2263645,106.393494 C66.725144,105.693028 65.677541,105.830966 65.0431521,104.922574 C66.2366115,104.333587 67.0806459,104.749756 67.9412169,105.552459 Z" id="Path" fill="#000000" fill-rule="nonzero" transform="translate(66.732664, 105.707592) rotate(2.000000) translate(-66.732664, -105.707592) "></path>
        <path d="M44.3193156,107.379996 C44.6628503,107.098849 44.9354058,106.855028 45.2541397,106.724578 C45.736883,106.52699 46.4563898,105.897933 46.7072958,106.692507 C47.0019095,107.625499 45.9156832,107.785022 45.3224577,108.111217 C44.7518697,108.42497 44.1503759,108.452346 44.3193156,107.379996 Z" id="Path" fill="#000000" fill-rule="nonzero" transform="translate(45.523689, 107.301005) rotate(2.000000) translate(-45.523689, -107.301005) "></path>
        <path d="M71.7072246,108.914138 C71.3588122,108.910167 71.0494444,108.953096 70.8608485,108.821768 C70.3767562,108.484667 69.6982831,108.230126 69.7552661,107.488916 C69.7851148,107.100814 70.2630819,107.02886 70.4784879,107.220122 C71.0070293,107.689403 72.2007316,107.66979 71.7072246,108.914138 Z" id="Path" fill="#000000" fill-rule="nonzero" transform="translate(70.788087, 108.018046) rotate(2.000000) translate(-70.788087, -108.018046) "></path>
        <path d="M32.0917058,62.6561096 C31.4357893,62.1487892 31.8975438,61.8796214 32.2354597,61.6210357 C32.6130886,61.3320728 33.0062254,60.9663567 33.5333488,61.1723823 C34.0052879,61.3568342 33.8623442,61.7303788 33.6709573,62.0449682 C33.3312953,62.6032735 32.7802461,62.7032693 32.0917058,62.6561096 Z" id="Path" fill="#000000" fill-rule="nonzero" transform="translate(32.805341, 61.889290) rotate(2.000000) translate(-32.805341, -61.889290) "></path>
        <path d="M20.7927476,106.018145 C20.8635613,106.28659 20.9164365,106.458044 20.9218731,106.631 C20.9341803,107.022285 20.9880156,107.478621 20.4826752,107.595257 C20.1448767,107.673221 19.9260554,107.395721 19.7744708,107.116093 C19.5481955,106.698657 19.5324408,106.248534 19.7953787,105.865743 C20.1019875,105.419364 20.4531425,105.552754 20.7927476,106.018145 Z" id="Path" fill="#000000" fill-rule="nonzero" transform="translate(20.265556, 106.600169) rotate(2.000000) translate(-20.265556, -106.600169) "></path>
        <path d="M55.570576,38.1783623 C55.7918725,37.5913937 55.9757203,37.0647283 56.6237534,37.064107 C56.9167465,37.063827 57.0434169,37.3233101 57.0763929,37.6109493 C57.1383263,38.1512094 56.8891179,38.5776351 56.4769083,38.8389698 C55.8751471,39.2204734 55.4743944,39.0861169 55.570576,38.1783623 Z" id="Path" fill="#000000" fill-rule="nonzero" transform="translate(56.321062, 38.051595) rotate(2.000000) translate(-56.321062, -38.051595) "></path>
        <path d="M73.3408425,109.277596 C74.4601825,109.132657 74.8197922,109.676052 74.8311112,110.906724 C74.1479549,110.308747 72.7248131,110.915755 73.3408425,109.277596 Z" id="Path" fill="#000000" fill-rule="nonzero" transform="translate(74.010458, 110.080715) rotate(2.000000) translate(-74.010458, -110.080715) "></path>
        <path d="M25.6889831,68.975091 C25.1056384,69.351726 24.7823306,69.1401212 24.8980225,68.616014 C25.0568913,67.8962845 25.4035697,67.2295619 26.3152172,67.08626 C26.7125751,67.9530514 26.0641289,68.3752786 25.6889831,68.975091 Z" id="Path" fill="#000000" fill-rule="nonzero" transform="translate(25.657199, 68.126232) rotate(2.000000) translate(-25.657199, -68.126232) "></path>
        <path d="M111.463721,62.3374586 C111.080987,62.4946355 110.720373,62.5548254 110.701292,62.1208266 C110.67803,61.591713 110.916285,61.1026326 111.320975,60.7494678 C111.552951,60.5470356 111.818161,60.6732953 112.002738,60.8826547 C112.275119,61.1916121 112.235151,61.5152076 111.980052,61.8168721 C111.841236,61.9810331 111.685649,62.1309498 111.463721,62.3374586 Z" id="Path" fill="#000000" fill-rule="nonzero" transform="translate(111.444813, 61.550999) rotate(2.000000) translate(-111.444813, -61.550999) "></path>
        <path d="M37.0174331,112.984477 C36.9866892,113.164256 36.9710558,113.256991 36.9225599,113.326784 C36.6547122,113.712247 36.4296037,114.297953 35.8275871,113.964823 C35.3132045,113.680177 35.5191228,113.173116 35.7870518,112.817027 C36.1925526,112.278059 36.6430124,112.231679 37.0174331,112.984477 Z" id="Path" fill="#000000" fill-rule="nonzero" transform="translate(36.264100, 113.239391) rotate(2.000000) translate(-36.264100, -113.239391) "></path>
        <path d="M20.4099073,94.724434 C20.6651844,95.1552046 20.9234958,95.5377192 20.4770261,95.8565396 C20.1317696,96.1030897 19.7977873,95.8646284 19.5112316,95.6550861 C19.1611784,95.399099 19.1500014,95.0554281 19.37575,94.7203165 C19.6556375,94.3048299 19.9937238,94.2498009 20.4099073,94.724434 Z" id="Path" fill="#000000" fill-rule="nonzero" transform="translate(19.971931, 95.174836) rotate(2.000000) translate(-19.971931, -95.174836) "></path>
        <path d="M95.5692825,22.5119208 C95.7287021,23.0947277 95.4915578,23.3189567 95.0559653,23.1268588 C94.56023,22.9082352 93.8924194,23.1551611 93.4429557,22.5322074 C94.1513991,21.7704063 94.8246385,21.9413913 95.5692825,22.5119208 Z" id="Path" fill="#000000" fill-rule="nonzero" transform="translate(94.531024, 22.607458) rotate(2.000000) translate(-94.531024, -22.607458) "></path>
        <path d="M123.388332,46.5972321 C122.99641,46.0279794 123.292515,45.8025403 123.731672,45.6828507 C124.100275,45.5823919 124.435951,45.6644117 124.650061,46.0192128 C124.799417,46.2667375 124.831292,46.5542914 124.631944,46.7594036 C124.22445,47.1787028 123.831913,46.9323841 123.388332,46.5972321 Z" id="Path" fill="#000000" fill-rule="nonzero" transform="translate(123.988664, 46.311906) rotate(2.000000) translate(-123.988664, -46.311906) "></path>
        <path d="M66.3664446,30.9029937 C66.0722445,31.6244245 65.6028655,31.4766194 65.0633539,31.3028753 C64.9826312,30.7798201 64.861203,30.1953931 65.5489694,30.0243698 C66.0640935,29.8962747 66.3454679,30.2854488 66.3664446,30.9029937 Z" id="Path" fill="#000000" fill-rule="nonzero" transform="translate(65.683222, 30.722804) rotate(2.000000) translate(-65.683222, -30.722804) "></path>
        <path d="M138.932678,62.5077941 C138.836116,62.3044119 138.771784,62.1775473 138.775025,62.0524369 C138.787697,61.563543 138.536819,60.9387053 139.290814,60.7769603 C139.572512,60.7165309 139.87667,60.9706581 139.840242,61.2102037 C139.756384,61.76174 140.044419,62.6108396 138.932678,62.5077941 Z" id="Path" fill="#000000" fill-rule="nonzero" transform="translate(139.294029, 61.642152) rotate(2.000000) translate(-139.294029, -61.642152) "></path>
        <path d="M105.932678,32.5077941 C105.836116,32.3044119 105.771784,32.1775473 105.775025,32.0524369 C105.787697,31.563543 105.536819,30.9387053 106.290814,30.7769603 C106.572512,30.7165309 106.87667,30.9706581 106.840242,31.2102037 C106.756384,31.76174 107.044419,32.6108396 105.932678,32.5077941 Z" id="Path" fill="#000000" fill-rule="nonzero" transform="translate(106.294029, 31.642152) rotate(2.000000) translate(-106.294029, -31.642152) "></path>
        <path d="M158.247265,107.364208 C157.668895,107.02385 157.441254,106.612343 157.998202,106.220489 C158.444911,105.906184 158.88833,106.21508 159.055868,106.628342 C159.310392,107.256237 158.784313,107.320979 158.247265,107.364208 Z" id="Path" fill="#000000" fill-rule="nonzero" transform="translate(158.400313, 106.727906) rotate(2.000000) translate(-158.400313, -106.727906) "></path>
        <path d="M111.559454,113.172761 C111.80112,113.800925 111.664816,114.213187 111.055884,114.315823 C110.715136,114.373264 110.432644,114.160993 110.44722,113.801916 C110.474443,113.131035 110.849512,112.885776 111.559454,113.172761 Z" id="Path" fill="#000000" fill-rule="nonzero" transform="translate(111.059550, 113.689839) rotate(2.000000) translate(-111.059550, -113.689839) "></path>
        <path d="M144.647385,65.5385323 C144.251737,65.1162524 144.022168,64.6902002 144.562814,64.3899977 C144.979139,64.1588207 145.373459,64.4302462 145.469746,64.8617558 C145.58987,65.4000585 145.335881,65.7114155 144.647385,65.5385323 Z" id="Path" fill="#000000" fill-rule="nonzero" transform="translate(144.871434, 64.945951) rotate(2.000000) translate(-144.871434, -64.945951) "></path>
        <path d="M104.647385,65.5385323 C104.251737,65.1162524 104.022168,64.6902002 104.562814,64.3899977 C104.979139,64.1588207 105.373459,64.4302462 105.469746,64.8617558 C105.58987,65.4000585 105.335881,65.7114155 104.647385,65.5385323 Z" id="Path" fill="#000000" fill-rule="nonzero" transform="translate(104.871434, 64.945951) rotate(2.000000) translate(-104.871434, -64.945951) "></path>
        <path d="M20.7729679,100.163321 C20.5217053,100.819194 20.1554236,100.902006 19.7649362,100.44558 C19.5015406,100.137707 19.5562794,99.7150742 19.8954186,99.5149607 C20.4489188,99.1883602 20.6937521,99.5445866 20.7729679,100.163321 Z" id="Path" fill="#000000" fill-rule="nonzero" transform="translate(20.185936, 100.062058) rotate(2.000000) translate(-20.185936, -100.062058) "></path>
        <path d="M97.4099073,94.724434 C97.6651844,95.1552046 97.9234958,95.5377192 97.4770261,95.8565396 C97.1317696,96.1030897 96.7977873,95.8646284 96.5112316,95.6550861 C96.1611784,95.399099 96.1500014,95.0554281 96.37575,94.7203165 C96.6556375,94.3048299 96.9937238,94.2498009 97.4099073,94.724434 Z" id="Path" fill="#000000" fill-rule="nonzero" transform="translate(96.971931, 95.174836) rotate(2.000000) translate(-96.971931, -95.174836) "></path>
        <path d="M97.7729679,100.163321 C97.5217053,100.819194 97.1554236,100.902006 96.7649362,100.44558 C96.5015406,100.137707 96.5562794,99.7150742 96.8954186,99.5149607 C97.4489188,99.1883602 97.6937521,99.5445866 97.7729679,100.163321 Z" id="Path" fill="#000000" fill-rule="nonzero" transform="translate(97.185936, 100.062058) rotate(2.000000) translate(-97.185936, -100.062058) "></path>
        <path d="M158.792748,106.018145 C158.863561,106.28659 158.916437,106.458044 158.921873,106.631 C158.93418,107.022285 158.988016,107.478621 158.482675,107.595257 C158.144877,107.673221 157.926055,107.395721 157.774471,107.116093 C157.548195,106.698657 157.532441,106.248534 157.795379,105.865743 C158.101987,105.419364 158.453142,105.552754 158.792748,106.018145 Z" id="Path" fill="#000000" fill-rule="nonzero" transform="translate(158.265556, 106.600169) rotate(2.000000) translate(-158.265556, -106.600169) "></path>
        <path d="M158.409907,94.724434 C158.665184,95.1552046 158.923496,95.5377192 158.477026,95.8565396 C158.13177,96.1030897 157.797787,95.8646284 157.511232,95.6550861 C157.161178,95.399099 157.150001,95.0554281 157.37575,94.7203165 C157.655638,94.3048299 157.993724,94.2498009 158.409907,94.724434 Z" id="Path" fill="#000000" fill-rule="nonzero" transform="translate(157.971931, 95.174836) rotate(2.000000) translate(-157.971931, -95.174836) "></path>
        <path d="M158.772968,100.163321 C158.521705,100.819194 158.155424,100.902006 157.764936,100.44558 C157.501541,100.137707 157.556279,99.7150742 157.895419,99.5149607 C158.448919,99.1883602 158.693752,99.5445866 158.772968,100.163321 Z" id="Path" fill="#000000" fill-rule="nonzero" transform="translate(158.185936, 100.062058) rotate(2.000000) translate(-158.185936, -100.062058) "></path>
        <path d="M119.897202,42.4059504 C119.622812,41.9016751 119.625162,41.5102192 120.01663,41.1748925 C120.70109,41.2859574 120.764498,41.7655078 120.669135,42.251884 C120.593314,42.638524 120.280503,42.6673623 119.897202,42.4059504 Z" id="Path" fill="#000000" fill-rule="nonzero" transform="translate(120.204624, 41.875846) rotate(2.000000) translate(-120.204624, -41.875846) "></path>
        <path d="M72.0153812,23.9977501 C71.9918361,23.5558208 71.9391796,23.1488818 72.3696352,23.0194692 C72.6625716,22.9313953 72.892489,23.1546336 72.9344179,23.4375789 C72.9839713,23.7719717 73.1198294,24.1893767 72.7716602,24.4183245 C72.4409998,24.6357562 72.2086842,24.3668972 72.0153812,23.9977501 Z" id="Path" fill="#000000" fill-rule="nonzero" transform="translate(72.501179, 23.748127) rotate(2.000000) translate(-72.501179, -23.748127) "></path>
        <path d="M18.0298989,81.6727223 C17.3856966,84.0342699 16.6939351,86.3910507 17.1438669,88.9751303 C18.2049898,88.9663392 19.148029,89.106276 20.0934346,88.8045237 C20.5924292,88.6452535 20.9998576,88.4326319 21,87.8748756 C21.0006937,85.1027101 19.9092888,82.6170646 18.9661525,80 C18.3243345,80.4641579 18.292018,81.0082281 18.0298989,81.6727223 Z" id="Shape-path" fill="#B1B180"></path>
        <path d="M43.0298989,57.6727223 C42.3856966,60.0342699 41.6939351,62.3910507 42.1438669,64.9751303 C43.2049898,64.9663392 44.148029,65.106276 45.0934346,64.8045237 C45.5924292,64.6452535 45.9998576,64.4326319 46,63.8748756 C46.0006937,61.1027101 44.9092888,58.6170646 43.9661525,56 C43.3243345,56.4641579 43.292018,57.0082281 43.0298989,57.6727223 Z" id="Shape-path" fill-opacity="0.234211101" fill="#0BC20B"></path>
        <path d="M96.0298989,77.6727223 C95.3856966,80.0342699 94.6939351,82.3910507 95.1438669,84.9751303 C96.2049898,84.9663392 97.148029,85.106276 98.0934346,84.8045237 C98.5924292,84.6452535 98.9998576,84.4326319 99,83.8748756 C99.0006937,81.1027101 97.9092888,78.6170646 96.9661525,76 C96.3243345,76.4641579 96.292018,77.0082281 96.0298989,77.6727223 Z" id="Shape-path" fill="#6B9D9D"></path>
        <path d="M158.029899,77.6727223 C157.385697,80.0342699 156.693935,82.3910507 157.143867,84.9751303 C158.20499,84.9663392 159.148029,85.106276 160.093435,84.8045237 C160.592429,84.6452535 160.999858,84.4326319 161,83.8748756 C161.000694,81.1027101 159.909289,78.6170646 158.966153,76 C158.324335,76.4641579 158.292018,77.0082281 158.029899,77.6727223 Z" id="Shape-path" fill="#9D6B9D"></path>
        <path d="M126.772424,57.3010063 C126.289272,59.1377655 125.770451,60.9708172 126.1079,62.9806569 C126.903742,62.9738194 127.611022,63.0826591 128.320076,62.8479629 C128.694322,62.7240861 128.999893,62.5587137 129,62.1249032 C129.00052,59.9687745 128.181967,58.0354947 127.474614,56 C126.993251,56.3610117 126.969013,56.7841774 126.772424,57.3010063 Z" id="Shape-path" fill-opacity="0.577933785" fill="#00009D"></path>
        <path d="M22.5937793,136 C24.0097765,135.674306 25.2306351,135.202481 26.4724568,134.847182 C27.3567822,134.594172 28.1308729,133.922703 27.981401,132.719262 C27.5954131,129.611584 27.0959081,126.525286 25.8033473,123.632351 C25.1732671,122.222139 24.3134679,120.87833 22.6353471,120 C21.9617531,121.464127 20.7421964,122.530805 21.0484433,124.413901 C21.5588448,128.240617 22.0692465,132.067325 22.5937793,136 Z" id="Path" fill="#B1B180"></path>
        <g id="Group-2" transform="translate(61.000000, 111.000000)" fill-rule="nonzero">
            <g id="Group">
                <path d="M4.40415089,50.8927161 C4.28136221,45.9406161 4.26366318,40.9821382 4.18174299,36.0285088 C4.10801079,31.5697131 4.12285646,27.0986358 4.1340158,22.633554 C4.14655169,17.6187777 4.1986544,9.21875 4.43718001,9.21875 C5.53463947,9.21875 5.35883246,4.76953925 5.40139641,3.54273264 C5.45359565,2.03822639 5.9654543,3.58369867 6.53810375,3.54273264 C7.73351649,3.45720672 6.72986327,4.63051525 6.74204461,7.64459051 C6.75888124,11.808228 7.17872556,15.788547 6.31697192,18.7626953 C6.02643212,19.7654279 6.31078668,28.0584793 6.42051373,33.3068466 C6.51268354,37.7156909 6.70952935,42.1104798 6.70994883,46.5333031 C6.71023243,49.5732715 6.6526514,52.6028398 6.53810375,55.6339069 C6.399601,59.2991396 6.60259071,62.9676297 6.61666845,66.6362729 C6.62577199,69.0082142 6.60200581,71.3776168 6.74204461,73.7356402 C6.77135789,74.2292197 6.80088391,74.7151063 6.84444624,75.2028587 C6.9343357,76.2091206 6.71517111,76.8359447 6.31697192,76.716083 C6.14261622,76.6635926 5.96229383,76.5640263 5.8036758,76.3775576 C5.44906256,75.9606484 6.63393028,78.9795899 6.42051373,80.1511227 C6.37790254,80.38505 5.7308856,80.2375665 5.62475032,80.1511227 C5.43668903,79.9979649 4.14563015,77.5747543 4.1340158,77.1633207 C4.09178268,75.6671192 4.35248331,73.1664145 4.33549908,71.6673532 C4.31612231,69.9573059 4.32389663,68.2451938 4.31998586,66.408647 C4.36515509,61.153015 4.53126975,56.0191567 4.40415089,50.8927161 Z" id="Path" fill="#FFFFFF"></path>
                <path d="M2.0331353,26.6619398 C2.02053628,19.0843474 2.00752415,11.6363687 2.00006165,4.18839007 C1.99791485,1.96250242 2.03937388,1.92463358 4.17570684,1.56181283 C4.56772559,1.49523561 4.96031939,1.41686634 5.34195095,1.30670282 C7.20711011,0.768343095 7.20920034,0.778933105 7.16392511,2.66532384 C7.02983307,8.25216039 7.37530433,13.8281717 7.5379407,19.4087064 C7.59973631,21.5294167 7.52895532,23.650452 7.64237041,25.7766605 C7.93499056,31.2619258 8.10057604,36.7538586 8.3384821,42.2422021 C8.65293808,49.4963773 8.80641065,56.76405 9.37816093,63.9982148 C9.75705392,68.7921019 9.32304967,73.5609269 9.54798396,78.3370282 C9.66748391,80.8744192 8.50193646,81.4464897 5.74841576,81.4683012 C5.31672875,81.4716814 4.88611088,81.2863404 4.45083438,81.2130714 C2.55131365,80.8932113 2.54131568,80.8965412 2.53817992,78.8732358 C2.53053954,73.9513758 2.70908059,69.0215894 2.48926689,64.1095396 C2.16027537,56.7580891 2.4612331,49.4070122 2.2344515,42.0577869 C2.07751927,36.9718468 2.09521445,31.8804819 2.0331353,26.6619398 M5.46524269,80.0837918 C7.74371295,80.058405 8.23758479,79.7681062 8.26575637,78.3605795 C8.31707584,75.7965354 8.44185037,73.2285764 8.35645287,70.668268 C8.16060558,64.7963623 7.85908075,58.9279326 7.59592009,53.0583171 C7.39372086,48.5483133 7.17719662,44.0389432 6.98043391,39.528712 C6.73740726,33.9581988 6.32123572,28.3870359 6.32329383,22.816271 C6.32555425,16.6984243 5.78712029,10.6074423 5.73747767,4.49669363 C5.73078536,3.67284272 5.5732048,2.75254513 4.41593014,2.71783507 C3.19475291,2.68119249 3.16472606,3.5018841 3.17799731,4.42708723 C3.2680537,10.7047094 3.34985403,16.9825836 3.3979812,23.2606526 C3.43296669,27.8251655 3.37375566,32.3905556 3.42466999,36.9547761 C3.51747292,45.2765914 3.70126413,53.5976593 3.57203355,61.9205303 C3.5527016,63.1654065 3.97290785,64.3554972 3.89817286,65.6141141 C3.64607985,69.8596279 3.68654248,74.1112327 3.7767364,78.3610343 C3.79634393,79.2847675 4.19748559,79.9880596 5.46524269,80.0837918 Z" id="Shape" fill="#000000" transform="translate(5.778144, 41.234173) rotate(2.000000) translate(-5.778144, -41.234173) "></path>
            </g>
            <g id="Group" transform="translate(67.000000, 1.000000)">
                <path d="M4.40415089,50.8927161 C4.28136221,45.9406161 4.26366318,40.9821382 4.18174299,36.0285088 C4.10801079,31.5697131 4.12285646,27.0986358 4.1340158,22.633554 C4.14655169,17.6187777 4.1986544,9.21875 4.43718001,9.21875 C5.53463947,9.21875 5.35883246,4.76953925 5.40139641,3.54273264 C5.45359565,2.03822639 5.9654543,3.58369867 6.53810375,3.54273264 C7.73351649,3.45720672 6.72986327,4.63051525 6.74204461,7.64459051 C6.75888124,11.808228 7.17872556,15.788547 6.31697192,18.7626953 C6.02643212,19.7654279 6.31078668,28.0584793 6.42051373,33.3068466 C6.51268354,37.7156909 6.70952935,42.1104798 6.70994883,46.5333031 C6.71023243,49.5732715 6.6526514,52.6028398 6.53810375,55.6339069 C6.399601,59.2991396 6.60259071,62.9676297 6.61666845,66.6362729 C6.62577199,69.0082142 6.60200581,71.3776168 6.74204461,73.7356402 C6.77135789,74.2292197 6.80088391,74.7151063 6.84444624,75.2028587 C6.9343357,76.2091206 6.71517111,76.8359447 6.31697192,76.716083 C6.14261622,76.6635926 5.96229383,76.5640263 5.8036758,76.3775576 C5.44906256,75.9606484 6.63393028,78.9795899 6.42051373,80.1511227 C6.37790254,80.38505 5.7308856,80.2375665 5.62475032,80.1511227 C5.43668903,79.9979649 4.14563015,77.5747543 4.1340158,77.1633207 C4.09178268,75.6671192 4.35248331,73.1664145 4.33549908,71.6673532 C4.31612231,69.9573059 4.32389663,68.2451938 4.31998586,66.408647 C4.36515509,61.153015 4.53126975,56.0191567 4.40415089,50.8927161 Z" id="Path" fill="#FFFFFF"></path>
                <path d="M2.0331353,26.6619398 C2.02053628,19.0843474 2.00752415,11.6363687 2.00006165,4.18839007 C1.99791485,1.96250242 2.03937388,1.92463358 4.17570684,1.56181283 C4.56772559,1.49523561 4.96031939,1.41686634 5.34195095,1.30670282 C7.20711011,0.768343095 7.20920034,0.778933105 7.16392511,2.66532384 C7.02983307,8.25216039 7.37530433,13.8281717 7.5379407,19.4087064 C7.59973631,21.5294167 7.52895532,23.650452 7.64237041,25.7766605 C7.93499056,31.2619258 8.10057604,36.7538586 8.3384821,42.2422021 C8.65293808,49.4963773 8.80641065,56.76405 9.37816093,63.9982148 C9.75705392,68.7921019 9.32304967,73.5609269 9.54798396,78.3370282 C9.66748391,80.8744192 8.50193646,81.4464897 5.74841576,81.4683012 C5.31672875,81.4716814 4.88611088,81.2863404 4.45083438,81.2130714 C2.55131365,80.8932113 2.54131568,80.8965412 2.53817992,78.8732358 C2.53053954,73.9513758 2.70908059,69.0215894 2.48926689,64.1095396 C2.16027537,56.7580891 2.4612331,49.4070122 2.2344515,42.0577869 C2.07751927,36.9718468 2.09521445,31.8804819 2.0331353,26.6619398 M5.46524269,80.0837918 C7.74371295,80.058405 8.23758479,79.7681062 8.26575637,78.3605795 C8.31707584,75.7965354 8.44185037,73.2285764 8.35645287,70.668268 C8.16060558,64.7963623 7.85908075,58.9279326 7.59592009,53.0583171 C7.39372086,48.5483133 7.17719662,44.0389432 6.98043391,39.528712 C6.73740726,33.9581988 6.32123572,28.3870359 6.32329383,22.816271 C6.32555425,16.6984243 5.78712029,10.6074423 5.73747767,4.49669363 C5.73078536,3.67284272 5.5732048,2.75254513 4.41593014,2.71783507 C3.19475291,2.68119249 3.16472606,3.5018841 3.17799731,4.42708723 C3.2680537,10.7047094 3.34985403,16.9825836 3.3979812,23.2606526 C3.43296669,27.8251655 3.37375566,32.3905556 3.42466999,36.9547761 C3.51747292,45.2765914 3.70126413,53.5976593 3.57203355,61.9205303 C3.5527016,63.1654065 3.97290785,64.3554972 3.89817286,65.6141141 C3.64607985,69.8596279 3.68654248,74.1112327 3.7767364,78.3610343 C3.79634393,79.2847675 4.19748559,79.9880596 5.46524269,80.0837918 Z" id="Shape" fill="#000000" transform="translate(5.778144, 41.234173) rotate(2.000000) translate(-5.778144, -41.234173) "></path>
            </g>
        </g>
    </g>
</svg>