<?xml version="1.0" encoding="UTF-8"?>
<svg width="227px" height="155px" viewBox="0 0 227 155" version="1.1" xmlns="http://www.w3.org/2000/svg" xmlns:xlink="http://www.w3.org/1999/xlink">
    <!-- Generator: Sketch 63.1 (92452) - https://sketch.com -->
    <title>Group 3</title>
    <desc>Created with Sketch.</desc>
    <g id="Page-1" stroke="none" stroke-width="1" fill="none" fill-rule="evenodd">
        <g id="Group-3" fill-rule="nonzero">
            <g id="Group-2">
                <g id="Group" transform="translate(33.436407, 18.681871)" fill="#000000">
                    <path d="M104.996245,44.2151416 C105.444469,46.6520326 105.26139,49.0738694 105.870421,51.3909321 C106.039383,52.0337304 105.651289,52.5694725 105.672017,53.2843852 C106.559389,53.1390432 107.451567,52.8785367 108.163529,53.7283634 C110.813396,49.8872729 113.268121,46.0368237 115.089139,41.7953928 C114.080947,43.3517109 113.027949,44.881015 112.076849,46.4717682 C111.080769,48.1377553 110.183574,49.8633474 109.239994,51.5611125 C109.14086,51.7394828 109.03336,51.9162338 108.907162,52.0756986 C108.676962,52.3665513 108.395596,52.5455406 108.027994,52.3139175 C107.650917,52.0763239 107.697328,51.7429652 107.894164,51.4234416 C110.108841,47.8284661 112.168525,44.1388883 114.582541,40.6652228 C116.037787,38.5711995 117.378749,36.3928641 118.687766,34.2022128 C119.383693,33.0375798 120.20872,31.9648045 120.956971,30.8385637 C120.880558,30.7676525 120.804144,30.6967446 120.72773,30.6258334 C120.62053,30.9141948 120.513329,31.2025562 120.406116,31.4909175 C120.312161,31.4120886 120.218194,31.3332565 120.124239,31.2544273 C120.076309,30.7614289 120.454767,30.4593792 120.731291,30.1107472 C121.572688,29.0499284 122.270321,27.8433268 123.115428,26.8429599 C124.011988,25.7816784 124.5797,24.6267356 125.185719,23.4482516 C125.386102,23.0585798 126.039105,23.2741731 126.057193,22.6612587 C125.902486,22.2615246 125.469687,22.1807856 125.103927,22.0439274 C123.401089,21.4067685 121.999524,20.2424417 120.427503,19.377792 C119.956286,19.1186016 119.96322,18.6523544 119.997841,18.2053159 C120.100137,16.8848535 119.525366,15.9635062 118.497765,15.1590645 C117.300169,14.2215407 116.220543,13.1316728 115.094306,12.1028632 C114.94657,11.9679024 114.789099,11.8205724 114.843702,11.5807407 C115.022984,11.2668875 115.352666,11.5159657 115.578346,11.3855374 C115.774572,10.5442696 115.732742,9.7278276 115.412783,8.8573825 C114.507384,9.33006263 115.345308,9.88421953 115.239365,10.3481942 C114.32011,9.64843587 114.246012,9.32738696 114.915285,8.43052487 C115.192742,8.05871903 115.083574,7.56994968 115.416207,7.2217977 C116.134257,6.47027129 116.979911,6.28337358 118.001649,6.32315702 C122.027261,6.47990213 125.678063,7.98657317 129.338252,9.43470857 C132.627277,10.7359936 135.87954,12.1257949 138.559273,14.5606854 C140.049888,15.9151109 141.31959,17.4756834 142.691912,18.9374461 C143.788855,20.1058772 143.788818,21.201828 143.035649,22.0963926 C143.173749,22.2289776 143.484333,22.099681 143.511498,22.3783302 C143.541264,22.683437 143.285854,22.8381005 143.066286,22.8476406 C141.236354,22.92717 139.479561,23.8300181 137.642134,23.5027206 C136.234818,23.2520387 134.9628,23.6141965 133.675581,23.8672633 C133.480576,24.0799028 133.93129,24.1131842 133.706705,24.3453263 C131.735049,24.1195205 129.654202,24.3991356 127.762135,23.4260045 C127.306466,23.1916462 127.035533,23.3185768 126.730824,23.693063 C125.888393,24.7283931 125.19269,25.8648056 124.532505,27.0120649 C123.293776,29.1647146 121.85754,31.18577 120.530185,33.2786275 C118.533308,36.4271366 117.079456,39.8510378 115.440919,43.182681 C113.466438,47.1974276 110.921543,50.873614 108.601308,54.6830578 C108.408319,54.9999243 108.242532,55.33544 108.086655,55.6727998 C107.709255,56.4895419 107.290697,57.3736097 106.490756,57.7471486 C103.559585,59.1159064 102.101077,61.9078376 100.209147,64.2395671 C98.0428291,66.9094756 95.9317483,69.6191828 93.6671492,72.2120316 C92.3293059,73.7437989 91.2497663,75.5034007 90.0584821,77.1637425 C89.9034324,77.379855 89.8193749,77.6618051 89.4343062,77.7249732 C88.8097567,76.4794761 87.2905086,76.3328027 86.5037203,76.6049187 C84.5432136,77.2829833 82.7867008,76.4677102 80.9469023,76.4576135 C79.044067,76.4471731 77.1510416,76.3546589 75.2779413,75.9629895 C74.0358702,75.7032707 72.7785112,75.7949722 71.5241777,75.9374634 C70.910758,76.0071461 70.7092227,76.2410573 70.8861022,76.881386 C71.7172162,79.8902173 72.8467831,82.7544256 74.6180794,85.3498249 C75.4018115,86.4981815 76.0416672,87.7207844 76.4146913,89.1023395 C76.8002207,90.5301894 77.8303927,91.6541013 78.5903279,92.9009989 C79.1524131,93.8232777 79.6224418,94.8245544 80.4603906,95.4925722 C79.4292042,96.8146039 77.9751218,97.5523044 76.8521592,98.6234512 C76.9561667,99.0021856 77.204231,99.0372706 77.4380472,99.0315065 C80.3691996,98.9590607 83.2324784,99.6577249 86.1581034,99.7643307 C89.4201949,99.88319 92.6792489,99.8949558 95.9397782,99.9117357 C98.5838314,99.925352 101.223241,99.962813 103.853911,100.271665 C104.563558,100.354989 104.701247,100.64701 104.464773,101.298061 C104.063756,102.402105 103.232381,103.132366 102.279637,103.640737 C100.532549,104.572957 99.5353923,106.14176 98.5320547,107.721766 C97.9000795,108.716978 97.3336932,109.754203 96.6927419,110.849756 C98.0034208,111.353877 99.2829021,111.319529 100.476091,111.701652 C104.32478,112.934246 107.602826,115.107273 109.848963,118.404988 C111.650797,121.050402 112.933247,124.134442 111.520142,127.473569 C110.551687,129.762005 108.956897,131.627268 106.994828,133.156985 C106.359155,133.65259 105.548918,133.922593 104.950382,134.825954 C107.650905,135.08938 110.301507,134.738704 113.041369,135.354282 C112.538605,135.940914 112.106279,135.933812 111.670616,135.923246 C107.664263,135.82623 103.660312,135.751209 99.652042,135.955668 C96.1325552,136.13517 92.6082258,136.26687 89.0811014,136.191273 C88.8109644,136.185484 88.5396821,136.238087 88.2687982,136.262006 C87.8765025,136.296679 87.3250243,136.481995 87.2768456,135.90973 C87.2321403,135.378739 87.8343307,135.423427 88.2026178,135.336877 C88.5971231,135.244162 89.0086653,135.181419 89.4125138,135.182795 C89.9300552,135.18457 90.1219297,134.910166 90.1444194,134.393342 C90.7740481,134.47499 91.3612558,134.55115 91.9366928,134.625784 C92.0793055,134.163875 91.7605293,134.071511 91.5530805,133.937873 C87.2478824,131.164685 86.2457089,127.065864 87.5098837,122.239282 C88.330478,119.10629 90.2618723,116.812666 92.6206563,114.780004 C92.8525615,114.580158 93.0930257,114.390354 93.3264746,114.192259 C93.3472213,114.174654 93.3452481,114.130054 93.3603429,114.073625 C93.021822,113.816275 92.6637246,113.997703 92.312269,114.035589 C92.1055362,114.05787 91.8921244,114.057933 91.7935696,113.824228 C91.7010715,113.604889 91.7868843,113.412534 91.9631413,113.284409 C93.7019015,112.020607 94.5971479,110.112243 95.6984799,108.362338 C96.3428673,107.33848 97.163941,106.495262 98.1375184,105.779692 C99.6229668,104.687915 100.388205,103.114285 101.053296,101.382735 C100.229222,100.999387 99.4498781,101.01758 98.6845773,101.020056 C95.8650264,101.029196 93.04715,101.026533 90.2264292,101.137627 C87.0337983,101.263363 83.8487553,101.05124 80.7220248,100.264075 C79.8383312,100.041611 78.9143453,99.9741913 77.9931981,100.068243 C77.5451734,100.113994 77.0287024,100.120696 76.7155344,99.850468 C75.8837917,99.1327358 75.2453054,99.4960906 74.4363448,99.9349173 C71.8086998,101.360241 69.1989007,102.828703 66.4250264,103.966419 C65.3032528,104.426527 64.3501606,105.030526 63.4751006,105.992354 C62.0483879,107.560544 60.3562628,108.927189 58.5240522,110.037422 C53.8338662,112.87938 48.8396498,115.112725 43.8202331,117.285652 C41.8801993,118.125507 41.6788446,119.002648 43.1581553,120.752516 C44.4916635,122.329909 45.5595473,124.081089 46.2773012,125.999931 C47.1956349,128.455002 48.3781456,130.815996 48.9724588,133.391565 C49.0322215,133.650552 49.1583515,133.905263 49.3012754,134.131666 C49.7696858,134.873668 49.5833823,135.352781 48.7130966,135.378001 C45.1820507,135.480406 41.7152773,136.338103 38.1675776,136.252228 C37.3144375,136.231585 36.4547896,136.295416 35.667967,135.917682 C35.0689387,135.630111 34.5510578,135.19086 34.5638245,134.449445 C34.5773135,133.694115 35.2470163,133.600275 35.7804837,133.412008 C37.3178517,132.869464 38.9353745,132.98341 40.5205446,132.889557 C42.754419,132.757269 44.9914086,132.807709 47.2093074,133.274694 C47.5039041,132.639323 47.2975511,132.070321 47.1231896,131.613452 C45.8999822,128.408439 45.1420636,124.993903 43.0363424,122.176327 C42.3469509,121.253886 41.5269727,120.437662 41.1376307,119.296733 C40.6180196,117.774068 40.7910551,117.272161 42.2581532,116.695757 C47.1415242,114.777078 51.8059901,112.412082 56.3210085,109.742974 C56.5754097,109.592568 56.8824088,109.490514 57.0290677,109.177936 C56.6475158,108.753826 56.1602822,108.621263 55.6127316,108.525098 C53.9792239,108.23814 53.4551277,107.576061 53.2967356,105.912768 C52.9811587,102.598836 53.3978548,99.3094618 53.5178535,96.0074083 C53.641257,92.6115403 54.1920132,89.2986212 54.9337912,86.0109158 C56.5176263,78.9910327 59.0633302,72.3776293 63.3589175,66.5342484 C63.4777087,66.3726579 63.5683146,66.1901678 63.6655683,66.0282461 C63.5184925,65.5495828 63.0866954,65.4287604 62.7612026,65.2131545 C57.8466619,61.9577582 57.4517892,55.8850422 60.0768324,51.761189 C60.9549986,50.3816407 61.8931143,49.069018 62.954235,47.8095544 C64.4586062,46.0239825 66.2237526,44.566818 68.2062075,43.4899259 C71.3360067,41.7897662 74.7228589,40.9714612 78.3252579,41.7670721 C78.3719364,41.7773814 78.4013167,41.8666822 78.5239794,42.0383879 C77.176687,42.8176693 75.6125282,42.0762676 74.1483805,42.7814088 C75.9353318,43.5500371 77.8401467,43.024229 79.5913061,43.5994388 C79.2734697,44.1091546 78.860552,43.7410983 78.5175495,44.0065063 C78.9491847,44.3551944 79.5065639,44.6383138 79.3039146,45.3583278 C79.2332462,45.6094191 79.5481944,45.7361306 79.7153385,45.898115 C82.0896904,48.1990981 83.3040929,50.9843648 83.1953858,54.3200216 C83.1764256,54.9019209 83.2265029,55.3900995 83.6630119,55.9077238 C84.3989138,56.7803759 84.0773987,59.2393734 83.2765799,60.049376 C82.8684864,60.4621576 82.368243,60.589657 81.8788617,60.3503879 C81.3961533,60.114376 81.1516058,60.2991106 80.8397451,60.6226977 C79.8963696,61.6015117 78.9963737,62.6173924 77.966345,63.5188528 C75.756473,65.4528799 73.2506753,66.7245033 70.3624419,67.2094746 C69.7309643,67.3155052 69.4680293,67.6018942 69.5366871,68.2364898 C69.7088108,69.8273805 69.8609099,71.4204779 70.0363515,73.010981 C70.093587,73.5299058 70.2940765,73.861464 70.9333037,73.8753805 C76.6924225,74.0007166 82.3225292,75.0983524 87.9482666,76.2138496 C88.4828698,76.3198427 88.9304152,76.356672 89.2994556,75.8383473 C91.1030453,73.3052221 93.3593657,71.1559765 95.306315,68.7486191 C97.3612496,66.2077479 99.2634438,63.5422157 101.229204,60.9287487 C101.482858,60.5915261 101.71551,60.2499714 101.256817,59.8726811 C101.180914,59.8102382 101.175436,59.6119122 101.197035,59.4867636 C101.557131,57.4008424 102.146442,55.4262911 104.112806,54.2600294 C104.902601,53.7915878 105.021816,53.2150089 104.795724,52.3699024 C104.236901,50.2809991 104.431695,48.0995882 104.095166,45.9765251 C103.513872,42.3092912 103.14043,38.6152245 102.881747,34.9119773 C102.830867,34.1835262 102.430846,33.9007071 101.866558,33.8879065 C100.022713,33.8460756 99.0771279,32.6372266 98.3302394,31.2046724 C97.9430668,30.4620518 97.5347116,29.9564588 96.6898286,29.5803097 C94.9894497,28.823288 93.4660808,27.6935367 92.018217,26.5059502 C91.2440272,25.8709386 91.3205093,25.571224 92.2088528,25.1110224 C93.7416832,24.3169337 95.4239545,24.0363965 97.0866434,23.6995836 C100.924371,22.9221622 104.810526,22.7562267 108.708969,22.8851327 C110.335045,22.9388984 111.959327,23.1174874 113.578133,23.2967423 C114.629512,23.4131602 115.520544,24.1407329 115.468755,24.9733669 C115.414414,25.8474194 115.254105,26.7580666 114.161108,27.1383952 C113.366831,27.4147814 112.63251,27.8754612 111.815887,28.1253896 C111.653548,28.1750757 111.431055,28.192237 111.346312,28.3066138 C110.374883,29.6177267 108.800297,30.1706894 107.603797,31.2217523 C107.897849,31.5090039 108.063374,30.9594547 108.28669,31.2619639 C108.087514,32.3694212 106.294095,33.564582 104.191735,33.8875658 C104.457477,37.2895105 104.72429,40.7051156 104.996245,44.2151416 M70.4448001,100.770359 C72.5111131,99.7294456 74.5715814,98.6789672 76.3833566,97.2094304 C76.6460177,96.9963814 76.9194849,96.8184301 77.0012891,96.4369199 C77.4156822,94.5041369 76.931156,92.7898042 75.8262325,91.0752968 C75.7277275,91.5155989 76.1091736,91.7609323 75.8888087,92.0748853 C75.3590171,91.6405475 75.3513546,91.6443486 75.128251,91.1905551 C72.8853137,86.6284754 70.9936765,81.9272992 69.584455,77.0358055 C69.4717019,76.6444238 69.4016,76.2584185 68.9595383,76.0468951 C68.4925471,75.8234493 68.4689806,75.4065101 68.7558308,75.0191169 C68.9673191,74.7335095 68.9277367,74.4602057 68.8921941,74.1496722 C68.7177298,72.6252696 68.4418786,71.1000168 68.4278296,69.5729633 C68.4117077,67.8203385 67.632196,66.9190595 65.9803319,66.5455953 C65.3592496,66.4051736 64.9338451,66.4399648 64.5699154,66.9655541 C63.8723074,67.9730326 63.1677278,68.9756534 62.4642251,69.9790056 C61.0374813,72.0138555 60.338616,74.3917985 59.3722591,76.641079 C57.9329479,79.9912026 56.6448891,83.3944852 55.9656251,87.0028272 C55.4791445,89.5870545 55.0365227,92.1530079 55.4118437,94.8115631 C55.5777429,95.9867148 55.9101823,97.2180329 55.8071769,98.3407196 C55.6539511,100.010802 55.9947503,101.592258 56.1186268,103.205937 C56.2212275,104.54251 56.4443125,105.891312 57.0531509,107.266984 C61.4158773,104.864603 65.9923579,103.126314 70.4448001,100.770359 M81.4741855,54.117632 C81.5215612,52.1924636 81.4805532,50.2527974 80.329362,48.6156933 C78.4633329,45.9620333 75.9476067,44.4180626 72.6149962,44.4490715 C72.3447596,44.4515847 72.0453294,44.4873701 71.8088055,44.3885665 C70.8334355,43.9811302 69.9385936,44.2508643 69.0837636,44.6943799 C67.7116535,45.4062791 66.5163605,46.3492702 65.5627394,47.5874903 C65.3693335,47.8386128 65.0686709,48.3488663 64.8183719,48.0946554 C64.3720713,47.6413871 64.3322523,48.1081906 64.1615914,48.256102 C62.6356393,49.5786965 61.6567396,51.3084771 60.7831674,53.0781257 C59.6058138,55.4631643 59.2831285,57.9702693 60.3581116,60.4900908 C61.9633967,64.2529897 65.2897266,65.4000772 68.9263736,65.9978185 C69.4795201,66.0887322 70.0535316,66.0204688 70.6356786,65.9037538 C73.5029474,65.3288815 75.8732845,63.874993 77.9541384,61.8846995 C80.1070114,59.8255113 81.4247369,57.3637504 81.4741855,54.117632 M96.4541389,114.378725 C96.0702963,114.511901 95.6481724,114.581584 95.3085746,114.788131 C92.13191,116.720264 89.7323234,119.304122 88.6255821,122.951038 C87.7818943,125.731141 87.8056163,128.423843 89.62605,130.83624 C91.3566808,133.129614 93.8217196,133.7284 96.5499672,133.710757 C97.1085291,133.707144 97.4811736,133.264503 97.9062294,133.283971 C98.9048485,133.32971 99.3727859,132.737389 99.8438916,132.041788 C100.0321,131.763882 100.128594,131.376746 100.521687,131.253323 C100.684648,131.66124 100.300836,131.957276 100.399515,132.39694 C100.930409,131.844181 101.029281,131.252435 101.07197,130.632556 C101.09347,130.320366 100.961271,129.870998 101.488685,129.864784 C101.895515,129.859983 102.034137,130.206033 102.149804,130.539629 C102.223989,130.753616 102.083038,131.023831 102.363645,131.231116 C103.15761,130.776785 103.010111,129.623027 103.859576,129.096325 C104.043153,129.91915 103.261674,130.423608 103.32331,131.110657 C103.980433,131.470398 104.401007,131.277455 104.664745,130.66259 C104.83911,130.256097 104.998473,129.843041 105.176946,129.438461 C105.270216,129.22705 105.337094,128.954346 105.642549,128.973965 C105.921152,128.991882 106.036034,129.200855 106.091657,129.454591 C106.129154,129.625628 106.197464,129.780185 106.415637,129.793726 C106.699132,129.741011 106.904371,129.554545 107.041139,129.318214 C107.664836,128.24049 108.001128,126.977501 109.093988,126.200751 C109.213091,126.116114 109.214983,125.819291 109.216502,125.620459 C109.23769,122.848071 108.670725,120.270514 106.717109,118.166181 C105.742679,117.116553 104.772618,115.921108 103.416966,115.506063 C101.221735,114.833982 98.9481285,114.364384 96.4541389,114.378725 M136.594751,15.2252868 C130.775073,12.4385071 125.050557,9.3844894 118.405802,8.46406891 C118.475618,9.37330327 118.835439,9.83230147 119.256574,10.2933065 C120.277751,11.4111417 121.167103,12.6335322 122.347805,13.6246651 C123.491309,14.5845767 124.637614,15.5502119 125.972103,16.172229 C128.525201,17.3622507 131.143509,18.4126633 133.74577,19.4942661 C135.979259,20.4225999 138.281641,21.1256716 140.676472,21.500883 C141.317137,21.6012622 141.977958,21.5712409 142.304764,20.9660005 C142.581549,20.4534525 142.123975,20.0008718 141.811025,19.6142884 C140.387413,17.8556681 138.788402,16.2994656 136.594751,15.2252868 M102.812068,27.6537065 C102.632537,27.610866 102.403607,27.7170029 102.175698,27.2678576 C104.716086,27.2828744 107.144929,27.0493696 109.512122,27.8371532 C110.160917,26.5686307 111.760911,26.6204613 112.614322,25.3880272 C106.149484,23.7833608 99.8349033,23.9393528 93.5536678,25.9534219 C93.5352553,26.3972376 93.8112809,26.6629704 94.1593689,26.8086251 C95.7835334,27.488265 96.9911635,28.854722 98.6256671,29.517479 C98.9103636,29.6329125 99.1629407,29.908348 99.1954149,30.2070437 C99.3154384,31.3107906 100.122115,31.4822151 100.979335,31.665146 C101.540424,31.7848775 102.115668,31.9336673 102.621134,32.1937768 C103.140841,32.4612135 103.604266,32.4129589 104.082854,32.206493 C105.734438,31.4940029 106.81699,29.9742484 108.424068,29.1158912 C106.984931,28.9858255 105.596674,28.5084783 104.198383,28.7827669 C103.519138,28.9160023 103.116777,28.8374827 102.784431,28.2906122 C102.547496,27.9944393 103.804525,28.0849029 102.812068,27.6537065 M129.746289,20.6398688 C130.265424,20.7890682 130.811736,20.8780846 131.298229,21.0995922 C132.425499,21.6128404 133.62078,21.8467799 134.819994,22.0733953 C135.901774,22.2778169 136.983231,21.8809148 138.054342,22.2001413 C132.222252,20.2748479 126.803391,17.381625 120.995129,15.648315 C121.007926,15.7730136 121.126107,16.0658389 121.043531,16.2809072 C120.79289,16.9336894 121.196135,17.4777716 121.244039,18.0730183 C121.318822,19.0022086 122.057612,18.911945 122.646252,19.0853857 C122.800548,19.1308456 122.920485,19.2832741 123.066963,19.3677734 C124.967246,20.4640056 126.699352,21.9190507 128.895393,22.0876025 C129.226108,22.3671738 128.623202,22.7743852 129.182835,22.8862424 C130.214021,23.0923488 131.23963,23.4189274 132.452477,23.0177774 C131.43913,22.7380184 130.439142,23.208695 129.649309,22.5220373 C129.869525,22.146729 130.257369,22.4225585 130.599824,22.0558184 C129.186968,21.9169282 128.14022,21.2391232 126.998633,20.8110026 C125.293243,20.1714461 123.708711,19.2612333 122.164079,18.2957264 C121.619721,17.9554656 121.156322,17.5134849 121.278997,16.5659175 C121.717187,17.1601172 121.842315,17.8337025 122.446142,18.0258765 C122.861886,17.8274786 122.496126,17.3011611 122.871683,17.1639622 C124.234506,18.2084044 125.626311,19.156725 127.240697,19.7280899 C128.036716,20.0098182 128.831005,20.2965134 129.746289,20.6398688 M110.858201,125.749158 C111.074458,125.118801 111.032703,124.497485 110.90745,123.843658 C110.39378,121.162472 109.259502,118.824459 107.2286,116.97645 C106.607618,116.4114 106.068452,115.694105 105.053126,115.597152 C108.558009,118.414028 110.029627,122.107082 109.712855,126.595478 C110.272823,126.369562 110.651456,126.292553 110.858201,125.749158 M129.701098,11.4594807 C131.898409,12.4128591 134.09572,13.3662343 136.293043,14.3196127 C130.661872,10.8909259 124.762344,8.20410163 118.122332,7.57597193 C118.294755,8.06039929 118.682762,8.05871432 119.025229,8.104562 C122.10431,8.51677323 125.120211,9.12295597 127.854832,10.7223522 C128.376507,11.0274559 128.98524,11.1824007 129.701098,11.4594807 M120.538626,13.3197616 C119.564868,12.1663128 118.575897,11.024702 117.737874,9.76375662 C117.48478,9.38294517 117.282815,8.95593901 116.664745,8.68658631 C116.709289,9.86978413 116.296421,11.0653481 117.12131,11.8965286 C118.115099,12.8979054 119.28395,13.7552278 120.63751,14.2728554 C120.982941,14.4049529 121.32298,14.6636777 121.761643,14.4871174 C121.552695,13.8942399 121.072899,13.6813658 120.538626,13.3197616 M54.4819943,100.116632 C54.4649015,102.121411 54.3195562,104.129904 54.6396085,106.125105 C54.6820731,106.389856 54.7382753,106.661522 54.8454574,106.904455 C54.9909085,107.234112 55.2522189,107.487598 55.6416264,107.396097 C56.1260902,107.282264 56.0068136,106.854165 55.9327341,106.555354 C55.7287153,105.732454 55.4722228,104.92217 55.2208095,104.111798 C55.0346242,103.511688 54.7555113,102.931983 54.8240322,102.198383 C55.2487145,102.57573 55.0736341,103.169614 55.4811613,103.470313 C55.6900354,101.080185 54.9094404,98.8191702 54.8961074,96.373239 C54.4983029,97.6094085 54.717068,98.7904995 54.4819943,100.116632 M45.9896792,134.119725 C43.8364764,133.628371 41.6711011,133.819113 39.5128003,134.046417 C38.9438152,134.106334 38.3203863,134.253289 38.0122447,135.076802 C40.9345487,135.186583 43.6836956,134.834207 46.6688622,134.260441 C46.3126168,134.182706 46.2143109,134.161262 45.9896792,134.119725 M107.170064,54.5699252 C105.445639,54.1227897 103.365426,55.7638635 103.142684,57.8566116 C104.249711,57.7933183 105.17793,57.3064839 105.994428,56.6866612 C106.62486,56.2080793 107.243552,55.6119761 107.170064,54.5699252 M93.0670876,112.900999 C93.5745265,113.36387 93.8932281,113.30504 94.1709156,112.714532 C94.4272464,112.169437 94.4006796,111.505308 94.8734099,111.051852 C96.0878062,109.886941 96.7646426,108.365289 97.5693145,106.921022 C97.2423279,107.203829 96.9657234,107.527035 96.7267097,107.87621 C95.5785996,109.553432 94.4625836,111.253723 93.0670876,112.900999 M102.640803,100.928804 C102.144874,101.612539 101.809528,102.361093 101.591105,103.396304 C102.704506,102.751793 103.589613,102.208224 103.815729,101.048739 C103.43508,100.7412 103.100817,100.799867 102.640803,100.928804 M99.1086619,112.701028 C97.8425327,111.777212 95.904198,111.843043 95.6328349,112.883119 C96.7750503,113.235333 97.8812436,112.669782 99.1086619,112.701028 M36.3052801,135.091231 C36.9276818,135.173067 37.4356997,135.102172 37.4149094,134.27317 C36.8968513,134.078463 36.4705535,134.288349 36.0733312,134.510338 C35.668213,134.736728 35.9040304,134.919631 36.3052801,135.091231 M58.0331522,108.09965 C57.8541751,108.215971 57.5353178,108.258583 57.8088472,108.66315 C58.7066023,108.288267 59.4731481,107.699272 60.2134508,107.045145 C59.5270473,107.376966 58.8406436,107.708774 58.0331522,108.09965 M77.7132012,95.9227588 C78.1916645,96.1947374 78.3330697,96.172306 78.391712,95.7467832 C78.4554274,95.2844997 78.3892036,94.8338071 77.9647328,94.4878571 C77.700752,94.9227452 77.7157533,95.3581209 77.7132012,95.9227588 M119.389408,14.4220828 C118.976577,14.1567751 118.563759,13.8914671 118.150928,13.6261563 C118.602389,14.2891571 119.232472,14.6957245 119.977835,15.0849556 C119.913996,14.7060774 119.64473,14.6612332 119.389408,14.4220828 Z" id="Shape"></path>
                    <path d="M45.0498383,36.7831088 C44.3999261,37.1899727 45.0328417,37.8545323 44.6221833,38.4607858 C42.4935746,41.6032628 40.6684709,44.9380323 38.8195376,48.2522424 C37.8126186,50.0571496 36.8957974,51.9122968 35.9523106,53.7519081 C35.8217916,54.0063874 35.5713311,54.3663952 35.9198582,54.5723605 C36.5250655,54.9300212 36.8889427,55.3557988 36.9166914,56.0955229 C36.9602319,57.2563552 37.0321688,58.3951257 36.3042402,59.4208416 C35.9129009,59.9722724 35.6379011,60.605282 35.2527878,61.1618294 C34.9523585,61.5959897 34.9272121,62.0054986 35.270849,62.3614331 C37.4069878,64.5739678 38.9178035,67.3428387 41.4752034,69.1892182 C42.4201064,69.8714124 43.4411488,70.3469583 44.5450821,70.4514125 C47.7212958,70.7519468 50.6445899,72.0252621 53.7222542,72.6919765 C54.3542918,72.8288933 54.9714248,72.9945225 55.6225697,73.0037435 C56.1849958,73.0116977 56.8645991,73.0975115 56.7847897,73.7890197 C56.7102847,74.4344418 55.9914522,74.3427106 55.5125273,74.2597967 C54.2435462,74.0401149 52.9629722,73.8301134 51.7306177,73.4684602 C48.9924376,72.6649035 46.1746253,72.5865782 43.3656103,72.4652778 C42.3889148,72.4231038 41.7572039,72.053043 41.0999453,71.3655956 C38.7302181,68.8870571 36.983056,65.8868121 34.4459464,63.5518159 C33.959317,63.1039576 33.6052831,62.6593222 32.7982393,62.9546033 C32.1236976,63.2013954 31.5472601,62.7504511 31.4335166,62.0782726 C31.2024374,60.7126859 30.7209909,59.4167932 30.4393357,58.0624516 C29.9248861,55.5887067 29.0871427,53.18211 28.566461,50.7093338 C27.3090037,44.7374815 25.4367545,38.9268809 24.0210201,32.9987364 C23.7733023,31.9614555 23.3607669,31.5632102 22.1831564,31.5056646 C19.8966551,31.393936 17.5592962,31.1653283 15.7143475,29.5156062 C15.4905961,29.3155305 15.2734223,29.0836037 15.1298506,28.8242344 C14.8718834,28.3582077 14.4785874,28.1932304 14.0187698,28.3433113 C11.9684296,29.0125279 9.97480098,28.6461338 8.03676526,27.9613408 C6.81235812,27.5287019 5.47868079,27.8599975 4.26490968,27.2187698 C3.87148378,27.010926 3.02438684,27.3759944 2.70007907,28.1249675 C2.35388661,27.7641929 1.98827044,27.4949663 1.55820979,27.284906 C0.647242654,26.8399383 0.303762706,25.8349833 0.773318934,24.9644614 C1.43565716,23.7365399 2.26096245,22.6141871 3.26418786,21.6356809 C3.4783484,21.4267972 3.7422933,21.2432137 4.01706722,21.1282375 C4.34078439,20.9927859 4.71520499,20.9858842 4.92317302,21.3409804 C5.14769253,21.7243385 4.79930004,21.8493707 4.5571472,22.0363882 C3.43633535,22.9020294 2.64045778,24.0415542 1.92479705,25.2388976 C1.72074028,25.5802959 1.49393892,25.9593821 1.85095672,26.3737499 C2.60895263,25.6594936 3.00008424,26.901321 3.76640679,26.6801303 C3.54095169,24.8039302 4.54874692,23.395716 5.70984019,22.0518278 C6.01939034,21.693543 6.35815237,21.3693231 6.82388526,21.7488439 C7.31526905,22.1492623 6.8880125,22.4613183 6.63900189,22.7628211 C5.94248681,23.6061552 5.34028602,24.5037841 5.00998507,25.557585 C4.82702469,26.1413047 4.96750423,26.5461752 5.64894731,26.6560721 C5.54028424,24.7622528 5.74315571,24.4384705 6.86208028,24.6846045 C6.95075534,24.9476775 6.72947631,25.0413522 6.58674819,25.1704795 C6.2954283,25.43404 6.06426482,25.7354313 6.17965816,26.1452042 C6.3107953,26.6108863 6.75629108,26.6150188 7.10649619,26.5946301 C7.68360058,26.5610219 7.88070615,27.1118441 8.27375911,27.2624745 C9.82610701,27.8573864 11.4491845,28.0799247 13.2746961,27.9452275 C12.7084846,27.358068 12.1344346,27.1556483 11.5761221,26.9413221 C10.6733231,26.5947606 9.80427762,26.2360847 9.45671524,25.2048236 C9.30764773,24.7625197 8.84610397,24.8584206 8.49946637,24.7602689 C7.91062533,24.5935437 7.2737907,24.4646927 7.10706885,23.7392782 C6.94794674,23.0469316 7.47669176,22.6871257 7.88999897,22.3040997 C8.53432808,21.7069677 9.37349416,21.5065848 10.1928246,21.2831461 C15.1891271,19.9206236 20.3623034,19.5659156 25.4327981,18.6256686 C28.6124981,18.036044 31.8364891,17.9689081 35.0533763,17.8112362 C36.134713,17.758236 36.2502963,18.774222 36.7768833,19.3226412 C37.122092,19.6821553 36.8273595,20.0401699 36.6017558,20.4082499 C35.6931777,21.8906135 34.5817916,23.2112226 33.4411878,24.5127782 C33.2857434,24.6901555 33.1192637,24.8775921 33.0305234,25.0904872 C31.728355,28.2145751 29.038612,29.6910151 26.0960646,30.8015266 C25.1627915,31.1537446 25.0740448,31.5475502 25.2830162,32.4508481 C26.1034889,35.9974507 26.9190497,39.5479189 27.9970836,43.0225485 C29.0780498,46.5066288 30.0732269,50.0353237 31.8195857,53.2763748 C31.9803874,53.5748041 32.11001,54.1268371 32.5788959,53.9063542 C33.170979,53.6279439 33.9120316,54.2637417 34.4326821,53.3098248 C37.209634,48.2219841 40.1507868,43.2230991 42.9139671,38.1280681 C44.887919,34.4882843 47.0368956,30.9652992 49.2441929,27.464944 C50.7417943,25.0900339 51.9388108,22.5270384 53.281581,20.0542807 C53.7136314,19.2586597 53.5723976,18.7854578 52.6129291,18.6531949 C52.0083785,18.5698586 51.4065427,18.4552395 50.8107831,18.3221817 C48.8337402,17.8806292 47.4426292,16.7779944 46.9081788,14.767656 C46.8029678,14.3718913 46.6398345,14.0711057 46.2497029,13.9408576 C45.2962674,13.6225488 44.5331129,13.0014055 43.7299946,12.4315266 C42.4367762,11.5138756 41.4640589,10.3711343 41.7046015,8.71827334 C41.9786737,6.83503173 43.0674814,5.49451523 44.9739854,4.95448487 C47.6583367,4.19412549 50.4006727,3.68503648 53.1702999,3.42323942 C58.8597219,2.88545394 64.1318741,4.46152181 69.1182462,7.00239163 C70.8519202,7.88580408 72.3998764,9.17027785 73.2109077,11.1071887 C73.9993702,12.9901695 73.4599798,14.4557585 71.6514275,15.4268289 C67.8750276,17.4544976 63.8632402,17.8802224 59.6966841,17.2536489 C57.4181659,16.9110026 55.1191024,16.7163599 52.8585956,16.2324811 C51.721279,15.9890266 50.6434817,15.5991207 49.5507421,15.2334996 C49.1495349,15.0992621 48.770672,14.8127734 48.1943,15.0065621 C48.4385221,16.0539178 49.1566012,16.6664459 50.0739642,16.9338157 C51.3084728,17.293628 52.5946623,17.4765099 53.8577851,17.7395272 C54.4639728,17.8657515 54.7375252,17.4206409 54.9465836,16.9496963 C55.3375182,17.305994 54.9079271,17.5537484 55.0195694,17.7361585 C56.6507281,18.2183204 58.2594549,17.7113054 59.8514343,17.8973324 C60.4322392,17.9652011 60.9973489,17.9774365 61.5745365,17.8851651 C61.9342174,17.8276631 62.4325234,17.7364224 62.4527824,18.2666543 C62.4695923,18.7065459 62.2249094,19.1675989 61.6406055,19.0781465 C59.8720107,18.8073893 58.1119454,19.2607646 56.3539224,19.1203456 C55.4275256,19.0463484 55.0262872,19.5250826 54.6344807,20.2217478 C52.3415685,24.2987221 50.0627514,28.3853861 47.525707,32.3187372 C46.6233889,33.717656 45.7674037,35.1355134 45.062707,36.7198104 C45.0464544,36.788418 45.0498383,36.7831088 45.0498383,36.7831088 M71.4098763,11.13288 C71.2865106,10.9310347 71.1638858,10.7287389 71.0396611,10.5274245 C69.7395816,8.42053793 67.425215,7.97048631 65.3628774,7.20206996 C62.0677623,5.9743301 58.5833994,5.63653792 55.0986317,5.26096152 C51.8791732,4.91398108 48.7398664,4.96469007 45.6368847,5.90887062 C43.7290235,6.48939703 43.011153,7.68666453 43.378971,9.62867943 C43.4773584,10.148149 43.7332135,10.4842258 44.2124092,10.805186 C45.4398607,11.6273304 46.7776505,12.2260455 48.1348117,12.7267797 C49.5076405,13.2332917 50.7501244,14.0523782 52.2975453,14.1978951 C53.4509185,14.3063545 54.5997404,14.7229855 55.7689085,14.9517083 C54.9044594,15.4885191 54.0591296,14.8637896 53.0174611,14.9793402 C55.4101991,15.7415361 57.7111677,15.6648129 59.9566888,15.9820971 C60.2301911,16.0207411 60.5598072,15.9920227 60.6386392,15.6753533 C60.8248362,14.9273613 61.4134983,15.029512 61.9413959,15.0126379 C63.0179853,14.9782286 64.0881498,15.0611519 65.1764564,14.9860866 C66.201172,14.915402 67.1689333,14.4770473 68.4129177,14.5393245 C67.4072034,15.3010982 66.3991358,15.4701672 65.4221913,15.6896411 C64.4354659,15.9113099 63.4338795,16.0671376 62.4387992,16.2518109 C65.4147825,16.5184762 68.8527441,15.699868 71.353308,14.2242136 C72.3613692,13.6293233 72.6040413,12.85908 72.1664996,11.6404446 C71.8506178,11.5409081 71.8205781,12.0703546 71.4469388,11.9293549 C71.4469388,11.7175744 71.4469388,11.4887679 71.4098763,11.13288 M30.9770765,24.8052993 C31.9067013,24.031526 32.9436538,23.3654823 33.5758876,22.2818298 C33.2183702,21.885081 32.8365283,22.0081696 32.43044,22.1023287 C30.2170505,22.6155717 28.0141704,23.1923864 25.7799649,23.5940065 C21.0424079,24.4456362 16.318277,25.4750842 11.4350346,25.1849101 C11.9873858,26.2820217 13.0473257,26.331256 14.0349275,26.531841 C14.7975606,26.6867278 15.7619691,26.7372877 16.0079953,27.5680602 C16.4225633,28.9679506 17.5005444,29.261366 18.6489524,29.3850848 C20.4359866,29.5775975 22.2374522,29.5788643 24.0326782,29.3752802 C25.4927283,29.209707 26.9343683,28.9848898 28.1909914,28.1511462 C29.1684339,27.5026288 30.0265171,26.7604239 30.0659954,25.4541336 C30.0815352,24.9400059 30.474235,24.9008431 30.9770765,24.8052993 M25.9684344,22.5195684 C29.0404269,21.8217235 32.1624475,21.2591779 34.9817415,19.3150441 C34.2740564,19.0229545 33.7408015,19.0028391 33.2068679,19.0153914 C28.3713359,19.1290325 23.6316544,19.9816837 18.9378544,21.0373973 C16.4927429,21.5873439 13.9936001,21.8800762 11.5888105,22.6026406 C10.9366399,22.7985934 10.2364663,22.9412573 9.76417511,23.5656669 C10.2022195,23.8456262 10.6167269,23.7507097 11.0095044,23.7316312 C13.6516692,23.603305 16.2973239,23.5130113 18.9334574,23.3047454 C21.2276881,23.1234964 23.5506933,23.1585888 25.9684344,22.5195684 M29.9890002,52.3955672 C29.8703226,52.2664803 29.892907,51.989492 29.5606792,52.0326161 C29.5920886,53.1945723 30.0677044,54.2048642 30.5306786,55.3968987 C30.8175636,54.9162488 31.0516219,54.5815007 30.9076424,54.2216979 C30.671872,53.6325203 30.3443415,53.0798663 29.9890002,52.3955672 M34.7462294,59.7507402 C35.7750696,58.0097649 35.7774229,58.0010346 35.4489149,56.9839619 C34.5724684,58.0290141 34.6146082,59.3446587 34.2643129,60.5318189 C34.402026,60.3119135 34.5397359,60.0920081 34.7462294,59.7507402 M56.7562378,4.28443324 C56.2203151,4.36176963 55.6885265,3.98552259 55.1323322,4.38356769 C56.4614554,4.59074833 57.7905787,4.79793081 59.1196956,5.00511308 C58.4453843,4.54304316 57.6818936,4.4382956 56.7562378,4.28443324 M32.8910265,56.6604591 C32.8719753,56.9398506 32.8601805,57.3086258 33.2703189,57.1230088 C33.7102542,56.9238986 34.4461643,56.8727021 34.2199101,56.0306535 C33.6641361,55.9517136 33.2834773,56.2000145 32.8910265,56.6604591 M33.8023287,59.1315775 C33.8577327,58.9787707 33.9471485,58.7951219 33.7532781,58.7032602 C33.5746984,58.6186512 33.4045392,58.7662978 33.3628913,58.9133423 C33.2559619,59.2908918 33.1998545,59.6827661 33.123432,60.0689092 C33.1826461,60.0820483 33.2418604,60.0951873 33.3010716,60.1083263 C33.4502713,59.8214899 33.5994713,59.5346598 33.8023287,59.1315775 Z" id="Shape"></path>
                    <path d="M88.9419937,27.5662957 C89.3956748,27.7135205 89.4215965,28.000584 89.1116722,28.1417193 C88.6229522,28.3642781 88.9698745,28.6575709 88.9574731,28.9222448 C88.4183706,29.0398307 88.105,28.3835577 87.4898132,28.6615315 C87.2222404,28.8164513 87.8016966,29.1146265 87.4080969,29.3143108 C85.9345401,29.3870966 84.2487524,28.4103657 83.7318153,27.142908 C83.3278312,26.1524072 83.6748376,24.8696066 84.5223837,24.2203062 C85.4722399,23.4926239 87.033966,23.2205432 87.7988906,23.6743132 C87.5424199,24.3128292 86.8694536,24.27072 86.3293878,24.4292735 C84.7276637,24.8995072 84.2198175,26.0337657 85.0684369,27.4210395 C86.5240119,26.0442023 87.9652778,24.6737966 89.7867657,23.7242365 C90.1536871,23.5329579 90.4976288,23.2927997 90.9525901,23.3202918 C91.2124165,23.3359912 91.4570933,23.3992117 91.5354797,23.6557592 C91.6241209,23.9458557 91.5018634,24.1946726 91.1869408,24.2728698 C89.8225675,24.6116676 89.3038716,25.7759395 88.4827711,26.6304044 C88.1419074,26.9851217 87.8325325,27.5779545 88.9419937,27.5662957 M88.0114639,26.7349223 C88.0425004,26.5283336 88.3170949,26.3699111 88.1284389,26.0654086 C87.4904662,26.5019745 86.8689686,26.9131179 86.6063618,27.6594433 C87.5706436,28.0232236 87.7088461,27.3670129 88.0114639,26.7349223 Z" id="Shape"></path>
                    <path d="M38.2788861,13.3181289 C37.9117794,13.1847526 37.6217566,13.0805683 37.3467479,12.9472072 C36.3365672,12.45733 35.4907189,11.7275792 35.5685732,10.5908432 C35.6522103,9.36965439 36.3986593,8.39883407 37.3376114,7.73433267 C37.8292422,7.76701219 37.5704229,8.1619844 37.8227614,8.24539385 C38.322237,7.6810947 38.8027477,7.11824653 39.3077708,6.57695148 C39.5268757,6.34210353 39.8264245,6.19213101 40.1143383,6.46319518 C40.3481081,6.68328545 40.2718036,6.95601698 40.0862811,7.18485379 C39.8322736,7.4981665 39.5713045,7.80665971 39.3019498,8.10762959 C38.8467996,8.61620553 38.4629439,9.16942367 38.2897229,9.82553088 C37.8806734,11.3748893 38.7291807,12.3910737 40.376398,12.3429542 C40.7709365,12.3314295 41.1997771,12.1413657 41.5635934,12.6932916 C40.5694603,13.3359913 39.4137512,13.1281109 38.2788861,13.3181289 M37.405757,9.06794901 C37.3868395,9.04188914 37.3727686,9.00181309 37.3476688,8.99363246 C37.321488,8.98510248 37.2692082,8.99702097 37.2547253,9.01754883 C36.3639139,10.280109 36.2029066,11.5788151 37.7608923,12.1419944 C37.3185367,11.1560791 36.8979181,10.2044026 37.405757,9.06794901 Z" id="Shape"></path>
                    <path d="M112.70583,7.3038643 C112.365258,7.27374862 112.096903,7.28979701 111.856966,7.20828078 C111.178187,6.97768474 110.852403,6.37447492 110.619843,5.70672484 C110.373653,4.99979307 110.996162,4.80016997 111.317808,4.50009932 C112.851882,3.06894534 116.496543,2.91495023 118.161077,4.16120291 C118.36802,4.31614463 118.62193,4.43444317 118.551641,5.05339023 C116.274929,4.18817683 114.063684,4.25522988 111.923591,5.63263815 C112.56109,6.84518959 113.776781,6.01437525 114.50385,6.7319436 C114.084241,7.57323987 113.37936,7.24199646 112.70583,7.3038643 Z" id="Path"></path>
                    <path d="M74.4591496,16.0082104 C75.1610729,15.4351753 75.6262659,14.7803511 76.0231732,14.0763547 C76.5093945,13.2139374 76.8718955,12.3385593 76.2670907,11.3865489 C77.2049724,11.1857088 77.545571,11.4107506 77.5626905,12.2786369 C77.5954963,13.9415327 76.7306958,15.2720362 75.5486714,16.3853232 C73.7814883,18.0497512 71.5080586,18.8140029 69.1124067,19.2872826 C68.277551,19.4522143 67.9327673,18.9415574 67.5635934,18.0947928 C70.3432247,18.6623287 72.4557249,17.5758416 74.4591496,16.0082104 Z" id="Path"></path>
                    <path d="M59.204052,0.755053773 C61.3428003,1.37411381 63.5602841,1.47741842 65.5635934,2.26175168 C64.7689805,2.42242662 64.0178128,2.20273942 63.2844076,2.06267781 C59.012601,1.24687392 54.706882,1.04400936 50.3581255,1.43280375 C50.0401876,1.46122851 49.7014539,1.47316193 49.5930385,1.16769033 C49.4450883,0.750794698 49.8875854,0.716792802 50.1878843,0.631446433 C51.6966265,0.20265153 53.2592797,0.319863273 54.7999261,0.377058564 C56.2426292,0.430618543 57.6786844,0.613882942 59.204052,0.755053773 Z" id="Path"></path>
                    <path d="M146.760729,25.3781839 C144.16557,26.3920411 141.526699,26.3546235 138.884963,26.2906545 C138.851177,26.2898383 138.815017,26.2846005 138.784347,26.2712822 C138.29608,26.0593317 137.376879,26.1767595 137.597096,25.3439555 C137.770058,24.6898633 138.518182,24.8560793 139.104351,24.9795012 C141.364115,25.4553041 143.597268,25.2244226 145.81263,24.6740806 C146.382326,24.5325629 146.643528,24.2286107 146.346241,23.6240001 C146.142283,23.2091564 146.201411,22.8091974 146.557537,22.5023587 C146.774877,22.3151128 147.038592,22.2042369 147.271022,22.5029385 C147.814571,23.2014291 147.57596,24.7228467 146.760729,25.3781839 Z" id="Path"></path>
                    <path d="M117.048343,2.72307281 C115.992962,2.81074728 115.021552,2.7547169 114.029133,2.57676772 C112.457449,2.29495405 110.889449,2.49069252 109.412604,3.1982966 C108.854936,3.46549094 108.366586,3.8158593 108.691881,4.63651158 C108.790243,4.88469429 108.782058,5.17415312 108.489579,5.28481049 C108.178198,5.40261774 107.975633,5.18957706 107.808881,4.93463492 C107.2782,4.12321201 107.638254,2.9019281 108.603033,2.31443215 C110.08958,1.40922153 111.746979,1.32798517 113.382291,1.31823504 C114.432446,1.31197111 115.483089,1.58456537 116.535287,1.7157408 C117.038052,1.7784187 117.241106,2.1990494 117.563593,2.58907399 C117.370467,2.64300959 117.241633,2.67899192 117.048343,2.72307281 Z" id="Path"></path>
                    <path d="M79.6438399,62.9152948 C80.0573838,62.3307747 80.5437353,62.1826681 81.1005601,62.4389283 C81.6284738,62.6818886 81.5705206,63.2051628 81.552175,63.6792911 C81.5071082,64.8443044 81.2295753,65.9124672 80.3374994,66.7294685 C79.8579214,67.1686961 79.3180039,67.3748123 78.6730462,67.3046887 C78.2774492,67.2616806 77.8485149,67.2435835 77.6400038,66.8511765 C77.4038696,66.4067766 77.768692,66.1121647 78.0076115,65.8000523 C78.6673515,64.9382002 78.730241,63.7234921 79.6438399,62.9152948 Z" id="Path"></path>
                    <path d="M67.2278779,42.0642919 C67.9483353,41.3406437 68.6722297,40.7573682 69.5338043,40.4235125 C69.8848846,40.287469 70.3174729,40.2091324 70.503413,40.6679152 C70.7462943,41.267184 70.1947746,41.2743857 69.9017467,41.426122 C69.1446288,41.8181857 68.4284388,42.2734812 67.7989397,42.8835793 C67.4633966,43.2087771 67.0998559,43.441168 66.5788857,43.2476248 C66.4762729,42.6833753 66.912115,42.4506438 67.2278779,42.0642919 Z" id="Path"></path>
                    <path d="M45.5635934,36.1129713 C46.2760096,35.5133789 46.4338159,34.5473328 46.9823886,33.8368702 C47.1294669,33.6463915 47.1606714,33.3354371 47.5635934,33.3181289 C47.0956641,34.3918166 46.4939515,35.3302809 45.8830693,36.2616088 C45.8091307,36.3743253 45.6779089,36.3092257 45.5880773,36.1479367 C45.5677946,36.1058268 45.5649475,36.1104163 45.5635934,36.1129713 Z" id="Path"></path>
                    <path d="M5.27713116,29.3181289 C4.57965848,29.2078322 3.93521353,29.1084528 3.56359336,28.3181289 C4.28169552,28.5722848 4.86804643,28.7524244 5.42579164,28.9899621 C5.66728026,29.0928107 5.57483589,29.2501967 5.27713116,29.3181289 Z" id="Path"></path>
                    <path d="M64.765645,56.3354253 C65.6438669,54.9391685 66.6963615,54.9981563 67.3832149,56.4018431 C67.6940133,57.0369846 67.588017,57.581037 67.1816199,58.053464 C66.6805828,58.6359113 66.5758071,57.8638415 66.3218217,57.5716288 C65.8098459,57.6337813 65.4916106,58.7664955 64.8720804,58.1188101 C64.4286647,57.655259 64.5283592,57.0197074 64.765645,56.3354253 Z" id="Path"></path>
                    <path d="M67.4807988,47.3181289 C68.6587275,47.4787023 68.8287657,47.8945451 68.2172727,48.878914 C67.7986076,49.5528672 67.2838442,50.0438976 66.574481,50.2475224 C66.2309148,50.346132 65.9258269,50.398359 65.6998742,50.0060944 C65.4585118,49.5870769 65.5638655,49.2048968 65.8122375,48.8491713 C66.2533524,48.2174245 66.77481,47.7012607 67.4807988,47.3181289 Z" id="Path"></path>
                    <path d="M71.6577419,50.2043224 C71.1670376,50.4025594 70.7325532,50.378935 70.59281,49.8327322 C70.4424651,49.2451086 70.90451,48.8978705 71.2451013,48.5787129 C71.5785188,48.2662844 72.0085619,48.2116071 72.3719748,48.54228 C72.6944329,48.835686 72.5482066,49.203223 72.3812255,49.5279227 C72.228365,49.8251636 71.9825743,50.0190842 71.6577419,50.2043224 Z" id="Path"></path>
                    <path d="M49.3774452,11.2783615 C48.0070664,9.55402712 48.3846587,8.22538299 50.3789447,7.56234246 C51.3211594,7.24908639 52.2920257,7.06174202 53.2823246,7.01183448 C53.8308148,6.98419235 54.3716422,6.9785056 54.7916432,6.5149799 C54.9955621,6.28992586 55.2938367,6.3083836 55.5645098,6.33077196 C58.138332,6.54367678 60.7729765,6.47984455 63.182357,7.60842322 C64.662905,8.30193142 66.0442281,9.22244283 67.1472778,10.511898 C67.7177131,11.1787346 67.68578,11.832633 67.1504281,12.5032863 C66.440359,13.3928131 65.6576542,14.2271201 64.4745996,14.2602708 C60.633624,14.3678945 56.7877481,14.455954 53.0522478,13.2505385 C51.7393853,12.8268834 50.5234724,12.2066834 49.3774452,11.2783615 M55.5813546,7.93696813 C53.8035069,7.88903228 52.0388289,7.92628519 50.3868889,8.75007442 C50.0760572,8.90508138 49.7055217,9.04002351 49.7069303,9.44930335 C49.7082906,9.84084446 50.0505494,10.0198842 50.3551806,10.194472 C51.3783628,10.7808459 52.4994012,11.0861908 53.6083886,11.4258595 C54.1971188,11.606184 54.7209138,11.8331933 54.4887993,12.748007 C57.2705844,12.9375693 59.9460627,13.1884268 62.6264102,13.272653 C63.9028954,13.3127669 65.2228586,13.1649223 66.1461032,11.9725874 C66.6437341,11.3299037 66.6180699,11.1251285 65.8303461,10.6932692 C65.3099701,11.3454405 64.9586484,12.194821 63.9058456,12.2526556 C64.0651679,11.90453 64.3859441,11.7221027 64.6541107,11.4776251 C65.2902002,10.8977203 65.1409534,10.3224622 64.4823126,9.94253225 C63.0866136,9.1374405 61.6267419,8.46213906 60.109229,7.93853635 C59.7610513,7.81840207 59.2558574,7.64109106 59.0228617,7.80176353 C57.9372006,8.55044301 56.8545398,8.02189911 55.5813546,7.93696813 Z" id="Shape"></path>
                    <path d="M161.435886,50.857931 C161.002907,50.7979223 160.642979,50.7443834 160.28456,50.7534595 C158.841743,50.7899922 158.379002,50.464877 158.013626,48.954666 C157.930224,48.6098703 157.479755,48.6387132 157.577362,48.1227149 C158.130305,47.4014034 159.059144,48.2991179 159.771863,47.8706343 C159.736158,47.2417602 158.957999,47.1497907 158.915265,46.5026228 C159.798049,46.1855608 160.254436,46.7379006 160.656398,47.3594053 C160.957601,47.8251178 161.243548,48.2667568 161.913146,48.0492122 C162.050044,47.4454286 161.381762,47.0473034 161.520098,46.4465019 C161.969987,46.1304199 162.262264,46.4596511 162.38962,46.7705884 C162.936161,48.1049139 163.968973,48.7530987 165.277163,49.0728964 C165.384493,49.099139 165.467219,49.2301611 165.53876,49.2927331 C165.463571,49.7531035 164.944061,49.4152089 164.859318,49.7572749 C164.85782,50.2090129 165.330417,50.1933807 165.563593,50.527831 C164.989476,50.8816659 164.699676,51.3412784 164.476175,52.0101727 C164.252227,52.680404 163.480469,52.0380913 162.778778,52.1023945 C163.137233,51.5600675 163.626184,51.8442383 163.889061,51.4692011 C163.638093,50.7091385 163.072238,50.5940629 162.430336,50.8680423 C162.091558,51.0126325 161.823064,51.0734359 161.435886,50.857931 M160.223696,48.9841435 C159.865375,48.8510203 159.507222,48.7141138 158.813938,48.9921784 C159.547842,49.0718429 159.605082,49.6515712 160.057146,49.7423145 C160.367202,49.593596 160.434274,49.37005 160.223696,48.9841435 Z" id="Shape"></path>
                    <path d="M173.45555,58.4504917 C175.213812,57.3985766 174.249992,55.9660742 174.107383,54.6972268 C174.055323,54.2340267 173.803928,53.8388968 174.373362,53.611289 C174.958823,53.3772674 175.036159,53.9147139 175.19387,54.2584001 C175.635735,55.221351 175.963577,56.235758 176.138884,57.2745885 C176.302323,58.2430897 176.700056,58.8256035 177.711713,58.9522387 C178.297965,59.0256215 178.854606,59.3160117 179.763391,59.2804999 C178.358952,54.1589605 175.117682,50.5472676 171.384919,46.8636873 C171.122163,48.2845944 171.235123,49.4073456 171.201314,50.489973 C171.097936,53.7994677 170.67421,57.0902646 170.698326,60.4067365 C170.704623,61.2733515 170.980814,61.7463322 171.820338,61.9129346 C173.161171,62.1790079 174.558917,62.5313795 175.750795,63.029034 C178.731323,64.273533 181.79909,65.290099 184.750476,66.6066168 C187.276371,67.7333478 189.84057,68.7718529 192.386913,69.8515643 C192.666264,69.9700144 192.948975,70.0857174 193.213545,70.233259 C193.566541,70.4301231 193.648866,70.751282 193.477227,71.1062695 C193.317307,71.4370087 193.016618,71.5075443 192.702568,71.3666545 C191.966311,71.0363595 191.249638,70.6604718 190.509331,70.3403016 C185.832023,68.3174573 181.144652,66.3197934 176.352234,64.5870389 C175.851024,64.4058249 175.427595,64.2955348 174.968171,64.7407129 C172.828093,66.8144568 170.687126,68.8844208 168.827215,71.4192746 C170.657268,70.6517611 172.219874,69.6762763 173.725468,68.6071089 C174.969788,67.7234796 176.247325,66.9026451 177.622955,66.2468486 C177.872955,66.1276599 178.17173,65.7926219 178.420162,66.1529281 C178.702687,66.5627008 178.310931,66.7490773 178.031332,66.9315426 C175.314424,68.7045649 172.72143,70.6772296 169.793925,72.1103328 C168.439484,72.7733693 166.994902,73.341747 166.290923,74.8745026 C166.216427,75.036687 165.993309,75.1287489 165.758991,75.3181289 C165.446867,74.6028163 164.776846,74.0269918 165.617123,73.2900406 C165.278402,72.9783245 164.922504,72.672378 164.59497,72.9524618 C163.998556,73.4624814 163.568632,73.0968309 163.039897,72.8639793 C160.754408,71.857488 158.456645,70.8790372 156.15256,69.9169186 C155.52504,69.6548817 154.016421,70.0974753 153.82384,70.6820981 C153.567382,71.4607374 152.997985,71.5392265 152.406102,71.5613472 C147.532718,71.7434684 142.67167,72.0511921 137.809276,71.0968268 C135.970382,70.7358945 134.301237,70.0545859 132.747806,69.1893348 C130.861667,68.1387589 129.69393,66.3335351 129.423111,64.0820193 C129.335094,63.3503304 129.684138,62.6764058 129.950067,62.0208345 C130.232815,61.3238129 129.995187,61.0171341 129.347664,60.827823 C128.245496,60.5056003 127.066941,60.5505112 125.994322,60.1115467 C125.276748,59.8178775 124.194497,59.8149051 124.151525,58.8056857 C124.107887,57.7812852 125.112431,57.501852 125.893685,57.2047913 C127.752719,56.497914 129.619521,55.8171745 131.446635,55.0219964 C132.134364,54.7226889 132.963244,55.1254219 133.703761,54.8091315 C134.128252,54.6278174 134.650417,54.587506 134.657233,53.8054311 C131.110297,53.1508988 127.52518,52.6652651 123.924023,52.2299113 C124.769845,51.8836846 125.616605,51.9494081 126.458475,52.0915871 C128.616285,52.4560048 130.768377,52.8558215 132.928286,53.2065163 C134.827217,53.5148469 135.389341,53.1882692 135.873622,51.418432 C135.037691,51.81308 134.066054,51.0021826 133.466566,52.1269738 C133.28306,52.471292 132.975814,52.3506268 132.666037,52.2443601 C130.905701,51.6405518 129.062805,51.3949848 127.242593,51.0963407 C125.766573,50.8541842 124.405501,50.2431858 122.951041,49.9637589 C122.686038,49.9128409 122.531872,49.7170342 122.569101,49.4481138 C122.601342,49.2151371 122.810136,49.1307346 123.023549,49.1204159 C123.190199,49.1123561 123.372112,49.0999785 123.524018,49.1551769 C126.492112,50.2336992 129.651033,50.3439081 132.692511,51.0367746 C133.581527,51.2392956 133.829378,50.3381323 134.546396,50.2541866 C135.589887,50.1320258 135.331935,49.3513401 135.221234,48.6078683 C134.993485,47.0784544 135.326612,46.7620264 136.871017,46.8454902 C137.173842,46.8618601 137.481187,46.8402902 137.779542,46.8842748 C138.610929,47.0068361 138.77727,46.5162903 138.732755,45.8423968 C138.657889,44.7090329 139.500488,43.2411374 140.50986,42.7799274 C140.905136,42.5993079 141.310957,42.5475326 141.635614,42.8896356 C142.078751,43.3565714 142.316958,43.9022654 142.084641,44.5699326 C141.854855,45.230366 141.401271,45.7416997 140.988856,46.279797 C140.764083,46.573053 140.494721,46.8387195 140.506427,47.2456076 C141.943045,47.7748566 142.765356,47.409957 143.309006,45.8711882 C143.749168,44.6253249 144.421103,43.4616304 144.639023,42.1376973 C144.743364,41.5038149 145.106831,41.3503535 145.703097,41.3272693 C147.536238,41.2563079 149.325394,41.615926 151.13211,41.8048617 C154.210175,42.1267401 157.287871,42.4528676 160.367863,42.7549532 C163.552048,43.0672575 166.769536,43.337661 169.818547,44.2807252 C171.245298,44.7220174 172.607531,45.7367937 173.779738,46.8214047 C174.653145,47.6295363 175.358816,48.5609113 175.965072,49.61068 C177.118559,51.607981 178.37072,53.5493013 179.639268,55.4750403 C180.825589,57.2759464 181.462875,59.3228325 182.299609,61.2805854 C182.469852,61.6789443 182.645443,62.215621 182.06413,62.4135928 C181.542274,62.5913086 181.2739,62.1532953 181.115016,61.7151194 C180.636539,60.3955353 179.292162,60.6263658 178.28132,60.1074104 C176.715763,59.4189492 174.924495,59.6122965 173.45555,58.4504917 Z M144.637812,55.179375 C142.909421,55.2579203 141.325737,54.3008766 139.539619,54.4037329 C139.539619,55.0947033 139.540014,55.7362827 139.539446,56.3778555 C139.539187,56.6879071 139.565167,57.0310614 139.161408,57.1044694 C138.815093,57.1674334 138.597185,56.9620025 138.445896,56.6594475 C138.239806,56.2472657 138.125425,55.8071437 138.120894,55.2877879 C137.058017,56.4273156 137.038371,58.0604868 135.872498,59.035496 C135.558387,59.2981963 135.366139,59.5793378 134.955119,59.3192343 C134.489607,59.0246391 134.729988,58.6908211 134.913086,58.3544689 C135.038407,58.1242455 135.284271,57.9505721 135.260711,57.6372916 C134.930164,57.4694064 134.39875,57.7140097 134.264884,57.1462826 C134.590356,56.2677218 135.97479,56.6652233 136.149294,55.6200039 C134.330798,55.2061074 132.674088,55.456912 131.118533,56.4324531 C129.699154,57.3225844 127.721836,57.2546893 126.65975,58.95446 C128.148501,59.6182038 129.597578,59.9026493 130.984618,60.3690093 C134.879314,61.6785186 138.860768,62.7231625 142.808735,63.8696549 C147.114574,65.1200674 151.44001,66.3007328 155.635186,67.9180658 C158.947989,69.1952357 161.955819,71.1366377 165.283106,72.3809801 C166.545776,72.8531974 166.853528,72.8512515 167.708426,71.7722846 C169.143401,69.96126 170.626114,68.1978556 172.20108,66.5061448 C172.923853,65.7297955 173.904602,65.1700157 174.394341,64.1032012 C174.216627,63.9867785 174.091862,63.8555129 173.942955,63.8145818 C164.174863,61.1296896 154.524559,58.0360695 144.637812,55.179375 M157.088473,52.9801475 C157.497579,53.9412523 158.257198,54.4076376 159.230983,54.6674907 C160.970006,55.1315481 162.691162,55.664414 164.513646,56.1958784 C162.669602,56.6557493 161.058024,55.899268 159.397572,55.664583 C157.149374,55.3468347 155.025028,54.4374425 152.681577,54.4509778 C150.902262,54.4612526 149.122552,54.3796285 147.339038,54.5081785 C148.850547,55.007898 150.342855,55.5891413 151.888099,55.8585811 C154.751566,56.3578688 157.465869,57.3757989 160.247703,58.1475362 C162.970884,58.9030038 165.618889,59.9348258 168.306631,60.8244001 C169.408293,61.1890366 169.594379,61.0245807 169.604714,59.8144735 C169.609962,59.199758 169.564176,58.5788664 169.632757,57.9713536 C170.055149,54.2293649 170.129559,50.487057 169.809446,46.7312264 C169.748261,46.0132919 169.494631,45.6832911 168.820078,45.5872432 C167.354035,45.3784773 165.874878,45.2233574 164.430308,44.9085315 C160.575249,44.0683609 156.690505,43.4361618 152.761691,43.1265607 C151.748108,43.0466888 150.727844,42.7444529 149.356561,43.0055638 C150.16598,43.7653367 150.83447,44.3260614 151.422031,44.9634231 C151.989526,45.5790271 152.940998,45.9251349 153.062035,47.0816708 C152.080581,46.8822787 151.655472,46.1757643 151.072271,45.6996923 C150.788004,45.4676418 150.552217,44.9593556 150.215471,45.0489331 C149.254936,45.304481 148.70884,44.6254375 148.03751,44.2247509 C147.298277,43.7835463 146.604263,43.2564749 145.683377,42.9596018 C145.168066,46.3457332 145.320725,49.7142933 144.64679,52.9924625 C144.532483,53.5484815 144.871229,53.9192069 145.496513,53.8018456 C146.053784,53.6972372 146.603374,53.4513262 147.157545,53.4475527 C148.873231,53.4358448 150.587187,53.363144 152.307972,53.5414356 C153.435306,53.6582461 154.623541,53.8078591 155.674551,53.3608411 C155.775608,52.0028919 153.8525,51.3757426 154.770323,49.7644356 C156.012803,50.4794853 156.276621,51.8521212 157.088473,52.9801475 M131.440486,63.572613 C131.071215,63.9234015 130.668345,64.2708172 130.879473,64.8671478 C131.4332,66.4312037 132.095628,67.8662091 133.770008,68.5915839 C137.053213,70.0139427 140.483472,70.5929272 144.012108,70.4089725 C146.902594,70.2582832 149.792289,70.1116615 152.684824,70.0111517 C153.359476,69.9877046 154.015001,69.8444869 154.66892,69.305914 C154.235551,69.1173975 153.884469,68.9307647 153.512827,68.8081282 C148.335137,67.0995342 143.335246,64.8545325 138.011193,63.5826063 C135.983804,63.0982493 133.985174,62.4859181 131.984186,61.8945685 C131.263068,61.6814598 130.960773,61.9632019 130.903083,62.6410377 C130.868545,63.046768 131.419642,63.0667923 131.440486,63.572613 M143.283075,48.364479 C142.496154,48.8247003 141.636762,48.5082973 140.814994,48.5735015 C140.159075,48.6255397 139.871339,48.8657565 139.734077,49.5087751 C139.518466,50.5189083 139.433314,51.5811921 138.608459,52.3807696 C138.343691,52.637425 138.096432,53.0914952 138.41284,53.7773845 C139.154728,52.7309887 140.03137,53.2192568 140.888207,53.3803337 C141.119079,53.4237364 141.355805,53.4341615 141.587925,53.4718635 C142.911187,53.6867996 142.922288,53.6901849 143.174943,52.324789 C143.437834,50.9040258 143.675919,49.4785445 143.924424,48.0575436 C143.607819,47.998766 143.516652,48.1679276 143.283075,48.364479 M138.147257,48.9429691 C137.787383,49.4459551 137.581491,49.9319328 138.31629,50.3816603 C138.627204,49.662443 138.844086,48.9749328 138.749092,48.0990504 C138.572489,48.3422958 138.395886,48.5855475 138.147257,48.9429691 M140.60194,45.0909341 C140.720322,44.8994454 140.929536,44.7076248 140.692686,44.48232 C140.619166,44.4123788 140.423843,44.3764477 140.345679,44.4254823 C139.948218,44.674835 139.666496,45.0076582 139.69118,45.5185912 C140.113634,45.6413026 140.307845,45.4001848 140.60194,45.0909341 Z" id="Shape"></path>
                </g>
                <path d="M70.356,14 C70.908,14 71.472,13.931 72.048,13.793 C72.624,13.655 73.158,13.451 73.65,13.181 C74.142,12.911 74.577,12.575 74.955,12.173 C75.333,11.771 75.6,11.312 75.756,10.796 C75.948,10.172 75.993,9.665 75.891,9.275 C75.789,8.885 75.588,8.573 75.288,8.339 C74.988,8.105 74.61,7.937 74.154,7.835 C73.698,7.733 73.218,7.667 72.714,7.637 C72.21,7.607 71.7,7.589 71.184,7.583 C70.668,7.577 70.2,7.559 69.78,7.529 C69.36,7.499 69.006,7.436 68.718,7.34 C68.43,7.244 68.262,7.082 68.214,6.854 C68.118,6.458 68.13,6.056 68.25,5.648 C68.37,5.24 68.556,4.844 68.808,4.46 C69.06,4.076 69.357,3.719 69.699,3.389 C70.041,3.059 70.389,2.768 70.743,2.516 C71.097,2.264 71.439,2.066 71.769,1.922 C72.099,1.778 72.372,1.706 72.588,1.706 C72.756,1.646 72.831,1.541 72.813,1.391 C72.795,1.241 72.726,1.094 72.606,0.95 C72.486,0.806 72.336,0.683 72.156,0.581 C71.976,0.479 71.802,0.446 71.634,0.482 C71.442,0.482 71.172,0.566 70.824,0.734 C70.476,0.902 70.098,1.136 69.69,1.436 C69.282,1.736 68.877,2.093 68.475,2.507 C68.073,2.921 67.722,3.383 67.422,3.893 C67.122,4.403 66.9,4.952 66.756,5.54 C66.612,6.128 66.6,6.74 66.72,7.376 C66.816,7.868 67.047,8.237 67.413,8.483 C67.779,8.729 68.223,8.9 68.745,8.996 C69.267,9.092 69.828,9.137 70.428,9.131 C71.028,9.125 71.598,9.122 72.138,9.122 C72.498,9.122 72.837,9.131 73.155,9.149 C73.473,9.167 73.743,9.212 73.965,9.284 C74.187,9.356 74.355,9.461 74.469,9.599 C74.583,9.737 74.622,9.926 74.586,10.166 C74.55,10.454 74.412,10.745 74.172,11.039 C73.932,11.333 73.629,11.594 73.263,11.822 C72.897,12.05 72.477,12.236 72.003,12.38 C71.529,12.524 71.04,12.596 70.536,12.596 C70.332,12.596 70.137,12.587 69.951,12.569 C69.765,12.551 69.57,12.512 69.366,12.452 C69.078,12.38 68.844,12.392 68.664,12.488 C68.484,12.584 68.376,12.716 68.34,12.884 C68.304,13.052 68.337,13.229 68.439,13.415 C68.541,13.601 68.724,13.742 68.988,13.838 C69.42,13.946 69.876,14 70.356,14 Z M77.574,13.982 C77.802,13.982 77.973,13.907 78.087,13.757 C78.201,13.607 78.264,13.43 78.276,13.226 C78.276,12.362 78.258,11.432 78.222,10.436 C78.186,9.44 78.147,8.423 78.105,7.385 C78.063,6.347 78.024,5.3 77.988,4.244 C77.952,3.188 77.934,2.162 77.934,1.166 C77.934,1.082 77.904,1.001 77.844,0.923 C77.784,0.845 77.712,0.773 77.628,0.707 C77.544,0.641 77.451,0.587 77.349,0.545 C77.247,0.503 77.154,0.482 77.07,0.482 C76.89,0.482 76.758,0.554 76.674,0.698 C76.638,1.67 76.632,2.708 76.656,3.812 C76.68,4.916 76.713,6.026 76.755,7.142 C76.797,8.258 76.836,9.35 76.872,10.418 C76.908,11.486 76.92,12.47 76.908,13.37 C76.908,13.622 76.959,13.784 77.061,13.856 C77.163,13.928 77.334,13.97 77.574,13.982 Z M79.905,13.595 C80.403,13.925 81.12,14.054 82.056,13.982 C83.004,13.91 83.904,13.676 84.756,13.28 C85.608,12.884 86.385,12.386 87.087,11.786 C87.789,11.186 88.407,10.511 88.941,9.761 C89.475,9.011 89.901,8.252 90.219,7.484 C90.537,6.716 90.729,5.969 90.795,5.243 C90.861,4.517 90.783,3.869 90.561,3.299 C90.339,2.729 89.958,2.273 89.418,1.931 C88.878,1.589 88.152,1.418 87.24,1.418 C87.072,1.418 86.892,1.427 86.7,1.445 C86.508,1.463 86.31,1.484 86.106,1.508 L86.106,1.508 L86.25,0.878 C86.274,0.734 86.211,0.629 86.061,0.563 C85.911,0.497 85.77,0.464 85.638,0.464 C85.158,0.572 84.639,0.857 84.081,1.319 C83.523,1.781 82.968,2.351 82.416,3.029 C81.864,3.707 81.342,4.457 80.85,5.279 C80.358,6.101 79.944,6.929 79.608,7.763 C79.272,8.597 79.035,9.401 78.897,10.175 C78.759,10.949 78.768,11.63 78.924,12.218 C79.08,12.806 79.407,13.265 79.905,13.595 Z M81.822,12.614 C81.306,12.674 80.922,12.605 80.67,12.407 C80.418,12.209 80.259,11.927 80.193,11.561 C80.127,11.195 80.142,10.766 80.238,10.274 C80.334,9.782 80.478,9.272 80.67,8.744 C80.862,8.216 81.087,7.697 81.345,7.187 C81.603,6.677 81.858,6.221 82.11,5.819 C82.362,5.417 82.599,5.09 82.821,4.838 C83.043,4.586 83.214,4.46 83.334,4.46 C83.514,4.46 83.664,4.466 83.784,4.478 C83.904,4.49 84.024,4.469 84.144,4.415 C84.264,4.361 84.39,4.247 84.522,4.073 C84.654,3.899 84.816,3.626 85.008,3.254 C85.476,3.05 85.905,2.9 86.295,2.804 C86.685,2.708 87.036,2.66 87.348,2.66 C88.08,2.66 88.611,2.885 88.941,3.335 C89.271,3.785 89.421,4.355 89.391,5.045 C89.361,5.735 89.163,6.491 88.797,7.313 C88.431,8.135 87.921,8.915 87.267,9.653 C86.613,10.391 85.827,11.033 84.909,11.579 C83.991,12.125 82.962,12.47 81.822,12.614 Z M94.152,14 C94.32,14 94.482,13.916 94.638,13.748 C94.794,13.58 94.872,13.412 94.872,13.244 C94.872,12.752 94.857,12.275 94.827,11.813 C94.797,11.351 94.776,10.802 94.764,10.166 C95.904,10.274 96.936,10.22 97.86,10.004 C98.784,9.788 99.591,9.464 100.281,9.032 C100.971,8.6 101.535,8.09 101.973,7.502 C102.411,6.914 102.717,6.302 102.891,5.666 C103.065,5.03 103.104,4.403 103.008,3.785 C102.912,3.167 102.669,2.615 102.279,2.129 C101.889,1.643 101.349,1.25 100.659,0.95 C99.969,0.65 99.12,0.5 98.112,0.5 C97.68,0.5 97.17,0.542 96.582,0.626 C95.994,0.71 95.412,0.866 94.836,1.094 C94.836,0.974 94.833,0.863 94.827,0.761 C94.821,0.659 94.806,0.596 94.782,0.572 C94.698,0.512 94.578,0.482 94.422,0.482 C94.266,0.482 94.113,0.506 93.963,0.554 C93.813,0.602 93.714,0.668 93.666,0.752 C93.606,0.884 93.576,1.031 93.576,1.193 L93.576,1.193 L93.576,1.652 C93.156,1.88 92.817,2.114 92.559,2.354 C92.301,2.594 92.172,2.834 92.172,3.074 C92.172,3.17 92.217,3.278 92.307,3.398 C92.397,3.518 92.472,3.614 92.532,3.686 C92.592,3.71 92.667,3.701 92.757,3.659 C92.847,3.617 92.943,3.566 93.045,3.506 C93.147,3.446 93.246,3.386 93.342,3.326 C93.438,3.266 93.516,3.236 93.576,3.236 L93.576,3.236 L93.594,8.636 C93.33,8.588 93.063,8.612 92.793,8.708 C92.523,8.804 92.343,8.933 92.253,9.095 C92.163,9.257 92.205,9.428 92.379,9.608 C92.553,9.788 92.946,9.932 93.558,10.04 L93.558,10.04 L93.594,13.658 C93.642,13.742 93.723,13.82 93.837,13.892 C93.951,13.964 94.056,14 94.152,14 Z M96.132,8.924 C95.928,8.924 95.721,8.915 95.511,8.897 C95.301,8.879 95.088,8.846 94.872,8.798 L94.872,8.798 L94.872,4.109 C94.872,3.575 94.866,3.068 94.854,2.588 C95.19,2.348 95.517,2.171 95.835,2.057 C96.153,1.943 96.453,1.862 96.735,1.814 C97.017,1.766 97.278,1.745 97.518,1.751 C97.758,1.757 97.956,1.76 98.112,1.76 C98.916,1.772 99.576,1.886 100.092,2.102 C100.608,2.318 100.998,2.594 101.262,2.93 C101.526,3.266 101.679,3.65 101.721,4.082 C101.763,4.514 101.706,4.952 101.55,5.396 C101.394,5.84 101.148,6.272 100.812,6.692 C100.476,7.112 100.074,7.487 99.606,7.817 C99.138,8.147 98.61,8.414 98.022,8.618 C97.434,8.822 96.804,8.924 96.132,8.924 Z M107.454,14 C108.006,14 108.57,13.931 109.146,13.793 C109.722,13.655 110.256,13.451 110.748,13.181 C111.24,12.911 111.675,12.575 112.053,12.173 C112.431,11.771 112.698,11.312 112.854,10.796 C113.046,10.172 113.091,9.665 112.989,9.275 C112.887,8.885 112.686,8.573 112.386,8.339 C112.086,8.105 111.708,7.937 111.252,7.835 C110.796,7.733 110.316,7.667 109.812,7.637 C109.308,7.607 108.798,7.589 108.282,7.583 C107.766,7.577 107.298,7.559 106.878,7.529 C106.458,7.499 106.104,7.436 105.816,7.34 C105.528,7.244 105.36,7.082 105.312,6.854 C105.216,6.458 105.228,6.056 105.348,5.648 C105.468,5.24 105.654,4.844 105.906,4.46 C106.158,4.076 106.455,3.719 106.797,3.389 C107.139,3.059 107.487,2.768 107.841,2.516 C108.195,2.264 108.537,2.066 108.867,1.922 C109.197,1.778 109.47,1.706 109.686,1.706 C109.854,1.646 109.929,1.541 109.911,1.391 C109.893,1.241 109.824,1.094 109.704,0.95 C109.584,0.806 109.434,0.683 109.254,0.581 C109.074,0.479 108.9,0.446 108.732,0.482 C108.54,0.482 108.27,0.566 107.922,0.734 C107.574,0.902 107.196,1.136 106.788,1.436 C106.38,1.736 105.975,2.093 105.573,2.507 C105.171,2.921 104.82,3.383 104.52,3.893 C104.22,4.403 103.998,4.952 103.854,5.54 C103.71,6.128 103.698,6.74 103.818,7.376 C103.914,7.868 104.145,8.237 104.511,8.483 C104.877,8.729 105.321,8.9 105.843,8.996 C106.365,9.092 106.926,9.137 107.526,9.131 C108.126,9.125 108.696,9.122 109.236,9.122 C109.596,9.122 109.935,9.131 110.253,9.149 C110.571,9.167 110.841,9.212 111.063,9.284 C111.285,9.356 111.453,9.461 111.567,9.599 C111.681,9.737 111.72,9.926 111.684,10.166 C111.648,10.454 111.51,10.745 111.27,11.039 C111.03,11.333 110.727,11.594 110.361,11.822 C109.995,12.05 109.575,12.236 109.101,12.38 C108.627,12.524 108.138,12.596 107.634,12.596 C107.43,12.596 107.235,12.587 107.049,12.569 C106.863,12.551 106.668,12.512 106.464,12.452 C106.176,12.38 105.942,12.392 105.762,12.488 C105.582,12.584 105.474,12.716 105.438,12.884 C105.402,13.052 105.435,13.229 105.537,13.415 C105.639,13.601 105.822,13.742 106.086,13.838 C106.518,13.946 106.974,14 107.454,14 Z" id="SIOPS" fill="#0E0E0E"></path>
                <path d="M0.9,33 C1.26,33 1.524,32.874 1.692,32.622 C1.86,32.37 1.992,32.082 2.088,31.758 C2.184,31.434 2.271,31.113 2.349,30.795 C2.427,30.477 2.55,30.252 2.718,30.12 C3.174,29.988 3.567,29.88 3.897,29.796 C4.227,29.712 4.536,29.634 4.824,29.562 C5.112,29.49 5.394,29.424 5.67,29.364 C5.946,29.304 6.258,29.238 6.606,29.166 C6.678,29.37 6.75,29.67 6.822,30.066 C6.894,30.462 6.969,30.864 7.047,31.272 C7.125,31.68 7.212,32.043 7.308,32.361 C7.404,32.679 7.506,32.862 7.614,32.91 C7.734,32.958 7.848,32.982 7.956,32.982 C8.148,32.982 8.331,32.931 8.505,32.829 C8.679,32.727 8.742,32.574 8.694,32.37 L8.694,32.37 L7.956,28.824 L9.414,28.5 C9.462,28.428 9.474,28.32 9.45,28.176 C9.426,28.032 9.384,27.888 9.324,27.744 C9.264,27.6 9.189,27.468 9.099,27.348 C9.009,27.228 8.922,27.156 8.838,27.132 L8.838,27.132 L7.614,27.384 C7.494,26.652 7.383,25.992 7.281,25.404 C7.179,24.816 7.077,24.237 6.975,23.667 C6.873,23.097 6.765,22.512 6.651,21.912 C6.537,21.312 6.414,20.634 6.282,19.878 C6.306,19.734 6.261,19.632 6.147,19.572 C6.033,19.512 5.904,19.482 5.76,19.482 C5.616,19.482 5.472,19.503 5.328,19.545 C5.184,19.587 5.082,19.638 5.022,19.698 C4.842,20.118 4.62,20.646 4.356,21.282 C4.092,21.918 3.807,22.611 3.501,23.361 C3.195,24.111 2.883,24.891 2.565,25.701 C2.247,26.511 1.947,27.306 1.665,28.086 C1.383,28.866 1.128,29.601 0.9,30.291 C0.672,30.981 0.498,31.578 0.378,32.082 C0.366,32.166 0.366,32.259 0.378,32.361 C0.39,32.463 0.417,32.562 0.459,32.658 C0.501,32.754 0.558,32.835 0.63,32.901 C0.702,32.967 0.792,33 0.9,33 Z M2.988,28.554 C3.168,28.086 3.348,27.585 3.528,27.051 C3.708,26.517 3.897,25.983 4.095,25.449 C4.293,24.915 4.497,24.39 4.707,23.874 C4.917,23.358 5.136,22.878 5.364,22.434 C5.4,22.278 5.445,22.326 5.499,22.578 C5.553,22.83 5.619,23.211 5.697,23.721 C5.775,24.231 5.862,24.837 5.958,25.539 C6.054,26.241 6.15,26.97 6.246,27.726 L6.246,27.726 L2.988,28.554 Z M12.672,33 C12.84,33 13.002,32.916 13.158,32.748 C13.314,32.58 13.392,32.412 13.392,32.244 C13.392,31.752 13.377,31.275 13.347,30.813 C13.317,30.351 13.296,29.802 13.284,29.166 C14.424,29.274 15.456,29.22 16.38,29.004 C17.304,28.788 18.111,28.464 18.801,28.032 C19.491,27.6 20.055,27.09 20.493,26.502 C20.931,25.914 21.237,25.302 21.411,24.666 C21.585,24.03 21.624,23.403 21.528,22.785 C21.432,22.167 21.189,21.615 20.799,21.129 C20.409,20.643 19.869,20.25 19.179,19.95 C18.489,19.65 17.64,19.5 16.632,19.5 C16.2,19.5 15.69,19.542 15.102,19.626 C14.514,19.71 13.932,19.866 13.356,20.094 C13.356,19.974 13.353,19.863 13.347,19.761 C13.341,19.659 13.326,19.596 13.302,19.572 C13.218,19.512 13.098,19.482 12.942,19.482 C12.786,19.482 12.633,19.506 12.483,19.554 C12.333,19.602 12.234,19.668 12.186,19.752 C12.126,19.884 12.096,20.031 12.096,20.193 L12.096,20.193 L12.096,20.652 C11.676,20.88 11.337,21.114 11.079,21.354 C10.821,21.594 10.692,21.834 10.692,22.074 C10.692,22.17 10.737,22.278 10.827,22.398 C10.917,22.518 10.992,22.614 11.052,22.686 C11.112,22.71 11.187,22.701 11.277,22.659 C11.367,22.617 11.463,22.566 11.565,22.506 C11.667,22.446 11.766,22.386 11.862,22.326 C11.958,22.266 12.036,22.236 12.096,22.236 L12.096,22.236 L12.114,27.636 C11.85,27.588 11.583,27.612 11.313,27.708 C11.043,27.804 10.863,27.933 10.773,28.095 C10.683,28.257 10.725,28.428 10.899,28.608 C11.073,28.788 11.466,28.932 12.078,29.04 L12.078,29.04 L12.114,32.658 C12.162,32.742 12.243,32.82 12.357,32.892 C12.471,32.964 12.576,33 12.672,33 Z M14.652,27.924 C14.448,27.924 14.241,27.915 14.031,27.897 C13.821,27.879 13.608,27.846 13.392,27.798 L13.392,27.798 L13.392,23.109 C13.392,22.575 13.386,22.068 13.374,21.588 C13.71,21.348 14.037,21.171 14.355,21.057 C14.673,20.943 14.973,20.862 15.255,20.814 C15.537,20.766 15.798,20.745 16.038,20.751 C16.278,20.757 16.476,20.76 16.632,20.76 C17.436,20.772 18.096,20.886 18.612,21.102 C19.128,21.318 19.518,21.594 19.782,21.93 C20.046,22.266 20.199,22.65 20.241,23.082 C20.283,23.514 20.226,23.952 20.07,24.396 C19.914,24.84 19.668,25.272 19.332,25.692 C18.996,26.112 18.594,26.487 18.126,26.817 C17.658,27.147 17.13,27.414 16.542,27.618 C15.954,27.822 15.324,27.924 14.652,27.924 Z M26.784,33.072 C27.204,33.072 27.606,32.979 27.99,32.793 C28.374,32.607 28.728,32.361 29.052,32.055 C29.376,31.749 29.673,31.392 29.943,30.984 C30.213,30.576 30.444,30.153 30.636,29.715 C30.828,29.277 30.981,28.836 31.095,28.392 C31.209,27.948 31.272,27.534 31.284,27.15 C31.296,26.958 31.299,26.679 31.293,26.313 C31.287,25.947 31.278,25.539 31.266,25.089 C31.254,24.639 31.236,24.174 31.212,23.694 C31.188,23.214 31.158,22.761 31.122,22.335 C31.086,21.909 31.044,21.534 30.996,21.21 C30.948,20.886 30.894,20.658 30.834,20.526 C30.762,20.178 30.645,19.926 30.483,19.77 C30.321,19.614 30.156,19.536 29.988,19.536 C29.784,19.536 29.616,19.653 29.484,19.887 C29.352,20.121 29.358,20.442 29.502,20.85 C29.706,21.822 29.841,22.839 29.907,23.901 C29.973,24.963 29.988,26.004 29.952,27.024 C29.94,27.288 29.895,27.597 29.817,27.951 C29.739,28.305 29.631,28.665 29.493,29.031 C29.355,29.397 29.19,29.754 28.998,30.102 C28.806,30.45 28.59,30.753 28.35,31.011 C28.11,31.269 27.846,31.464 27.558,31.596 C27.27,31.728 26.964,31.764 26.64,31.704 C26.196,31.692 25.809,31.476 25.479,31.056 C25.149,30.636 24.873,30.108 24.651,29.472 C24.429,28.836 24.249,28.131 24.111,27.357 C23.973,26.583 23.868,25.827 23.796,25.089 C23.724,24.351 23.679,23.676 23.661,23.064 C23.643,22.452 23.64,21.99 23.652,21.678 C23.664,21.498 23.703,21.285 23.769,21.039 C23.835,20.793 23.877,20.559 23.895,20.337 C23.913,20.115 23.874,19.926 23.778,19.77 C23.682,19.614 23.472,19.53 23.148,19.518 C22.992,19.506 22.83,19.524 22.662,19.572 C22.494,19.62 22.404,19.728 22.392,19.896 L22.392,19.896 L22.356,20.58 C22.332,21.096 22.317,21.732 22.311,22.488 C22.305,23.244 22.335,24.048 22.401,24.9 C22.467,25.752 22.575,26.613 22.725,27.483 C22.875,28.353 23.088,29.163 23.364,29.913 C23.64,30.663 23.994,31.308 24.426,31.848 C24.858,32.388 25.386,32.76 26.01,32.964 C26.286,33.036 26.544,33.072 26.784,33.072 Z M42.228,33 C42.312,33 42.387,32.937 42.453,32.811 C42.519,32.685 42.564,32.541 42.588,32.379 C42.612,32.217 42.615,32.067 42.597,31.929 C42.579,31.791 42.528,31.71 42.444,31.686 C41.52,31.446 40.689,31.239 39.951,31.065 C39.213,30.891 38.553,30.738 37.971,30.606 C37.389,30.474 36.876,30.357 36.432,30.255 C35.988,30.153 35.598,30.06 35.262,29.976 C35.586,29.904 35.991,29.781 36.477,29.607 C36.963,29.433 37.476,29.211 38.016,28.941 C38.556,28.671 39.099,28.359 39.645,28.005 C40.191,27.651 40.683,27.258 41.121,26.826 C41.559,26.394 41.913,25.926 42.183,25.422 C42.453,24.918 42.588,24.378 42.588,23.802 C42.588,23.082 42.378,22.452 41.958,21.912 C41.538,21.372 40.995,20.922 40.329,20.562 C39.663,20.202 38.919,19.932 38.097,19.752 C37.275,19.572 36.474,19.482 35.694,19.482 C35.094,19.482 34.53,19.536 34.002,19.644 C33.474,19.752 33.018,19.914 32.634,20.13 C32.526,20.202 32.466,20.328 32.454,20.508 C32.442,20.688 32.463,20.859 32.517,21.021 C32.571,21.183 32.649,21.315 32.751,21.417 C32.853,21.519 32.976,21.528 33.12,21.444 L33.12,21.444 L33.57,28.968 C33.21,29.016 32.937,29.052 32.751,29.076 C32.565,29.1 32.418,29.118 32.31,29.13 C32.202,29.142 32.106,29.154 32.022,29.166 C31.938,29.178 31.812,29.196 31.644,29.22 C31.584,29.244 31.53,29.292 31.482,29.364 C31.434,29.436 31.392,29.517 31.356,29.607 C31.32,29.697 31.293,29.784 31.275,29.868 C31.257,29.952 31.248,30.018 31.248,30.066 C31.248,30.222 31.269,30.363 31.311,30.489 C31.353,30.615 31.452,30.69 31.608,30.714 C31.848,30.75 32.046,30.786 32.202,30.822 C32.358,30.858 32.502,30.888 32.634,30.912 C32.766,30.936 32.901,30.963 33.039,30.993 C33.177,31.023 33.354,31.056 33.57,31.092 L33.57,31.092 L33.57,32.316 C33.57,32.412 33.576,32.484 33.588,32.532 C33.6,32.58 33.618,32.64 33.642,32.712 C33.702,32.892 33.846,32.985 34.074,32.991 C34.302,32.997 34.524,33 34.74,33 C34.848,33 34.902,32.937 34.902,32.811 L34.902,32.811 L34.902,31.308 C36.246,31.608 37.512,31.914 38.7,32.226 C39.888,32.538 41.064,32.796 42.228,33 Z M34.902,28.698 C34.89,28.11 34.866,27.495 34.83,26.853 C34.794,26.211 34.755,25.56 34.713,24.9 C34.671,24.24 34.623,23.589 34.569,22.947 C34.515,22.305 34.458,21.696 34.398,21.12 C34.866,20.916 35.43,20.814 36.09,20.814 C36.63,20.814 37.194,20.88 37.782,21.012 C38.37,21.144 38.913,21.33 39.411,21.57 C39.909,21.81 40.326,22.104 40.662,22.452 C40.998,22.8 41.19,23.19 41.238,23.622 C41.274,23.994 41.196,24.366 41.004,24.738 C40.812,25.11 40.542,25.467 40.194,25.809 C39.846,26.151 39.444,26.475 38.988,26.781 C38.532,27.087 38.061,27.366 37.575,27.618 C37.089,27.87 36.615,28.089 36.153,28.275 C35.691,28.461 35.274,28.602 34.902,28.698 Z M43.884,33 C44.244,33 44.508,32.874 44.676,32.622 C44.844,32.37 44.976,32.082 45.072,31.758 C45.168,31.434 45.255,31.113 45.333,30.795 C45.411,30.477 45.534,30.252 45.702,30.12 C46.158,29.988 46.551,29.88 46.881,29.796 C47.211,29.712 47.52,29.634 47.808,29.562 C48.096,29.49 48.378,29.424 48.654,29.364 C48.93,29.304 49.242,29.238 49.59,29.166 C49.662,29.37 49.734,29.67 49.806,30.066 C49.878,30.462 49.953,30.864 50.031,31.272 C50.109,31.68 50.196,32.043 50.292,32.361 C50.388,32.679 50.49,32.862 50.598,32.91 C50.718,32.958 50.832,32.982 50.94,32.982 C51.132,32.982 51.315,32.931 51.489,32.829 C51.663,32.727 51.726,32.574 51.678,32.37 L51.678,32.37 L50.94,28.824 L52.398,28.5 C52.446,28.428 52.458,28.32 52.434,28.176 C52.41,28.032 52.368,27.888 52.308,27.744 C52.248,27.6 52.173,27.468 52.083,27.348 C51.993,27.228 51.906,27.156 51.822,27.132 L51.822,27.132 L50.598,27.384 C50.478,26.652 50.367,25.992 50.265,25.404 C50.163,24.816 50.061,24.237 49.959,23.667 C49.857,23.097 49.749,22.512 49.635,21.912 C49.521,21.312 49.398,20.634 49.266,19.878 C49.29,19.734 49.245,19.632 49.131,19.572 C49.017,19.512 48.888,19.482 48.744,19.482 C48.6,19.482 48.456,19.503 48.312,19.545 C48.168,19.587 48.066,19.638 48.006,19.698 C47.826,20.118 47.604,20.646 47.34,21.282 C47.076,21.918 46.791,22.611 46.485,23.361 C46.179,24.111 45.867,24.891 45.549,25.701 C45.231,26.511 44.931,27.306 44.649,28.086 C44.367,28.866 44.112,29.601 43.884,30.291 C43.656,30.981 43.482,31.578 43.362,32.082 C43.35,32.166 43.35,32.259 43.362,32.361 C43.374,32.463 43.401,32.562 43.443,32.658 C43.485,32.754 43.542,32.835 43.614,32.901 C43.686,32.967 43.776,33 43.884,33 Z M45.972,28.554 C46.152,28.086 46.332,27.585 46.512,27.051 C46.692,26.517 46.881,25.983 47.079,25.449 C47.277,24.915 47.481,24.39 47.691,23.874 C47.901,23.358 48.12,22.878 48.348,22.434 C48.384,22.278 48.429,22.326 48.483,22.578 C48.537,22.83 48.603,23.211 48.681,23.721 C48.759,24.231 48.846,24.837 48.942,25.539 C49.038,26.241 49.134,26.97 49.23,27.726 L49.23,27.726 L45.972,28.554 Z" id="APURA" fill="#0E0E0E"></path>
                <path d="M116.532,37.012 C116.94,37.012 117.358,36.938 117.786,36.79 C118.214,36.642 118.616,36.442 118.992,36.19 C119.368,35.938 119.704,35.644 120,35.308 C120.296,34.972 120.508,34.612 120.636,34.228 C120.644,34.076 120.626,33.944 120.582,33.832 C120.538,33.72 120.424,33.664 120.24,33.664 C120.192,33.664 120.144,33.678 120.096,33.706 C120.048,33.734 120.004,33.76 119.964,33.784 C119.964,33.952 119.852,34.168 119.628,34.432 C119.404,34.696 119.122,34.954 118.782,35.206 C118.442,35.458 118.072,35.676 117.672,35.86 C117.272,36.044 116.892,36.136 116.532,36.136 C116.34,36.136 116.16,36.102 115.992,36.034 C115.824,35.966 115.678,35.856 115.554,35.704 C115.43,35.552 115.33,35.354 115.254,35.11 C115.178,34.866 115.136,34.564 115.128,34.204 C115.12,33.9 115.142,33.556 115.194,33.172 C115.246,32.788 115.326,32.396 115.434,31.996 C115.542,31.596 115.674,31.206 115.83,30.826 C115.986,30.446 116.166,30.106 116.37,29.806 C116.574,29.506 116.804,29.264 117.06,29.08 C117.316,28.896 117.592,28.804 117.888,28.804 C117.936,28.804 118.014,28.82 118.122,28.852 C118.23,28.884 118.34,28.9 118.452,28.9 C118.548,28.9 118.632,28.872 118.704,28.816 C118.776,28.76 118.812,28.652 118.812,28.492 C118.812,28.364 118.764,28.264 118.668,28.192 C118.572,28.12 118.46,28.068 118.332,28.036 C118.204,28.004 118.072,27.988 117.936,27.988 C117.8,27.988 117.692,28 117.612,28.024 C117.18,28.128 116.794,28.306 116.454,28.558 C116.114,28.81 115.82,29.108 115.572,29.452 C115.324,29.796 115.114,30.174 114.942,30.586 C114.77,30.998 114.632,31.416 114.528,31.84 C114.424,32.264 114.35,32.682 114.306,33.094 C114.262,33.506 114.24,33.884 114.24,34.228 C114.24,34.732 114.3,35.16 114.42,35.512 C114.54,35.864 114.706,36.152 114.918,36.376 C115.13,36.6 115.374,36.762 115.65,36.862 C115.926,36.962 116.22,37.012 116.532,37.012 Z M120.768,37 C121.008,37 121.184,36.916 121.296,36.748 C121.408,36.58 121.496,36.388 121.56,36.172 C121.624,35.956 121.682,35.742 121.734,35.53 C121.786,35.318 121.868,35.168 121.98,35.08 C122.284,34.992 122.546,34.92 122.766,34.864 C122.986,34.808 123.192,34.756 123.384,34.708 C123.576,34.66 123.764,34.616 123.948,34.576 C124.132,34.536 124.34,34.492 124.572,34.444 C124.62,34.58 124.668,34.78 124.716,35.044 C124.764,35.308 124.814,35.576 124.866,35.848 C124.918,36.12 124.976,36.362 125.04,36.574 C125.104,36.786 125.172,36.908 125.244,36.94 C125.324,36.972 125.4,36.988 125.472,36.988 C125.6,36.988 125.722,36.954 125.838,36.886 C125.954,36.818 125.996,36.716 125.964,36.58 L125.964,36.58 L125.472,34.216 L126.444,34 C126.476,33.952 126.484,33.88 126.468,33.784 C126.452,33.688 126.424,33.592 126.384,33.496 C126.344,33.4 126.294,33.312 126.234,33.232 C126.174,33.152 126.116,33.104 126.06,33.088 L126.06,33.088 L125.244,33.256 C125.164,32.768 125.09,32.328 125.022,31.936 C124.954,31.544 124.886,31.158 124.818,30.778 C124.75,30.398 124.678,30.008 124.602,29.608 C124.526,29.208 124.444,28.756 124.356,28.252 C124.372,28.156 124.342,28.088 124.266,28.048 C124.19,28.008 124.104,27.988 124.008,27.988 C123.912,27.988 123.816,28.002 123.72,28.03 C123.624,28.058 123.556,28.092 123.516,28.132 C123.396,28.412 123.248,28.764 123.072,29.188 C122.896,29.612 122.706,30.074 122.502,30.574 C122.298,31.074 122.09,31.594 121.878,32.134 C121.666,32.674 121.466,33.204 121.278,33.724 C121.09,34.244 120.92,34.734 120.768,35.194 C120.616,35.654 120.5,36.052 120.42,36.388 C120.412,36.444 120.412,36.506 120.42,36.574 C120.428,36.642 120.446,36.708 120.474,36.772 C120.502,36.836 120.54,36.89 120.588,36.934 C120.636,36.978 120.696,37 120.768,37 Z M122.16,34.036 C122.28,33.724 122.4,33.39 122.52,33.034 C122.64,32.678 122.766,32.322 122.898,31.966 C123.03,31.61 123.166,31.26 123.306,30.916 C123.446,30.572 123.592,30.252 123.744,29.956 C123.768,29.852 123.798,29.884 123.834,30.052 C123.87,30.22 123.914,30.474 123.966,30.814 C124.018,31.154 124.076,31.558 124.14,32.026 C124.204,32.494 124.268,32.98 124.332,33.484 L124.332,33.484 L122.16,34.036 Z M128.628,37 C128.764,37.016 128.888,37.002 129,36.958 C129.112,36.914 129.16,36.788 129.144,36.58 C129.088,35.98 129.044,35.39 129.012,34.81 C128.98,34.23 128.954,33.634 128.934,33.022 C128.914,32.41 128.898,31.768 128.886,31.096 C128.874,30.424 128.86,29.692 128.844,28.9 C129.204,28.884 129.53,28.882 129.822,28.894 C130.114,28.906 130.444,28.928 130.812,28.96 C130.94,28.976 131.04,28.94 131.112,28.852 C131.184,28.764 131.228,28.652 131.244,28.516 C131.26,28.42 131.252,28.332 131.22,28.252 C131.188,28.172 131.124,28.124 131.028,28.108 L131.028,28.108 L130.404,28.036 C130.036,27.988 129.66,27.964 129.276,27.964 C128.804,27.964 128.336,27.984 127.872,28.024 C127.408,28.064 126.936,28.084 126.456,28.084 C126.288,28.084 126.116,28.078 125.94,28.066 C125.764,28.054 125.588,28.04 125.412,28.024 C125.34,28.016 125.276,28.054 125.22,28.138 C125.164,28.222 125.128,28.308 125.112,28.396 C125.096,28.516 125.118,28.626 125.178,28.726 C125.238,28.826 125.328,28.884 125.448,28.9 C125.584,28.916 125.716,28.928 125.844,28.936 C125.972,28.944 126.1,28.948 126.228,28.948 C126.524,28.948 126.816,28.938 127.104,28.918 C127.392,28.898 127.688,28.892 127.992,28.9 C127.992,30.06 128.014,31.294 128.058,32.602 C128.102,33.91 128.128,35.212 128.136,36.508 C128.136,36.644 128.184,36.756 128.28,36.844 C128.376,36.932 128.492,36.984 128.628,37 Z M136.356,37.024 C136.476,37.024 136.584,36.988 136.68,36.916 C136.776,36.844 136.824,36.736 136.824,36.592 C136.824,36.472 136.81,36.266 136.782,35.974 C136.754,35.682 136.714,35.338 136.662,34.942 C136.61,34.546 136.552,34.112 136.488,33.64 C136.424,33.168 136.356,32.692 136.284,32.212 C136.212,31.732 136.14,31.264 136.068,30.808 C135.996,30.352 135.926,29.938 135.858,29.566 C135.79,29.194 135.73,28.88 135.678,28.624 C135.626,28.368 135.584,28.204 135.552,28.132 C135.528,28.068 135.488,28.03 135.432,28.018 C135.376,28.006 135.32,28 135.264,28 C135.2,28 135.14,28.006 135.084,28.018 C135.028,28.03 134.984,28.068 134.952,28.132 C134.752,28.676 134.582,29.208 134.442,29.728 C134.302,30.248 134.172,30.764 134.052,31.276 C133.932,31.788 133.816,32.302 133.704,32.818 C133.592,33.334 133.464,33.856 133.32,34.384 C133.104,33.928 132.894,33.432 132.69,32.896 C132.486,32.36 132.286,31.828 132.09,31.3 C131.894,30.772 131.706,30.272 131.526,29.8 C131.346,29.328 131.176,28.928 131.016,28.6 C130.96,28.432 130.894,28.316 130.818,28.252 C130.742,28.188 130.66,28.156 130.572,28.156 C130.436,28.156 130.316,28.21 130.212,28.318 C130.108,28.426 130.056,28.524 130.056,28.612 C130.056,29.124 130.062,29.728 130.074,30.424 C130.086,31.12 130.1,31.834 130.116,32.566 C130.132,33.298 130.154,34.016 130.182,34.72 C130.21,35.424 130.236,36.048 130.26,36.592 C130.276,36.728 130.342,36.83 130.458,36.898 C130.574,36.966 130.692,37 130.812,37 C130.94,37 131.024,36.97 131.064,36.91 C131.104,36.85 131.124,36.756 131.124,36.628 C131.124,35.716 131.116,34.772 131.1,33.796 C131.084,32.82 131.044,31.876 130.98,30.964 C131.084,31.164 131.204,31.436 131.34,31.78 C131.476,32.124 131.622,32.502 131.778,32.914 C131.934,33.326 132.09,33.75 132.246,34.186 C132.402,34.622 132.554,35.03 132.702,35.41 C132.85,35.79 132.984,36.12 133.104,36.4 C133.224,36.68 133.324,36.872 133.404,36.976 C133.468,36.976 133.532,36.968 133.596,36.952 C133.66,36.936 133.704,36.896 133.728,36.832 C133.896,36.224 134.03,35.674 134.13,35.182 C134.23,34.69 134.326,34.21 134.418,33.742 C134.51,33.274 134.61,32.796 134.718,32.308 C134.826,31.82 134.972,31.272 135.156,30.664 C135.22,31.16 135.28,31.594 135.336,31.966 C135.392,32.338 135.442,32.678 135.486,32.986 C135.53,33.294 135.572,33.582 135.612,33.85 C135.652,34.118 135.688,34.392 135.72,34.672 C135.752,34.952 135.784,35.25 135.816,35.566 C135.848,35.882 135.876,36.244 135.9,36.652 C135.916,36.772 135.968,36.864 136.056,36.928 C136.144,36.992 136.244,37.024 136.356,37.024 Z M137.664,37 C137.904,37 138.08,36.916 138.192,36.748 C138.304,36.58 138.392,36.388 138.456,36.172 C138.52,35.956 138.578,35.742 138.63,35.53 C138.682,35.318 138.764,35.168 138.876,35.08 C139.18,34.992 139.442,34.92 139.662,34.864 C139.882,34.808 140.088,34.756 140.28,34.708 C140.472,34.66 140.66,34.616 140.844,34.576 C141.028,34.536 141.236,34.492 141.468,34.444 C141.516,34.58 141.564,34.78 141.612,35.044 C141.66,35.308 141.71,35.576 141.762,35.848 C141.814,36.12 141.872,36.362 141.936,36.574 C142,36.786 142.068,36.908 142.14,36.94 C142.22,36.972 142.296,36.988 142.368,36.988 C142.496,36.988 142.618,36.954 142.734,36.886 C142.85,36.818 142.892,36.716 142.86,36.58 L142.86,36.58 L142.368,34.216 L143.34,34 C143.372,33.952 143.38,33.88 143.364,33.784 C143.348,33.688 143.32,33.592 143.28,33.496 C143.24,33.4 143.19,33.312 143.13,33.232 C143.07,33.152 143.012,33.104 142.956,33.088 L142.956,33.088 L142.14,33.256 C142.06,32.768 141.986,32.328 141.918,31.936 C141.85,31.544 141.782,31.158 141.714,30.778 C141.646,30.398 141.574,30.008 141.498,29.608 C141.422,29.208 141.34,28.756 141.252,28.252 C141.268,28.156 141.238,28.088 141.162,28.048 C141.086,28.008 141,27.988 140.904,27.988 C140.808,27.988 140.712,28.002 140.616,28.03 C140.52,28.058 140.452,28.092 140.412,28.132 C140.292,28.412 140.144,28.764 139.968,29.188 C139.792,29.612 139.602,30.074 139.398,30.574 C139.194,31.074 138.986,31.594 138.774,32.134 C138.562,32.674 138.362,33.204 138.174,33.724 C137.986,34.244 137.816,34.734 137.664,35.194 C137.512,35.654 137.396,36.052 137.316,36.388 C137.308,36.444 137.308,36.506 137.316,36.574 C137.324,36.642 137.342,36.708 137.37,36.772 C137.398,36.836 137.436,36.89 137.484,36.934 C137.532,36.978 137.592,37 137.664,37 Z M139.056,34.036 C139.176,33.724 139.296,33.39 139.416,33.034 C139.536,32.678 139.662,32.322 139.794,31.966 C139.926,31.61 140.062,31.26 140.202,30.916 C140.342,30.572 140.488,30.252 140.64,29.956 C140.664,29.852 140.694,29.884 140.73,30.052 C140.766,30.22 140.81,30.474 140.862,30.814 C140.914,31.154 140.972,31.558 141.036,32.026 C141.1,32.494 141.164,32.98 141.228,33.484 L141.228,33.484 L139.056,34.036 Z M145.524,37 C145.66,37.016 145.784,37.002 145.896,36.958 C146.008,36.914 146.056,36.788 146.04,36.58 C145.984,35.98 145.94,35.39 145.908,34.81 C145.876,34.23 145.85,33.634 145.83,33.022 C145.81,32.41 145.794,31.768 145.782,31.096 C145.77,30.424 145.756,29.692 145.74,28.9 C146.1,28.884 146.426,28.882 146.718,28.894 C147.01,28.906 147.34,28.928 147.708,28.96 C147.836,28.976 147.936,28.94 148.008,28.852 C148.08,28.764 148.124,28.652 148.14,28.516 C148.156,28.42 148.148,28.332 148.116,28.252 C148.084,28.172 148.02,28.124 147.924,28.108 L147.924,28.108 L147.3,28.036 C146.932,27.988 146.556,27.964 146.172,27.964 C145.7,27.964 145.232,27.984 144.768,28.024 C144.304,28.064 143.832,28.084 143.352,28.084 C143.184,28.084 143.012,28.078 142.836,28.066 C142.66,28.054 142.484,28.04 142.308,28.024 C142.236,28.016 142.172,28.054 142.116,28.138 C142.06,28.222 142.024,28.308 142.008,28.396 C141.992,28.516 142.014,28.626 142.074,28.726 C142.134,28.826 142.224,28.884 142.344,28.9 C142.48,28.916 142.612,28.928 142.74,28.936 C142.868,28.944 142.996,28.948 143.124,28.948 C143.42,28.948 143.712,28.938 144,28.918 C144.288,28.898 144.584,28.892 144.888,28.9 C144.888,30.06 144.91,31.294 144.954,32.602 C144.998,33.91 145.024,35.212 145.032,36.508 C145.032,36.644 145.08,36.756 145.176,36.844 C145.272,36.932 145.388,36.984 145.524,37 Z" id="CATMAT" fill="#0E0E0E"></path>
                <path d="M168.7,18.928 C169.096,18.928 169.51,18.913 169.942,18.883 C170.374,18.853 170.776,18.817 171.148,18.775 C171.52,18.733 171.841,18.694 172.111,18.658 C172.381,18.622 172.546,18.598 172.606,18.586 C173.038,18.478 173.545,18.313 174.127,18.091 C174.709,17.869 175.27,17.593 175.81,17.263 C176.35,16.933 176.809,16.546 177.187,16.102 C177.565,15.658 177.76,15.166 177.772,14.626 C177.784,14.074 177.613,13.6 177.259,13.204 C176.905,12.808 176.461,12.487 175.927,12.241 C175.393,11.995 174.814,11.827 174.19,11.737 C173.566,11.647 172.99,11.632 172.462,11.692 C172.93,11.524 173.386,11.302 173.83,11.026 C174.274,10.75 174.664,10.453 175,10.135 C175.336,9.817 175.603,9.487 175.801,9.145 C175.999,8.803 176.098,8.482 176.098,8.182 C176.086,7.858 175.951,7.573 175.693,7.327 C175.435,7.081 175.102,6.865 174.694,6.679 C174.286,6.493 173.827,6.337 173.317,6.211 C172.807,6.085 172.306,5.986 171.814,5.914 C171.322,5.842 170.863,5.788 170.437,5.752 C170.011,5.716 169.666,5.698 169.402,5.698 C169.342,5.638 169.258,5.572 169.15,5.5 C169.042,5.428 168.94,5.392 168.844,5.392 C168.664,5.392 168.526,5.446 168.43,5.554 C168.334,5.662 168.25,5.788 168.178,5.932 C167.974,5.98 167.767,6.031 167.557,6.085 C167.347,6.139 167.155,6.217 166.981,6.319 C166.807,6.421 166.666,6.556 166.558,6.724 C166.45,6.892 166.396,7.102 166.396,7.354 C166.396,7.522 166.441,7.639 166.531,7.705 C166.621,7.771 166.744,7.804 166.9,7.804 C167.08,7.804 167.26,7.774 167.44,7.714 C167.62,7.654 167.794,7.6 167.962,7.552 L167.962,7.552 L168.34,11.8 L167.512,11.962 C167.332,12.058 167.206,12.187 167.134,12.349 C167.062,12.511 167.026,12.694 167.026,12.898 C167.026,12.922 167.032,12.979 167.044,13.069 C167.056,13.159 167.071,13.252 167.089,13.348 C167.107,13.444 167.131,13.528 167.161,13.6 C167.191,13.672 167.224,13.708 167.26,13.708 L167.26,13.708 L168.484,13.528 L168.7,17.074 C168.712,17.302 168.673,17.449 168.583,17.515 C168.493,17.581 168.382,17.614 168.25,17.614 C168.178,17.614 168.1,17.608 168.016,17.596 C167.932,17.584 167.86,17.572 167.8,17.56 C167.368,17.824 167.098,18.046 166.99,18.226 C166.882,18.406 166.891,18.547 167.017,18.649 C167.143,18.751 167.359,18.823 167.665,18.865 C167.971,18.907 168.316,18.928 168.7,18.928 Z M169.852,11.53 C169.828,11.53 169.804,11.524 169.78,11.512 C169.768,11.512 169.762,11.5 169.762,11.476 C169.762,11.452 169.756,11.434 169.744,11.422 C169.708,11.158 169.675,10.867 169.645,10.549 C169.615,10.231 169.591,9.904 169.573,9.568 C169.555,9.232 169.54,8.902 169.528,8.578 C169.516,8.254 169.504,7.954 169.492,7.678 C169.48,7.45 169.537,7.315 169.663,7.273 C169.789,7.231 169.936,7.21 170.104,7.21 C170.296,7.21 170.539,7.213 170.833,7.219 C171.127,7.225 171.442,7.24 171.778,7.264 C172.114,7.288 172.45,7.324 172.786,7.372 C173.122,7.42 173.428,7.492 173.704,7.588 C173.98,7.684 174.202,7.807 174.37,7.957 C174.538,8.107 174.622,8.29 174.622,8.506 C174.622,8.626 174.523,8.782 174.325,8.974 C174.127,9.166 173.875,9.376 173.569,9.604 C173.263,9.832 172.921,10.06 172.543,10.288 C172.165,10.516 171.799,10.723 171.445,10.909 C171.091,11.095 170.77,11.245 170.482,11.359 C170.194,11.473 169.984,11.53 169.852,11.53 Z M170.374,17.524 C170.254,17.524 170.164,17.518 170.104,17.506 C170.068,16.822 170.026,16.156 169.978,15.508 C169.93,14.86 169.876,14.158 169.816,13.402 C169.816,13.378 169.9,13.345 170.068,13.303 C170.236,13.261 170.458,13.219 170.734,13.177 C171.01,13.135 171.325,13.099 171.679,13.069 C172.033,13.039 172.402,13.024 172.786,13.024 C173.218,13.024 173.65,13.051 174.082,13.105 C174.514,13.159 174.901,13.252 175.243,13.384 C175.585,13.516 175.861,13.696 176.071,13.924 C176.281,14.152 176.386,14.44 176.386,14.788 C176.386,15.052 176.266,15.304 176.026,15.544 C175.786,15.784 175.48,16.006 175.108,16.21 C174.736,16.414 174.319,16.597 173.857,16.759 C173.395,16.921 172.942,17.059 172.498,17.173 C172.054,17.287 171.643,17.374 171.265,17.434 C170.887,17.494 170.59,17.524 170.374,17.524 Z M181.642,19 C181.81,19 181.972,18.916 182.128,18.748 C182.284,18.58 182.362,18.412 182.362,18.244 C182.362,17.752 182.347,17.275 182.317,16.813 C182.287,16.351 182.266,15.802 182.254,15.166 C183.394,15.274 184.426,15.22 185.35,15.004 C186.274,14.788 187.081,14.464 187.771,14.032 C188.461,13.6 189.025,13.09 189.463,12.502 C189.901,11.914 190.207,11.302 190.381,10.666 C190.555,10.03 190.594,9.403 190.498,8.785 C190.402,8.167 190.159,7.615 189.769,7.129 C189.379,6.643 188.839,6.25 188.149,5.95 C187.459,5.65 186.61,5.5 185.602,5.5 C185.17,5.5 184.66,5.542 184.072,5.626 C183.484,5.71 182.902,5.866 182.326,6.094 C182.326,5.974 182.323,5.863 182.317,5.761 C182.311,5.659 182.296,5.596 182.272,5.572 C182.188,5.512 182.068,5.482 181.912,5.482 C181.756,5.482 181.603,5.506 181.453,5.554 C181.303,5.602 181.204,5.668 181.156,5.752 C181.096,5.884 181.066,6.031 181.066,6.193 L181.066,6.193 L181.066,6.652 C180.646,6.88 180.307,7.114 180.049,7.354 C179.791,7.594 179.662,7.834 179.662,8.074 C179.662,8.17 179.707,8.278 179.797,8.398 C179.887,8.518 179.962,8.614 180.022,8.686 C180.082,8.71 180.157,8.701 180.247,8.659 C180.337,8.617 180.433,8.566 180.535,8.506 C180.637,8.446 180.736,8.386 180.832,8.326 C180.928,8.266 181.006,8.236 181.066,8.236 L181.066,8.236 L181.084,13.636 C180.82,13.588 180.553,13.612 180.283,13.708 C180.013,13.804 179.833,13.933 179.743,14.095 C179.653,14.257 179.695,14.428 179.869,14.608 C180.043,14.788 180.436,14.932 181.048,15.04 L181.048,15.04 L181.084,18.658 C181.132,18.742 181.213,18.82 181.327,18.892 C181.441,18.964 181.546,19 181.642,19 Z M183.622,13.924 C183.418,13.924 183.211,13.915 183.001,13.897 C182.791,13.879 182.578,13.846 182.362,13.798 L182.362,13.798 L182.362,9.109 C182.362,8.575 182.356,8.068 182.344,7.588 C182.68,7.348 183.007,7.171 183.325,7.057 C183.643,6.943 183.943,6.862 184.225,6.814 C184.507,6.766 184.768,6.745 185.008,6.751 C185.248,6.757 185.446,6.76 185.602,6.76 C186.406,6.772 187.066,6.886 187.582,7.102 C188.098,7.318 188.488,7.594 188.752,7.93 C189.016,8.266 189.169,8.65 189.211,9.082 C189.253,9.514 189.196,9.952 189.04,10.396 C188.884,10.84 188.638,11.272 188.302,11.692 C187.966,12.112 187.564,12.487 187.096,12.817 C186.628,13.147 186.1,13.414 185.512,13.618 C184.924,13.822 184.294,13.924 183.622,13.924 Z M194.944,19 C195.496,19 196.06,18.931 196.636,18.793 C197.212,18.655 197.746,18.451 198.238,18.181 C198.73,17.911 199.165,17.575 199.543,17.173 C199.921,16.771 200.188,16.312 200.344,15.796 C200.536,15.172 200.581,14.665 200.479,14.275 C200.377,13.885 200.176,13.573 199.876,13.339 C199.576,13.105 199.198,12.937 198.742,12.835 C198.286,12.733 197.806,12.667 197.302,12.637 C196.798,12.607 196.288,12.589 195.772,12.583 C195.256,12.577 194.788,12.559 194.368,12.529 C193.948,12.499 193.594,12.436 193.306,12.34 C193.018,12.244 192.85,12.082 192.802,11.854 C192.706,11.458 192.718,11.056 192.838,10.648 C192.958,10.24 193.144,9.844 193.396,9.46 C193.648,9.076 193.945,8.719 194.287,8.389 C194.629,8.059 194.977,7.768 195.331,7.516 C195.685,7.264 196.027,7.066 196.357,6.922 C196.687,6.778 196.96,6.706 197.176,6.706 C197.344,6.646 197.419,6.541 197.401,6.391 C197.383,6.241 197.314,6.094 197.194,5.95 C197.074,5.806 196.924,5.683 196.744,5.581 C196.564,5.479 196.39,5.446 196.222,5.482 C196.03,5.482 195.76,5.566 195.412,5.734 C195.064,5.902 194.686,6.136 194.278,6.436 C193.87,6.736 193.465,7.093 193.063,7.507 C192.661,7.921 192.31,8.383 192.01,8.893 C191.71,9.403 191.488,9.952 191.344,10.54 C191.2,11.128 191.188,11.74 191.308,12.376 C191.404,12.868 191.635,13.237 192.001,13.483 C192.367,13.729 192.811,13.9 193.333,13.996 C193.855,14.092 194.416,14.137 195.016,14.131 C195.616,14.125 196.186,14.122 196.726,14.122 C197.086,14.122 197.425,14.131 197.743,14.149 C198.061,14.167 198.331,14.212 198.553,14.284 C198.775,14.356 198.943,14.461 199.057,14.599 C199.171,14.737 199.21,14.926 199.174,15.166 C199.138,15.454 199,15.745 198.76,16.039 C198.52,16.333 198.217,16.594 197.851,16.822 C197.485,17.05 197.065,17.236 196.591,17.38 C196.117,17.524 195.628,17.596 195.124,17.596 C194.92,17.596 194.725,17.587 194.539,17.569 C194.353,17.551 194.158,17.512 193.954,17.452 C193.666,17.38 193.432,17.392 193.252,17.488 C193.072,17.584 192.964,17.716 192.928,17.884 C192.892,18.052 192.925,18.229 193.027,18.415 C193.129,18.601 193.312,18.742 193.576,18.838 C194.008,18.946 194.464,19 194.944,19 Z" id="BPS" fill="#0E0E0E"></path>
            </g>
        </g>
    </g>
</svg>