<?xml version="1.0" encoding="UTF-8"?>
<svg viewBox="0 0 330 160" version="1.1" xmlns="http://www.w3.org/2000/svg" xmlns:xlink="http://www.w3.org/1999/xlink">
    <!-- Generator: Sketch 63.1 (92452) - https://sketch.com -->
    <title>servico copy</title>
    <desc>Created with Sketch.</desc>
    <defs>
        <path d="M92.478,24.575 C92.667,24.575 92.856,24.491 93.066,24.323 C93.234,24.155 93.318,23.966 93.318,23.777 C93.318,23.693 93.276,23.336 93.234,22.685 C93.15,22.055 93.129,21.53 93.129,21.152 C93.129,19.955 93.192,18.674 93.36,17.33 C95.292,17.309 97.329,16.973 99.429,16.322 C100.101,16.112 100.458,15.755 100.458,15.251 C100.458,14.705 100.185,14.432 99.639,14.432 C99.261,14.558 99.009,14.642 98.862,14.684 C97.728,15.083 95.985,15.377 93.612,15.587 C93.927,13.655 94.347,11.87 94.872,10.211 C96.993,10.043 98.778,9.938 100.206,9.938 C100.248,9.938 100.332,9.959 100.437,9.959 C100.521,10.001 100.605,10.001 100.668,10.001 C100.836,10.001 101.004,9.896 101.172,9.686 C101.34,9.476 101.424,9.266 101.424,9.098 C101.424,8.489 100.899,8.174 99.849,8.174 C99.534,8.174 98.61,8.216 97.077,8.3 C95.565,8.405 94.788,8.447 94.746,8.447 L94.347,8.342 C94.095,8.384 93.906,8.468 93.78,8.594 C93.234,8.657 92.856,8.72 92.646,8.783 C92.205,8.951 91.995,9.224 91.995,9.623 C91.995,10.148 92.331,10.484 93.003,10.61 C92.583,12.08 92.331,13.088 92.247,13.592 C91.869,15.398 91.638,17.456 91.512,19.724 C91.218,19.934 91.071,20.123 91.071,20.312 C91.071,22.013 91.302,23.273 91.785,24.113 C91.953,24.407 92.184,24.575 92.478,24.575 Z M105.12,23.798 C105.225,23.798 105.351,23.735 105.498,23.609 C105.624,23.504 105.708,23.399 105.708,23.294 C105.708,23.231 105.687,23.105 105.666,22.937 C105.624,22.748 105.624,22.622 105.624,22.538 C105.414,19.976 105.309,18.17 105.309,17.162 C105.309,14.747 105.624,12.332 106.254,9.917 L106.401,9.707 C106.821,9.497 107.052,9.203 107.052,8.804 C107.052,8.552 106.863,8.258 106.527,7.88 C106.191,7.544 105.897,7.355 105.645,7.355 C105.372,7.355 105.12,7.754 104.889,8.51 C104.07,11.114 103.671,13.802 103.671,16.574 C103.671,17.288 103.713,18.275 103.797,19.535 C103.65,19.787 103.587,20.249 103.587,20.9 C103.587,21.614 103.734,22.265 104.049,22.874 C104.343,23.483 104.7,23.798 105.12,23.798 Z M115.599,23.546 C115.893,23.546 116.124,23.42 116.292,23.168 C116.46,22.937 116.544,22.664 116.544,22.349 C116.544,22.286 116.523,22.118 116.481,21.845 C116.439,21.593 116.418,21.383 116.418,21.215 C116.418,20.921 116.502,20.228 116.691,19.136 C116.901,17.939 117.069,17.12 117.237,16.679 C117.321,16.385 117.384,16.175 117.384,16.028 C117.384,15.44 117.132,15.146 116.628,15.146 C116.376,15.146 116.166,15.293 115.956,15.587 C113.31,19.472 111.504,21.404 110.517,21.404 C110.349,21.404 110.265,21.32 110.265,21.152 C110.265,20.816 110.391,20.039 110.664,18.779 C110.916,17.561 111.042,16.742 111.042,16.364 C111.042,15.482 110.748,15.02 110.181,15.02 C109.971,15.02 109.803,15.125 109.656,15.335 C109.488,15.545 109.404,15.755 109.404,15.965 C109.404,16.028 109.404,16.112 109.425,16.196 L109.425,16.427 L109.425,16.427 C109.425,16.763 109.257,17.666 108.963,19.157 C108.669,20.438 108.543,21.278 108.543,21.698 C108.543,22.202 108.711,22.58 109.047,22.853 C109.362,23.105 109.761,23.231 110.265,23.231 C111.378,23.231 112.953,22.055 115.011,19.682 C114.843,21.068 114.759,21.929 114.759,22.286 C114.654,22.454 114.612,22.601 114.612,22.769 C114.612,23.021 114.717,23.21 114.927,23.336 C115.116,23.462 115.347,23.546 115.599,23.546 Z M125.259,23.42 C125.448,23.42 125.637,23.336 125.826,23.168 C126.015,23 126.12,22.79 126.12,22.58 C126.12,22.412 125.91,21.929 125.532,21.131 C125.238,20.543 124.881,19.934 124.482,19.262 C125.616,18.38 126.498,17.645 127.128,17.099 C127.401,16.868 127.548,16.595 127.548,16.301 C127.548,16.07 127.443,15.881 127.254,15.713 C127.065,15.545 126.855,15.461 126.624,15.461 C126.498,15.461 126.267,15.608 125.889,15.881 C124.86,16.679 124.062,17.288 123.495,17.75 C122.991,17.036 122.487,16.364 121.962,15.734 C121.437,15.104 121.038,14.789 120.786,14.789 C120.114,14.789 119.799,15.125 119.799,15.776 C119.799,15.944 119.988,16.322 120.387,16.889 C120.723,17.393 120.975,17.729 121.185,17.897 C121.29,18.023 121.416,18.107 121.584,18.149 C121.794,18.422 121.983,18.653 122.109,18.842 C121.017,19.724 120.219,20.417 119.694,20.921 C119.001,21.572 118.665,22.076 118.665,22.412 C118.665,23 118.959,23.315 119.547,23.315 C119.757,23.315 120.009,23.189 120.261,22.937 C121.017,22.139 121.962,21.299 123.096,20.375 C123.579,21.215 124.02,22.034 124.398,22.874 C124.566,23.231 124.86,23.42 125.259,23.42 Z M132.336,23.378 C133.344,23.378 134.205,22.916 134.898,21.95 C135.57,20.984 135.927,19.808 135.927,18.38 C135.927,17.561 135.696,16.805 135.234,16.133 C134.751,15.482 134.142,15.02 133.407,14.768 C133.113,14.684 132.945,14.642 132.903,14.642 C132.735,14.642 132.546,14.747 132.294,14.915 C132,15.083 131.769,15.209 131.601,15.272 C130.887,15.629 130.299,16.259 129.879,17.141 C129.459,17.939 129.27,18.8 129.27,19.703 C129.27,20.774 129.543,21.656 130.131,22.349 C130.719,23.021 131.454,23.378 132.336,23.378 Z M132.315,21.614 C131.895,21.614 131.559,21.425 131.307,21.026 C131.034,20.648 130.908,20.207 130.908,19.703 C130.908,19.031 131.055,18.401 131.391,17.813 C131.769,17.141 132.252,16.784 132.84,16.784 C133.05,16.91 133.323,16.973 133.659,16.973 C134.058,17.225 134.268,17.813 134.268,18.695 C134.268,19.409 134.058,20.06 133.68,20.669 C133.26,21.299 132.819,21.614 132.315,21.614 Z M151.677,25.499 C151.866,25.499 152.055,25.415 152.244,25.247 C152.412,25.079 152.496,24.89 152.496,24.68 C152.496,24.596 152.433,24.26 152.349,23.672 C152.097,22.223 151.971,20.417 151.971,18.233 C151.971,17.078 152.013,15.503 152.139,13.529 C152.307,13.382 152.412,13.172 152.475,12.92 C152.475,12.794 152.496,12.542 152.517,12.206 C152.517,11.597 152.643,10.694 152.853,9.518 C152.979,8.762 153.042,8.321 153.042,8.174 C153.042,7.628 152.79,7.355 152.286,7.355 C151.845,7.355 151.572,7.565 151.488,7.985 C151.026,9.833 150.669,12.542 150.417,16.07 C149.976,15.692 149.598,15.482 149.283,15.482 C148.401,15.482 147.477,16.175 146.49,17.54 C145.482,18.926 144.978,20.144 144.978,21.173 C144.978,21.95 145.167,22.559 145.566,23 C145.965,23.462 146.532,23.693 147.267,23.693 C147.813,23.693 148.443,23.42 149.115,22.874 C149.745,22.37 150.186,21.803 150.48,21.194 C150.677647,22.9332941 150.819488,24.0587197 150.905522,24.5702768 L150.921,24.659 C151.005,25.205 151.257,25.499 151.677,25.499 Z M147.099,21.887 C146.721,21.887 146.532,21.635 146.532,21.11 C146.532,20.543 146.784,19.892 147.33,19.157 C148.233,17.939 148.863,17.309 149.199,17.309 C149.199,17.309 149.262,17.33 149.346,17.33 C149.493,17.918 149.682,18.296 149.934,18.464 C149.724,19.031 149.556,19.472 149.43,19.766 C149.178,20.291 148.842,20.753 148.464,21.152 C147.981,21.656 147.519,21.887 147.099,21.887 Z M161.19,23.651 C162.597,23.651 163.311,23.294 163.311,22.622 C163.311,22.412 163.227,22.202 163.059,21.992 C162.891,21.824 162.681,21.719 162.471,21.719 C162.303,21.719 162.03,21.761 161.673,21.803 C161.316,21.845 161.043,21.866 160.875,21.866 C160.245,21.866 159.699,21.572 159.195,20.963 C161.295,19.829 162.345,18.485 162.345,16.931 C162.345,16.343 162.093,15.776 161.589,15.272 C161.085,14.768 160.581,14.516 160.056,14.516 C159.153,14.516 158.418,15.041 157.83,16.07 C157.326,16.952 157.074,17.897 157.074,18.905 C157.074,19.115 157.095,19.409 157.158,19.766 L156.675,19.766 C156.381,19.766 156.108,19.661 155.814,19.451 C155.52,19.241 155.31,19.136 155.184,19.136 C154.638,19.136 154.365,19.43 154.365,20.018 C154.365,20.48 154.701,20.858 155.415,21.152 C155.961,21.383 156.486,21.488 157.032,21.488 L157.662,21.488 C158.418,22.937 159.594,23.651 161.19,23.651 Z M158.796,19.283 L158.796,18.905 C158.796,18.338 158.88,17.792 159.09,17.267 C159.3,16.637 159.594,16.322 159.972,16.322 C160.14,16.322 160.308,16.406 160.476,16.532 C160.602,16.7 160.686,16.847 160.686,17.015 C160.686,17.708 160.056,18.464 158.796,19.283 Z M177.276,23.504 C177.612,23.504 178.011,23.126 178.473,22.412 C179.019,21.551 179.607,20.459 180.237,19.157 C180.762,18.023 181.308,16.91 181.854,15.776 C182.568,14.285 183.366,12.983 184.248,11.87 C184.416,11.639 184.521,11.408 184.521,11.177 C184.521,10.547 184.248,10.232 183.702,10.232 C183.324,10.232 182.841,10.631 182.211,11.408 C181.896,11.786 181.686,12.227 181.602,12.731 C179.649,16.448 178.221,19.241 177.318,21.11 C175.848,18.569 174.735,15.692 173.979,12.458 C174.273,12.206 174.441,11.744 174.441,11.114 C174.441,9.854 174.21,8.804 173.748,7.964 C173.58,7.67 173.307,7.523 172.95,7.523 C172.341,7.523 172.047,8.342 172.047,9.938 C172.047,11.66 172.467,13.781 173.328,16.301 C174.084,18.569 174.987,20.564 176.037,22.328 C176.478,23.105 176.898,23.504 177.276,23.504 Z M192.522,23.882 C192.732,23.882 192.942,23.798 193.131,23.672 C193.299,23.504 193.404,23.294 193.404,23.084 C193.404,23.021 193.341,22.769 193.257,22.265 C193.152,21.782 193.11,21.404 193.11,21.152 C193.11,20.312 193.236,19.472 193.53,18.59 C193.614,18.359 193.656,18.212 193.656,18.128 C193.656,17.939 193.551,17.729 193.383,17.519 C193.383,17.036 193.299,16.616 193.173,16.238 C193.194,16.154 193.215,16.049 193.215,15.944 C193.215,15.692 193.068,15.44 192.816,15.23 C192.543,15.02 192.27,14.894 191.997,14.894 C190.842,14.894 189.582,15.566 188.196,16.868 C186.747,18.212 186.033,19.514 186.033,20.732 C186.033,21.383 186.243,21.95 186.705,22.454 C187.146,22.979 187.671,23.231 188.28,23.231 C189.225,23.231 190.275,22.643 191.451,21.467 C191.556,23.063 191.913,23.882 192.522,23.882 Z M188.364,21.467 C187.923,21.467 187.713,21.215 187.713,20.69 C187.713,20.018 188.238,19.178 189.309,18.149 C190.275,17.225 190.968,16.742 191.367,16.742 C191.619,16.742 191.745,17.015 191.745,17.519 C191.745,18.233 191.325,19.073 190.527,20.039 C189.729,21.005 188.994,21.467 188.364,21.467 Z M197.982,23.798 C198.087,23.798 198.213,23.735 198.36,23.609 C198.486,23.504 198.57,23.399 198.57,23.294 C198.57,23.231 198.549,23.105 198.528,22.937 C198.486,22.748 198.486,22.622 198.486,22.538 C198.276,19.976 198.171,18.17 198.171,17.162 C198.171,14.747 198.486,12.332 199.116,9.917 L199.263,9.707 C199.683,9.497 199.914,9.203 199.914,8.804 C199.914,8.552 199.725,8.258 199.389,7.88 C199.053,7.544 198.759,7.355 198.507,7.355 C198.234,7.355 197.982,7.754 197.751,8.51 C196.932,11.114 196.533,13.802 196.533,16.574 C196.533,17.288 196.575,18.275 196.659,19.535 C196.512,19.787 196.449,20.249 196.449,20.9 C196.449,21.614 196.596,22.265 196.911,22.874 C197.205,23.483 197.562,23.798 197.982,23.798 Z M204.471,23.378 C205.479,23.378 206.34,22.916 207.033,21.95 C207.705,20.984 208.062,19.808 208.062,18.38 C208.062,17.561 207.831,16.805 207.369,16.133 C206.886,15.482 206.277,15.02 205.542,14.768 C205.248,14.684 205.08,14.642 205.038,14.642 C204.87,14.642 204.681,14.747 204.429,14.915 C204.135,15.083 203.904,15.209 203.736,15.272 C203.022,15.629 202.434,16.259 202.014,17.141 C201.594,17.939 201.405,18.8 201.405,19.703 C201.405,20.774 201.678,21.656 202.266,22.349 C202.854,23.021 203.589,23.378 204.471,23.378 Z M204.45,21.614 C204.03,21.614 203.694,21.425 203.442,21.026 C203.169,20.648 203.043,20.207 203.043,19.703 C203.043,19.031 203.19,18.401 203.526,17.813 C203.904,17.141 204.387,16.784 204.975,16.784 C205.185,16.91 205.458,16.973 205.794,16.973 C206.193,17.225 206.403,17.813 206.403,18.695 C206.403,19.409 206.193,20.06 205.815,20.669 C205.395,21.299 204.954,21.614 204.45,21.614 Z M211.884,23.735 C212.136,23.735 212.346,23.546 212.472,23.168 C212.535,22.958 212.619,22.517 212.724,21.845 C213.102,19.283 214.152,17.582 215.853,16.742 C216.105,16.826 216.231,16.868 216.252,16.868 C216.588,16.868 216.966,16.763 217.386,16.511 C217.806,16.301 218.016,16.049 218.016,15.797 C218.016,15.503 217.89,15.23 217.659,14.978 C217.407,14.726 217.155,14.6 216.882,14.6 C215.244,14.6 213.774,15.566 212.493,17.498 C212.367,16.616 212.22,15.986 212.052,15.608 C211.821,15.188 211.506,14.957 211.107,14.957 C210.939,14.957 210.792,15.062 210.687,15.23 C210.561,15.44 210.498,15.65 210.498,15.86 C210.498,16.784 210.687,17.519 211.065,18.044 C211.149,18.863 211.212,19.535 211.212,20.039 C211.212,20.606 211.149,21.11 211.044,21.572 C210.918,22.076 210.876,22.349 210.876,22.412 C210.876,22.769 210.96,23.063 211.17,23.336 C211.38,23.588 211.632,23.735 211.884,23.735 Z" id="path-1"></path>
        <path d="M128.522248,144.064796 C128.711248,144.064796 128.900248,143.980796 129.110248,143.812796 C129.278248,143.644796 129.362248,143.455796 129.362248,143.266796 C129.362248,143.182796 129.320248,142.825796 129.278248,142.174796 C129.194248,141.544796 129.173248,141.019796 129.173248,140.641796 C129.173248,139.444796 129.236248,138.163796 129.404248,136.819796 C131.336248,136.798796 133.373248,136.462796 135.473248,135.811796 C136.145248,135.601796 136.502248,135.244796 136.502248,134.740796 C136.502248,134.194796 136.229248,133.921796 135.683248,133.921796 C135.305248,134.047796 135.053248,134.131796 134.906248,134.173796 C133.772248,134.572796 132.029248,134.866796 129.656248,135.076796 C129.971248,133.144796 130.391248,131.359796 130.916248,129.700796 C133.037248,129.532796 134.822248,129.427796 136.250248,129.427796 C136.292248,129.427796 136.376248,129.448796 136.481248,129.448796 C136.565248,129.490796 136.649248,129.490796 136.712248,129.490796 C136.880248,129.490796 137.048248,129.385796 137.216248,129.175796 C137.384248,128.965796 137.468248,128.755796 137.468248,128.587796 C137.468248,127.978796 136.943248,127.663796 135.893248,127.663796 C135.578248,127.663796 134.654248,127.705796 133.121248,127.789796 C131.609248,127.894796 130.832248,127.936796 130.790248,127.936796 L130.391248,127.831796 C130.139248,127.873796 129.950248,127.957796 129.824248,128.083796 C129.278248,128.146796 128.900248,128.209796 128.690248,128.272796 C128.249248,128.440796 128.039248,128.713796 128.039248,129.112796 C128.039248,129.637796 128.375248,129.973796 129.047248,130.099796 C128.627248,131.569796 128.375248,132.577796 128.291248,133.081796 C127.913248,134.887796 127.682248,136.945796 127.556248,139.213796 C127.262248,139.423796 127.115248,139.612796 127.115248,139.801796 C127.115248,141.502796 127.346248,142.762796 127.829248,143.602796 C127.997248,143.896796 128.228248,144.064796 128.522248,144.064796 Z M145.196248,143.140796 C146.603248,143.140796 147.317248,142.783796 147.317248,142.111796 C147.317248,141.901796 147.233248,141.691796 147.065248,141.481796 C146.897248,141.313796 146.687248,141.208796 146.477248,141.208796 C146.309248,141.208796 146.036248,141.250796 145.679248,141.292796 C145.322248,141.334796 145.049248,141.355796 144.881248,141.355796 C144.251248,141.355796 143.705248,141.061796 143.201248,140.452796 C145.301248,139.318796 146.351248,137.974796 146.351248,136.420796 C146.351248,135.832796 146.099248,135.265796 145.595248,134.761796 C145.091248,134.257796 144.587248,134.005796 144.062248,134.005796 C143.159248,134.005796 142.424248,134.530796 141.836248,135.559796 C141.332248,136.441796 141.080248,137.386796 141.080248,138.394796 C141.080248,138.604796 141.101248,138.898796 141.164248,139.255796 L140.681248,139.255796 C140.387248,139.255796 140.114248,139.150796 139.820248,138.940796 C139.526248,138.730796 139.316248,138.625796 139.190248,138.625796 C138.644248,138.625796 138.371248,138.919796 138.371248,139.507796 C138.371248,139.969796 138.707248,140.347796 139.421248,140.641796 C139.967248,140.872796 140.492248,140.977796 141.038248,140.977796 L141.668248,140.977796 C142.424248,142.426796 143.600248,143.140796 145.196248,143.140796 Z M142.802248,138.772796 L142.802248,138.394796 C142.802248,137.827796 142.886248,137.281796 143.096248,136.756796 C143.306248,136.126796 143.600248,135.811796 143.978248,135.811796 C144.146248,135.811796 144.314248,135.895796 144.482248,136.021796 C144.608248,136.189796 144.692248,136.336796 144.692248,136.504796 C144.692248,137.197796 144.062248,137.953796 142.802248,138.772796 Z M155.087248,143.140796 C156.494248,143.140796 157.208248,142.783796 157.208248,142.111796 C157.208248,141.901796 157.124248,141.691796 156.956248,141.481796 C156.788248,141.313796 156.578248,141.208796 156.368248,141.208796 C156.200248,141.208796 155.927248,141.250796 155.570248,141.292796 C155.213248,141.334796 154.940248,141.355796 154.772248,141.355796 C154.142248,141.355796 153.596248,141.061796 153.092248,140.452796 C155.192248,139.318796 156.242248,137.974796 156.242248,136.420796 C156.242248,135.832796 155.990248,135.265796 155.486248,134.761796 C154.982248,134.257796 154.478248,134.005796 153.953248,134.005796 C153.050248,134.005796 152.315248,134.530796 151.727248,135.559796 C151.223248,136.441796 150.971248,137.386796 150.971248,138.394796 C150.971248,138.604796 150.992248,138.898796 151.055248,139.255796 L150.572248,139.255796 C150.278248,139.255796 150.005248,139.150796 149.711248,138.940796 C149.417248,138.730796 149.207248,138.625796 149.081248,138.625796 C148.535248,138.625796 148.262248,138.919796 148.262248,139.507796 C148.262248,139.969796 148.598248,140.347796 149.312248,140.641796 C149.858248,140.872796 150.383248,140.977796 150.929248,140.977796 L151.559248,140.977796 C152.315248,142.426796 153.491248,143.140796 155.087248,143.140796 Z M152.693248,138.772796 L152.693248,138.394796 C152.693248,137.827796 152.777248,137.281796 152.987248,136.756796 C153.197248,136.126796 153.491248,135.811796 153.869248,135.811796 C154.037248,135.811796 154.205248,135.895796 154.373248,136.021796 C154.499248,136.189796 154.583248,136.336796 154.583248,136.504796 C154.583248,137.197796 153.953248,137.953796 152.693248,138.772796 Z M165.167248,144.988796 C165.356248,144.988796 165.545248,144.904796 165.734248,144.736796 C165.902248,144.568796 165.986248,144.379796 165.986248,144.169796 C165.986248,144.085796 165.923248,143.749796 165.839248,143.161796 C165.587248,141.712796 165.461248,139.906796 165.461248,137.722796 C165.461248,136.567796 165.503248,134.992796 165.629248,133.018796 C165.797248,132.871796 165.902248,132.661796 165.965248,132.409796 C165.965248,132.283796 165.986248,132.031796 166.007248,131.695796 C166.007248,131.086796 166.133248,130.183796 166.343248,129.007796 C166.469248,128.251796 166.532248,127.810796 166.532248,127.663796 C166.532248,127.117796 166.280248,126.844796 165.776248,126.844796 C165.335248,126.844796 165.062248,127.054796 164.978248,127.474796 C164.516248,129.322796 164.159248,132.031796 163.907248,135.559796 C163.466248,135.181796 163.088248,134.971796 162.773248,134.971796 C161.891248,134.971796 160.967248,135.664796 159.980248,137.029796 C158.972248,138.415796 158.468248,139.633796 158.468248,140.662796 C158.468248,141.439796 158.657248,142.048796 159.056248,142.489796 C159.455248,142.951796 160.022248,143.182796 160.757248,143.182796 C161.303248,143.182796 161.933248,142.909796 162.605248,142.363796 C163.235248,141.859796 163.676248,141.292796 163.970248,140.683796 C164.167895,142.42309 164.309736,143.548516 164.39577,144.060073 L164.411248,144.148796 C164.495248,144.694796 164.747248,144.988796 165.167248,144.988796 Z M160.589248,141.376796 C160.211248,141.376796 160.022248,141.124796 160.022248,140.599796 C160.022248,140.032796 160.274248,139.381796 160.820248,138.646796 C161.723248,137.428796 162.353248,136.798796 162.689248,136.798796 C162.689248,136.798796 162.752248,136.819796 162.836248,136.819796 C162.983248,137.407796 163.172248,137.785796 163.424248,137.953796 C163.214248,138.520796 163.046248,138.961796 162.920248,139.255796 C162.668248,139.780796 162.332248,140.242796 161.954248,140.641796 C161.471248,141.145796 161.009248,141.376796 160.589248,141.376796 Z M170.060248,143.392796 C171.320248,143.392796 172.790248,142.762796 174.449248,141.523796 C176.213248,140.200796 177.116248,138.898796 177.116248,137.596796 C177.116248,136.903796 176.885248,136.315796 176.423248,135.853796 C175.961248,135.370796 175.394248,135.118796 174.743248,135.118796 C173.504248,135.118796 172.181248,135.979796 170.795248,137.659796 C170.963248,135.097796 171.152248,132.892796 171.404248,131.044796 C171.656248,130.897796 171.824248,130.708796 171.887248,130.498796 C172.181248,129.364796 172.328248,128.524796 172.328248,127.978796 C172.328248,127.222796 172.013248,126.844796 171.425248,126.844796 C171.005248,126.844796 170.669248,127.369796 170.396248,128.419796 C169.976248,129.931796 169.640248,131.884796 169.388248,134.278796 C169.220248,136.126796 169.136248,137.722796 169.136248,139.045796 C169.136248,139.948796 169.157248,140.767796 169.241248,141.523796 C168.905248,141.733796 168.716248,142.006796 168.674248,142.384796 C168.821248,143.056796 169.283248,143.392796 170.060248,143.392796 Z M170.900248,141.460796 L170.900248,140.914796 C170.900248,140.641796 171.131248,140.158796 171.614248,139.486796 C172.034248,138.856796 172.580248,138.289796 173.210248,137.764796 C173.819248,137.239796 174.302248,136.966796 174.638248,136.966796 C175.184248,136.966796 175.478248,137.197796 175.478248,137.638796 C175.478248,138.541796 174.449248,139.591796 172.412248,140.788796 C171.971248,141.082796 171.467248,141.292796 170.900248,141.460796 Z M185.537248,143.371796 C185.747248,143.371796 185.957248,143.287796 186.146248,143.161796 C186.314248,142.993796 186.419248,142.783796 186.419248,142.573796 C186.419248,142.510796 186.356248,142.258796 186.272248,141.754796 C186.167248,141.271796 186.125248,140.893796 186.125248,140.641796 C186.125248,139.801796 186.251248,138.961796 186.545248,138.079796 C186.629248,137.848796 186.671248,137.701796 186.671248,137.617796 C186.671248,137.428796 186.566248,137.218796 186.398248,137.008796 C186.398248,136.525796 186.314248,136.105796 186.188248,135.727796 C186.209248,135.643796 186.230248,135.538796 186.230248,135.433796 C186.230248,135.181796 186.083248,134.929796 185.831248,134.719796 C185.558248,134.509796 185.285248,134.383796 185.012248,134.383796 C183.857248,134.383796 182.597248,135.055796 181.211248,136.357796 C179.762248,137.701796 179.048248,139.003796 179.048248,140.221796 C179.048248,140.872796 179.258248,141.439796 179.720248,141.943796 C180.161248,142.468796 180.686248,142.720796 181.295248,142.720796 C182.240248,142.720796 183.290248,142.132796 184.466248,140.956796 C184.571248,142.552796 184.928248,143.371796 185.537248,143.371796 Z M181.379248,140.956796 C180.938248,140.956796 180.728248,140.704796 180.728248,140.179796 C180.728248,139.507796 181.253248,138.667796 182.324248,137.638796 C183.290248,136.714796 183.983248,136.231796 184.382248,136.231796 C184.634248,136.231796 184.760248,136.504796 184.760248,137.008796 C184.760248,137.722796 184.340248,138.562796 183.542248,139.528796 C182.744248,140.494796 182.009248,140.956796 181.379248,140.956796 Z M191.900248,142.867796 C192.698248,142.867796 193.517248,142.552796 194.315248,141.922796 C194.966248,141.418796 195.302248,140.977796 195.302248,140.557796 C195.302248,140.347796 195.218248,140.137796 195.050248,139.927796 C194.882248,139.759796 194.693248,139.654796 194.483248,139.654796 C194.315248,139.654796 194.063248,139.801796 193.769248,140.074796 C193.517248,140.284796 193.265248,140.494796 193.055248,140.704796 C192.698248,140.977796 192.257248,141.103796 191.732248,141.103796 C190.892248,141.103796 190.493248,140.599796 190.493248,139.549796 C190.493248,138.898796 190.682248,138.247796 191.060248,137.617796 C191.438248,136.987796 191.900248,136.462796 192.467248,136.084796 C192.719248,136.231796 193.097248,136.294796 193.622248,136.294796 C193.895248,136.294796 194.168248,136.189796 194.441248,135.937796 C194.672248,135.685796 194.798248,135.454796 194.798248,135.202796 C194.798248,134.866796 194.672248,134.614796 194.420248,134.404796 C194.147248,134.215796 193.853248,134.110796 193.538248,134.110796 C192.215248,134.110796 191.039248,134.803796 190.031248,136.168796 C189.212248,137.260796 188.813248,138.457796 188.813248,139.759796 C188.813248,140.683796 189.107248,141.418796 189.695248,142.006796 C190.283248,142.573796 191.018248,142.867796 191.900248,142.867796 Z M203.996248,142.825796 C204.626248,142.825796 204.962248,142.510796 204.962248,141.901796 C204.962248,141.691796 204.626248,141.271796 203.954248,140.620796 C202.022248,138.751796 200.720248,137.449796 200.069248,136.693796 C201.161248,136.462796 202.253248,136.105796 203.387248,135.601796 C205.025248,134.887796 205.844248,134.215796 205.844248,133.564796 C205.844248,132.997796 205.508248,132.703796 204.857248,132.703796 C204.752248,132.703796 204.584248,132.808796 204.353248,132.976796 C203.261248,133.816796 201.560248,134.509796 199.292248,135.076796 C199.418248,133.396796 199.649248,131.611796 199.964248,129.700796 C200.153248,128.461796 200.258248,127.768796 200.258248,127.642796 C200.258248,127.117796 199.964248,126.844796 199.418248,126.844796 C198.956248,126.844796 198.683248,127.096796 198.599248,127.579796 C198.494248,128.209796 198.431248,128.713796 198.389248,129.049796 C198.263248,129.679796 198.158248,130.204796 198.095248,130.624796 C197.927248,131.716796 197.780248,133.207796 197.612248,135.097796 C197.45413,136.718502 197.389023,137.781145 197.381911,138.268219 L197.381738,138.492143 C197.382962,138.634796 197.387248,138.844796 197.402248,139.129796 C197.423248,139.549796 197.444248,139.801796 197.444248,139.885796 C197.444248,139.969796 197.402248,140.074796 197.339248,140.242796 C197.255248,140.431796 197.234248,140.578796 197.234248,140.662796 C197.234248,141.880796 197.570248,142.489796 198.263248,142.489796 C198.515248,142.489796 198.704248,142.405796 198.872248,142.237796 C199.040248,142.069796 199.145248,141.859796 199.145248,141.607796 C199.145248,141.502796 199.124248,141.271796 199.103248,140.935796 C199.086448,140.666996 199.083088,140.438516 199.082416,140.261108 L199.083228,139.643102 C199.085677,139.207796 199.094248,138.712796 199.124248,138.142796 C200.678248,139.801796 201.791248,140.977796 202.505248,141.670796 C203.261248,142.447796 203.765248,142.825796 203.996248,142.825796 Z" id="path-2"></path>
    </defs>
    <g id="Page-1" stroke="none" stroke-width="1" fill="none" fill-rule="evenodd">
        <g id="servico-copy" fill-rule="nonzero">
            <rect id="Rectangle" fill="#FFFFFF" x="0" y="0" width="330" height="160"></rect>
            <rect id="Rectangle" fill="#FFFFFF" x="0" y="0" width="330" height="160"></rect>
            <rect id="Rectangle" fill="#D8D8D8" x="67" y="65" width="196" height="35"></rect>
            <g id="Group-6" transform="translate(4.000000, 8.000000)">
                <rect id="Rectangle" fill="#D8D8D8" x="63" y="57" width="196" height="35"></rect>
                <g id="Group-5">
                    <path d="M204.568998,90.2139654 C204.697763,85.7100601 204.535183,81.2202926 204.262747,76.7262594 C204.072918,73.5951268 204.386471,70.4644444 204.544973,67.3359875 C204.70857,64.1074952 204.616227,60.8848255 204.42629,57.65902 C204.338688,56.1712074 204.500428,54.730335 206.226099,54.1767191 C206.730569,54.0148644 225.415539,51.9086463 226.480614,51.8042952 C227.394581,51.714785 227.306219,52.3566273 226.896263,53.0594906 C228.034094,53.1009084 229.083336,53.2925258 230.088034,53.1479127 C233.595044,52.6431325 237.043196,53.2883758 240.482335,53.7223618 C242.008645,53.9149718 242.81629,55.5348343 243.586694,56.8287026 C246.486369,61.6986241 248.453013,67.0771197 251.141779,72.0653614 C251.548887,72.8206582 251.893618,73.6212192 252.610331,74.119535 C253.229023,74.5496756 253.184762,75.0720612 252.883528,75.6549856 C250.588656,80.0959657 248.814916,84.8072933 246.365011,89.1726203 C245.43826,90.8239521 244.044703,92.2591668 243.994264,94.3959501 C243.977945,95.0874326 243.281188,94.9817566 242.728624,94.8990694 C239.108591,94.3573443 235.460153,94.2366433 231.810437,94.141689 C228.079169,94.0446166 224.356549,94.512554 220.620284,94.271479 C216.661512,94.0160522 212.698025,93.8302464 208.72938,94.0939387 C208.200925,94.1290564 207.708813,94.1927738 207.216252,94.4350588 C206.629106,94.7238693 205.994215,94.9787632 205.29355,94.4110382 C204.517853,93.0431164 204.529195,91.6064397 204.568998,90.2139654 Z M205.841387,84.3042455 C205.85363,86.8913289 205.865378,89.4784107 205.878454,92.0654909 C205.882003,92.7702513 205.966018,93.4059636 206.900373,93.1380613 C209.592991,92.3659475 212.341706,92.4732217 215.078723,92.6441611 C220.438585,92.9788656 225.794741,92.6645418 231.152315,92.6731741 C234.719509,92.6789257 238.291017,92.8280879 241.846653,93.1988891 C242.273989,93.2434553 242.556353,93.1569472 242.824755,92.7414575 C246.101453,87.6693162 248.647341,82.1945149 251.061172,76.6438468 C251.335492,76.0130251 251.353891,75.467623 251.02906,74.8398514 C250.056893,72.9611386 249.202657,71.0131744 248.175705,69.1688645 C246.162328,65.5529466 244.851971,61.5707387 242.688441,58.0275846 C241.562409,56.1834862 240.201233,54.9519281 238.067948,54.7591155 C234.325853,54.4208918 230.573861,54.5198719 226.830865,54.5966881 C222.617786,54.6831693 218.398567,54.8817695 214.202649,55.2724229 C211.768986,55.4989875 209.240724,54.9665252 206.886941,56.2573129 C206.101663,56.6879506 205.728548,57.0478426 205.754085,57.9332542 C205.824748,60.3841118 206.080204,62.8544842 205.882354,65.2834968 C205.372108,71.5486488 205.518902,77.7996866 205.841387,84.3042455" id="Shape" fill="#000000"></path>
                    <path d="M207.200611,84.4563897 C207.212125,87.0434732 207.223174,89.630555 207.235471,92.2176351 C207.238809,92.9223955 207.317823,93.5581078 208.196563,93.2902055 C210.728908,92.5180918 213.314012,92.625366 215.888113,92.7963053 C220.92894,93.1310099 225.966283,92.816686 231.004958,92.8253183 C234.359822,92.83107 237.718743,92.9802321 241.062737,93.3510334 C241.464637,93.3955995 241.730194,93.3090914 241.982619,92.8936017 C245.064279,87.8214604 247.458629,82.3466591 249.728781,76.795991 C249.986773,76.1651693 250.004077,75.6197673 249.698581,74.9919956 C248.784279,73.1132828 247.98089,71.1653186 247.015066,69.3210087 C245.121531,65.7050908 243.88917,61.722883 241.85442,58.1797288 C240.795412,56.3356304 239.515258,55.1040723 237.508952,54.9112598 C233.989597,54.5730361 230.460935,54.6720162 226.940734,54.7488324 C222.978429,54.8353135 219.010351,55.0339137 215.064186,55.4245671 C212.775382,55.6511318 210.397609,55.1186694 208.183931,56.4094571 C207.445394,56.8400948 207.094489,57.1999869 207.118505,58.0853984 C207.184962,60.5362561 207.425213,63.0066285 207.239139,65.435641 C206.759264,71.7007931 206.897321,77.9518309 207.200611,84.4563897" id="Shape" fill="#FAF6B9"></path>
                    <path d="M75.0717974,84.4563897 C75.0840409,87.0434732 75.0957889,89.630555 75.1088642,92.2176351 C75.1124138,92.9223955 75.1964283,93.5581078 76.1307839,93.2902055 C78.8234015,92.5180918 81.5721167,92.625366 84.3091337,92.7963053 C89.6689955,93.1310099 95.0251519,92.816686 100.382725,92.8253183 C103.94992,92.83107 107.521427,92.9802321 111.077064,93.3510334 C111.504399,93.3955995 111.786764,93.3090914 112.055165,92.8936017 C115.331864,87.8214604 117.877752,82.3466591 120.291583,76.795991 C120.565903,76.1651693 120.584302,75.6197673 120.259471,74.9919956 C119.287303,73.1132828 118.433068,71.1653186 117.406116,69.3210087 C115.392739,65.7050908 114.082381,61.722883 111.918852,58.1797288 C110.792819,56.3356304 109.431643,55.1040723 107.298358,54.9112598 C103.556263,54.5730361 99.8042713,54.6720162 96.0612758,54.7488324 C91.8481963,54.8353135 87.6289778,55.0339137 83.4330598,55.4245671 C80.9993969,55.6511318 78.4711348,55.1186694 76.1173519,56.4094571 C75.3320733,56.8400948 74.958959,57.1999869 74.9844958,58.0853984 C75.0551586,60.5362561 75.310615,63.0066285 75.1127641,65.435641 C74.6025184,71.7007931 74.7493127,77.9518309 75.0717974,84.4563897" id="Shape" fill="#FAF6B9"></path>
                    <path d="M141.22224,84.4563897 C141.234483,87.0434732 141.246231,89.630555 141.259307,92.2176351 C141.262856,92.9223955 141.346871,93.5581078 142.281226,93.2902055 C144.973844,92.5180918 147.722559,92.625366 150.459576,92.7963053 C155.819438,93.1310099 161.175594,92.816686 166.533168,92.8253183 C170.100362,92.83107 173.67187,92.9802321 177.227506,93.3510334 C177.654842,93.3955995 177.937206,93.3090914 178.205608,92.8936017 C181.482306,87.8214604 184.028194,82.3466591 186.442025,76.795991 C186.716345,76.1651693 186.734744,75.6197673 186.409913,74.9919956 C185.437746,73.1132828 184.58351,71.1653186 183.556558,69.3210087 C181.543181,65.7050908 180.232824,61.722883 178.069295,58.1797288 C176.943262,56.3356304 175.582086,55.1040723 173.448801,54.9112598 C169.706706,54.5730361 165.954714,54.6720162 162.211718,54.7488324 C157.998639,54.8353135 153.77942,55.0339137 149.583502,55.4245671 C147.149839,55.6511318 144.621577,55.1186694 142.267794,56.4094571 C141.482516,56.8400948 141.109401,57.1999869 141.134938,58.0853984 C141.205601,60.5362561 141.461057,63.0066285 141.263207,65.435641 C140.752961,71.7007931 140.899755,77.9518309 141.22224,84.4563897 L162.098499,76.3647773" id="Shape" fill="#FAF6B9"></path>
                    <path d="M177.930915,89.5206411 C180.209632,85.6087253 181.919651,81.3787555 184.009681,77.3626733 C184.07119,77.2444909 184.09747,77.0906985 184.184583,77.0046091 C186.168812,75.043775 185.300179,73.0802353 184.166284,71.1495158 C181.670158,66.8993022 179.919162,62.2303683 177.586753,57.8878552 C177.191167,57.1513432 176.944946,56.3199305 176.662944,55.519069 C176.495348,55.043123 176.366062,54.4622867 176.968078,54.2633734 C177.528898,54.0780576 177.636777,54.6956195 177.797485,55.0778905 C179.614247,59.3996125 181.690603,63.5832094 183.732883,67.7845387 C184.68643,69.7461968 185.67691,71.6876164 186.666269,73.6291594 C186.975497,74.235996 187.112739,74.8499549 186.633903,75.3828753 C184.653189,77.5872671 183.761769,80.4533607 182.456658,83.0704442 C181.107285,85.7763043 179.709647,88.4549329 178.316529,91.1356646 C178.02516,91.6963207 177.751094,92.1538174 178.089806,92.8736258 C178.405699,93.5449573 177.031551,94.5003648 176.050382,94.3208777 C173.207219,93.8008052 170.342523,93.9954268 167.480387,93.9214813 C163.747442,93.8250447 160.056278,94.2628417 156.35046,94.4643396 C151.838635,94.7096753 147.313851,94.4644671 142.812619,94.9540875 C142.038979,95.0382578 141.114015,94.0678914 141.146423,92.9252243 C141.304611,87.3479459 140.707316,81.798064 141.022574,76.1903857 C141.380281,69.8276644 141.653345,63.4102279 141.055725,57.0216529 C140.828858,54.5964334 141.519358,53.542654 143.782433,53.0601566 C144.566137,52.8930798 145.368561,52.8069222 146.166587,52.7404286 C146.946236,52.6754336 147.747929,52.8078695 148.562786,52.3914983 C148.108763,51.9296086 147.735468,52.2824836 147.37132,52.3818543 C146.912079,52.507186 146.503275,52.4986924 146.361355,51.9184602 C146.244152,51.4392977 150.372876,52.5116785 151.840472,52.6318207 C155.853845,52.9603979 159.866912,52.7461156 163.878772,52.8237183 C167.470814,52.8931943 171.063711,52.9117182 174.655972,52.9702383 C175.165529,52.9785318 175.967227,52.7850047 175.900265,53.6484449 C175.843386,54.3815513 175.139591,54.490251 174.492465,54.4041038 C169.529791,53.7434808 164.543899,54.1613224 159.56944,54.0424634 C156.995469,53.9809529 154.42179,53.8944161 151.849027,53.7898382 C149.060194,53.6764861 146.289734,53.7574018 143.538433,54.3397592 C142.7757,54.5012004 142.453035,54.9184549 142.390081,55.6786876 C142.367837,55.9473981 142.298426,56.2176759 142.313786,56.4830737 C142.814822,65.1419414 142.242887,73.7878058 142.091652,82.4399778 C142.025052,86.2509287 142.321676,90.0691225 142.452984,93.8723782 C148.297632,93.5787289 154.045359,93.8418809 159.762116,93.2993971 C163.85429,92.9110967 167.942582,92.8539735 172.166523,92.9975199 C176.81848,93.0311915 175.607261,93.5097162 177.930915,89.5206411 Z" id="Path" fill="#000000"></path>
                    <path d="M72.0399612,73.1769954 C72.2787344,70.5680914 72.4616801,68.0731946 72.7688787,65.5907773 C73.0837613,63.0462825 72.7082485,60.5071692 72.8244912,57.9668111 C72.8333917,57.7723449 72.7349149,57.5563526 72.6286953,57.3783222 C72.2651299,56.7689613 71.9503131,56.101141 72.4784069,55.5130681 C72.9671926,54.9687723 73.7284165,55.1581477 74.4289942,55.2439721 C78.2840501,55.7162041 82.1362631,55.8394464 86.0217754,55.4116299 C88.1179974,55.1808099 90.2447052,55.2250754 92.3780461,55.3423957 C95.277749,55.5018472 98.1990369,55.425859 101.107675,55.3480039 C104.475669,55.2578314 107.839062,55.0461191 111.188448,54.6898803 C111.621506,54.6438387 112.107693,54.665339 112.162927,55.1495669 C112.232115,55.7562412 111.597111,55.7780548 111.188676,55.7922964 C108.462612,55.8873736 105.754006,56.149058 103.040275,56.3793986 C96.7767913,56.9110458 90.4800868,56.5903981 84.2029751,56.9265642 C81.736781,57.0586477 79.2247769,56.6862817 76.7491076,56.4246577 C74.7123362,56.2094389 74.2605015,56.3559805 74.3358161,58.2141621 C74.4949753,62.1411617 74.2268272,66.0460513 73.869771,69.9489073 C73.4866966,74.1361173 73.4014268,78.3307731 73.4392358,82.5252789 C73.4628335,85.143497 73.7107035,87.7599918 73.8523386,90.3775034 C73.8725321,90.7506629 73.9035678,91.130177 73.8507381,91.4975495 C73.8086568,91.7901343 73.6172487,92.056598 73.2308041,92.0799623 C72.8592582,92.1024185 72.595994,91.8959276 72.4877799,91.6129029 C72.3534849,91.2616578 72.2436172,90.8828604 72.2380764,90.5145533 C72.1517463,84.7754077 71.6714868,79.0397143 72.0399612,73.1769954 Z" id="Path" fill="#000000"></path>
                    <path d="M116.862059,82.4541823 C118.07707,80.2478962 119.211552,78.1156626 120.418738,76.0182739 C120.873125,75.2288176 120.660358,74.5415817 120.289449,73.8503389 C118.47976,70.4776853 116.635431,67.1204787 114.833558,63.7443834 C113.524664,61.2919841 112.244969,58.8261791 110.997355,56.3474371 C110.785613,55.9267206 110.248949,55.4354485 111.173283,54.6734694 C114.750015,61.1448284 118.270983,67.5153021 121.816047,73.9293889 C121.824959,73.9308538 121.927404,73.9785062 122.003826,73.9551887 C122.489412,73.8069447 122.847638,72.9554211 123.470167,73.6291929 C124.0121,74.2157389 123.334322,74.6385986 122.969171,74.9852891 C120.421663,77.4040948 119.380685,80.6094053 117.682317,83.4606636 C115.530612,87.0730012 113.439314,90.709999 110.986101,94.1630971 C110.711339,94.5498216 110.606939,95.2388414 109.862498,94.8378574 C109.306482,94.5383454 109.177303,93.9822107 109.3867,93.4131807 C109.462901,93.2061074 109.600248,93.0092827 109.746756,92.8335005 C112.443294,89.5982829 114.845856,86.1955524 116.862059,82.4541823 Z" id="Path" fill="#000000"></path>
                    <path d="M89.5488501,93.8798682 C85.1843212,94.5154293 80.9169971,94.5608077 76.6430383,94.1477381 C76.3382203,94.118266 76.0293739,94.1304365 75.7279084,94.0758681 C75.2987459,93.9982043 74.7450385,93.9428547 74.7803703,93.230674 C74.8187851,92.4564203 75.3930635,92.6487437 75.8113785,92.6233078 C78.4300029,92.4641647 81.0285165,93.1352506 83.6512369,92.8944475 C87.5666386,92.5349856 91.495457,91.9206676 95.4108586,92.3652709 C99.6350417,92.8449105 103.861451,92.9659601 108.091119,93.146364 C108.771989,93.1753994 109.263727,93.5094916 109.292035,94.7258986 C102.707045,95.2608763 96.2005657,93.5632164 89.5488501,93.8798682 Z" id="Path" fill="#000000"></path>
                    <path d="M170.551615,109.738612 C176.620888,109.598247 182.473932,109.45819 188.368326,109.817024 C193.447586,110.126249 198.591568,109.568834 203.707077,109.565556 C207.292013,109.563232 210.868805,110.12779 214.469845,109.759517 C214.991179,109.706201 215.484486,109.842997 215.655275,110.293316 C215.867546,110.853005 215.403047,111.194972 214.894249,111.406504 C213.7978,111.862343 212.59626,111.913936 211.433986,111.749967 C204.685622,110.79785 197.924009,111.105698 191.174155,111.62651 C189.121061,111.784919 187.221554,111.292123 185.24724,111.143853 C178.677599,110.650485 172.105943,111.12432 165.53609,111.208173 C155.43513,111.337091 145.337734,111.529048 135.231954,111.462684 C125.271423,111.397282 115.30844,111.628784 105.346225,111.697912 C104.022871,111.707093 102.834913,112.291019 101.179295,111.953569 C101.950769,113.014864 102.875838,113.295264 103.676972,113.716174 C104.043208,113.908599 104.305883,114.214571 104.114817,114.611323 C103.93529,114.984134 103.471134,115.223315 103.109633,115.037864 C100.122106,113.505041 96.0516444,114.377962 93.5105471,111.872533 C93.240534,111.60629 92.8892065,111.40119 92.607802,111.14219 C92.1699143,110.739191 91.7830354,110.302101 92.2426578,109.731298 C92.6288969,109.251604 93.1655551,109.297656 93.72775,109.458876 C99.5967056,111.141986 105.692146,110.433392 111.646257,110.357763 C118.142129,110.275247 124.648085,110.348622 131.141621,110.129901 C139.031672,109.86413 146.91899,110.144059 154.806349,110.06092 C159.990385,110.006287 165.172947,109.849882 170.551615,109.738612 Z" id="Path" fill="#000000"></path>
                    <path d="M178.593048,38.8477178 C168.535292,38.7113353 158.718452,39.7100762 148.877193,39.8351864 C142.197874,39.9201022 135.515475,39.7030331 128.834764,39.724488 C121.208409,39.7489699 113.579473,40.0552441 105.957401,39.9115883 C101.755212,39.8323895 97.580697,39.7711905 93.4036821,40.2609987 C92.8621447,40.324495 92.1827384,40.3164946 92.0558644,39.5970053 C91.9078411,38.7575629 92.5905508,38.5266653 93.2075225,38.3856074 C96.4015216,37.6552997 99.6878705,37.755479 102.87803,37.91354 C109.216381,38.2276001 115.54153,37.8324966 121.871983,38.011418 C129.572958,38.2290693 137.281832,38.451763 144.981811,38.3223094 C153.919593,38.1720548 162.848818,37.4941302 171.786696,37.3231796 C179.083411,37.1836301 186.381203,37.0393375 193.678397,36.9395447 C199.780054,36.8560972 205.886139,37.1206273 212.541727,37.2410405 C210.772042,36.5233215 209.524948,36.2641498 208.20382,36.61061 C207.309034,36.845266 206.650092,36.5919725 206.653765,35.5216223 C206.657386,34.4731076 207.441049,34.4658483 208.14343,34.5779776 C212.085073,35.2072178 216.023756,35.8570637 219.958794,36.5292161 C220.725034,36.6601049 221.605486,36.9625962 221.439902,37.956337 C221.266736,38.9955044 220.351527,39.0291479 219.462048,39.0183283 C208.451992,38.8844271 197.441774,38.7586349 186.431296,38.6715194 C183.887845,38.6513953 181.343241,38.7851391 178.593048,38.8477178 Z" id="Path" fill="#000000"></path>
                    <g id="Group" transform="translate(235.840708, 0.000000)" fill="#000000">
                        <path d="M28.3224696,12.4344027 C29.1084976,13.6674477 28.4171064,14.3211959 27.6415797,14.9222346 C27.1016581,15.3406619 26.5734915,15.818545 25.9606246,16.0910054 C22.8966054,17.4531456 20.9921927,19.238278 22.9797064,22.860603 C23.3811369,23.5921957 23.3378155,24.5808929 22.4993124,25.1814748 C21.7175796,25.7414031 21.0671903,25.1426479 20.3716928,24.8450146 C18.7317396,24.1432323 17.0940591,23.4227619 15.410063,22.8414714 C13.9252932,22.3289364 12.6037635,22.897282 11.3021236,23.6812266 C9.41145662,24.8199203 7.84441632,26.5335929 5.60911943,27.0499381 C4.92161552,27.208748 4.09442889,27.7690483 3.4561557,26.9947281 C2.83485667,26.2409891 3.38401063,25.4976082 3.76285544,24.8733194 C4.82544264,23.1221883 5.85116585,21.3256166 7.12355934,19.732556 C8.06923744,18.5485527 7.9869356,17.6639216 7.14352722,16.569463 C6.1208763,15.24241 4.86984612,14.0225632 4.6718108,12.0955962 C6.50497155,10.9783922 8.59746721,10.9351483 10.5804515,10.7430671 C12.7433522,10.5335572 14.2719451,9.72749764 15.2508828,7.75659358 C15.7408373,6.77015676 16.4697823,5.90163992 17.0989177,4.98548677 C18.6938254,2.66299582 19.7651272,2.7333319 21.0300757,5.27672987 C21.3310386,5.88188142 21.7454783,6.58356916 21.6781446,7.19338594 C21.3257409,10.3853248 23.303898,11.1315226 25.8362396,11.372834 C26.7141454,11.4564947 27.4871015,11.782364 28.3224696,12.4344027 M17.8143522,21.5913142 C18.6354728,21.6425886 19.3268009,22.4171523 20.2942968,22.0381799 C20.7390337,20.9974087 20.005528,20.2333321 19.6095047,19.4466133 C18.7589173,17.756812 18.7119125,16.5799029 20.9917223,16.1682954 C22.2349002,15.9438434 23.3003871,15.2523699 23.7731948,14.139717 C22.54323,12.4045712 19.9792117,14.0628818 19.2570538,12.011691 C18.6904557,10.4023532 19.6635,8.50527121 18.6317739,6.57816296 C17.322955,8.07164071 16.4360055,9.50970249 15.8341263,11.1050918 C15.294612,12.535246 14.4341349,12.9956896 12.8722511,12.8080517 C11.0784467,12.5925519 9.17077378,12.2112013 7.43389531,13.3280061 C7.73173921,14.6782127 8.63197997,15.4975111 9.46465226,16.322916 C10.8288141,17.6751944 10.8535784,18.7878961 9.40966984,20.2068771 C8.05774893,21.5354769 6.6624281,22.926206 5.66212761,25.1154407 C9.69801541,23.3197312 12.531885,18.82088 17.8143522,21.5913142 Z" id="Shape"></path>
                        <path d="M28.8704793,20.8479256 C29.4364816,21.22426 29.8564701,21.5021733 30.2847023,21.7667225 C30.9397617,22.1713658 32.1828615,22.2718838 31.5202154,23.4682734 C31.0165938,24.3775991 30.0029548,24.0684987 29.2300614,23.8017225 C28.0763638,23.4035167 26.9849529,22.6778204 27.0060809,21.3540077 C27.0238861,20.2390009 27.9700346,20.4624571 28.8704793,20.8479256 Z" id="Path"></path>
                        <path d="M30.5849128,5.9685954 C29.8222701,6.59166689 29.0488754,7.14561859 28.5439683,6.16413886 C27.8895982,4.89215905 28.9186597,4.10522644 29.7982896,3.44442563 C30.4810916,2.93149291 31.3658938,2.47656031 32.0818609,3.29702821 C32.7626881,4.07724329 32.1301985,4.69064107 31.512661,5.20292891 C31.2514145,5.41964807 30.9867824,5.63226055 30.5849128,5.9685954 Z" id="Path"></path>
                        <path d="M11.1828011,3.36842693 C9.38404322,3.5947715 8.31744386,2.15569539 6.80668742,1.85072893 C6.24223617,1.73678202 5.92746484,1.31003145 6.09987354,0.707365381 C6.27168699,0.10685748 6.81997863,-0.0765237076 7.32496433,0.0275223712 C9.19197993,0.412217542 10.9179025,1.0279333 11.1828011,3.36842693 Z" id="Path"></path>
                        <path d="M17.3631892,30.1070719 C17.6178057,30.8872104 18.2116606,31.4272938 17.713822,32.139422 C15.4425856,31.6717043 14.617045,29.9820557 15.36787,27.305275 C17.2526594,27.2623666 17.0817237,28.7462081 17.3631892,30.1070719 Z" id="Path"></path>
                        <path d="M15.2886245,2.10434138 C15.0381614,3.43345753 14.9350294,4.65196268 13.4369216,5.18566977 C11.8697565,3.77185548 12.5737801,2.18060316 13.5054151,1.02889779 C14.2751422,0.0773708041 15.1567474,0.659195177 15.2886245,2.10434138 Z" id="Path"></path>
                        <path d="M13.1386699,28.6695296 C11.5565989,29.0623647 11.5309415,31.3405167 9.63101138,31.2201657 C8.81804093,29.0471578 10.5314714,28.1393963 11.7870002,27.2838737 C12.5325115,26.7758863 13.4483947,27.2812664 13.1386699,28.6695296 Z" id="Path"></path>
                        <path d="M3.61486591,17.805254 C2.33441676,17.8713863 1.23109363,18.8744107 -1.59655966e-15,17.6967991 C1.01735375,16.0686458 2.61755914,15.8522483 4.09635691,16.3197579 C5.22014918,16.675026 5.21055736,17.5423651 3.61486591,17.805254 Z" id="Path"></path>
                        <path d="M6.22005831,8.22325271 C6.67766273,8.49758506 6.92547728,8.76779379 6.74020006,9.11982156 C6.64368256,9.30320377 6.34082293,9.48606084 6.13247472,9.48456348 C4.89393608,9.47566825 3.58952177,9.79646843 2.48681033,8.97906512 C2.33454207,8.86617263 2.32642324,8.21067627 2.47663816,8.09235394 C3.66080503,7.1594925 4.86285564,7.86094334 6.22005831,8.22325271 Z" id="Path"></path>
                    </g>
                    <g id="Group-2" transform="translate(51.769912, 115.102041)" fill="#000000">
                        <g id="Path-2">
                            <path d="M5.96048939e-14,22.6823744 C5.43471303,20.368257 10.8327857,18.2467332 16.2553687,16.1852083 C17.5116387,15.7075799 18.3628014,16.3618531 18.8589495,17.4751787 C19.5685987,19.0675783 20.9543325,19.3925896 22.5501286,19.3461923 C26.6826306,19.2260177 30.3973111,17.8582476 33.6041725,15.444085 C36.9049496,12.9591978 36.7378083,9.17638286 33.4478837,6.64705636 C32.7460617,6.10748799 32.0151101,5.6004337 31.340602,5.03098093 C25.2242153,-0.132904485 17.3811971,1.68386105 16.038472,9.23460008 C15.1671676,14.1343385 12.4928292,16.2740157 8.50190293,18.0539634 C7.51792888,18.4928332 6.66128305,19.1926752 5.72904356,19.7457915 C5.06351618,20.1406458 4.31746502,20.1943817 3.86334642,19.5326813 C3.34603019,18.7788738 3.95936044,18.2922309 4.57916671,17.9158122 C6.60150438,16.6875171 8.6127972,15.4408391 10.6634094,14.2578122 C12.1559641,13.3967443 12.9493248,12.1929708 13.0826695,10.5168786 C13.1351087,9.85777146 13.3703874,9.20392141 13.5822419,8.56617838 C16.0414889,1.16299297 18.8991922,-0.871787134 26.9815437,0.316038372 C31.7612847,1.01849103 35.4009935,4.31288024 37.8473309,8.16428541 C39.6179488,10.9518851 38.2924803,14.0749217 35.9146876,16.2946566 C31.928906,20.0155314 26.8704757,21.3876059 21.4656077,21.6569753 C20.2817994,21.7159862 18.9172404,21.3875175 18.1333744,20.5508827 C16.1849545,18.4713986 14.2825876,19.2756961 12.2627623,20.2676475 C9.23349926,21.7553448 6.07704701,22.9433113 2.81667266,23.8683477 C1.64440713,24.2009619 0.409160859,24.6108468 5.96048939e-14,22.6823744 Z" id="Path"></path>
                        </g>
                    </g>
                    <g id="Group-4" transform="translate(71.902655, 120.857143)" fill="#000000">
                        <path d="M6.38414155,2.14890537 C4.58769223,2.40142332 2.99479831,2.6497385 1.39462065,2.83520232 C0.78234951,2.9061766 0.138766822,2.77528348 0.016862034,2.02463011 C-0.113894485,1.21948414 0.540436623,1.01332046 1.12764147,0.92307429 C3.22141031,0.601338394 5.31779641,0.27979108 7.42410405,0.0654736488 C8.19092789,-0.012541384 9.37334753,-0.239655181 9.31681664,1.06947586 C9.26552899,2.25735822 8.19055965,2.08203982 7.34692785,2.0751558 C7.09302058,2.07308601 6.83885034,2.10389996 6.38414155,2.14890537 Z" id="Path"></path>
                        <path d="M8.19768726,2.72036748 C10.1535211,3.55980872 9.56688021,4.69545632 8.28034552,4.8338136 C5.91226651,5.08846402 3.78640597,6.32415894 1.39083959,6.36086929 C1.3507703,4.36236746 3.45382948,3.2228624 8.19768726,2.72036748 Z" id="Path"></path>
                        <path d="M8.91446171,6.07750605 C10.3822918,6.224441 11.053652,7.29203093 9.80107434,7.69251872 C7.51050074,8.42488731 5.09971515,9.34281427 1.93561263,9.06771525 C3.86145488,6.16317332 6.57417564,6.78205592 8.91446171,6.07750605 Z" id="Path"></path>
                    </g>
                    <g id="Group" transform="translate(287.610619, 46.040816)" fill="#000000">
                        <path d="M12.7597788,44.2691581 C12.6232082,46.9633192 12.7746063,49.5359158 11.922139,52.2393108 C9.83523279,50.8862359 8.13196781,51.8697091 6.38400088,52.5042006 C5.39147108,52.8645039 4.37786817,53.166371 3.37667516,53.5032352 C2.74878029,53.7145318 2.1961393,53.6359062 1.84045908,53.0390594 C1.44599829,52.3771257 1.83130946,51.9041685 2.34622517,51.5561333 C4.48171922,50.1127886 6.74697394,49.0439963 9.42138226,49.5462901 C10.6472242,49.776527 11.2305757,49.4231757 11.1159562,48.1245768 C10.9797056,46.5809329 11.4445866,45.0964569 11.580496,43.5799325 C11.6740304,42.5362793 11.4728464,41.6333468 10.1047627,41.7670725 C8.42429052,41.9313183 7.77879395,41.2704823 8.25769877,39.5958245 C8.36891667,39.2069164 8.36178526,38.7817844 8.09862049,38.3991826 C7.21257183,38.1412877 6.69118065,38.8189337 6.04768361,39.1631808 C5.53106163,39.4395209 4.95372666,39.8419242 4.48745522,39.1930552 C3.97955777,38.4862451 4.4603962,38.0189484 5.0420485,37.6115514 C5.55785277,37.2502794 6.25015691,37.1146815 6.58229007,36.4236909 C5.1953869,35.3180071 3.3569548,35.483157 1.85943856,34.7275526 C1.14753918,34.3683472 0.0627900019,34.3028296 0.00261206183,33.330247 C-0.0600757744,32.3171142 1.01966243,32.176415 1.72657514,31.8338256 C5.31334779,30.0955662 8.77663609,28.1667374 11.8883747,25.5037205 C11.3571861,24.9211656 10.7331835,25.1157166 10.2130199,25.1302447 C4.9040525,25.2783479 2.19603991,20.6603299 2.187327,16.4822955 C2.17819889,12.1044366 3.87042928,8.10046259 6.13082317,4.42891907 C8.46880003,0.631355395 12.3878592,-0.302613737 16.4162861,0.0787178427 C23.3912747,0.738972982 26.2252308,5.1898825 28.0745695,10.9787143 C29.4788753,15.3745022 26.0929546,21.3242011 21.4652969,23.3953431 C19.2070421,24.4060649 16.8610449,25.1883151 14.3935118,25.4286037 C13.4281404,25.5225967 13.0796565,25.9887529 12.8426188,26.7797201 C12.3034328,28.5789554 11.3622764,30.3536758 11.2778901,32.1705823 C11.1540847,34.8362465 9.871581,37.2342875 9.79442592,39.9938801 C10.9674807,40.1480745 12.0597663,40.4273849 13.1472143,40.4096714 C16.7183136,40.3514285 20.2435559,41.143515 23.8175648,40.925568 C24.1233114,40.9069503 24.435431,40.9176258 24.5735049,41.2247878 C24.8116475,41.7545241 24.4675411,42.082693 24.1234538,42.4346238 C23.2613917,43.316291 22.5593303,46.2196825 22.8354404,47.5197879 C23.7730256,47.5197879 24.7042993,47.4570901 25.6232572,47.536684 C26.627959,47.6237249 27.4978006,48.1095748 27.6210442,49.1879024 C27.7583892,50.3896457 26.7057841,50.6025129 25.859929,50.7379605 C24.5918524,50.94097 23.2984582,51.04269 22.0136583,51.0656343 C21.0387002,51.0830251 20.9764099,50.2820711 20.9830144,49.5472373 C21.0040755,47.2039305 21.4028212,44.8976442 21.8219665,42.2819362 C19.1401779,42.4567069 16.6628756,41.5796025 14.1026282,41.7580756 C12.7291071,41.853855 13.0605906,43.2312731 12.7597788,44.2691581 M3.91699224,15.0443427 C3.72724501,18.5103151 5.51319523,22.2536289 8.26211162,22.9401424 C10.4454375,23.4854189 12.7224783,24.1034015 15.0666225,23.8847443 C17.4914127,23.6585752 19.74835,22.9054464 21.8190139,21.6684154 C23.268932,20.802245 24.5908979,19.7948592 25.5419631,18.2850177 C28.3834729,13.7740792 26.8322841,9.69918515 24.0459463,5.76011543 C22.3656729,3.38468472 19.8100241,2.50281302 17.034975,1.84194464 C13.3690319,0.968940794 10.1075863,1.94745308 7.9594737,4.57647326 C5.66108277,7.38945535 4.36204148,10.9783807 3.91699224,15.0443427 M10.0642167,29.0200797 C7.63760076,30.3200776 5.03837759,31.3234602 2.58230837,33.212449 C4.8361919,33.9905882 6.7898029,34.6650699 8.91407801,35.3984618 C9.28391602,33.1862549 10.5925845,31.3345878 10.0642167,29.0200797 Z" id="Shape"></path>
                        <path d="M29.2064033,35.6409886 C28.7270738,35.4193826 28.2169594,35.2467641 27.7735935,34.9679057 C25.534708,33.5597952 23.637205,33.7910653 22.0214456,35.9933715 C21.5855312,36.5875061 20.9676301,37.1351932 19.9740531,36.716755 C19.5492177,35.1040203 21.240691,34.1810496 21.3840272,32.7243388 C20.6302815,32.3775738 19.8538562,32.1085947 19.1720167,31.6866262 C18.0711796,31.0053431 18.0727555,30.0631087 19.2435679,29.6431852 C21.4002532,28.8697164 22.8729612,27.5961278 23.3241874,25.2632387 C23.4180821,24.7777761 23.6544367,24.1686394 24.2931271,24.1544767 C24.9392314,24.1401206 25.0821696,24.7313713 25.2916552,25.2229896 C25.4958668,25.7022535 25.7398692,26.1703895 26.018198,26.6106096 C26.3083101,27.0694693 26.6989671,27.5601835 26.2020157,28.0205282 C25.622418,28.5573674 25.2873068,27.9561944 24.9363782,27.5769075 C24.7835279,27.411693 24.5997772,27.2751049 24.0894583,26.8252852 C24.2440028,29.3697505 22.325966,29.7594337 20.6937899,30.5434485 C21.7541182,31.3441014 23.5887962,30.3867574 23.6729967,32.4714162 C24.7546202,31.985846 25.7015821,31.9910334 26.6977088,32.6397515 C26.9524835,31.6666311 27.2729152,30.8693791 27.9876769,30.0902067 C26.6306536,29.2959896 26.5056057,28.1321059 27.0765392,26.8879615 C27.492643,25.9811764 27.1746585,25.4718872 26.4195442,25.0105312 C25.7313878,24.590048 24.990308,24.1687255 25.0768347,22.8217847 C26.8314907,23.6640852 28.4161667,24.9178507 30.5856496,23.9976135 C30.2783623,26.1806132 31.7465444,26.6072952 33.0736735,27.1786149 C33.9898776,27.5730545 34.9053503,27.9733917 35.7977292,28.418132 C37.3334882,29.1834862 37.5858696,29.9144028 36.3517994,31.1070846 C34.2747541,33.1144526 33.0918141,35.8666411 30.7474573,37.6252187 C30.2754742,37.9792805 30.0590081,38.4255058 30.4375453,38.9910356 C30.7667702,39.4829124 30.8402146,39.9536744 30.248836,40.4620379 C29.1996808,40.2320161 28.1763435,39.2692701 26.8720798,40.1123886 C26.6228821,40.7081591 27.1466947,41.8840097 25.6401688,42.0942726 C24.5160282,39.9713237 24.5718726,37.5779316 24.4245937,35.2348187 C24.406187,34.9419916 24.7382462,34.7460846 25.077706,34.8100738 C25.4715147,34.8843517 25.6369874,35.1797616 25.7375891,35.5422819 C25.9496505,36.3065167 25.5028023,37.1969227 26.242793,37.9758581 C27.2671094,37.3484695 28.3946731,36.8932691 29.2694197,35.7021369 C31.0680988,34.1098281 32.7427222,32.6949377 34.344025,31.2013791 C34.7850297,30.7900649 35.2123901,30.1605026 34.4490444,29.5581458 C33.8480496,29.0839183 33.1787843,28.4567667 32.4470193,29.0393431 C31.7390957,29.6029577 30.9330635,29.9053629 30.1776076,30.3371242 C28.9288869,31.0507791 28.4097885,32.0537527 29.3926524,33.3212071 C30.0861623,34.2155302 29.8971841,34.9187031 29.2064033,35.6409886 M29.7865605,27.1378062 C29.3327529,26.9705472 28.8686487,26.4925101 28.4251567,27.1216207 C28.2534341,27.3652238 28.2095615,27.7409596 28.4589206,27.9152352 C29.226983,28.4520959 30.0173003,28.2461377 31.0749933,27.9340038 C30.5487068,27.5984955 30.2656214,27.4180208 29.7865605,27.1378062 Z" id="Shape"></path>
                        <path d="M18.9638599,21.8982005 C15.9537684,23.3520162 15.001735,22.9267117 13.8156327,19.9338689 C13.3525718,18.7654654 13.4255833,17.5066634 12.9605836,16.3583739 C12.7213222,15.7675213 12.6286347,15.1132822 12.0178918,14.7255795 C11.6086857,14.4658015 11.2446503,14.1096735 11.5383822,13.5689926 C11.7677664,13.1467339 12.2107693,13.163296 12.6292639,13.2093347 C15.7345006,13.5508697 18.8144998,13.0158924 21.905234,12.9000636 C23.3896583,12.8444253 23.7156833,13.3426838 23.6120003,14.7274845 C23.370953,17.9470666 21.6183138,20.1276233 18.9638599,21.8982005 M20.373006,19.2289634 C21.8040733,18.0547703 22.1877497,16.4885802 22.1565803,14.7373852 C20.8741305,14.2696365 19.6481677,14.4833324 18.4391517,14.5061796 C13.9556937,14.5908639 13.6057414,15.094331 14.9560662,19.4435635 C15.0077854,19.6101659 15.0826388,19.7701288 15.1536632,19.930102 C15.5976071,20.9299871 16.3628808,21.3570242 17.4204236,21.067996 C18.48666,20.7766214 19.5838448,20.4902406 20.373006,19.2289634 Z" id="Shape"></path>
                        <path d="M14.0874187,8.32984925 C13.806089,8.92881608 13.5461834,9.38085254 12.8133992,9.24714869 C12.4172078,8.61556291 12.3572547,7.9554587 13.0888371,7.53240369 C13.6639251,7.19985471 14.0705015,7.5062416 14.0874187,8.32984925 Z" id="Path"></path>
                        <path d="M16.9305149,6.92629094 C17.8087008,7.28043884 17.8399182,7.86078763 17.4375477,8.45388933 C17.2231495,8.76992977 16.7789067,8.71663725 16.5493959,8.42321838 C16.1144307,7.86713693 15.9738021,7.29478427 16.9305149,6.92629094 Z" id="Path"></path>
                    </g>
                    <g id="Group-3" transform="translate(0.000000, 5.755102)" fill="#000000">
                        <path d="M21.9679559,49.6257634 C24.9054553,53.9355058 24.8232769,59.6543701 21.8007431,63.7549201 C20.826748,65.0763124 19.7705311,66.3370302 18.7504178,67.625653 C20.0552543,70.1214214 22.395217,71.4964179 24.5946695,73.0254152 C28.3010244,75.6019828 28.3829208,76.7633265 25.0499183,79.8887866 C24.2372333,80.6508693 23.3623095,81.3461213 22.5302199,82.0880579 C22.0756728,82.4933455 21.6009845,82.989376 21.0673272,82.3003983 C20.5764344,81.6666279 20.8152143,81.0090525 21.4609879,80.6550555 C22.6738549,79.990173 23.5730801,78.9833683 24.5206524,78.0312438 C25.8605651,76.6849058 25.8041349,75.842691 24.3266213,74.7295062 C22.7974669,73.5774286 21.2426044,72.4595088 19.3848407,71.0960916 C19.6053647,73.4817352 19.804817,75.4977016 19.9747322,77.5161647 C20.1567241,79.6780931 20.3398214,81.8406563 20.4667328,84.0062218 C20.5471714,85.3788077 20.0800421,86.461074 18.552571,86.7046446 C17.9223594,86.8051381 17.6762514,87.0936496 17.6102853,87.7268174 C17.5318395,88.4797956 17.2913596,89.2143067 17.1595406,89.9635935 C16.9085763,91.3901066 16.57574,92.7369828 18.8706793,92.8329883 C19.8486167,92.8739045 21.4745409,93.3906622 21.2355294,94.7001631 C20.9949582,96.0181978 19.5658109,96.5593629 18.1512114,96.3805996 C14.2043848,95.8818354 14.736972,96.6156578 15.2641996,92.7842162 C15.4962489,91.0978712 15.6894732,89.4061886 15.9102795,87.7182401 C15.9570025,87.3610686 16.052153,86.9181793 15.704847,86.7527067 C14.3060968,86.0862853 12.8140596,86.4451466 11.3832288,86.5766659 C10.3418408,86.6723917 10.1099368,87.7117187 9.99856415,88.5947957 C9.72697055,90.748265 9.40835402,92.9001957 9.55942291,95.0867895 C9.66231949,96.5761299 9.18967725,97.4792235 7.43063661,97.2144201 C6.69715057,97.1039937 5.91621443,97.3571533 5.15802208,97.3484786 C4.53532112,97.3405263 3.9920867,97.0906921 3.97047713,96.3268017 C3.95156885,95.6584323 4.44846624,95.2476133 4.95610004,95.3030576 C7.91605178,95.6262655 8.16788096,93.8060875 8.1525167,91.565706 C8.14498067,90.467082 8.48533436,89.3674894 8.64770394,88.265314 C8.68962954,87.9807087 8.65400459,87.6846743 8.65400459,87.3278791 C7.80078971,87.0067377 6.9905906,87.1623311 6.22817115,87.3886832 C5.00427905,87.7520322 4.27841259,87.3836789 4.50920354,86.0963906 C4.88728215,83.9875823 3.78879851,83.0679371 2.08141252,82.2482896 C-0.50015256,81.0089879 -0.55108114,80.4245605 1.21744114,78.2254828 C2.35822575,76.8069654 3.46378194,75.3600912 4.60393177,73.9410572 C5.69648238,72.5812669 6.66668464,71.0981902 8.2665878,70.3628398 C8.21724707,69.4019984 7.5525747,69.1288221 7.01037969,68.8631896 C0.693645808,65.7685408 0.374429743,61.601666 1.58216982,54.6707271 C2.50644285,49.3665504 6.18294332,45.9892386 11.1183564,44.2477937 C14.0520992,43.2126314 16.7851607,44.4398695 19.108572,46.3603309 C20.1910344,47.2550627 21.1527218,48.3029991 21.9679559,49.6257634 M22.4676906,55.2183981 C22.213206,51.929736 20.3953483,49.5107365 17.9651778,47.5452373 C15.6308514,45.6572387 12.9858572,44.8920136 10.1507179,46.4683896 C8.82447909,47.2057956 7.45713097,47.9892832 6.38115603,49.03327 C3.78200159,51.5551356 2.57174456,54.6612781 2.78616427,58.3672055 C2.9014845,60.3603194 4.10311215,61.6229743 5.21091107,62.8054969 C5.05754447,63.6976678 4.13579931,63.6117888 3.99095317,64.4943922 C5.07648764,66.2693711 6.97507443,67.3052112 8.91238008,67.9673925 C11.5253039,68.8604884 14.3515262,69.4378348 16.7352941,67.2957731 C19.1082252,65.1634503 21.0837143,62.7124508 22.1659159,59.627003 C22.6438204,58.2644361 22.9670648,56.9312811 22.4676906,55.2183981 M12.6707125,71.4299965 C12.04842,71.7228776 11.8879569,71.2116944 11.5916263,70.8535003 C10.8536936,69.9614909 10.1418979,70.0683873 9.75075411,71.1282585 C8.83974642,73.5967674 7.86412291,76.0566884 7.19294159,78.5937927 C6.6339277,80.7068842 6.09190575,82.9089319 6.84753251,85.1908429 C7.15378601,85.2124203 7.44414549,85.2760974 7.72445835,85.2460186 C10.9820723,84.8965738 14.2405987,84.5900251 17.5234145,84.8118465 C18.5541846,84.8814857 18.6371535,84.1896558 18.6275697,83.4244307 C18.5959512,80.9006386 18.7101865,78.3642876 18.4922468,75.8567889 C18.2992699,73.6364783 18.252684,71.3062579 16.8268791,69.2561982 C15.5214592,70.1419765 13.8933649,70.0748551 12.6707125,71.4299965 M6.24389175,74.2667942 C4.69512548,76.1114765 2.92248466,77.8024489 1.95843113,80.2859814 C3.08325194,80.6304433 3.74997883,81.5462793 4.89309217,81.6532078 C5.70278162,78.8997709 6.48298358,76.2466012 7.2631859,73.5934314 C7.16182747,73.5541186 7.06047046,73.5147953 6.95911204,73.4754825 C6.77038519,73.684605 6.58165976,73.8937271 6.24389175,74.2667942 Z" id="Shape"></path>
                        <path d="M40.9388454,2.47382415 C42.4171495,2.52581966 43.5856008,2.11572703 44.7846216,1.54554523 C49.6057616,-0.747100521 54.4983616,-0.290057259 59.2820857,1.61516821 C61.3562052,2.441232 63.0353465,3.87059165 62.8107325,6.51144223 C62.7651688,7.04717558 63.0536214,7.38021685 63.4891083,7.6449854 C67.1532743,9.87275119 69.0336612,13.2015114 69.6672963,17.3886694 C70.2669088,21.3509901 68.091814,25.7752319 64.4770035,27.4928181 C63.7859781,27.8211647 63.3865036,28.2348733 63.1101785,28.9577183 C60.9427205,34.6275094 56.586771,37.209135 50.5628829,36.629507 C47.129204,36.2991106 43.9061989,35.3818005 40.8582052,33.7172589 C40.6559159,33.9503801 40.4424993,34.0976437 40.3677265,34.2969673 C38.6336364,38.9197636 33.5476642,39.4810804 29.3046779,37.5480442 C28.2119296,37.050211 27.3313638,36.7990477 26.2124835,37.4693488 C24.7476357,38.3469211 23.5354221,37.3299519 22.200616,36.5715928 C21.2692292,38.2301398 20.8441812,40.5823519 18.1558904,40.0631783 C17.2438757,39.8870351 16.3512871,39.5087652 16.480487,38.135528 C17.9226632,37.9809302 20.235485,39.3894928 20.1830532,36.3138379 C19.3316532,36.1123942 19.1534234,36.5926158 19.0813935,37.1530446 C19.0058087,37.7411152 18.8673527,38.255457 18.113134,37.971874 C17.5082237,37.74443 17.4370249,37.2076983 17.5370024,36.648496 C17.634974,36.1005133 18.0006332,35.7101415 18.3876841,35.3437037 C19.757177,34.0471226 22.1158343,34.0672901 23.5998741,35.403975 C24.2396346,35.980213 24.9377164,36.1127761 25.7049237,35.7411513 C26.4557813,35.3774528 26.3886534,34.7047787 26.2282118,34.0600744 C25.9921448,33.1115069 26.3622116,32.3302145 26.837677,31.5742176 C27.0638239,31.2146405 27.3785923,30.8965554 27.8516592,31.0949862 C28.3513911,31.3046034 28.2465384,31.7603476 28.1464153,32.1562506 C28.0079788,32.7036419 27.6512066,33.2127964 27.8712573,33.8287884 C28.3180974,33.7665317 28.3642881,33.3416951 28.5893135,33.0969245 C28.8983835,32.7607437 29.2335352,32.5384758 29.6600244,32.8035917 C30.085508,33.0680778 30.0052466,33.4883349 29.8949917,33.9069992 C29.314665,36.1105862 29.5634323,36.4790633 31.8923861,36.9053199 C35.5075191,37.5669687 37.531853,36.5055156 39.093481,33.1294359 C40.1060942,30.9402699 40.256651,30.9084204 42.0149642,32.399068 C45.7046228,35.5270788 55.8514832,36.9860278 59.7040574,32.1118048 C60.8702712,30.6363257 61.7944029,29.1349751 61.5827017,27.1669146 C61.4742616,26.1588129 61.7087556,25.4827115 62.9266212,25.8495795 C64.4417282,26.3059852 65.4416866,25.4100103 66.2574426,24.4239649 C70.5631008,19.2194745 67.9384284,10.5810089 61.467028,8.60048362 C60.3382839,8.25503961 59.8492895,7.85121553 60.8350766,6.81970976 C61.9391081,5.66447071 61.4476344,4.71248091 60.4345048,3.82770873 C58.8042457,2.4039991 56.7896627,2.0037374 54.7471289,1.73130631 C51.0745034,1.2414558 47.4812916,1.27335606 44.3207702,3.63575703 C43.7934404,4.02992228 43.2704829,4.21401537 42.5391641,4.11860692 C38.2006774,3.55260639 34.1784542,4.76309619 30.284027,6.51203396 C28.6447437,7.24821025 28.1847726,8.81186584 27.9329233,10.3958074 C27.7776583,11.3723206 27.8699345,12.3874712 27.8400533,13.3849429 C27.8156659,14.1990747 27.5758449,14.8277978 26.7056215,15.1677991 C24.3177717,16.1007354 23.1447704,18.0462391 23.3907466,20.6308192 C23.5922506,22.7480644 24.0307493,24.8025632 25.2350811,26.6217728 C25.4500358,26.9464762 25.5558945,27.3434827 25.7390912,27.7698526 C24.7298095,28.4416119 24.2058732,27.7703798 23.8518174,27.150051 C21.715026,23.4062746 21.2219091,19.5464059 23.2082545,15.5618244 C23.4483681,15.0801555 23.7357348,14.5716464 24.2412429,14.4004 C26.0661351,13.7822075 26.3406774,12.4358881 26.4112041,10.6996278 C26.5656168,6.89823023 28.6866584,4.90498696 33.3632117,3.75366257 C35.8074116,3.15192222 38.2739765,2.70059844 40.9388454,2.47382415 Z" id="Path"></path>
                        <path d="M44.5079145,22.6223888 C42.2190443,23.1848678 40.5835793,24.736029 38.7321484,25.9250303 C38.1398664,26.3053988 37.5931588,27.2166984 36.7721754,26.4773878 C36.0875123,25.8608418 36.4536205,25.0706385 36.7769026,24.3618857 C36.8012336,24.3085505 36.8224611,24.2538054 36.8451411,24.199717 C38.1705703,21.0387 38.1717588,21.0371237 35.460401,18.9980893 C34.9399445,18.6066898 34.2976131,18.2142518 34.4486859,17.4846695 C34.6210993,16.6520706 35.4153318,16.6175791 36.1229973,16.4837138 C37.3862981,16.2447437 38.6328029,15.9181082 39.8895531,15.6428659 C40.7937261,15.4448279 41.2197152,14.796723 41.5916373,14.0192352 C42.3226603,12.4910638 42.8676521,10.8453229 44.0759071,9.59236452 C45.1203972,8.50922117 45.6731228,8.65073003 46.1651502,10.0724758 C46.2413913,10.2927823 46.260559,10.5322742 46.3280713,10.7562694 C47.6181446,15.0365648 48.5140837,15.7634458 52.9767741,16.1359529 C53.7351663,16.1992538 54.6203116,16.120892 54.8768022,17.0460045 C55.1773612,18.1300249 54.2019436,18.3929128 53.5182917,18.7999815 C53.21656,18.9796381 52.8937082,19.1235068 52.5828875,19.2882261 C49.5940478,20.8721783 49.5907297,20.8736203 50.6415173,24.0242844 C50.8100317,24.5295647 51.071185,25.0665976 50.6724795,25.5213405 C50.1525228,26.114383 49.5774239,25.6445089 49.0714724,25.4255936 C47.4542985,24.7258913 45.8660753,23.9670264 44.5079145,22.6223888 M38.875751,23.5374334 C40.4255472,22.9313048 41.7773833,21.9680742 43.2038094,21.138989 C44.4119463,20.4367791 45.4892536,20.3204178 46.3560595,21.7132146 C46.8147744,22.4503084 47.4681743,23.0164518 48.4606139,23.0786386 C47.6143799,20.3805385 47.6220276,20.3935922 50.1146819,18.9322057 C50.6424153,18.6228108 51.3292943,18.4847053 51.7967652,17.3820023 C46.7524683,18.359858 46.0270925,14.5018298 44.741295,11.0742173 C43.7296173,12.5580208 42.7118947,13.8001312 42.8747729,15.3914984 C43.0009233,16.6241009 42.5255142,16.9448117 41.4787656,17.0814481 C40.1735312,17.2518337 38.8081153,17.2345557 37.5904213,17.9603767 C37.8620029,18.9057911 38.5213294,19.4294363 39.2354271,19.7789886 C40.422062,20.3598596 40.3841351,21.0987615 39.7537702,22.0415124 C39.4606114,22.4799461 39.1912993,22.9343449 38.875751,23.5374334 Z" id="Shape"></path>
                        <path d="M22.564202,32.4272909 C22.1883241,32.950624 22.1295945,33.8691503 21.328588,33.4618555 C20.5266538,33.0540927 20.9476438,32.3749833 21.2765918,31.8104758 C22.0025862,30.5645823 22.9271077,29.5410914 24.3931493,29.1844633 C24.8295667,29.0782986 25.3860273,28.8915766 25.632794,29.4445157 C25.9214194,30.0912484 25.4262671,30.4643691 24.9096934,30.6011723 C23.8940335,30.8701355 23.1044475,31.3753566 22.564202,32.4272909 Z" id="Path"></path>
                        <path d="M17.1620847,59.9130073 C18.013834,59.915504 18.9175418,59.7546376 18.959669,60.7353771 C19.0061178,61.8167502 18.0601157,61.7710991 17.2996179,61.7738864 C14.2078968,61.7852291 11.1093438,61.67759 8.0741125,62.464597 C7.80038896,62.5355706 7.4923527,62.4929003 7.20181557,62.4760367 C6.6630599,62.444774 6.06727098,62.3842498 6.0239729,61.7037521 C5.98232963,61.049276 6.55181346,60.8103973 7.07009625,60.7293509 C8.33627028,60.5313454 9.61050481,60.3600613 10.887958,60.2647981 C12.9221314,60.1131223 14.9615589,60.0320109 17.1620847,59.9130073 Z" id="Path"></path>
                        <g id="Group-2" transform="translate(10.466717, 54.535102)">
                            <path d="M5.70949596,0.0567336765 C6.65422565,0.206612826 7.11071446,0.612007926 6.6005408,1.47259281 C6.388318,1.83058766 5.98526696,2.08709418 5.58360358,1.74027523 C4.97240634,1.21252426 4.74725445,0.624243866 5.70949596,0.0567336765 Z" id="Path"></path>
                            <path d="M0.742365046,1.78193942 C0.054798024,1.33771571 -0.315618372,0.836185725 0.349037786,0.239220839 C0.722089555,-0.0958410609 1.29145531,-0.104730084 1.53047207,0.378063381 C1.85205458,1.02759435 1.67232684,1.60354712 0.742365046,1.78193942 Z" id="Path"></path>
                        </g>
                    </g>
                    <g id="FluxodeValor">
                        <use fill="#000000" xlink:href="#path-1"></use>
                        <use fill="#0E0E0E" xlink:href="#path-1"></use>
                    </g>
                    <g id="Feedback">
                        <use fill="#000000" xlink:href="#path-2"></use>
                        <use fill="#0E0E0E" xlink:href="#path-2"></use>
                    </g>
                    <path d="M253.65506,21.5913142 C254.476181,21.6425886 255.167509,22.4171523 256.135005,22.0381799 C256.579742,20.9974087 255.846236,20.2333321 255.450213,19.4466133 C254.599625,17.756812 254.55262,16.5799029 256.83243,16.1682954 C258.075608,15.9438434 259.141095,15.2523699 259.613903,14.139717 C258.383938,12.4045712 255.81992,14.0628818 255.097762,12.011691 C254.531164,10.4023532 255.504208,8.50527121 254.472482,6.57816296 C253.163663,8.07164071 252.276713,9.50970249 251.674834,11.1050918 C251.13532,12.535246 250.274843,12.9956896 248.712959,12.8080517 C246.919155,12.5925519 245.011482,12.2112013 243.274603,13.3280061 C243.572447,14.6782127 244.472688,15.4975111 245.30536,16.322916 C246.669522,17.6751944 246.694286,18.7878961 245.250378,20.2068771 C243.898457,21.5354769 242.503136,22.926206 241.502836,25.1154407 C245.538723,23.3197312 248.372593,18.82088 253.65506,21.5913142 Z" id="Path" fill="#FCE35C"></path>
                    <polygon id="Star" fill="#FCE35C" points="313.495575 79.1326531 311.805042 80.0218652 312.127905 78.1384836 310.760236 76.8046654 312.650309 76.5298837 313.495575 74.8163265 314.340842 76.5298837 316.230915 76.8046654 314.863245 78.1384836 315.186108 80.0218652"></polygon>
                </g>
            </g>
        </g>
    </g>
</svg>